# Blender v2.75 (sub 0) OBJ File: 'body_dive.blend'
# www.blender.org
v -3.875000 -2.525000 0.375000
v -3.875000 -2.525000 -0.375000
v -3.875000 -2.925000 -0.375000
v -3.375000 -2.925000 0.375000
v -3.875000 -2.925000 0.375000
v -3.375000 -2.525000 0.375000
v -3.375000 -2.525000 -0.375000
v -3.375000 -2.925000 -0.375000
v -3.875000 -2.025000 0.375000
v -3.875000 -0.875000 0.375000
v -3.875000 -0.875000 -0.375000
v -3.375000 -0.875000 0.375000
v -3.375000 -0.875000 -0.375000
v -3.375000 -2.025000 -0.375000
v -3.375000 -2.025000 0.375000
v 3.375000 -2.525000 0.375000
v 3.375000 -2.525000 -0.375000
v 3.375000 -2.925000 -0.375000
v 3.875000 -2.925000 -0.375000
v 3.875000 -2.925000 0.375000
v 3.875000 -2.525000 0.375000
v 3.375000 -2.925000 0.375000
v 3.875000 -2.525000 -0.375000
v 3.875000 -2.025000 0.375000
v 3.875000 -2.025000 -0.375000
v 3.875000 -0.875000 -0.375000
v 3.875000 -0.875000 0.375000
v 3.375000 -0.875000 -0.375000
v 3.375000 -0.875000 0.375000
v 3.375000 -2.025000 0.375000
v 3.375000 -2.025000 -0.375000
v -3.875000 -3.425000 0.374999
v -3.875000 -3.425000 -0.375001
v -3.875000 -3.625000 -0.375001
v -3.875000 -3.625000 0.374999
v -3.375000 -3.625000 -0.375001
v -3.375000 -3.425000 0.374999
v -3.375000 -3.425000 -0.375001
v -3.375000 -3.625000 0.374999
v 3.375000 -3.425000 0.374999
v 3.375000 -3.425000 -0.375001
v 3.375000 -3.625000 -0.375001
v 3.375000 -3.625000 0.374999
v 3.875000 -3.625000 -0.375001
v 3.875000 -3.425000 0.374999
v 3.875000 -3.425000 -0.375001
v 3.875000 -3.625000 0.374999
v -3.875000 -2.025000 -0.375000
vn -1.000000 0.000000 0.000000
vn 0.000000 -1.000000 0.000000
vn 0.000000 -0.000000 1.000000
vn 0.000000 0.000000 -1.000000
vn 1.000000 -0.000000 0.000000
vn 0.000000 1.000000 0.000000
s 1
f 1//1 2//1 3//1
f 4//2 5//2 3//2
f 6//3 1//3 5//3
f 2//4 7//4 8//4
f 4//5 8//5 7//5
f 1//6 6//6 7//6
f 9//1 10//1 11//1
f 12//3 10//3 9//3
f 12//6 13//6 11//6
f 11//4 13//4 14//4
f 15//5 14//5 13//5
f 14//2 15//2 9//2
f 16//1 17//1 18//1
f 18//2 19//2 20//2
f 21//3 16//3 22//3
f 17//4 23//4 19//4
f 20//5 19//5 23//5
f 17//6 16//6 21//6
f 24//5 25//5 26//5
f 27//6 26//6 28//6
f 27//3 29//3 30//3
f 28//4 26//4 25//4
f 30//1 29//1 28//1
f 30//2 31//2 25//2
f 32//1 33//1 34//1
f 35//2 34//2 36//2
f 37//3 32//3 35//3
f 38//6 33//6 32//6
f 33//4 38//4 36//4
f 39//5 36//5 38//5
f 40//1 41//1 42//1
f 43//2 42//2 44//2
f 45//3 40//3 43//3
f 46//6 41//6 40//6
f 41//4 46//4 44//4
f 47//5 44//5 46//5
f 5//1 1//1 3//1
f 8//2 4//2 3//2
f 4//3 6//3 5//3
f 3//4 2//4 8//4
f 6//5 4//5 7//5
f 2//6 1//6 7//6
f 48//1 9//1 11//1
f 15//3 12//3 9//3
f 10//6 12//6 11//6
f 48//4 11//4 14//4
f 12//5 15//5 13//5
f 48//2 14//2 9//2
f 22//1 16//1 18//1
f 22//2 18//2 20//2
f 20//3 21//3 22//3
f 18//4 17//4 19//4
f 21//5 20//5 23//5
f 23//6 17//6 21//6
f 27//5 24//5 26//5
f 29//6 27//6 28//6
f 24//3 27//3 30//3
f 31//4 28//4 25//4
f 31//1 30//1 28//1
f 24//2 30//2 25//2
f 35//1 32//1 34//1
f 39//2 35//2 36//2
f 39//3 37//3 35//3
f 37//6 38//6 32//6
f 34//4 33//4 36//4
f 37//5 39//5 38//5
f 43//1 40//1 42//1
f 47//2 43//2 44//2
f 47//3 45//3 43//3
f 45//6 46//6 40//6
f 42//4 41//4 44//4
f 45//5 47//5 46//5
v -3.875000 -0.375000 7.625000
v -3.875000 0.375000 7.625000
v -3.875000 -0.375000 4.875000
v -3.875000 0.375000 4.875000
v -3.375000 -0.375000 7.625000
v -3.375000 0.375000 7.625000
v -3.375000 -0.375000 4.875000
v -3.375000 0.375000 4.875000
vn -1.000000 0.000000 0.000000
vn 0.000000 0.000000 -1.000000
vn 1.000000 0.000000 0.000000
vn 0.000000 0.000000 1.000000
vn 0.000000 -1.000000 0.000000
vn 0.000000 1.000000 0.000000
s off
f 52//7 51//7 49//7
f 56//8 55//8 51//8
f 54//9 53//9 55//9
f 50//10 49//10 53//10
f 51//11 55//11 53//11
f 56//12 52//12 50//12
f 50//7 52//7 49//7
f 52//8 56//8 51//8
f 56//9 54//9 55//9
f 54//10 50//10 53//10
f 49//11 51//11 53//11
f 54//12 56//12 50//12
v 3.375000 -0.375000 3.625000
v 3.375000 0.375000 3.625000
v 3.375000 -0.375000 0.875000
v 3.375000 0.375000 0.875000
v 3.875000 -0.375000 3.625000
v 3.875000 0.375000 3.625000
v 3.875000 -0.375000 0.875000
v 3.875000 0.375000 0.875000
vn -1.000000 0.000000 0.000000
vn 0.000000 0.000000 -1.000000
vn 1.000000 0.000000 0.000000
vn 0.000000 0.000000 1.000000
vn 0.000000 -1.000000 0.000000
vn 0.000000 1.000000 0.000000
s off
f 60//13 59//13 57//13
f 64//14 63//14 59//14
f 62//15 61//15 63//15
f 58//16 57//16 61//16
f 59//17 63//17 61//17
f 64//18 60//18 58//18
f 58//13 60//13 57//13
f 60//14 64//14 59//14
f 64//15 62//15 63//15
f 62//16 58//16 61//16
f 57//17 59//17 61//17
f 62//18 64//18 58//18
v 3.375000 -0.375000 7.625000
v 3.375000 0.375000 7.625000
v 3.375000 -0.375000 4.875000
v 3.375000 0.375000 4.875000
v 3.875000 -0.375000 7.625000
v 3.875000 0.375000 7.625000
v 3.875000 -0.375000 4.875000
v 3.875000 0.375000 4.875000
vn -1.000000 0.000000 0.000000
vn 0.000000 0.000000 -1.000000
vn 1.000000 0.000000 0.000000
vn 0.000000 0.000000 1.000000
vn 0.000000 -1.000000 0.000000
vn 0.000000 1.000000 0.000000
s off
f 68//19 67//19 65//19
f 72//20 71//20 67//20
f 70//21 69//21 71//21
f 66//22 65//22 69//22
f 67//23 71//23 69//23
f 72//24 68//24 66//24
f 66//19 68//19 65//19
f 68//20 72//20 67//20
f 72//21 70//21 71//21
f 70//22 66//22 69//22
f 65//23 67//23 69//23
f 70//24 72//24 66//24
v -3.875000 -0.375000 3.625000
v -3.875000 0.375000 3.625000
v -3.875000 -0.375000 0.875000
v -3.875000 0.375000 0.875000
v -3.375000 -0.375000 3.625000
v -3.375000 0.375000 3.625000
v -3.375000 -0.375000 0.875000
v -3.375000 0.375000 0.875000
vn -1.000000 0.000000 0.000000
vn 0.000000 0.000000 -1.000000
vn 1.000000 0.000000 0.000000
vn 0.000000 0.000000 1.000000
vn 0.000000 -1.000000 0.000000
vn 0.000000 1.000000 0.000000
s off
f 76//25 75//25 73//25
f 80//26 79//26 75//26
f 78//27 77//27 79//27
f 74//28 73//28 77//28
f 75//29 79//29 77//29
f 80//30 76//30 74//30
f 74//25 76//25 73//25
f 76//26 80//26 75//26
f 80//27 78//27 79//27
f 78//28 74//28 77//28
f 73//29 75//29 77//29
f 78//30 80//30 74//30
