# Blender v2.75 (sub 0) OBJ File: 'body_d2r_dig.blend'
# www.blender.org
v -0.601199 1.125000 -5.029090
v -0.601199 -1.124999 -5.029090
v -3.407122 -1.125000 -3.660550
v -0.592877 1.125000 -5.589450
v -0.592877 -1.124999 -5.589450
v -3.398802 1.124999 -4.220911
v -3.398802 -1.125000 -4.220911
v -3.407122 1.124999 -3.660550
vn 0.438400 0.000000 0.898800
vn 0.999900 0.000000 0.014800
vn -0.438400 0.000000 -0.898800
vn -0.999900 0.000000 -0.014800
vn 0.000000 -1.000000 0.000000
vn -0.000000 1.000000 0.000000
s off
f 1//1 3//1 2//1
f 4//2 2//2 5//2
f 6//3 5//3 7//3
f 8//4 7//4 3//4
f 2//5 7//5 5//5
f 6//6 1//6 4//6
f 8//1 3//1 1//1
f 1//2 2//2 4//2
f 4//3 5//3 6//3
f 6//4 7//4 8//4
f 3//5 7//5 2//5
f 8//6 1//6 6//6
v 0.375000 1.125000 -5.750000
v 0.375000 -1.124996 -5.750000
v 3.125000 -1.125000 -5.750000
v 0.375000 1.125000 -5.250000
v 0.375000 -1.124996 -5.250000
v 3.125000 1.124996 -5.250000
v 3.125000 -1.125000 -5.250000
v 3.125000 1.124996 -5.750000
vn -0.000000 0.000000 -1.000000
vn -1.000000 0.000000 0.000000
vn 0.000000 0.000000 1.000000
vn 1.000000 0.000000 0.000000
vn -0.000000 -1.000000 0.000000
vn 0.000000 1.000000 0.000000
s 1
f 9//7 11//7 10//7
f 12//8 10//8 13//8
f 14//9 13//9 15//9
f 16//10 15//10 11//10
f 10//11 15//11 13//11
f 12//12 16//12 9//12
f 16//7 11//7 9//7
f 9//8 10//8 12//8
f 12//9 13//9 14//9
f 14//10 15//10 16//10
f 11//11 15//11 10//11
f 14//12 16//12 12//12
v 3.375000 -0.750000 7.625000
v 3.375000 0.750000 7.625000
v 3.375000 -0.750000 4.875000
v 3.375000 0.750000 4.875000
v 3.875000 -0.750000 7.625000
v 3.875000 0.750000 7.625000
v 3.875000 -0.750000 4.875000
v 3.875000 0.750000 4.875000
vn -1.000000 0.000000 0.000000
vn 0.000000 0.000000 -1.000000
vn 1.000000 0.000000 0.000000
vn 0.000000 0.000000 1.000000
vn 0.000000 -1.000000 0.000000
vn 0.000000 1.000000 0.000000
s off
f 20//13 19//13 17//13
f 24//14 23//14 19//14
f 22//15 21//15 23//15
f 18//16 17//16 21//16
f 19//17 23//17 21//17
f 24//18 20//18 18//18
f 18//13 20//13 17//13
f 20//14 24//14 19//14
f 24//15 22//15 23//15
f 22//16 18//16 21//16
f 17//17 19//17 21//17
f 22//18 24//18 18//18
v 4.375000 -0.750000 3.375001
v 4.375000 0.750000 3.375001
v 7.125000 -0.750000 3.375001
v 7.125000 0.750000 3.375001
v 4.375000 -0.750000 3.875001
v 4.375000 0.750000 3.875001
v 7.125000 -0.750000 3.875001
v 7.125000 0.750000 3.875001
vn 0.000000 0.000000 -1.000000
vn 1.000000 0.000000 0.000000
vn 0.000000 0.000000 1.000000
vn -1.000000 0.000000 0.000000
vn 0.000000 -1.000000 0.000000
vn 0.000000 1.000000 0.000000
s off
f 28//19 27//19 25//19
f 32//20 31//20 27//20
f 30//21 29//21 31//21
f 26//22 25//22 29//22
f 27//23 31//23 29//23
f 32//24 28//24 26//24
f 26//19 28//19 25//19
f 28//20 32//20 27//20
f 32//21 30//21 31//21
f 30//22 26//22 29//22
f 25//23 27//23 29//23
f 30//24 32//24 26//24
v -5.029090 0.749998 4.851199
v -5.029090 -0.750001 4.851199
v -3.660550 -0.750002 7.657122
v -5.589450 0.749998 4.842878
v -5.589450 -0.750001 4.842878
v -4.220910 0.749997 7.648802
v -4.220910 -0.750002 7.648802
v -3.660550 0.749997 7.657122
vn 0.898800 0.000000 -0.438400
vn 0.014800 0.000000 -0.999900
vn -0.898800 0.000000 0.438400
vn -0.014800 0.000000 0.999900
vn -0.000000 -1.000000 -0.000000
vn 0.000000 1.000000 0.000000
vn 0.014900 0.000000 -0.999900
s off
f 33//25 35//25 34//25
f 36//26 34//26 37//26
f 38//27 37//27 39//27
f 40//28 39//28 35//28
f 34//29 39//29 37//29
f 38//30 33//30 36//30
f 40//25 35//25 33//25
f 33//31 34//31 36//31
f 36//27 37//27 38//27
f 38//28 39//28 40//28
f 35//29 39//29 34//29
f 40//30 33//30 38//30
v -5.750000 1.125000 0.875000
v -5.750000 -1.124996 0.875000
v -5.750000 -1.125000 3.625000
v -5.250000 1.125000 0.875000
v -5.250000 -1.124996 0.875000
v -5.250000 1.124996 3.625000
v -5.250000 -1.125000 3.625000
v -5.750000 1.124996 3.625000
vn -1.000000 -0.000000 0.000000
vn 0.000000 0.000000 -1.000000
vn 1.000000 0.000000 0.000000
vn 0.000000 0.000000 1.000000
vn 0.000000 -1.000000 -0.000000
vn 0.000000 1.000000 0.000000
s 1
f 41//32 42//32 43//32
f 44//33 45//33 42//33
f 46//34 47//34 45//34
f 48//35 43//35 47//35
f 42//36 45//36 47//36
f 44//37 41//37 48//37
f 48//32 41//32 43//32
f 41//33 44//33 42//33
f 44//34 46//34 45//34
f 46//35 48//35 47//35
f 43//36 42//36 47//36
f 46//37 44//37 48//37
v -5.154089 1.124999 -0.351200
v -5.154089 -1.125000 -0.351200
v -3.785551 -1.124999 -3.157122
v -5.714449 1.124999 -0.342878
v -5.714449 -1.125000 -0.342878
v -4.345911 1.125000 -3.148800
v -4.345911 -1.124999 -3.148800
v -3.785551 1.125000 -3.157122
vn 0.898800 -0.000000 0.438400
vn 0.014800 -0.000000 0.999900
vn -0.898800 0.000000 -0.438400
vn -0.014900 0.000000 -0.999900
vn -0.000000 -1.000000 -0.000000
vn 0.000000 1.000000 0.000000
vn -0.014800 0.000000 -0.999900
s off
f 49//38 50//38 51//38
f 52//39 53//39 50//39
f 54//40 55//40 53//40
f 56//41 51//41 55//41
f 50//42 53//42 55//42
f 54//43 52//43 49//43
f 56//38 49//38 51//38
f 49//39 52//39 50//39
f 52//40 54//40 53//40
f 54//44 56//44 55//44
f 51//42 50//42 55//42
f 56//43 54//43 49//43
v 4.351199 0.750000 -5.029090
v 4.351199 -0.749999 -5.029090
v 7.157122 -0.750000 -3.660550
v 4.342877 0.750000 -5.589450
v 4.342877 -0.749999 -5.589450
v 7.148802 0.749999 -4.220911
v 7.148802 -0.750000 -4.220911
v 7.157122 0.749999 -3.660550
vn -0.438400 0.000000 0.898800
vn -0.999900 0.000000 0.014800
vn 0.438400 0.000000 -0.898800
vn 0.999900 0.000000 -0.014800
vn -0.000000 -1.000000 0.000000
vn 0.000000 1.000000 0.000000
s off
f 57//45 58//45 59//45
f 60//46 61//46 58//46
f 62//47 63//47 61//47
f 64//48 59//48 63//48
f 58//49 61//49 63//49
f 62//50 60//50 57//50
f 64//45 57//45 59//45
f 57//46 60//46 58//46
f 60//47 62//47 61//47
f 62//48 64//48 63//48
f 59//49 58//49 63//49
f 64//50 62//50 57//50
