# Blender v2.75 (sub 0) OBJ File: 'body_d2u_dig.blend'
# www.blender.org
v -5.750000 1.125000 -3.125000
v -5.750000 -1.124999 -3.125000
v -5.750000 -1.125000 -0.375000
v -5.250000 1.125000 -3.125000
v -5.250000 -1.124999 -3.125000
v -5.250000 1.124999 -0.375000
v -5.250000 -1.125000 -0.375000
v -5.750000 1.124999 -0.375000
vn -1.000000 0.000000 0.000000
vn 0.000000 0.000000 -1.000000
vn 1.000000 -0.000000 0.000000
vn 0.000000 -0.000000 1.000000
vn 0.000000 -1.000000 -0.000000
vn 0.000000 1.000000 0.000000
s 1
f 1//1 2//1 3//1
f 4//2 5//2 2//2
f 6//3 7//3 5//3
f 8//4 3//4 7//4
f 2//5 5//5 7//5
f 4//6 1//6 8//6
f 8//1 1//1 3//1
f 1//2 4//2 2//2
f 4//3 6//3 5//3
f 6//4 8//4 7//4
f 3//5 2//5 7//5
f 6//6 4//6 8//6
v 5.250000 1.125000 0.875000
v 5.250000 -1.124999 0.875000
v 5.250000 -1.125000 3.625000
v 5.750000 1.125000 0.875000
v 5.750000 -1.124999 0.875000
v 5.750000 1.124999 3.625000
v 5.750000 -1.125000 3.625000
v 5.250000 1.124999 3.625000
vn -1.000000 0.000000 0.000000
vn 0.000000 0.000000 -1.000000
vn 1.000000 -0.000000 0.000000
vn 0.000000 0.000000 1.000000
vn 0.000000 -1.000000 -0.000000
vn 0.000000 1.000000 0.000000
s 1
f 9//7 10//7 11//7
f 12//8 13//8 10//8
f 14//9 15//9 13//9
f 16//10 11//10 15//10
f 10//11 13//11 15//11
f 12//12 9//12 16//12
f 16//7 9//7 11//7
f 9//8 12//8 10//8
f 12//9 14//9 13//9
f 14//10 16//10 15//10
f 11//11 10//11 15//11
f 14//12 12//12 16//12
v 5.250000 1.125000 -3.125000
v 5.250000 -1.124999 -3.125000
v 5.250000 -1.125000 -0.375000
v 5.750000 1.125000 -3.125000
v 5.750000 -1.124999 -3.125000
v 5.750000 1.124999 -0.375000
v 5.750000 -1.125000 -0.375000
v 5.250000 1.124999 -0.375000
vn -1.000000 -0.000000 0.000000
vn 0.000000 0.000000 -1.000000
vn 1.000000 0.000000 0.000000
vn 0.000000 -0.000000 1.000000
vn 0.000000 -1.000000 -0.000000
vn 0.000000 1.000000 0.000000
s 1
f 17//13 18//13 19//13
f 20//14 21//14 18//14
f 22//15 23//15 21//15
f 24//16 19//16 23//16
f 18//17 21//17 23//17
f 20//18 17//18 24//18
f 24//13 17//13 19//13
f 17//14 20//14 18//14
f 20//15 22//15 21//15
f 22//16 24//16 23//16
f 19//17 18//17 23//17
f 22//18 20//18 24//18
v -5.750000 1.125000 0.875000
v -5.750000 -1.124999 0.875000
v -5.750000 -1.125000 3.625000
v -5.250000 1.125000 0.875000
v -5.250000 -1.124999 0.875000
v -5.250000 1.124999 3.625000
v -5.250000 -1.125000 3.625000
v -5.750000 1.124999 3.625000
vn -1.000000 -0.000000 0.000000
vn 0.000000 0.000000 -1.000000
vn 1.000000 0.000000 0.000000
vn 0.000000 0.000000 1.000000
vn 0.000000 -1.000000 -0.000000
vn 0.000000 1.000000 0.000000
s 1
f 25//19 26//19 27//19
f 28//20 29//20 26//20
f 30//21 31//21 29//21
f 32//22 27//22 31//22
f 26//23 29//23 31//23
f 28//24 25//24 32//24
f 32//19 25//19 27//19
f 25//20 28//20 26//20
f 28//21 30//21 29//21
f 30//22 32//22 31//22
f 27//23 26//23 31//23
f 30//24 28//24 32//24
v -3.660551 -0.750000 -7.157122
v -3.660551 0.750000 -7.157122
v -5.029090 -0.750000 -4.351200
v -5.029090 0.750000 -4.351200
v -4.220911 -0.750000 -7.148800
v -4.220911 0.750000 -7.148800
v -5.589450 -0.750000 -4.342878
v -5.589450 0.750000 -4.342878
vn 0.898800 0.000000 0.438400
vn 0.014900 0.000000 0.999900
vn -0.898800 0.000000 -0.438400
vn -0.014900 0.000000 -0.999900
vn 0.000000 -1.000000 0.000000
vn 0.000000 1.000000 0.000000
vn 0.014800 0.000000 0.999900
vn -0.014800 0.000000 -0.999900
s off
f 36//25 35//25 33//25
f 40//26 39//26 35//26
f 38//27 37//27 39//27
f 34//28 33//28 37//28
f 35//29 39//29 37//29
f 38//30 40//30 36//30
f 34//25 36//25 33//25
f 36//31 40//31 35//31
f 40//27 38//27 39//27
f 38//32 34//32 37//32
f 33//29 35//29 37//29
f 34//30 38//30 36//30
v 3.660550 -0.750000 -7.157122
v 3.660550 0.750000 -7.157122
v 5.029089 -0.750000 -4.351199
v 5.029089 0.750000 -4.351199
v 4.220910 -0.750000 -7.148802
v 4.220910 0.750000 -7.148802
v 5.589449 -0.750000 -4.342878
v 5.589449 0.750000 -4.342878
vn -0.898800 0.000000 0.438400
vn -0.014800 0.000000 0.999900
vn 0.898800 0.000000 -0.438400
vn 0.014800 0.000000 -0.999900
vn 0.000000 -1.000000 0.000000
vn 0.000000 1.000000 0.000000
s off
f 41//33 43//33 44//33
f 43//34 47//34 48//34
f 47//35 45//35 46//35
f 45//36 41//36 42//36
f 45//37 47//37 43//37
f 46//38 42//38 44//38
f 42//33 41//33 44//33
f 44//34 43//34 48//34
f 48//35 47//35 46//35
f 46//36 45//36 42//36
f 41//37 45//37 43//37
f 48//38 46//38 44//38
v -3.660550 -0.750000 7.657122
v -3.660550 0.750000 7.657122
v -5.029090 -0.750000 4.851199
v -5.029090 0.750000 4.851199
v -4.220910 -0.750000 7.648802
v -4.220910 0.750000 7.648802
v -5.589450 -0.750000 4.842878
v -5.589450 0.750000 4.842878
vn 0.898800 0.000000 -0.438400
vn 0.014800 0.000000 -0.999900
vn -0.898800 0.000000 0.438400
vn -0.014800 0.000000 0.999900
vn 0.000000 -1.000000 0.000000
vn 0.000000 1.000000 0.000000
s off
f 49//39 51//39 52//39
f 51//40 55//40 56//40
f 55//41 53//41 54//41
f 53//42 49//42 50//42
f 53//43 55//43 51//43
f 54//44 50//44 52//44
f 50//39 49//39 52//39
f 52//40 51//40 56//40
f 56//41 55//41 54//41
f 54//42 53//42 50//42
f 49//43 53//43 51//43
f 56//44 54//44 52//44
v 3.660550 -0.750000 7.657122
v 3.660550 0.750000 7.657122
v 5.029090 -0.750000 4.851200
v 5.029090 0.750000 4.851200
v 4.220910 -0.750000 7.648801
v 4.220910 0.750000 7.648801
v 5.589450 -0.750000 4.842878
v 5.589450 0.750000 4.842878
vn -0.898800 0.000000 -0.438400
vn -0.014900 0.000000 -0.999900
vn 0.898800 0.000000 0.438400
vn 0.014800 0.000000 0.999900
vn 0.000000 -1.000000 0.000000
vn 0.000000 1.000000 0.000000
vn -0.014800 0.000000 -0.999900
s off
f 60//45 59//45 57//45
f 64//46 63//46 59//46
f 62//47 61//47 63//47
f 58//48 57//48 61//48
f 59//49 63//49 61//49
f 62//50 64//50 60//50
f 58//45 60//45 57//45
f 60//51 64//51 59//51
f 64//47 62//47 63//47
f 62//48 58//48 61//48
f 57//49 59//49 61//49
f 58//50 62//50 60//50
