# Blender v2.75 (sub 0) OBJ File: 'body_d2l_dig.blend'
# www.blender.org
v 0.601199 0.375001 -5.029090
v 3.407122 -0.374999 -3.660550
v 0.601199 -0.374999 -5.029090
v 0.592877 0.375001 -5.589450
v 0.592877 -0.374999 -5.589450
v 3.398802 0.375001 -4.220911
v 3.398802 -0.374999 -4.220911
v 3.407122 0.375001 -3.660550
v -0.375000 0.375002 -5.750000
v -3.125000 -0.375000 -5.750000
v -0.375000 -0.374998 -5.750000
v -0.375000 0.375002 -5.250000
v -0.375000 -0.374998 -5.250000
v -3.125000 0.375000 -5.250000
v -3.125000 -0.375000 -5.250000
v -3.125000 0.375000 -5.750000
v -3.375000 0.374999 4.875000
v -3.375000 -0.375001 4.875000
v -3.375000 -0.375001 7.625000
v -3.875000 0.374999 4.875000
v -3.875000 -0.375001 4.875000
v -3.875000 0.374999 7.625000
v -3.875000 -0.375001 7.625000
v -3.375000 0.374999 7.625000
v -7.125000 0.374999 3.375001
v -7.125000 -0.375001 3.375001
v -4.375000 -0.375001 3.375001
v -7.125000 0.374999 3.875001
v -7.125000 -0.375001 3.875001
v -4.375000 0.374999 3.875001
v -4.375000 -0.375001 3.875001
v -4.375000 0.374999 3.375001
v 5.029090 0.374998 4.851199
v 3.660550 -0.375002 7.657122
v 5.029090 -0.375002 4.851199
v 5.589450 0.374998 4.842878
v 5.589450 -0.375002 4.842878
v 4.220910 0.374998 7.648802
v 4.220910 -0.375002 7.648802
v 3.660550 0.374998 7.657122
v 5.750000 0.375001 0.875000
v 5.750000 -0.374999 0.875000
v 5.750000 -0.375002 3.625000
v 5.250000 0.375001 0.875000
v 5.250000 -0.374999 0.875000
v 5.250000 0.374998 3.625000
v 5.250000 -0.375002 3.625000
v 5.750000 0.374998 3.625000
v 5.154089 0.375000 -0.351200
v 5.154089 -0.375000 -0.351200
v 3.785551 -0.374999 -3.157122
v 5.714449 0.375000 -0.342878
v 5.714449 -0.375000 -0.342878
v 4.345911 0.375001 -3.148800
v 4.345911 -0.374999 -3.148800
v 3.785551 0.375001 -3.157122
v -4.351199 0.375001 -5.029090
v -4.351199 -0.374999 -5.029090
v -7.157122 -0.374999 -3.660550
v -4.342877 0.375001 -5.589450
v -4.342877 -0.374999 -5.589450
v -7.148802 0.375001 -4.220911
v -7.148802 -0.374999 -4.220911
v -7.157122 0.375001 -3.660550
vn -0.438400 0.000000 0.898800
vn -0.999900 0.000000 0.014800
vn 0.438400 0.000000 -0.898800
vn 0.999900 0.000000 -0.014800
vn 0.000000 -1.000000 -0.000000
vn -0.000000 1.000000 0.000000
vn 1.000000 0.000000 0.000000
vn 0.000000 0.000000 -1.000000
vn -1.000000 0.000000 0.000000
vn 0.000000 0.000000 1.000000
vn -0.898800 0.000000 -0.438400
vn -0.014800 0.000000 -0.999900
vn 0.898800 0.000000 0.438400
vn 0.014800 0.000000 0.999900
vn -0.014900 0.000000 -0.999900
vn -0.898800 0.000000 0.438400
vn -0.014800 -0.000000 0.999900
vn 0.898800 0.000000 -0.438400
vn 0.014900 0.000000 -0.999900
vn 0.014800 0.000000 -0.999900
vn 0.438400 0.000000 0.898800
vn 0.999900 0.000000 0.014800
vn -0.438400 0.000000 -0.898800
vn -0.999900 0.000000 -0.014800
s off
f 1//1 3//1 2//1
f 4//2 5//2 3//2
f 6//3 7//3 5//3
f 8//4 2//4 7//4
f 3//5 5//5 7//5
f 6//6 4//6 1//6
f 8//1 1//1 2//1
f 1//2 4//2 3//2
f 4//3 6//3 5//3
f 6//4 8//4 7//4
f 2//5 3//5 7//5
f 8//6 6//6 1//6
f 17//7 19//7 18//7
f 20//8 18//8 21//8
f 22//9 21//9 23//9
f 24//10 23//10 19//10
f 18//5 23//5 21//5
f 20//6 24//6 17//6
f 24//7 19//7 17//7
f 17//8 18//8 20//8
f 20//9 21//9 22//9
f 22//10 23//10 24//10
f 19//5 23//5 18//5
f 22//6 24//6 20//6
f 25//8 27//8 26//8
f 28//9 26//9 29//9
f 30//10 29//10 31//10
f 32//7 31//7 27//7
f 26//5 31//5 29//5
f 28//6 32//6 25//6
f 32//8 27//8 25//8
f 25//9 26//9 28//9
f 28//10 29//10 30//10
f 30//7 31//7 32//7
f 27//5 31//5 26//5
f 30//6 32//6 28//6
f 33//11 35//11 34//11
f 36//12 37//12 35//12
f 38//13 39//13 37//13
f 40//14 34//14 39//14
f 35//5 37//5 39//5
f 38//6 36//6 33//6
f 40//11 33//11 34//11
f 33//15 36//15 35//15
f 36//13 38//13 37//13
f 38//14 40//14 39//14
f 34//5 35//5 39//5
f 40//6 38//6 33//6
f 49//16 51//16 50//16
f 52//17 50//17 53//17
f 54//18 53//18 55//18
f 56//19 55//19 51//19
f 50//5 55//5 53//5
f 54//6 49//6 52//6
f 56//16 51//16 49//16
f 49//17 50//17 52//17
f 52//18 53//18 54//18
f 54//20 55//20 56//20
f 51//5 55//5 50//5
f 56//6 49//6 54//6
f 57//21 59//21 58//21
f 60//22 58//22 61//22
f 62//23 61//23 63//23
f 64//24 63//24 59//24
f 58//5 63//5 61//5
f 62//6 57//6 60//6
f 64//21 59//21 57//21
f 57//22 58//22 60//22
f 60//23 61//23 62//23
f 62//24 63//24 64//24
f 59//5 63//5 58//5
f 64//6 57//6 62//6
s 1
f 9//8 11//8 10//8
f 12//7 13//7 11//7
f 14//10 15//10 13//10
f 16//9 10//9 15//9
f 11//5 13//5 15//5
f 12//6 9//6 16//6
f 16//8 9//8 10//8
f 9//7 12//7 11//7
f 12//10 14//10 13//10
f 14//9 16//9 15//9
f 10//5 11//5 15//5
f 14//6 12//6 16//6
f 41//7 43//7 42//7
f 44//8 42//8 45//8
f 46//9 45//9 47//9
f 48//10 47//10 43//10
f 42//5 47//5 45//5
f 44//6 48//6 41//6
f 48//7 43//7 41//7
f 41//8 42//8 44//8
f 44//9 45//9 46//9
f 46//10 47//10 48//10
f 43//5 47//5 42//5
f 46//6 48//6 44//6
