# Blender v2.75 (sub 0) OBJ File: 'body_d2r_dig_projection.blend'
# www.blender.org
v -3.398802 0.010000 -4.220911
v -0.592877 -0.010000 -5.589450
v -3.398802 -0.010000 -4.220911
v -4.345911 0.010000 -3.148800
v -4.345911 -0.010000 -3.148800
v -0.592877 0.010000 -5.589450
v 4.342877 -0.010000 -5.589450
v 7.148802 -0.010000 -4.220911
v -4.220910 -0.010000 7.648802
v -5.589450 -0.010000 4.842878
v -5.750000 -0.010000 3.625000
v -5.750000 -0.010000 0.875000
v -5.714449 -0.010000 -0.342878
v 0.375000 -0.010000 -5.750000
v 3.125000 -0.010000 -5.750000
v -5.714449 0.010000 -0.342878
v -5.750000 0.010000 0.875000
v -5.750000 0.010000 3.625000
v -5.589450 0.010000 4.842878
v -4.220910 0.010000 7.648802
v 7.148802 0.010000 -4.220911
v 4.342877 0.010000 -5.589450
v 3.125000 0.010000 -5.750000
v 0.375000 0.010000 -5.750000
v 3.875000 0.009996 3.875000
v 8.000000 0.009996 3.875000
v 3.875000 -0.009999 3.875000
v 8.000000 0.009997 -3.875000
v 3.875000 0.009996 8.000000
v 8.000000 -0.009999 3.875000
v 8.000000 -0.009998 -3.875000
v -3.875000 0.009996 8.000000
v 3.875000 -0.010000 8.000000
v -3.875000 -0.010000 8.000000
vn -0.438400 0.000000 -0.898800
vn -0.749400 0.000000 -0.662100
vn -0.000000 -1.000000 -0.000000
vn -0.898800 0.000000 -0.438400
vn -0.000000 1.000000 -0.000000
vn -0.163600 0.000000 -0.986500
vn 0.130700 0.000000 -0.991400
vn 0.438400 0.000000 -0.898800
vn -0.898800 0.000000 0.438400
vn -0.991400 0.000000 0.130700
vn -0.999600 -0.000000 -0.029200
vn 0.000000 0.000000 1.000000
vn 1.000000 0.000000 0.000000
vn 0.376500 0.000000 -0.926400
vn -0.712400 0.000000 0.701700
vn -0.712500 0.000000 0.701700
vn -1.000000 -0.000000 0.000000
vn 0.000000 0.000000 -1.000000
s off
f 1//1 2//1 3//1
f 1//2 3//2 5//2
f 6//1 2//1 1//1
f 14//3 15//3 12//3
f 4//4 5//4 13//4
f 23//5 18//5 21//5
f 2//6 6//6 24//6
f 23//7 22//7 7//7
f 21//8 8//8 7//8
f 20//9 10//9 9//9
f 10//10 19//10 18//10
f 12//11 17//11 16//11
f 16//4 4//4 13//4
f 19//9 10//9 20//9
f 22//8 21//8 7//8
f 25//12 27//12 26//12
f 27//13 25//13 29//13
f 27//12 30//12 26//12
f 33//13 27//13 29//13
f 8//3 31//3 27//3
f 21//5 25//5 28//5
f 27//3 33//3 34//3
f 28//14 31//14 8//14
f 32//15 20//15 9//15
f 4//2 1//2 5//2
f 8//3 15//3 7//3
f 5//3 2//3 14//3
f 2//3 5//3 3//3
f 5//3 12//3 13//3
f 9//3 10//3 11//3
f 11//3 8//3 9//3
f 11//3 12//3 15//3
f 14//3 12//3 5//3
f 15//3 8//3 11//3
f 4//5 6//5 1//5
f 17//5 23//5 24//5
f 23//5 21//5 22//5
f 18//5 19//5 20//5
f 23//5 17//5 18//5
f 17//5 4//5 16//5
f 4//5 24//5 6//5
f 18//5 20//5 21//5
f 24//5 4//5 17//5
f 14//6 2//6 24//6
f 15//7 23//7 7//7
f 11//10 10//10 18//10
f 13//11 12//11 16//11
f 27//3 9//3 8//3
f 31//3 30//3 27//3
f 27//3 34//3 9//3
f 25//5 21//5 20//5
f 25//5 26//5 28//5
f 32//5 29//5 25//5
f 25//5 20//5 32//5
f 21//14 28//14 8//14
f 34//16 32//16 9//16
s 1
f 17//17 12//17 11//17
f 24//18 15//18 14//18
f 18//17 17//17 11//17
f 23//18 15//18 24//18
f 31//13 28//13 26//13
f 30//13 31//13 26//13
f 33//12 29//12 32//12
f 34//12 33//12 32//12
