# Blender v2.75 (sub 0) OBJ File: 'body_d2l.blend'
# www.blender.org
v -3.125000 0.375001 -3.875000
v -3.125000 -0.374999 -3.875000
v -0.375000 -0.374999 -3.875000
v -3.125000 0.375001 -3.375000
v -3.125000 -0.374999 -3.375000
v -0.375000 0.375001 -3.375000
v -0.375000 -0.374999 -3.375000
v -0.375000 0.375001 -3.875000
v -7.125000 0.375001 -3.874999
v -7.125000 -0.374999 -3.874999
v -4.375000 -0.374999 -3.874999
v -7.125000 0.375001 -3.374999
v -7.125000 -0.374999 -3.374999
v -4.375000 0.375001 -3.374999
v -4.375000 -0.374999 -3.374999
v -4.375000 0.375001 -3.874999
v 3.875000 0.374999 4.875000
v 3.875000 -0.375001 4.875000
v 3.875000 -0.375001 7.625000
v 3.375000 0.374999 4.875000
v 3.375000 -0.375001 4.875000
v 3.375000 0.374999 7.625000
v 3.375000 -0.375001 7.625000
v 3.875000 0.374999 7.625000
v -3.375000 0.374999 4.875000
v -3.375000 -0.375001 4.875000
v -3.375000 -0.375001 7.625000
v -3.875000 0.374999 4.875000
v -3.875000 -0.375001 4.875000
v -3.875000 0.374999 7.625000
v -3.875000 -0.375001 7.625000
v -3.375000 0.374999 7.625000
v 3.875000 0.375000 0.875000
v 3.875000 -0.375000 0.875000
v 3.875000 -0.375001 3.625000
v 3.375000 0.375000 0.875000
v 3.375000 -0.375000 0.875000
v 3.375000 0.374999 3.625000
v 3.375000 -0.375001 3.625000
v 3.875000 0.374999 3.625000
v -7.125000 0.374999 3.375001
v -7.125000 -0.375001 3.375001
v -4.375000 -0.375001 3.375001
v -7.125000 0.374999 3.875001
v -7.125000 -0.375001 3.875001
v -4.375000 0.374999 3.875001
v -4.375000 -0.375001 3.875001
v -4.375000 0.374999 3.375001
v 3.875000 0.375001 -3.125000
v 3.875000 -0.374999 -3.125000
v 3.875000 -0.375000 -0.375000
v 3.375000 0.375001 -3.125000
v 3.375000 -0.374999 -3.125000
v 3.375000 0.375000 -0.375000
v 3.375000 -0.375000 -0.375000
v 3.875000 0.375000 -0.375000
v 0.875000 0.375001 -3.875000
v 0.875000 -0.374999 -3.875000
v 3.625000 -0.374999 -3.875000
v 0.875000 0.375001 -3.375000
v 0.875000 -0.374999 -3.375000
v 3.625000 0.375001 -3.375000
v 3.625000 -0.374999 -3.375000
v 3.625000 0.375001 -3.875000
vn 0.000000 0.000000 -1.000000
vn -1.000000 0.000000 0.000000
vn 0.000000 0.000000 1.000000
vn 1.000000 0.000000 0.000000
vn 0.000000 -1.000000 -0.000000
vn 0.000000 1.000000 0.000000
s 1
f 1//1 3//1 2//1
f 4//2 2//2 5//2
f 6//3 5//3 7//3
f 8//4 7//4 3//4
f 2//5 7//5 5//5
f 4//6 8//6 1//6
f 8//1 3//1 1//1
f 1//2 2//2 4//2
f 4//3 5//3 6//3
f 6//4 7//4 8//4
f 3//5 7//5 2//5
f 6//6 8//6 4//6
f 9//1 11//1 10//1
f 12//2 10//2 13//2
f 14//3 13//3 15//3
f 16//4 15//4 11//4
f 10//5 15//5 13//5
f 12//6 16//6 9//6
f 16//1 11//1 9//1
f 9//2 10//2 12//2
f 12//3 13//3 14//3
f 14//4 15//4 16//4
f 11//5 15//5 10//5
f 14//6 16//6 12//6
f 17//4 19//4 18//4
f 20//1 18//1 21//1
f 22//2 21//2 23//2
f 24//3 23//3 19//3
f 18//5 23//5 21//5
f 20//6 24//6 17//6
f 24//4 19//4 17//4
f 17//1 18//1 20//1
f 20//2 21//2 22//2
f 22//3 23//3 24//3
f 19//5 23//5 18//5
f 22//6 24//6 20//6
f 25//4 27//4 26//4
f 28//1 26//1 29//1
f 30//2 29//2 31//2
f 32//3 31//3 27//3
f 26//5 31//5 29//5
f 28//6 32//6 25//6
f 32//4 27//4 25//4
f 25//1 26//1 28//1
f 28//2 29//2 30//2
f 30//3 31//3 32//3
f 27//5 31//5 26//5
f 30//6 32//6 28//6
f 33//4 35//4 34//4
f 36//1 34//1 37//1
f 38//2 37//2 39//2
f 40//3 39//3 35//3
f 34//5 39//5 37//5
f 36//6 40//6 33//6
f 40//4 35//4 33//4
f 33//1 34//1 36//1
f 36//2 37//2 38//2
f 38//3 39//3 40//3
f 35//5 39//5 34//5
f 38//6 40//6 36//6
f 41//1 43//1 42//1
f 44//2 42//2 45//2
f 46//3 45//3 47//3
f 48//4 47//4 43//4
f 42//5 47//5 45//5
f 44//6 48//6 41//6
f 48//1 43//1 41//1
f 41//2 42//2 44//2
f 44//3 45//3 46//3
f 46//4 47//4 48//4
f 43//5 47//5 42//5
f 46//6 48//6 44//6
f 49//4 51//4 50//4
f 52//1 50//1 53//1
f 54//2 53//2 55//2
f 56//3 55//3 51//3
f 50//5 55//5 53//5
f 52//6 56//6 49//6
f 56//4 51//4 49//4
f 49//1 50//1 52//1
f 52//2 53//2 54//2
f 54//3 55//3 56//3
f 51//5 55//5 50//5
f 54//6 56//6 52//6
f 57//1 59//1 58//1
f 60//2 58//2 61//2
f 62//3 61//3 63//3
f 64//4 63//4 59//4
f 58//5 63//5 61//5
f 60//6 64//6 57//6
f 64//1 59//1 57//1
f 57//2 58//2 60//2
f 60//3 61//3 62//3
f 62//4 63//4 64//4
f 59//5 63//5 58//5
f 62//6 64//6 60//6
