# Blender v2.75 (sub 0) OBJ File: 'body_dive_projection.blend'
# www.blender.org
v -3.875000 -2.525000 0.020000
v -3.875000 -2.525000 -0.020000
v -3.875000 -2.925000 -0.020000
v 3.875000 -2.925000 -0.020000
v 3.875000 -2.925000 0.020000
v 3.875000 -2.525000 0.020000
v -3.875000 -2.925000 0.020000
v 3.875000 -2.525000 -0.020000
v -3.875000 -0.000000 0.020000
v -3.875000 0.000000 -0.020000
v -3.875000 -2.025000 -0.020000
v 3.875000 -0.000000 0.020000
v -3.875000 -2.025000 0.020000
v 3.875000 0.000000 -0.020000
v 3.875000 -2.025000 -0.020000
v 3.875000 -2.025000 0.020000
v -3.875000 -3.425000 0.019999
v -3.875000 -3.425000 -0.020001
v -3.875000 -3.625000 -0.020001
v -3.875000 -3.625000 0.019999
v 3.875000 -3.625000 -0.020001
v 3.875000 -3.425000 0.019999
v 3.875000 -3.425000 -0.020001
v 3.875000 -3.625000 0.019999
v -3.875000 0.020000 0.000000
v -3.875000 -0.020000 -0.000000
v -3.875000 0.020000 8.000000
v -3.875000 -0.020000 8.000000
v 3.875000 0.020000 0.000000
v 3.875000 -0.020000 -0.000000
v 3.875000 0.020000 8.000000
v 3.875000 -0.020000 8.000000
vn -1.000000 0.000000 0.000000
vn 0.000000 -1.000000 -0.000000
vn 0.000000 1.000000 0.000000
vn 1.000000 -0.000000 0.000000
vn 0.000000 0.000000 -1.000000
vn 0.000000 0.000000 1.000000
s off
f 28//1 27//1 25//1
f 26//2 30//2 32//2
f 25//3 27//3 31//3
f 32//4 30//4 29//4
f 25//5 29//5 30//5
f 32//6 31//6 27//6
f 26//1 28//1 25//1
f 28//2 26//2 32//2
f 29//3 25//3 31//3
f 31//4 32//4 29//4
f 26//5 25//5 30//5
f 28//6 32//6 27//6
s 1
f 1//1 2//1 3//1
f 3//2 4//2 5//2
f 6//6 1//6 7//6
f 2//5 8//5 4//5
f 8//4 6//4 5//4
f 1//3 6//3 8//3
f 9//1 10//1 11//1
f 12//6 9//6 13//6
f 14//3 10//3 9//3
f 10//5 14//5 15//5
f 14//4 12//4 16//4
f 11//2 15//2 16//2
f 17//1 18//1 19//1
f 20//2 19//2 21//2
f 22//6 17//6 20//6
f 17//3 22//3 23//3
f 18//5 23//5 21//5
f 23//4 22//4 24//4
f 7//1 1//1 3//1
f 7//2 3//2 5//2
f 5//6 6//6 7//6
f 3//5 2//5 4//5
f 4//4 8//4 5//4
f 2//3 1//3 8//3
f 13//1 9//1 11//1
f 16//6 12//6 13//6
f 12//3 14//3 9//3
f 11//5 10//5 15//5
f 15//4 14//4 16//4
f 13//2 11//2 16//2
f 20//1 17//1 19//1
f 24//2 20//2 21//2
f 24//6 22//6 20//6
f 18//3 17//3 23//3
f 19//5 18//5 21//5
f 21//4 23//4 24//4
