# Blender v2.75 (sub 0) OBJ File: 'dead_pre_head_d2l_dig_f1.blend'
# www.blender.org
v -5.375000 0.374997 2.423647
v -6.500000 0.375000 3.367635
v -5.763931 0.374997 2.749999
v -4.250000 0.375001 2.132364
v -6.500000 0.375000 4.020339
v -6.500000 -0.375000 4.020339
v -6.500000 -0.375000 3.367635
v -5.375000 -0.374999 3.076351
v -5.763931 -0.374999 2.749999
v -6.500000 -0.375003 2.132364
v -6.500000 0.374997 2.132364
v -4.986069 -0.374999 2.750000
v -5.375000 -0.374999 2.423647
v -4.250000 -0.375004 3.367635
v -4.250000 -0.374999 2.132364
v -4.986069 0.374997 2.750000
v -5.375000 0.374996 3.076351
v -6.500000 -0.375003 1.479662
v -4.250000 0.374996 3.367635
v -4.250000 -0.374999 1.479660
v -4.250000 -0.375004 4.020338
v -5.375000 0.374997 -3.076353
v -6.500000 0.375001 -2.132365
v -5.763931 0.374997 -2.750001
v -4.250000 0.375002 -3.367636
v -6.500000 0.375001 -1.479661
v -6.500000 -0.374999 -1.479661
v -6.500000 -0.374999 -2.132365
v -5.375000 -0.374999 -2.423649
v -5.763931 -0.374999 -2.750001
v -6.500000 -0.375002 -3.367636
v -6.500000 0.374998 -3.367636
v -4.986069 -0.374999 -2.750000
v -5.375000 -0.374998 -3.076353
v -4.250000 -0.375003 -2.132365
v -4.250000 -0.374998 -3.367636
v -4.986069 0.374997 -2.750000
v -5.375000 0.374997 -2.423649
v -6.500000 -0.375002 -4.020339
v -4.250000 0.374997 -2.132365
v -4.250000 -0.374998 -4.020340
v -4.250000 -0.375003 -1.479662
v -4.250000 0.375001 1.479660
v -4.250000 0.374996 4.020338
v -6.500000 0.374997 1.479662
v -4.250000 0.375002 -4.020340
v -4.250000 0.374997 -1.479662
v -6.500000 0.374998 -4.020339
v 5.154089 0.375000 -0.351200
v 5.154089 -0.375000 -0.351200
v 3.785551 -0.374998 -3.157122
v 5.714449 0.375000 -0.342878
v 5.714449 -0.375000 -0.342878
v 4.345911 0.375002 -3.148800
v 4.345911 -0.374998 -3.148800
v 3.785551 0.375002 -3.157122
v 5.750000 0.375001 0.875000
v 5.750000 -0.374999 0.875000
v 5.750000 -0.375003 3.625000
v 5.250000 0.375001 0.875000
v 5.250000 -0.374999 0.875000
v 5.250000 0.374997 3.625000
v 5.250000 -0.375003 3.625000
v 5.750000 0.374997 3.625000
v 5.029090 0.374997 4.851199
v 3.660550 -0.375003 7.657122
v 5.029090 -0.375003 4.851199
v 5.589450 0.374997 4.842878
v 5.589450 -0.375003 4.842878
v 4.220910 0.374997 7.648802
v 4.220910 -0.375003 7.648802
v 3.660550 0.374997 7.657122
v -0.375000 0.375003 -5.750000
v -3.125000 -0.374999 -5.750000
v -0.375000 -0.374997 -5.750000
v -0.375000 0.375003 -5.250000
v -0.375000 -0.374997 -5.250000
v -3.125000 0.375001 -5.250000
v -3.125000 -0.374999 -5.250000
v -3.125000 0.375001 -5.750000
v 0.601199 0.375002 -5.029090
v 3.407122 -0.374998 -3.660550
v 0.601199 -0.374998 -5.029090
v 0.592877 0.375002 -5.589450
v 0.592877 -0.374998 -5.589450
v 3.398802 0.375002 -4.220911
v 3.398802 -0.374998 -4.220911
v 3.407122 0.375002 -3.660550
v -6.866136 0.370129 5.534992
v -6.875000 0.370129 5.625000
v -6.875000 -0.379871 5.625000
v -6.760820 -0.379871 6.199023
v -6.622206 -0.379871 6.458353
v -6.154504 -0.379871 6.145846
v -6.846179 0.370129 5.917633
v -6.402253 0.370129 5.534992
v -6.303635 -0.379871 5.534992
v -6.312500 -0.379871 5.625000
v -6.312500 0.370129 5.625000
v -6.294487 0.370129 5.807895
v -6.241138 0.370129 5.983765
v -6.294487 -0.379871 5.807895
v -6.154504 0.370129 6.145846
v -6.241138 -0.379871 5.983765
v -6.037914 0.370129 6.287911
v -5.895849 0.370129 6.404501
v -6.037914 -0.379871 6.287911
v -5.733768 0.370129 6.491136
v -5.895849 -0.379871 6.404501
v -5.557899 0.370129 6.544486
v -5.733768 -0.379871 6.491136
v -5.375001 0.370129 6.562499
v -5.557899 -0.379871 6.544486
v -3.989182 -0.379871 6.199025
v -4.595498 -0.379871 6.145847
v -4.127797 -0.379871 6.458355
v -5.667638 -0.379871 7.096177
v -5.667638 0.370129 7.096177
v -5.375002 0.370129 7.124999
v -5.949027 -0.379871 7.010818
v -5.949027 0.370129 7.010818
v -6.208358 -0.379871 6.872203
v -6.208358 0.370129 6.872203
v -6.435662 -0.379871 6.685658
v -6.435662 0.370129 6.685658
v -6.622206 0.370129 6.458353
v -6.760820 0.370129 6.199023
v -6.846179 -0.379871 5.917633
v -5.192104 0.370129 6.544486
v -5.375001 -0.379871 6.562499
v -3.883865 -0.379871 5.534992
v -3.875000 -0.379871 5.625000
v -3.875000 0.370129 5.625000
v -3.903822 -0.379871 5.917635
v -3.903822 0.370129 5.917635
v -3.989182 0.370129 6.199025
v -4.127797 0.370129 6.458355
v -4.314341 -0.379871 6.685660
v -4.314341 0.370129 6.685660
v -4.541646 -0.379871 6.872204
v -4.541646 0.370129 6.872204
v -4.800976 -0.379871 7.010819
v -4.800976 0.370129 7.010819
v -5.082366 -0.379871 7.096177
v -5.082366 0.370129 7.096177
v -5.375002 -0.379871 7.124999
v -5.016235 0.370129 6.491137
v -5.192104 -0.379871 6.544486
v -4.854154 0.370129 6.404502
v -5.016235 -0.379871 6.491137
v -4.712089 0.370129 6.287912
v -4.854154 -0.379871 6.404502
v -4.595498 0.370129 6.145847
v -4.712089 -0.379871 6.287912
v -4.508863 0.370129 5.983766
v -4.455514 0.370129 5.807897
v -4.508863 -0.379871 5.983766
v -4.437500 0.370129 5.625000
v -4.455514 -0.379871 5.807897
v -4.446365 0.370129 5.534992
v -4.437500 -0.379871 5.625000
v -3.883865 0.370129 5.534992
v -4.446365 -0.379871 5.534992
v -6.866136 -0.379871 5.534992
v -6.303635 0.370129 5.534992
v -6.875000 -0.379869 -5.625000
v -6.875000 0.370131 -5.625000
v -6.866136 0.370131 -5.534992
v -6.154504 -0.379869 -6.145845
v -6.622206 -0.379869 -6.458353
v -6.760820 -0.379869 -6.199023
v -6.846179 0.370131 -5.917633
v -6.402253 0.370131 -5.534992
v -6.312500 0.370131 -5.625000
v -6.312500 -0.379869 -5.625000
v -6.303635 -0.379869 -5.534992
v -6.294487 0.370131 -5.807895
v -6.294487 -0.379869 -5.807895
v -6.241138 0.370131 -5.983764
v -6.241138 -0.379869 -5.983764
v -6.154504 0.370131 -6.145845
v -6.037914 0.370131 -6.287911
v -6.037914 -0.379869 -6.287911
v -5.895849 0.370131 -6.404501
v -5.895849 -0.379869 -6.404501
v -5.733768 0.370131 -6.491136
v -5.733768 -0.379869 -6.491136
v -5.557899 0.370131 -6.544486
v -5.557899 -0.379869 -6.544486
v -5.375001 0.370131 -6.562499
v -4.595498 -0.379869 -6.145847
v -4.127797 -0.379869 -6.458355
v -4.712089 -0.379869 -6.287913
v -5.375002 0.370131 -7.124999
v -5.667638 0.370131 -7.096177
v -5.667638 -0.379869 -7.096177
v -5.949027 0.370131 -7.010818
v -5.949027 -0.379869 -7.010818
v -6.208358 0.370131 -6.872203
v -6.208358 -0.379869 -6.872203
v -6.435662 0.370131 -6.685658
v -6.435662 -0.379869 -6.685658
v -6.622206 0.370131 -6.458353
v -6.760820 0.370131 -6.199023
v -6.846179 -0.379869 -5.917633
v -5.375001 -0.379869 -6.562499
v -5.192104 0.370131 -6.544486
v -3.875000 0.370131 -5.625000
v -3.875000 -0.379869 -5.625000
v -3.883865 -0.379869 -5.534992
v -3.903822 0.370131 -5.917635
v -3.903822 -0.379869 -5.917635
v -3.989182 0.370131 -6.199025
v -3.989182 -0.379869 -6.199025
v -4.127797 0.370131 -6.458355
v -4.314341 0.370131 -6.685661
v -4.314341 -0.379869 -6.685661
v -4.541646 0.370131 -6.872204
v -4.541646 -0.379869 -6.872204
v -4.800976 0.370131 -7.010819
v -4.800976 -0.379869 -7.010819
v -5.082366 0.370131 -7.096177
v -5.082366 -0.379869 -7.096177
v -5.375002 -0.379869 -7.124999
v -5.192104 -0.379869 -6.544486
v -5.016235 0.370131 -6.491137
v -5.016235 -0.379869 -6.491137
v -4.854154 0.370131 -6.404502
v -4.854154 -0.379869 -6.404502
v -4.712089 0.370131 -6.287913
v -4.595498 0.370131 -6.145847
v -4.508863 0.370131 -5.983766
v -4.508863 -0.379869 -5.983766
v -4.455514 0.370131 -5.807898
v -4.455514 -0.379869 -5.807898
v -4.437500 0.370131 -5.625000
v -4.437500 -0.379869 -5.625000
v -4.446365 0.370131 -5.534992
v -3.883865 0.370131 -5.534992
v -4.446365 -0.379869 -5.534992
v -6.866136 -0.379869 -5.534992
v -6.303635 0.370131 -5.534992
vn -0.898800 0.000000 0.438400
vn -0.014800 -0.000000 0.999900
vn 0.898800 0.000000 -0.438400
vn 0.014900 0.000000 -0.999900
vn 0.000000 -1.000000 -0.000000
vn -0.000000 1.000000 0.000000
vn 0.014800 0.000000 -0.999900
vn -0.898800 0.000000 -0.438400
vn -0.014800 0.000000 -0.999900
vn 0.898800 0.000000 0.438400
vn 0.014800 0.000000 0.999900
vn -0.014900 0.000000 -0.999900
vn -0.438400 0.000000 0.898800
vn -0.999900 0.000000 0.014800
vn 0.438400 0.000000 -0.898800
vn 0.999900 0.000000 -0.014800
vn -0.995200 0.000000 -0.098000
vn -0.995200 0.000000 0.098000
vn 0.995200 0.000000 0.098000
vn 0.995200 0.000000 -0.098000
vn 0.956900 0.000000 -0.290300
vn 0.881900 0.000000 -0.471400
vn 0.773000 0.000000 -0.634400
vn 0.634400 0.000000 -0.773000
vn 0.471400 0.000000 -0.881900
vn 0.290300 0.000000 -0.956900
vn 0.098000 0.000000 -0.995200
vn -0.098000 0.000000 0.995200
vn -0.290300 0.000000 0.956900
vn -0.471400 0.000000 0.881900
vn -0.634400 0.000000 0.773000
vn -0.773000 0.000000 0.634400
vn -0.881900 0.000000 0.471400
vn -0.956900 0.000000 0.290300
vn -0.098000 0.000000 -0.995200
vn 0.956900 0.000000 0.290300
vn 0.881900 0.000000 0.471400
vn 0.773000 0.000000 0.634400
vn 0.634400 0.000000 0.773000
vn 0.471400 0.000000 0.881900
vn 0.290300 0.000000 0.956900
vn 0.098000 0.000000 0.995200
vn -0.290300 0.000000 -0.956900
vn -0.471400 0.000000 -0.881900
vn -0.634400 0.000000 -0.773000
vn -0.773000 0.000000 -0.634400
vn -0.881900 0.000000 -0.471400
vn -0.956900 0.000000 -0.290300
vn 0.000000 0.000000 -1.000000
vn 0.000000 0.000000 1.000000
vn -0.639900 0.054600 -0.766500
vn -0.637200 0.005800 -0.770700
vn -0.642800 0.000000 -0.766000
vn -1.000000 0.000000 0.000000
vn -0.683200 0.000700 0.730200
vn -0.639400 0.151400 0.753800
vn -0.642800 0.000100 0.766000
vn 0.615200 0.291800 -0.732400
vn 0.642800 0.000000 -0.766000
vn 0.627700 -0.206200 -0.750600
vn 0.617300 0.287400 0.732400
vn 0.642800 0.000100 0.766000
vn 0.553800 -0.104600 0.826000
vn 1.000000 0.000000 0.000000
vn -0.680100 0.108000 -0.725200
vn -0.642600 0.000500 0.766200
vn -0.648700 0.154800 0.745200
vn 0.623200 0.297400 -0.723300
vn 0.555800 -0.105300 -0.824600
vn 0.609500 0.281900 0.740900
vn 0.639100 -0.105200 0.761900
vn -0.642800 0.000000 0.766000
vn 0.642800 0.000000 0.766000
s off
f 49//1 51//1 50//1
f 52//2 50//2 53//2
f 54//3 53//3 55//3
f 56//4 55//4 51//4
f 50//5 55//5 53//5
f 54//6 49//6 52//6
f 56//1 51//1 49//1
f 49//2 50//2 52//2
f 52//3 53//3 54//3
f 54//7 55//7 56//7
f 51//5 55//5 50//5
f 56//6 49//6 54//6
f 65//8 67//8 66//8
f 68//9 69//9 67//9
f 70//10 71//10 69//10
f 72//11 66//11 71//11
f 67//5 69//5 71//5
f 70//6 68//6 65//6
f 72//8 65//8 66//8
f 65//12 68//12 67//12
f 68//10 70//10 69//10
f 70//11 72//11 71//11
f 66//5 67//5 71//5
f 72//6 70//6 65//6
f 81//13 83//13 82//13
f 84//14 85//14 83//14
f 86//15 87//15 85//15
f 88//16 82//16 87//16
f 83//5 85//5 87//5
f 86//6 84//6 81//6
f 88//13 81//13 82//13
f 81//14 84//14 83//14
f 84//15 86//15 85//15
f 86//16 88//16 87//16
f 82//5 83//5 87//5
f 88//6 86//6 81//6
f 89//17 91//17 90//17
f 92//5 94//5 93//5
f 91//18 95//18 90//18
f 96//6 90//6 95//6
f 97//19 99//19 98//19
f 100//20 98//20 99//20
f 101//21 102//21 100//21
f 103//22 104//22 101//22
f 105//23 94//23 103//23
f 106//24 107//24 105//24
f 108//25 109//25 106//25
f 110//26 111//26 108//26
f 112//27 113//27 110//27
f 114//5 116//5 115//5
f 117//28 119//28 118//28
f 120//29 118//29 121//29
f 122//30 121//30 123//30
f 124//31 123//31 125//31
f 93//32 125//32 126//32
f 92//33 126//33 127//33
f 128//34 127//34 95//34
f 110//6 118//6 119//6
f 129//35 130//35 112//35
f 131//20 133//20 132//20
f 134//19 133//19 135//19
f 114//36 135//36 136//36
f 116//37 136//37 137//37
f 138//38 137//38 139//38
f 140//39 139//39 141//39
f 142//40 141//40 143//40
f 144//41 143//41 145//41
f 146//42 145//42 119//42
f 147//43 148//43 129//43
f 149//44 150//44 147//44
f 151//45 152//45 149//45
f 153//46 154//46 151//46
f 155//47 115//47 153//47
f 156//48 157//48 155//48
f 158//17 159//17 156//17
f 160//18 161//18 158//18
f 162//6 158//6 133//6
f 160//49 131//49 163//49
f 97//49 164//49 96//49
f 164//17 91//17 89//17
f 146//5 113//5 130//5
f 98//5 164//5 97//5
f 117//5 111//5 113//5
f 91//5 164//5 98//5
f 120//5 109//5 111//5
f 91//5 98//5 102//5
f 122//5 107//5 109//5
f 91//5 102//5 128//5
f 124//5 94//5 107//5
f 113//5 146//5 117//5
f 109//5 120//5 122//5
f 94//5 124//5 93//5
f 94//5 92//5 104//5
f 128//5 102//5 104//5
f 120//5 111//5 117//5
f 107//5 122//5 124//5
f 92//5 128//5 104//5
f 128//18 95//18 91//18
f 89//6 90//6 96//6
f 165//19 99//19 97//19
f 102//20 98//20 100//20
f 104//21 102//21 101//21
f 94//22 104//22 103//22
f 107//23 94//23 105//23
f 109//24 107//24 106//24
f 111//25 109//25 108//25
f 113//26 111//26 110//26
f 130//27 113//27 112//27
f 161//5 131//5 132//5
f 157//5 134//5 114//5
f 154//5 116//5 138//5
f 152//5 140//5 150//5
f 148//5 144//5 146//5
f 131//5 161//5 163//5
f 148//5 146//5 130//5
f 132//5 159//5 161//5
f 150//5 144//5 148//5
f 134//5 157//5 159//5
f 142//5 144//5 150//5
f 114//5 115//5 157//5
f 142//5 150//5 140//5
f 116//5 154//5 115//5
f 159//5 132//5 134//5
f 154//5 138//5 140//5
f 140//5 152//5 154//5
f 146//28 119//28 117//28
f 117//29 118//29 120//29
f 120//30 121//30 122//30
f 122//31 123//31 124//31
f 124//32 125//32 93//32
f 93//33 126//33 92//33
f 92//34 127//34 128//34
f 100//6 96//6 95//6
f 103//6 127//6 126//6
f 106//6 125//6 123//6
f 110//6 121//6 118//6
f 112//6 119//6 145//6
f 147//6 143//6 141//6
f 151//6 139//6 137//6
f 155//6 136//6 135//6
f 156//6 133//6 158//6
f 96//6 99//6 165//6
f 135//6 133//6 156//6
f 96//6 100//6 99//6
f 135//6 156//6 155//6
f 127//6 101//6 100//6
f 136//6 155//6 153//6
f 127//6 100//6 95//6
f 136//6 153//6 137//6
f 127//6 103//6 101//6
f 137//6 153//6 151//6
f 126//6 105//6 103//6
f 139//6 151//6 149//6
f 125//6 106//6 105//6
f 139//6 149//6 141//6
f 123//6 108//6 106//6
f 141//6 149//6 147//6
f 121//6 110//6 108//6
f 143//6 147//6 129//6
f 125//6 105//6 126//6
f 143//6 129//6 145//6
f 112//6 145//6 129//6
f 108//6 123//6 121//6
f 119//6 112//6 110//6
f 148//35 130//35 129//35
f 162//20 133//20 131//20
f 132//19 133//19 134//19
f 134//36 135//36 114//36
f 114//37 136//37 116//37
f 116//38 137//38 138//38
f 138//39 139//39 140//39
f 140//40 141//40 142//40
f 142//41 143//41 144//41
f 144//42 145//42 146//42
f 150//43 148//43 147//43
f 152//44 150//44 149//44
f 154//45 152//45 151//45
f 115//46 154//46 153//46
f 157//47 115//47 155//47
f 159//48 157//48 156//48
f 161//17 159//17 158//17
f 163//18 161//18 160//18
f 160//6 158//6 162//6
f 162//49 131//49 160//49
f 96//49 165//49 97//49
f 96//49 164//49 89//49
f 166//18 168//18 167//18
f 169//5 171//5 170//5
f 172//17 166//17 167//17
f 167//6 173//6 172//6
f 174//20 176//20 175//20
f 175//19 177//19 174//19
f 178//36 179//36 177//36
f 180//37 181//37 179//37
f 169//38 182//38 181//38
f 183//39 184//39 182//39
f 185//40 186//40 184//40
f 187//41 188//41 186//41
f 189//42 190//42 188//42
f 191//5 193//5 192//5
f 194//35 196//35 195//35
f 195//43 198//43 197//43
f 197//44 200//44 199//44
f 199//45 202//45 201//45
f 201//46 170//46 203//46
f 203//47 171//47 204//47
f 204//48 205//48 172//48
f 188//6 190//6 194//6
f 206//28 207//28 190//28
f 208//19 210//19 209//19
f 208//20 212//20 211//20
f 211//21 214//21 213//21
f 213//22 192//22 215//22
f 215//23 217//23 216//23
f 216//24 219//24 218//24
f 218//25 221//25 220//25
f 220//26 223//26 222//26
f 222//27 224//27 194//27
f 225//29 226//29 207//29
f 227//30 228//30 226//30
f 229//31 230//31 228//31
f 193//32 231//32 230//32
f 191//33 232//33 231//33
f 233//34 234//34 232//34
f 235//18 236//18 234//18
f 237//17 238//17 236//17
f 236//6 239//6 208//6
f 210//50 238//50 240//50
f 173//50 241//50 176//50
f 241//18 168//18 166//18
f 241//5 175//5 176//5
f 175//5 241//5 166//5
f 180//5 205//5 171//5
f 183//5 170//5 202//5
f 185//5 200//5 198//5
f 189//5 196//5 224//5
f 166//5 178//5 175//5
f 189//5 224//5 206//5
f 205//5 180//5 178//5
f 187//5 196//5 189//5
f 171//5 169//5 180//5
f 198//5 196//5 187//5
f 170//5 183//5 169//5
f 198//5 187//5 185//5
f 183//5 202//5 200//5
f 178//5 166//5 205//5
f 200//5 185//5 183//5
f 205//17 166//17 172//17
f 168//6 173//6 167//6
f 242//20 176//20 174//20
f 178//19 177//19 175//19
f 180//36 179//36 178//36
f 169//37 181//37 180//37
f 183//38 182//38 169//38
f 185//39 184//39 183//39
f 187//40 186//40 185//40
f 189//41 188//41 187//41
f 206//42 190//42 189//42
f 237//5 210//5 240//5
f 224//5 225//5 206//5
f 209//5 210//5 237//5
f 223//5 227//5 225//5
f 209//5 237//5 235//5
f 221//5 229//5 227//5
f 212//5 235//5 214//5
f 219//5 193//5 229//5
f 235//5 233//5 214//5
f 235//5 212//5 209//5
f 191//5 192//5 214//5
f 193//5 219//5 217//5
f 227//5 223//5 221//5
f 223//5 225//5 224//5
f 214//5 233//5 191//5
f 193//5 217//5 192//5
f 219//5 229//5 221//5
f 224//35 196//35 194//35
f 196//43 198//43 195//43
f 198//44 200//44 197//44
f 200//45 202//45 199//45
f 202//46 170//46 201//46
f 170//47 171//47 203//47
f 171//48 205//48 204//48
f 174//6 173//6 242//6
f 208//6 234//6 236//6
f 177//6 173//6 174//6
f 211//6 232//6 234//6
f 172//6 173//6 177//6
f 213//6 231//6 232//6
f 179//6 172//6 177//6
f 215//6 230//6 231//6
f 204//6 172//6 179//6
f 216//6 228//6 230//6
f 204//6 179//6 181//6
f 211//6 234//6 208//6
f 204//6 181//6 203//6
f 218//6 226//6 228//6
f 181//6 182//6 203//6
f 213//6 232//6 211//6
f 203//6 182//6 201//6
f 220//6 207//6 226//6
f 182//6 184//6 201//6
f 215//6 231//6 213//6
f 201//6 184//6 199//6
f 222//6 190//6 207//6
f 184//6 186//6 199//6
f 197//6 199//6 186//6
f 188//6 195//6 197//6
f 190//6 222//6 194//6
f 226//6 218//6 220//6
f 230//6 215//6 216//6
f 197//6 186//6 188//6
f 218//6 228//6 216//6
f 207//6 220//6 222//6
f 194//6 195//6 188//6
f 225//28 207//28 206//28
f 239//19 210//19 208//19
f 209//20 212//20 208//20
f 212//21 214//21 211//21
f 214//22 192//22 213//22
f 192//23 217//23 215//23
f 217//24 219//24 216//24
f 219//25 221//25 218//25
f 221//26 223//26 220//26
f 223//27 224//27 222//27
f 227//29 226//29 225//29
f 229//30 228//30 227//30
f 193//31 230//31 229//31
f 191//32 231//32 193//32
f 233//33 232//33 191//33
f 235//34 234//34 233//34
f 237//18 236//18 235//18
f 240//17 238//17 237//17
f 238//6 239//6 236//6
f 239//50 238//50 210//50
f 176//50 242//50 173//50
f 173//50 168//50 241//50
s 1
f 1//51 3//52 2//53
f 4//6 2//6 5//6
f 6//54 2//54 7//54
f 8//5 7//5 9//5
f 8//55 9//56 10//57
f 1//6 11//6 3//6
f 12//58 14//59 13//60
f 13//5 15//5 12//5
f 16//61 4//62 17//63
f 14//5 10//5 18//5
f 11//54 18//54 10//54
f 17//6 19//6 16//6
f 20//64 4//64 15//64
f 19//64 21//64 14//64
f 22//65 24//52 23//53
f 25//6 23//6 26//6
f 27//54 23//54 28//54
f 29//5 28//5 30//5
f 29//66 30//67 31//57
f 22//6 32//6 24//6
f 33//68 35//59 34//69
f 34//5 36//5 33//5
f 37//70 25//62 38//71
f 35//5 31//5 39//5
f 32//54 39//54 31//54
f 38//6 40//6 37//6
f 41//64 25//64 36//64
f 40//64 42//64 35//64
f 1//51 43//53 20//53
f 7//53 3//52 9//53
f 1//51 20//53 13//53
f 2//53 3//52 7//53
f 2//53 43//53 1//51
f 43//6 2//6 4//6
f 5//54 2//54 6//54
f 6//5 7//5 8//5
f 8//55 21//72 44//72
f 11//72 9//56 3//72
f 8//55 44//72 17//72
f 10//57 9//56 11//72
f 10//57 21//72 8//55
f 45//6 11//6 1//6
f 13//60 18//59 45//59
f 12//58 16//59 19//59
f 13//60 45//59 1//59
f 14//59 12//58 19//59
f 13//60 14//59 18//59
f 20//5 15//5 13//5
f 17//63 5//73 6//73
f 16//61 12//73 15//73
f 17//63 6//73 8//73
f 4//62 16//61 15//73
f 17//63 4//62 5//73
f 21//5 10//5 14//5
f 45//54 18//54 11//54
f 44//6 19//6 17//6
f 43//64 4//64 20//64
f 44//64 21//64 19//64
f 22//65 46//53 41//53
f 28//53 24//52 30//53
f 22//65 41//53 34//53
f 23//53 24//52 28//53
f 23//53 46//53 22//65
f 46//6 23//6 25//6
f 26//54 23//54 27//54
f 27//5 28//5 29//5
f 29//66 42//72 47//72
f 32//72 30//67 24//72
f 29//66 47//72 38//72
f 31//57 30//67 32//72
f 31//57 42//72 29//66
f 48//6 32//6 22//6
f 34//69 39//59 48//59
f 33//68 37//59 40//59
f 34//69 48//59 22//59
f 35//59 33//68 40//59
f 34//69 35//59 39//59
f 41//5 36//5 34//5
f 38//71 26//73 27//73
f 37//70 33//73 36//73
f 38//71 27//73 29//73
f 25//62 37//70 36//73
f 38//71 25//62 26//73
f 42//5 31//5 35//5
f 48//54 39//54 32//54
f 47//6 40//6 38//6
f 46//64 25//64 41//64
f 47//64 42//64 40//64
f 57//64 59//64 58//64
f 60//49 58//49 61//49
f 62//54 61//54 63//54
f 64//50 63//50 59//50
f 58//5 63//5 61//5
f 60//6 64//6 57//6
f 64//64 59//64 57//64
f 57//49 58//49 60//49
f 60//54 61//54 62//54
f 62//50 63//50 64//50
f 59//5 63//5 58//5
f 62//6 64//6 60//6
f 73//49 75//49 74//49
f 76//64 77//64 75//64
f 78//50 79//50 77//50
f 80//54 74//54 79//54
f 75//5 77//5 79//5
f 76//6 73//6 80//6
f 80//49 73//49 74//49
f 73//64 76//64 75//64
f 76//50 78//50 77//50
f 78//54 80//54 79//54
f 74//5 75//5 79//5
f 78//6 76//6 80//6
