# Blender v2.75 (sub 0) OBJ File: 'dead_pre_head_d2r_dig_f1.blend'
# www.blender.org
v 4.250000 0.375001 1.479660
v 6.500000 0.375001 3.367635
v 6.500000 -0.374999 3.367635
v 5.763931 -0.374999 2.749999
v 5.763931 0.374997 2.749999
v 5.375000 0.374997 2.423647
v 5.375000 -0.374999 2.423647
v 4.250000 -0.374999 1.479660
v 4.250000 0.375001 2.132364
v 6.500000 0.375001 4.020339
v 6.500000 -0.374999 4.020339
v 5.375000 -0.374999 3.076351
v 4.250000 -0.375003 4.020338
v 6.500000 -0.375003 2.132364
v 6.500000 0.374997 2.132364
v 5.375000 0.374997 3.076351
v 4.250000 0.374997 4.020338
v 6.500000 0.374997 1.479662
v 4.250000 0.374997 3.367635
v 4.986069 0.374997 2.750000
v 4.986069 -0.374999 2.750000
v 6.500000 -0.375003 1.479662
v 4.250000 -0.375003 3.367635
v 4.250000 -0.374999 2.132364
v 4.250000 0.375001 -4.020340
v 6.500000 0.375001 -2.132365
v 6.500000 -0.374999 -2.132365
v 5.763931 -0.374999 -2.750001
v 5.763931 0.374997 -2.750001
v 5.375000 0.374997 -3.076353
v 5.375000 -0.374999 -3.076353
v 4.250000 -0.374999 -4.020340
v 4.250000 0.375001 -3.367636
v 6.500000 0.375001 -1.479661
v 6.500000 -0.374999 -1.479661
v 5.375000 -0.374999 -2.423649
v 4.250000 -0.375003 -1.479662
v 6.500000 -0.375003 -3.367636
v 6.500000 0.374997 -3.367636
v 5.375000 0.374997 -2.423649
v 4.250000 0.374997 -1.479662
v 6.500000 0.374997 -4.020339
v 4.250000 0.374997 -2.132365
v 4.986069 0.374997 -2.750000
v 4.986069 -0.374999 -2.750000
v 6.500000 -0.375003 -4.020339
v 4.250000 -0.375003 -2.132365
v 4.250000 -0.374999 -3.367636
vn 0.638000 0.106600 -0.762600
vn 0.642800 0.000000 -0.766000
vn 0.640200 0.000000 -0.768200
vn -0.000000 1.000000 0.000000
vn 1.000000 0.000000 0.000000
vn 0.000000 -1.000000 -0.000000
vn 0.642200 0.054300 0.764700
vn 0.642800 0.000100 0.766000
vn 0.638800 0.153000 0.754000
vn -0.616000 0.290100 -0.732300
vn -0.639400 -0.107800 -0.761300
vn -0.642800 0.000000 -0.766000
vn -0.615200 0.290400 0.732900
vn -0.641600 0.000000 0.767000
vn -0.642800 0.000100 0.766000
vn -1.000000 0.000000 0.000000
vn 0.640700 0.053700 -0.765900
vn 0.643100 0.000000 0.765800
vn -0.628800 -0.209300 -0.748800
vn -0.638000 -0.106600 0.762600
vn 0.642800 0.000000 0.766000
vn -0.642800 0.000000 0.766000
vn -0.642800 -0.000100 -0.766000
s 1
f 6//1 2//2 5//3
f 9//4 10//4 2//4
f 11//5 3//5 2//5
f 12//6 4//6 3//6
f 12//7 14//8 4//9
f 6//4 5//4 15//4
f 21//10 7//11 23//12
f 7//6 21//6 24//6
f 20//13 16//14 9//15
f 23//6 22//6 14//6
f 15//5 14//5 22//5
f 16//4 20//4 19//4
f 8//16 24//16 9//16
f 19//16 23//16 13//16
f 30//17 26//2 29//3
f 33//4 34//4 26//4
f 35//5 27//5 26//5
f 36//6 28//6 27//6
f 36//18 38//8 28//9
f 30//4 29//4 39//4
f 45//10 31//19 47//12
f 31//6 45//6 48//6
f 44//13 40//20 33//15
f 47//6 46//6 38//6
f 39//5 38//5 46//5
f 40//4 44//4 43//4
f 32//16 48//16 33//16
f 43//16 47//16 37//16
f 6//1 8//2 1//2
f 3//2 4//2 5//3
f 6//1 7//2 8//2
f 2//2 3//2 5//3
f 2//2 6//1 1//2
f 1//4 9//4 2//4
f 10//5 11//5 2//5
f 11//6 12//6 3//6
f 12//7 17//21 13//21
f 15//21 5//21 4//9
f 12//7 16//21 17//21
f 14//8 15//21 4//9
f 14//8 12//7 13//21
f 18//4 6//4 15//4
f 7//11 18//12 22//12
f 21//10 19//12 20//12
f 7//11 6//12 18//12
f 23//12 19//12 21//10
f 7//11 22//12 23//12
f 8//6 7//6 24//6
f 16//14 11//22 10//22
f 20//13 24//22 21//22
f 16//14 12//22 11//22
f 9//15 24//22 20//13
f 16//14 10//22 9//15
f 13//6 23//6 14//6
f 18//5 15//5 22//5
f 17//4 16//4 19//4
f 1//16 8//16 9//16
f 17//16 19//16 13//16
f 30//17 32//2 25//2
f 27//2 28//2 29//3
f 30//17 31//2 32//2
f 26//2 27//2 29//3
f 26//2 30//17 25//2
f 25//4 33//4 26//4
f 34//5 35//5 26//5
f 35//6 36//6 27//6
f 36//18 41//21 37//21
f 39//21 29//21 28//9
f 36//18 40//21 41//21
f 38//8 39//21 28//9
f 38//8 36//18 37//21
f 42//4 30//4 39//4
f 31//19 42//12 46//23
f 45//10 43//12 44//12
f 31//19 30//12 42//12
f 47//12 43//12 45//10
f 31//19 46//23 47//12
f 32//6 31//6 48//6
f 40//20 35//22 34//22
f 44//13 48//22 45//22
f 40//20 36//22 35//22
f 33//15 48//22 44//13
f 40//20 34//22 33//15
f 37//6 47//6 38//6
f 42//5 39//5 46//5
f 41//4 40//4 43//4
f 25//16 32//16 33//16
f 41//16 43//16 37//16
v -5.154089 0.375000 -0.351200
v -5.154089 -0.375000 -0.351200
v -3.785551 -0.374999 -3.157122
v -5.714449 0.375000 -0.342878
v -5.714449 -0.375000 -0.342878
v -4.345911 0.375001 -3.148800
v -4.345911 -0.374999 -3.148800
v -3.785551 0.375001 -3.157122
vn 0.898800 0.000000 0.438400
vn 0.014800 -0.000000 0.999900
vn -0.898800 0.000000 -0.438400
vn -0.014900 0.000000 -0.999900
vn -0.000000 -1.000000 -0.000000
vn 0.000000 1.000000 0.000000
vn -0.014800 0.000000 -0.999900
s off
f 49//24 50//24 51//24
f 52//25 53//25 50//25
f 54//26 55//26 53//26
f 56//27 51//27 55//27
f 50//28 53//28 55//28
f 54//29 52//29 49//29
f 56//24 49//24 51//24
f 49//25 52//25 50//25
f 52//26 54//26 53//26
f 54//30 56//30 55//30
f 51//28 50//28 55//28
f 56//29 54//29 49//29
v -5.750000 0.375001 0.875000
v -5.750000 -0.374999 0.875000
v -5.750000 -0.375002 3.625000
v -5.250000 0.375001 0.875000
v -5.250000 -0.374999 0.875000
v -5.250000 0.374998 3.625000
v -5.250000 -0.375002 3.625000
v -5.750000 0.374998 3.625000
vn -1.000000 -0.000000 0.000000
vn 0.000000 0.000000 -1.000000
vn 1.000000 0.000000 0.000000
vn 0.000000 0.000000 1.000000
vn 0.000000 -1.000000 -0.000000
vn 0.000000 1.000000 0.000000
s 1
f 57//31 58//31 59//31
f 60//32 61//32 58//32
f 62//33 63//33 61//33
f 64//34 59//34 63//34
f 58//35 61//35 63//35
f 60//36 57//36 64//36
f 64//31 57//31 59//31
f 57//32 60//32 58//32
f 60//33 62//33 61//33
f 62//34 64//34 63//34
f 59//35 58//35 63//35
f 62//36 60//36 64//36
v -5.029090 0.374998 4.851199
v -3.660550 -0.375002 7.657122
v -5.029090 -0.375002 4.851199
v -5.589450 0.374998 4.842878
v -5.589450 -0.375002 4.842878
v -4.220910 0.374998 7.648802
v -4.220910 -0.375002 7.648802
v -3.660550 0.374998 7.657122
vn 0.898800 0.000000 -0.438400
vn 0.014800 0.000000 -0.999900
vn -0.898800 0.000000 0.438400
vn -0.014800 0.000000 0.999900
vn -0.000000 -1.000000 -0.000000
vn 0.000000 1.000000 0.000000
vn 0.014900 0.000000 -0.999900
s off
f 65//37 66//37 67//37
f 68//38 67//38 69//38
f 70//39 69//39 71//39
f 72//40 71//40 66//40
f 67//41 71//41 69//41
f 70//42 65//42 68//42
f 72//37 66//37 65//37
f 65//43 67//43 68//43
f 68//39 69//39 70//39
f 70//40 71//40 72//40
f 66//41 71//41 67//41
f 72//42 65//42 70//42
v 0.375000 0.375002 -5.750000
v 3.125000 -0.375000 -5.750000
v 0.375000 -0.374998 -5.750000
v 0.375000 0.375002 -5.250000
v 0.375000 -0.374998 -5.250000
v 3.125000 0.375000 -5.250000
v 3.125000 -0.375000 -5.250000
v 3.125000 0.375000 -5.750000
vn 0.000000 0.000000 -1.000000
vn -1.000000 0.000000 0.000000
vn 0.000000 0.000000 1.000000
vn 1.000000 0.000000 0.000000
vn -0.000000 -1.000000 -0.000000
vn 0.000000 1.000000 0.000000
s 1
f 73//44 74//44 75//44
f 76//45 75//45 77//45
f 78//46 77//46 79//46
f 80//47 79//47 74//47
f 75//48 79//48 77//48
f 76//49 80//49 73//49
f 80//44 74//44 73//44
f 73//45 75//45 76//45
f 76//46 77//46 78//46
f 78//47 79//47 80//47
f 74//48 79//48 75//48
f 78//49 80//49 76//49
v -0.601199 0.375001 -5.029090
v -3.407122 -0.374999 -3.660550
v -0.601199 -0.374999 -5.029090
v -0.592877 0.375001 -5.589450
v -0.592877 -0.374999 -5.589450
v -3.398802 0.375001 -4.220911
v -3.398802 -0.374999 -4.220911
v -3.407122 0.375001 -3.660550
vn 0.438400 0.000000 0.898800
vn 0.999900 0.000000 0.014800
vn -0.438400 0.000000 -0.898800
vn -0.999900 0.000000 -0.014800
vn -0.000000 -1.000000 -0.000000
vn 0.000000 1.000000 0.000000
s off
f 81//50 82//50 83//50
f 84//51 83//51 85//51
f 86//52 85//52 87//52
f 88//53 87//53 82//53
f 83//54 87//54 85//54
f 86//55 81//55 84//55
f 88//50 82//50 81//50
f 81//51 83//51 84//51
f 84//52 85//52 86//52
f 86//53 87//53 88//53
f 82//54 87//54 83//54
f 88//55 81//55 86//55
v 6.866136 -0.379870 5.534992
v 6.875000 -0.379870 5.625000
v 6.875000 0.370130 5.625000
v 6.866136 0.370130 5.534992
v 6.312500 -0.379870 5.625000
v 6.294487 -0.379870 5.807895
v 6.241138 -0.379870 5.983765
v 6.154504 -0.379870 6.145846
v 6.037914 -0.379870 6.287911
v 5.895849 -0.379870 6.404501
v 5.733768 -0.379870 6.491136
v 5.557899 -0.379870 6.544486
v 5.375001 -0.379870 6.562499
v 5.375002 -0.379870 7.124999
v 5.667638 -0.379870 7.096177
v 5.949027 -0.379870 7.010818
v 6.208358 -0.379870 6.872203
v 6.435662 -0.379870 6.685658
v 6.622206 -0.379870 6.458353
v 6.760820 -0.379870 6.199023
v 6.846179 -0.379870 5.917633
v 6.303635 -0.379870 5.534992
v 6.846179 0.370130 5.917633
v 6.402253 0.370130 5.534992
v 6.303635 0.370130 5.534992
v 6.312500 0.370130 5.625000
v 6.294487 0.370130 5.807895
v 6.241138 0.370130 5.983765
v 6.154504 0.370130 6.145846
v 6.037914 0.370130 6.287911
v 5.895849 0.370130 6.404501
v 5.733768 0.370130 6.491136
v 5.557899 0.370130 6.544486
v 5.375001 0.370130 6.562499
v 3.883865 -0.379870 5.534992
v 3.875000 -0.379870 5.625000
v 3.903822 -0.379870 5.917635
v 3.989182 -0.379870 6.199025
v 4.127797 -0.379870 6.458355
v 4.314341 -0.379870 6.685660
v 4.541646 -0.379870 6.872204
v 4.800976 -0.379870 7.010819
v 5.082366 -0.379870 7.096177
v 5.192104 -0.379870 6.544486
v 5.016235 -0.379870 6.491137
v 4.854154 -0.379870 6.404502
v 4.712089 -0.379870 6.287912
v 4.595498 -0.379870 6.145847
v 4.508863 -0.379870 5.983766
v 4.455514 -0.379870 5.807897
v 4.437500 -0.379870 5.625000
v 4.446365 -0.379870 5.534992
v 5.375002 0.370130 7.124999
v 5.667638 0.370130 7.096177
v 5.949027 0.370130 7.010818
v 6.208358 0.370130 6.872203
v 6.435662 0.370130 6.685658
v 6.622206 0.370130 6.458353
v 6.760820 0.370130 6.199023
v 5.082366 0.370130 7.096177
v 4.800976 0.370130 7.010819
v 4.541646 0.370130 6.872204
v 4.314341 0.370130 6.685660
v 4.127797 0.370130 6.458355
v 3.989182 0.370130 6.199025
v 3.903822 0.370130 5.917635
v 3.875000 0.370130 5.625000
v 4.437500 0.370130 5.625000
v 4.455514 0.370130 5.807897
v 4.508863 0.370130 5.983766
v 4.595498 0.370130 6.145847
v 4.712089 0.370130 6.287912
v 4.854154 0.370130 6.404502
v 5.016235 0.370130 6.491137
v 5.192104 0.370130 6.544486
v 3.883865 0.370130 5.534992
v 4.446365 0.370130 5.534992
vn 0.995200 0.000000 -0.098000
vn 0.000000 -1.000000 0.000000
vn 0.995200 0.000000 0.098000
vn 0.000000 1.000000 -0.000000
vn -0.995200 0.000000 0.098000
vn -0.995200 0.000000 -0.098000
vn -0.956900 0.000000 -0.290300
vn -0.881900 0.000000 -0.471400
vn -0.773000 0.000000 -0.634400
vn -0.634400 0.000000 -0.773000
vn -0.471400 0.000000 -0.881900
vn -0.290300 0.000000 -0.956900
vn -0.098000 0.000000 -0.995200
vn 0.098000 0.000000 0.995200
vn 0.290300 0.000000 0.956900
vn 0.471400 0.000000 0.881900
vn 0.634400 0.000000 0.773000
vn 0.773000 0.000000 0.634400
vn 0.881900 0.000000 0.471400
vn 0.956900 0.000000 0.290300
vn 0.098000 0.000000 -0.995200
vn -0.956900 0.000000 0.290300
vn -0.881900 0.000000 0.471400
vn -0.773000 0.000000 0.634400
vn -0.634400 0.000000 0.773000
vn -0.471400 0.000000 0.881900
vn -0.290300 0.000000 0.956900
vn -0.098000 0.000000 0.995200
vn 0.290300 0.000000 -0.956900
vn 0.471400 0.000000 -0.881900
vn 0.634400 0.000000 -0.773000
vn 0.773000 0.000000 -0.634400
vn 0.881900 0.000000 -0.471400
vn 0.956900 0.000000 -0.290300
vn 0.000000 0.000000 -1.000000
s off
f 92//56 91//56 90//56
f 108//57 107//57 96//57
f 90//58 91//58 111//58
f 112//59 111//59 91//59
f 110//60 93//60 114//60
f 115//61 114//61 93//61
f 116//62 115//62 94//62
f 117//63 116//63 95//63
f 118//64 117//64 96//64
f 119//65 118//65 97//65
f 120//66 119//66 98//66
f 121//67 120//67 99//67
f 122//68 121//68 100//68
f 126//57 136//57 127//57
f 103//69 142//69 141//69
f 104//70 143//70 142//70
f 105//71 144//71 143//71
f 106//72 145//72 144//72
f 107//73 146//73 145//73
f 108//74 147//74 146//74
f 109//75 111//75 147//75
f 121//59 141//59 142//59
f 163//76 122//76 101//76
f 123//61 124//61 155//61
f 125//60 154//60 155//60
f 126//77 153//77 154//77
f 127//78 152//78 153//78
f 128//79 151//79 152//79
f 129//80 150//80 151//80
f 130//81 149//81 150//81
f 131//82 148//82 149//82
f 102//83 141//83 148//83
f 162//84 163//84 132//84
f 161//85 162//85 133//85
f 160//86 161//86 134//86
f 159//87 160//87 135//87
f 158//88 159//88 136//88
f 157//89 158//89 137//89
f 156//56 157//56 138//56
f 165//58 156//58 139//58
f 164//59 155//59 156//59
f 165//90 140//90 123//90
f 110//90 112//90 89//90
f 89//56 92//56 90//56
f 102//57 101//57 100//57
f 93//57 110//57 89//57
f 103//57 100//57 99//57
f 90//57 93//57 89//57
f 104//57 99//57 98//57
f 90//57 94//57 93//57
f 105//57 98//57 97//57
f 90//57 109//57 94//57
f 106//57 97//57 96//57
f 100//57 103//57 102//57
f 98//57 105//57 104//57
f 96//57 107//57 106//57
f 96//57 95//57 108//57
f 109//57 95//57 94//57
f 104//57 103//57 99//57
f 97//57 106//57 105//57
f 108//57 95//57 109//57
f 109//58 90//58 111//58
f 92//59 112//59 91//59
f 113//60 110//60 114//60
f 94//61 115//61 93//61
f 95//62 116//62 94//62
f 96//63 117//63 95//63
f 97//64 118//64 96//64
f 98//65 119//65 97//65
f 99//66 120//66 98//66
f 100//67 121//67 99//67
f 101//68 122//68 100//68
f 139//57 124//57 123//57
f 137//57 126//57 125//57
f 135//57 128//57 127//57
f 134//57 133//57 129//57
f 132//57 102//57 131//57
f 123//57 140//57 139//57
f 132//57 101//57 102//57
f 124//57 139//57 138//57
f 133//57 132//57 131//57
f 125//57 138//57 137//57
f 130//57 133//57 131//57
f 126//57 137//57 136//57
f 130//57 129//57 133//57
f 127//57 136//57 135//57
f 138//57 125//57 124//57
f 135//57 129//57 128//57
f 129//57 135//57 134//57
f 102//69 103//69 141//69
f 103//70 104//70 142//70
f 104//71 105//71 143//71
f 105//72 106//72 144//72
f 106//73 107//73 145//73
f 107//74 108//74 146//74
f 108//75 109//75 147//75
f 115//59 111//59 112//59
f 117//59 146//59 147//59
f 119//59 144//59 145//59
f 121//59 142//59 143//59
f 122//59 148//59 141//59
f 162//59 150//59 149//59
f 160//59 152//59 151//59
f 158//59 154//59 153//59
f 157//59 156//59 155//59
f 112//59 113//59 114//59
f 154//59 157//59 155//59
f 112//59 114//59 115//59
f 154//59 158//59 157//59
f 147//59 115//59 116//59
f 153//59 159//59 158//59
f 147//59 111//59 115//59
f 153//59 152//59 159//59
f 147//59 116//59 117//59
f 152//59 160//59 159//59
f 146//59 117//59 118//59
f 151//59 161//59 160//59
f 145//59 118//59 119//59
f 151//59 150//59 161//59
f 144//59 119//59 120//59
f 150//59 162//59 161//59
f 143//59 120//59 121//59
f 149//59 163//59 162//59
f 145//59 146//59 118//59
f 149//59 148//59 163//59
f 122//59 163//59 148//59
f 120//59 143//59 144//59
f 141//59 121//59 122//59
f 132//76 163//76 101//76
f 164//61 123//61 155//61
f 124//60 125//60 155//60
f 125//77 126//77 154//77
f 126//78 127//78 153//78
f 127//79 128//79 152//79
f 128//80 129//80 151//80
f 129//81 130//81 150//81
f 130//82 131//82 149//82
f 131//83 102//83 148//83
f 133//84 162//84 132//84
f 134//85 161//85 133//85
f 135//86 160//86 134//86
f 136//87 159//87 135//87
f 137//88 158//88 136//88
f 138//89 157//89 137//89
f 139//56 156//56 138//56
f 140//58 165//58 139//58
f 165//59 164//59 156//59
f 164//90 165//90 123//90
f 112//90 110//90 113//90
f 112//90 92//90 89//90
v 6.866136 -0.379870 -5.534992
v 6.875000 -0.379870 -5.625000
v 6.875000 0.370130 -5.625000
v 6.866136 0.370130 -5.534992
v 6.312500 -0.379870 -5.625000
v 6.294487 -0.379870 -5.807895
v 6.241138 -0.379870 -5.983764
v 6.154504 -0.379870 -6.145845
v 6.037914 -0.379870 -6.287911
v 5.895849 -0.379870 -6.404501
v 5.733768 -0.379870 -6.491136
v 5.557899 -0.379870 -6.544486
v 5.375001 -0.379870 -6.562499
v 5.375002 -0.379870 -7.124999
v 5.667638 -0.379870 -7.096177
v 5.949027 -0.379870 -7.010818
v 6.208358 -0.379870 -6.872203
v 6.435662 -0.379870 -6.685658
v 6.622206 -0.379870 -6.458353
v 6.760820 -0.379870 -6.199023
v 6.846179 -0.379870 -5.917633
v 6.303635 -0.379870 -5.534992
v 6.846179 0.370130 -5.917633
v 6.402253 0.370130 -5.534992
v 6.303635 0.370130 -5.534992
v 6.312500 0.370130 -5.625000
v 6.294487 0.370130 -5.807895
v 6.241138 0.370130 -5.983764
v 6.154504 0.370130 -6.145845
v 6.037914 0.370130 -6.287911
v 5.895849 0.370130 -6.404501
v 5.733768 0.370130 -6.491136
v 5.557899 0.370130 -6.544486
v 5.375001 0.370130 -6.562499
v 3.883865 -0.379870 -5.534992
v 3.875000 -0.379870 -5.625000
v 3.903822 -0.379870 -5.917635
v 3.989182 -0.379870 -6.199025
v 4.127797 -0.379870 -6.458355
v 4.314341 -0.379870 -6.685661
v 4.541646 -0.379870 -6.872204
v 4.800976 -0.379870 -7.010819
v 5.082366 -0.379870 -7.096177
v 5.192104 -0.379870 -6.544486
v 5.016235 -0.379870 -6.491137
v 4.854154 -0.379870 -6.404502
v 4.712089 -0.379870 -6.287913
v 4.595498 -0.379870 -6.145847
v 4.508863 -0.379870 -5.983766
v 4.455514 -0.379870 -5.807898
v 4.437500 -0.379870 -5.625000
v 4.446365 -0.379870 -5.534992
v 5.375002 0.370130 -7.124999
v 5.667638 0.370130 -7.096177
v 5.949027 0.370130 -7.010818
v 6.208358 0.370130 -6.872203
v 6.435662 0.370130 -6.685658
v 6.622206 0.370130 -6.458353
v 6.760820 0.370130 -6.199023
v 5.082366 0.370130 -7.096177
v 4.800976 0.370130 -7.010819
v 4.541646 0.370130 -6.872204
v 4.314341 0.370130 -6.685661
v 4.127797 0.370130 -6.458355
v 3.989182 0.370130 -6.199025
v 3.903822 0.370130 -5.917635
v 3.875000 0.370130 -5.625000
v 4.437500 0.370130 -5.625000
v 4.455514 0.370130 -5.807898
v 4.508863 0.370130 -5.983766
v 4.595498 0.370130 -6.145847
v 4.712089 0.370130 -6.287913
v 4.854154 0.370130 -6.404502
v 5.016235 0.370130 -6.491137
v 5.192104 0.370130 -6.544486
v 3.883865 0.370130 -5.534992
v 4.446365 0.370130 -5.534992
vn 0.995200 0.000000 0.098000
vn 0.000000 -1.000000 0.000000
vn 0.995200 0.000000 -0.098000
vn 0.000000 1.000000 0.000000
vn -0.995200 0.000000 -0.098000
vn -0.995200 0.000000 0.098000
vn -0.956900 0.000000 0.290300
vn -0.881900 0.000000 0.471400
vn -0.773000 0.000000 0.634400
vn -0.634400 0.000000 0.773000
vn -0.471400 0.000000 0.881900
vn -0.290300 0.000000 0.956900
vn -0.098000 0.000000 0.995200
vn 0.098000 0.000000 -0.995200
vn 0.290300 0.000000 -0.956900
vn 0.471400 0.000000 -0.881900
vn 0.634400 0.000000 -0.773000
vn 0.773000 0.000000 -0.634400
vn 0.881900 0.000000 -0.471400
vn 0.956900 0.000000 -0.290300
vn 0.098000 0.000000 0.995200
vn -0.956900 0.000000 -0.290300
vn -0.881900 0.000000 -0.471400
vn -0.773000 0.000000 -0.634400
vn -0.634400 0.000000 -0.773000
vn -0.471400 0.000000 -0.881900
vn -0.290300 0.000000 -0.956900
vn -0.098000 0.000000 -0.995200
vn 0.290300 0.000000 0.956900
vn 0.471400 0.000000 0.881900
vn 0.634400 0.000000 0.773000
vn 0.773000 0.000000 0.634400
vn 0.881900 0.000000 0.471400
vn 0.956900 0.000000 0.290300
vn 0.000000 0.000000 1.000000
s off
f 167//91 168//91 169//91
f 173//92 184//92 185//92
f 188//93 168//93 167//93
f 168//94 188//94 189//94
f 191//95 170//95 187//95
f 170//96 191//96 192//96
f 171//97 192//97 193//97
f 172//98 193//98 194//98
f 173//99 194//99 195//99
f 174//100 195//100 196//100
f 175//101 196//101 197//101
f 176//102 197//102 198//102
f 177//103 198//103 199//103
f 213//92 204//92 212//92
f 218//104 219//104 180//104
f 219//105 220//105 181//105
f 220//106 221//106 182//106
f 221//107 222//107 183//107
f 222//108 223//108 184//108
f 223//109 224//109 185//109
f 224//110 188//110 186//110
f 198//94 218//94 199//94
f 178//111 199//111 240//111
f 232//96 201//96 200//96
f 232//95 231//95 202//95
f 231//112 230//112 203//112
f 230//113 229//113 204//113
f 229//114 228//114 205//114
f 228//115 227//115 206//115
f 227//116 226//116 207//116
f 226//117 225//117 208//117
f 225//118 218//118 179//118
f 209//119 240//119 239//119
f 210//120 239//120 238//120
f 211//121 238//121 237//121
f 212//122 237//122 236//122
f 213//123 236//123 235//123
f 214//124 235//124 234//124
f 215//91 234//91 233//91
f 216//93 233//93 242//93
f 233//94 232//94 241//94
f 200//125 217//125 242//125
f 189//125 187//125 166//125
f 166//91 167//91 169//91
f 166//92 187//92 170//92
f 170//92 167//92 166//92
f 172//92 185//92 186//92
f 174//92 183//92 184//92
f 175//92 181//92 182//92
f 177//92 179//92 180//92
f 167//92 170//92 171//92
f 177//92 178//92 179//92
f 186//92 171//92 172//92
f 176//92 177//92 180//92
f 185//92 172//92 173//92
f 181//92 176//92 180//92
f 184//92 173//92 174//92
f 181//92 175//92 176//92
f 174//92 182//92 183//92
f 171//92 186//92 167//92
f 182//92 174//92 175//92
f 186//93 188//93 167//93
f 169//94 168//94 189//94
f 190//95 191//95 187//95
f 171//96 170//96 192//96
f 172//97 171//97 193//97
f 173//98 172//98 194//98
f 174//99 173//99 195//99
f 175//100 174//100 196//100
f 176//101 175//101 197//101
f 177//102 176//102 198//102
f 178//103 177//103 199//103
f 216//92 217//92 200//92
f 179//92 178//92 209//92
f 201//92 216//92 200//92
f 208//92 209//92 210//92
f 201//92 215//92 216//92
f 207//92 210//92 211//92
f 202//92 203//92 215//92
f 206//92 211//92 212//92
f 215//92 203//92 214//92
f 215//92 201//92 202//92
f 213//92 203//92 204//92
f 212//92 205//92 206//92
f 210//92 207//92 208//92
f 208//92 179//92 209//92
f 203//92 213//92 214//92
f 212//92 204//92 205//92
f 206//92 207//92 211//92
f 179//104 218//104 180//104
f 180//105 219//105 181//105
f 181//106 220//106 182//106
f 182//107 221//107 183//107
f 183//108 222//108 184//108
f 184//109 223//109 185//109
f 185//110 224//110 186//110
f 191//94 190//94 189//94
f 232//94 233//94 234//94
f 192//94 191//94 189//94
f 231//94 234//94 235//94
f 188//94 192//94 189//94
f 230//94 235//94 236//94
f 193//94 192//94 188//94
f 229//94 236//94 237//94
f 224//94 193//94 188//94
f 228//94 237//94 238//94
f 224//94 194//94 193//94
f 231//94 232//94 234//94
f 224//94 223//94 194//94
f 227//94 238//94 239//94
f 194//94 223//94 195//94
f 230//94 231//94 235//94
f 223//94 222//94 195//94
f 226//94 239//94 240//94
f 195//94 222//94 196//94
f 229//94 230//94 236//94
f 222//94 221//94 196//94
f 225//94 240//94 199//94
f 196//94 221//94 197//94
f 220//94 197//94 221//94
f 198//94 220//94 219//94
f 199//94 218//94 225//94
f 239//94 226//94 227//94
f 237//94 228//94 229//94
f 220//94 198//94 197//94
f 227//94 228//94 238//94
f 240//94 225//94 226//94
f 218//94 198//94 219//94
f 209//111 178//111 240//111
f 241//96 232//96 200//96
f 201//95 232//95 202//95
f 202//112 231//112 203//112
f 203//113 230//113 204//113
f 204//114 229//114 205//114
f 205//115 228//115 206//115
f 206//116 227//116 207//116
f 207//117 226//117 208//117
f 208//118 225//118 179//118
f 210//119 209//119 239//119
f 211//120 210//120 238//120
f 212//121 211//121 237//121
f 213//122 212//122 236//122
f 214//123 213//123 235//123
f 215//124 214//124 234//124
f 216//91 215//91 233//91
f 217//93 216//93 242//93
f 242//94 233//94 241//94
f 241//125 200//125 242//125
f 187//125 189//125 190//125
f 189//125 166//125 169//125
