# Blender v2.75 (sub 0) OBJ File: 'dead_head_d2u_dig_f1.blend'
# www.blender.org
v 1.479660 0.375001 -4.250000
v 3.367635 0.375001 -6.500000
v 3.367635 -0.374999 -6.500000
v 2.749999 -0.374999 -5.763931
v 2.749999 0.374997 -5.763931
v 2.423647 0.374997 -5.375000
v 2.423647 -0.374999 -5.375000
v 1.479660 -0.374999 -4.250000
v 2.132364 0.375001 -4.250000
v 4.020339 0.375001 -6.500000
v 4.020339 -0.374999 -6.500000
v 3.076351 -0.374999 -5.375000
v 4.020338 -0.375003 -4.250000
v 2.132364 -0.375003 -6.500000
v 2.132364 0.374997 -6.500000
v 3.076351 0.374997 -5.375000
v 4.020338 0.374997 -4.250000
v 1.479662 0.374997 -6.500000
v 3.367635 0.374997 -4.250000
v 2.750000 0.374997 -4.986069
v 2.750000 -0.374999 -4.986069
v 1.479662 -0.375003 -6.500000
v 3.367635 -0.375003 -4.250000
v 2.132364 -0.374999 -4.250000
v -4.020340 0.375001 -4.250000
v -2.132365 0.375001 -6.500000
v -2.132365 -0.374999 -6.500000
v -2.750001 -0.374999 -5.763931
v -2.750001 0.374997 -5.763931
v -3.076353 0.374997 -5.375000
v -3.076353 -0.374999 -5.375000
v -4.020340 -0.374999 -4.250000
v -3.367636 0.375001 -4.250000
v -1.479661 0.375001 -6.500000
v -1.479661 -0.374999 -6.500000
v -2.423649 -0.374999 -5.375000
v -1.479662 -0.375003 -4.250000
v -3.367636 -0.375003 -6.500000
v -3.367636 0.374997 -6.500000
v -2.423649 0.374997 -5.375000
v -1.479662 0.374997 -4.250000
v -4.020339 0.374997 -6.500000
v -2.132365 0.374997 -4.250000
v -2.750000 0.374997 -4.986069
v -2.750000 -0.374999 -4.986069
v -4.020339 -0.375003 -6.500000
v -2.132365 -0.375003 -4.250000
v -3.367636 -0.374999 -4.250000
vn -0.763200 0.053700 -0.643900
vn -0.766000 0.000000 -0.642800
vn -0.757300 0.000000 -0.653100
vn 0.000000 1.000000 0.000000
vn 0.000000 0.000000 -1.000000
vn -0.000000 -1.000000 -0.000000
vn 0.765000 0.054300 -0.641800
vn 0.766000 -0.000000 -0.642800
vn 0.769800 -0.077900 -0.633500
vn -0.732500 0.289100 0.616400
vn -0.749100 -0.209200 0.628500
vn -0.766000 0.000000 0.642800
vn 0.739600 0.294300 0.605300
vn 0.760000 -0.106500 0.641100
vn 0.766000 0.000100 0.642800
vn 0.000000 0.000000 1.000000
vn -0.755000 -0.077600 -0.651100
vn 0.772200 0.000000 -0.635400
vn -0.761600 -0.107700 0.639000
vn 0.706900 0.406100 0.579100
vn 0.766000 0.000000 0.642800
vn -0.766000 -0.000100 0.642800
s 1
f 6//1 2//2 5//3
f 9//4 10//4 2//4
f 11//5 3//5 2//5
f 12//6 4//6 3//6
f 12//7 14//8 4//9
f 6//4 5//4 15//4
f 21//10 7//11 23//12
f 7//6 21//6 24//6
f 20//13 16//14 9//15
f 23//6 22//6 14//6
f 15//5 14//5 22//5
f 16//4 20//4 19//4
f 8//16 24//16 9//16
f 19//16 23//16 13//16
f 30//1 26//2 29//17
f 33//4 34//4 26//4
f 35//5 27//5 26//5
f 36//6 28//6 27//6
f 36//7 38//8 28//18
f 30//4 29//4 39//4
f 45//10 31//19 47//12
f 31//6 45//6 48//6
f 44//20 40//14 33//15
f 47//6 46//6 38//6
f 39//5 38//5 46//5
f 40//4 44//4 43//4
f 32//16 48//16 33//16
f 43//16 47//16 37//16
f 6//1 8//2 1//2
f 3//2 4//2 5//3
f 6//1 7//2 8//2
f 2//2 3//2 5//3
f 2//2 6//1 1//2
f 1//4 9//4 2//4
f 10//5 11//5 2//5
f 11//6 12//6 3//6
f 12//7 17//8 13//8
f 15//8 5//8 4//9
f 12//7 16//8 17//8
f 14//8 15//8 4//9
f 14//8 12//7 13//8
f 18//4 6//4 15//4
f 7//11 18//12 22//12
f 21//10 19//12 20//12
f 7//11 6//12 18//12
f 23//12 19//12 21//10
f 7//11 22//12 23//12
f 8//6 7//6 24//6
f 16//14 11//21 10//21
f 20//13 24//21 21//21
f 16//14 12//21 11//21
f 9//15 24//21 20//13
f 16//14 10//21 9//15
f 13//6 23//6 14//6
f 18//5 15//5 22//5
f 17//4 16//4 19//4
f 1//16 8//16 9//16
f 17//16 19//16 13//16
f 30//1 32//2 25//2
f 27//2 28//2 29//17
f 30//1 31//2 32//2
f 26//2 27//2 29//17
f 26//2 30//1 25//2
f 25//4 33//4 26//4
f 34//5 35//5 26//5
f 35//6 36//6 27//6
f 36//7 41//8 37//8
f 39//8 29//8 28//18
f 36//7 40//8 41//8
f 38//8 39//8 28//18
f 38//8 36//7 37//8
f 42//4 30//4 39//4
f 31//19 42//12 46//22
f 45//10 43//12 44//12
f 31//19 30//12 42//12
f 47//12 43//12 45//10
f 31//19 46//22 47//12
f 32//6 31//6 48//6
f 40//14 35//21 34//21
f 44//20 48//21 45//21
f 40//14 36//21 35//21
f 33//15 48//21 44//20
f 40//14 34//21 33//15
f 37//6 47//6 38//6
f 42//5 39//5 46//5
f 41//4 40//4 43//4
f 25//16 32//16 33//16
f 41//16 43//16 37//16
v -3.660550 -0.375001 7.657122
v -5.029090 -0.375001 4.851199
v -5.029090 0.374999 4.851199
v -5.589450 -0.375001 4.842878
v -5.589450 0.374999 4.842878
v -4.220910 -0.375001 7.648802
v -4.220910 0.374999 7.648802
v -3.660550 0.374999 7.657122
vn 0.898800 0.000000 -0.438400
vn 0.014800 0.000000 -0.999900
vn -0.898800 0.000000 0.438400
vn -0.014800 0.000000 0.999900
vn -0.000000 -1.000000 -0.000000
vn -0.000000 1.000000 0.000000
vn 0.014900 0.000000 -0.999900
s off
f 49//23 50//23 51//23
f 50//24 52//24 53//24
f 52//25 54//25 55//25
f 54//26 49//26 56//26
f 54//27 52//27 50//27
f 55//28 56//28 51//28
f 56//23 49//23 51//23
f 51//29 50//29 53//29
f 53//25 52//25 55//25
f 55//26 54//26 56//26
f 49//27 54//27 50//27
f 53//28 55//28 51//28
v -5.750000 0.375000 0.875000
v -5.750000 -0.375000 0.875000
v -5.750000 -0.375002 3.625000
v -5.250000 0.375000 0.875000
v -5.250000 -0.375000 0.875000
v -5.250000 0.374998 3.625000
v -5.250000 -0.375002 3.625000
v -5.750000 0.374998 3.625000
vn -1.000000 -0.000000 0.000000
vn 0.000000 0.000000 -1.000000
vn 1.000000 0.000000 0.000000
vn 0.000000 0.000000 1.000000
vn 0.000000 -1.000000 -0.000000
vn 0.000000 1.000000 0.000000
s 1
f 57//30 58//30 59//30
f 60//31 61//31 58//31
f 62//32 63//32 61//32
f 64//33 59//33 63//33
f 58//34 61//34 63//34
f 60//35 57//35 64//35
f 64//30 57//30 59//30
f 57//31 60//31 58//31
f 60//32 62//32 61//32
f 62//33 64//33 63//33
f 59//34 58//34 63//34
f 62//35 60//35 64//35
v 5.250000 0.375002 -3.125000
v 5.250000 -0.374998 -3.125000
v 5.250000 -0.375000 -0.375000
v 5.750000 0.375002 -3.125000
v 5.750000 -0.374998 -3.125000
v 5.750000 0.375000 -0.375000
v 5.750000 -0.375000 -0.375000
v 5.250000 0.375000 -0.375000
vn -1.000000 -0.000000 0.000000
vn 0.000000 0.000000 -1.000000
vn 1.000000 0.000000 0.000000
vn 0.000000 -0.000000 1.000000
vn 0.000000 -1.000000 -0.000000
vn 0.000000 1.000000 0.000000
s 1
f 65//36 66//36 67//36
f 68//37 69//37 66//37
f 70//38 71//38 69//38
f 72//39 67//39 71//39
f 66//40 69//40 71//40
f 68//41 65//41 72//41
f 72//36 65//36 67//36
f 65//37 68//37 66//37
f 68//38 70//38 69//38
f 70//39 72//39 71//39
f 67//40 66//40 71//40
f 70//41 68//41 72//41
v 5.250000 0.375000 0.875000
v 5.250000 -0.375000 0.875000
v 5.250000 -0.375002 3.625000
v 5.750000 0.375000 0.875000
v 5.750000 -0.375000 0.875000
v 5.750000 0.374998 3.625000
v 5.750000 -0.375002 3.625000
v 5.250000 0.374998 3.625000
vn -1.000000 0.000000 0.000000
vn 0.000000 0.000000 -1.000000
vn 1.000000 -0.000000 0.000000
vn 0.000000 0.000000 1.000000
vn 0.000000 -1.000000 -0.000000
vn 0.000000 1.000000 0.000000
s 1
f 73//42 74//42 75//42
f 76//43 77//43 74//43
f 78//44 79//44 77//44
f 80//45 75//45 79//45
f 74//46 77//46 79//46
f 76//47 73//47 80//47
f 80//42 73//42 75//42
f 73//43 76//43 74//43
f 76//44 78//44 77//44
f 78//45 80//45 79//45
f 75//46 74//46 79//46
f 78//47 76//47 80//47
v -5.750000 0.375002 -3.125000
v -5.750000 -0.374998 -3.125000
v -5.750000 -0.375000 -0.375000
v -5.250000 0.375002 -3.125000
v -5.250000 -0.374998 -3.125000
v -5.250000 0.375000 -0.375000
v -5.250000 -0.375000 -0.375000
v -5.750000 0.375000 -0.375000
vn -1.000000 0.000000 0.000000
vn 0.000000 0.000000 -1.000000
vn 1.000000 -0.000000 0.000000
vn 0.000000 -0.000000 1.000000
vn 0.000000 -1.000000 -0.000000
vn 0.000000 1.000000 0.000000
s 1
f 81//48 82//48 83//48
f 84//49 85//49 82//49
f 86//50 87//50 85//50
f 88//51 83//51 87//51
f 82//52 85//52 87//52
f 84//53 81//53 88//53
f 88//48 81//48 83//48
f 81//49 84//49 82//49
f 84//50 86//50 85//50
f 86//51 88//51 87//51
f 83//52 82//52 87//52
f 86//53 84//53 88//53
v 5.029090 0.374999 4.851200
v 5.029090 -0.375001 4.851200
v 3.660550 -0.375001 7.657122
v 5.589450 0.374999 4.842878
v 5.589450 -0.375001 4.842878
v 4.220910 0.374999 7.648801
v 4.220910 -0.375001 7.648801
v 3.660550 0.374999 7.657122
vn -0.898800 0.000000 -0.438400
vn -0.014900 0.000000 -0.999900
vn 0.898800 0.000000 0.438400
vn 0.014800 0.000000 0.999900
vn 0.000000 -1.000000 -0.000000
vn -0.000000 1.000000 0.000000
s off
f 89//54 90//54 91//54
f 92//55 93//55 90//55
f 94//56 95//56 93//56
f 96//57 91//57 95//57
f 90//58 93//58 95//58
f 94//59 92//59 89//59
f 96//54 89//54 91//54
f 89//55 92//55 90//55
f 92//56 94//56 93//56
f 94//57 96//57 95//57
f 91//58 90//58 95//58
f 96//59 94//59 89//59
v 5.534992 -0.375000 -6.866135
v 5.625000 -0.375000 -6.875000
v 5.625000 0.375000 -6.875000
v 5.534992 0.375000 -6.866135
v 5.625000 -0.375000 -6.312500
v 5.807896 -0.375000 -6.294487
v 5.983765 -0.375000 -6.241138
v 6.145846 -0.375000 -6.154504
v 6.287911 -0.375000 -6.037914
v 6.404502 -0.375000 -5.895848
v 6.491137 -0.375000 -5.733767
v 6.544486 -0.375000 -5.557899
v 6.562500 -0.375000 -5.375001
v 7.125000 -0.375000 -5.375002
v 7.096178 -0.375000 -5.667637
v 7.010818 -0.375000 -5.949027
v 6.872203 -0.375000 -6.208357
v 6.685659 -0.375000 -6.435662
v 6.458354 -0.375000 -6.622206
v 6.199023 -0.375000 -6.760820
v 5.917633 -0.375000 -6.846178
v 5.534992 -0.375000 -6.303635
v 5.917633 0.375000 -6.846178
v 5.534992 0.375000 -6.402253
v 5.534992 0.375000 -6.303635
v 5.625000 0.375000 -6.312500
v 5.807896 0.375000 -6.294487
v 5.983765 0.375000 -6.241138
v 6.145846 0.375000 -6.154504
v 6.287911 0.375000 -6.037914
v 6.404502 0.375000 -5.895848
v 6.491137 0.375000 -5.733767
v 6.544486 0.375000 -5.557899
v 6.562500 0.375000 -5.375001
v 5.534992 -0.375000 -3.883865
v 5.625000 -0.375000 -3.875000
v 5.917636 -0.375000 -3.903822
v 6.199025 -0.375000 -3.989181
v 6.458355 -0.375000 -4.127796
v 6.685661 -0.375000 -4.314341
v 6.872205 -0.375000 -4.541646
v 7.010820 -0.375000 -4.800976
v 7.096178 -0.375000 -5.082366
v 6.544487 -0.375000 -5.192104
v 6.491137 -0.375000 -5.016235
v 6.404502 -0.375000 -4.854154
v 6.287913 -0.375000 -4.712088
v 6.145847 -0.375000 -4.595498
v 5.983766 -0.375000 -4.508863
v 5.807898 -0.375000 -4.455514
v 5.625000 -0.375000 -4.437500
v 5.534992 -0.375000 -4.446365
v 7.125000 0.375000 -5.375002
v 7.096178 0.375000 -5.667637
v 7.010818 0.375000 -5.949027
v 6.872203 0.375000 -6.208357
v 6.685659 0.375000 -6.435662
v 6.458354 0.375000 -6.622206
v 6.199023 0.375000 -6.760820
v 7.096178 0.375000 -5.082366
v 7.010820 0.375000 -4.800976
v 6.872205 0.375000 -4.541646
v 6.685661 0.375000 -4.314341
v 6.458355 0.375000 -4.127796
v 6.199025 0.375000 -3.989181
v 5.917636 0.375000 -3.903822
v 5.625000 0.375000 -3.875000
v 5.625000 0.375000 -4.437500
v 5.807898 0.375000 -4.455514
v 5.983766 0.375000 -4.508863
v 6.145847 0.375000 -4.595498
v 6.287913 0.375000 -4.712088
v 6.404502 0.375000 -4.854154
v 6.491137 0.375000 -5.016235
v 6.544487 0.375000 -5.192104
v 5.534992 0.375000 -3.883865
v 5.534992 0.375000 -4.446365
vn -0.098000 0.000000 -0.995200
vn 0.000000 -1.000000 0.000000
vn 0.098000 0.000000 -0.995200
vn 0.000000 1.000000 0.000000
vn 0.098000 0.000000 0.995200
vn -0.098000 0.000000 0.995200
vn -0.290300 0.000000 0.956900
vn -0.471400 0.000000 0.881900
vn -0.634400 0.000000 0.773000
vn -0.773000 0.000000 0.634400
vn -0.881900 0.000000 0.471400
vn -0.956900 0.000000 0.290300
vn -0.995200 0.000000 0.098000
vn 0.995200 0.000000 -0.098000
vn 0.956900 0.000000 -0.290300
vn 0.881900 0.000000 -0.471400
vn 0.773000 0.000000 -0.634400
vn 0.634400 0.000000 -0.773000
vn 0.471400 0.000000 -0.881900
vn 0.290300 0.000000 -0.956900
vn -0.995200 0.000000 -0.098000
vn 0.290300 0.000000 0.956900
vn 0.471400 0.000000 0.881900
vn 0.634400 0.000000 0.773000
vn 0.773000 0.000000 0.634400
vn 0.881900 0.000000 0.471400
vn 0.956900 0.000000 0.290300
vn 0.995200 0.000000 0.098000
vn -0.956900 0.000000 -0.290300
vn -0.881900 0.000000 -0.471400
vn -0.773000 0.000000 -0.634400
vn -0.634400 0.000000 -0.773000
vn -0.471400 0.000000 -0.881900
vn -0.290300 0.000000 -0.956900
vn -1.000000 0.000000 0.000000
s off
f 100//60 99//60 98//60
f 116//61 115//61 104//61
f 98//62 99//62 119//62
f 120//63 119//63 99//63
f 118//64 101//64 122//64
f 123//65 122//65 101//65
f 124//66 123//66 102//66
f 125//67 124//67 103//67
f 126//68 125//68 104//68
f 127//69 126//69 105//69
f 128//70 127//70 106//70
f 129//71 128//71 107//71
f 130//72 129//72 108//72
f 134//61 144//61 135//61
f 111//73 150//73 149//73
f 112//74 151//74 150//74
f 113//75 152//75 151//75
f 114//76 153//76 152//76
f 115//77 154//77 153//77
f 116//78 155//78 154//78
f 117//79 119//79 155//79
f 129//63 149//63 150//63
f 171//80 130//80 109//80
f 131//65 132//65 163//65
f 133//64 162//64 163//64
f 134//81 161//81 162//81
f 135//82 160//82 161//82
f 136//83 159//83 160//83
f 137//84 158//84 159//84
f 138//85 157//85 158//85
f 139//86 156//86 157//86
f 110//87 149//87 156//87
f 170//88 171//88 140//88
f 169//89 170//89 141//89
f 168//90 169//90 142//90
f 167//91 168//91 143//91
f 166//92 167//92 144//92
f 165//93 166//93 145//93
f 164//60 165//60 146//60
f 173//62 164//62 147//62
f 172//63 163//63 164//63
f 173//94 148//94 131//94
f 118//94 120//94 97//94
f 97//60 100//60 98//60
f 110//61 109//61 108//61
f 101//61 118//61 97//61
f 111//61 108//61 107//61
f 98//61 101//61 97//61
f 112//61 107//61 106//61
f 98//61 102//61 101//61
f 113//61 106//61 105//61
f 98//61 117//61 102//61
f 114//61 105//61 104//61
f 108//61 111//61 110//61
f 106//61 113//61 112//61
f 104//61 115//61 114//61
f 104//61 103//61 116//61
f 117//61 103//61 102//61
f 112//61 111//61 107//61
f 105//61 114//61 113//61
f 116//61 103//61 117//61
f 117//62 98//62 119//62
f 100//63 120//63 99//63
f 121//64 118//64 122//64
f 102//65 123//65 101//65
f 103//66 124//66 102//66
f 104//67 125//67 103//67
f 105//68 126//68 104//68
f 106//69 127//69 105//69
f 107//70 128//70 106//70
f 108//71 129//71 107//71
f 109//72 130//72 108//72
f 147//61 132//61 131//61
f 145//61 134//61 133//61
f 143//61 136//61 135//61
f 142//61 138//61 137//61
f 140//61 110//61 139//61
f 131//61 148//61 147//61
f 140//61 109//61 110//61
f 132//61 147//61 146//61
f 141//61 140//61 139//61
f 133//61 146//61 145//61
f 138//61 141//61 139//61
f 134//61 145//61 144//61
f 138//61 142//61 141//61
f 135//61 144//61 143//61
f 146//61 133//61 132//61
f 143//61 137//61 136//61
f 137//61 143//61 142//61
f 110//73 111//73 149//73
f 111//74 112//74 150//74
f 112//75 113//75 151//75
f 113//76 114//76 152//76
f 114//77 115//77 153//77
f 115//78 116//78 154//78
f 116//79 117//79 155//79
f 123//63 119//63 120//63
f 125//63 154//63 155//63
f 127//63 152//63 153//63
f 129//63 150//63 151//63
f 130//63 156//63 149//63
f 170//63 158//63 157//63
f 168//63 160//63 159//63
f 166//63 162//63 161//63
f 165//63 164//63 163//63
f 120//63 121//63 122//63
f 162//63 165//63 163//63
f 120//63 122//63 123//63
f 162//63 166//63 165//63
f 155//63 123//63 124//63
f 161//63 167//63 166//63
f 155//63 119//63 123//63
f 161//63 160//63 167//63
f 155//63 124//63 125//63
f 160//63 168//63 167//63
f 154//63 125//63 126//63
f 159//63 169//63 168//63
f 153//63 126//63 127//63
f 159//63 158//63 169//63
f 152//63 127//63 128//63
f 158//63 170//63 169//63
f 151//63 128//63 129//63
f 157//63 171//63 170//63
f 153//63 154//63 126//63
f 157//63 156//63 171//63
f 130//63 171//63 156//63
f 128//63 151//63 152//63
f 149//63 129//63 130//63
f 140//80 171//80 109//80
f 172//65 131//65 163//65
f 132//64 133//64 163//64
f 133//81 134//81 162//81
f 134//82 135//82 161//82
f 135//83 136//83 160//83
f 136//84 137//84 159//84
f 137//85 138//85 158//85
f 138//86 139//86 157//86
f 139//87 110//87 156//87
f 141//88 170//88 140//88
f 142//89 169//89 141//89
f 143//90 168//90 142//90
f 144//91 167//91 143//91
f 145//92 166//92 144//92
f 146//93 165//93 145//93
f 147//60 164//60 146//60
f 148//62 173//62 147//62
f 173//63 172//63 164//63
f 172//94 173//94 131//94
f 120//94 118//94 121//94
f 120//94 100//94 97//94
v -5.534992 -0.375000 -6.866135
v -5.625000 -0.375000 -6.875000
v -5.625000 0.375000 -6.875000
v -5.534992 0.375000 -6.866135
v -5.625000 -0.375000 -6.312500
v -5.807896 -0.375000 -6.294487
v -5.983765 -0.375000 -6.241138
v -6.145846 -0.375000 -6.154504
v -6.287911 -0.375000 -6.037914
v -6.404502 -0.375000 -5.895848
v -6.491137 -0.375000 -5.733767
v -6.544486 -0.375000 -5.557899
v -6.562500 -0.375000 -5.375001
v -7.125000 -0.375000 -5.375002
v -7.096178 -0.375000 -5.667637
v -7.010818 -0.375000 -5.949027
v -6.872203 -0.375000 -6.208357
v -6.685659 -0.375000 -6.435662
v -6.458354 -0.375000 -6.622206
v -6.199023 -0.375000 -6.760820
v -5.917633 -0.375000 -6.846178
v -5.534992 -0.375000 -6.303635
v -5.917633 0.375000 -6.846178
v -5.534992 0.375000 -6.402253
v -5.534992 0.375000 -6.303635
v -5.625000 0.375000 -6.312500
v -5.807896 0.375000 -6.294487
v -5.983765 0.375000 -6.241138
v -6.145846 0.375000 -6.154504
v -6.287911 0.375000 -6.037914
v -6.404502 0.375000 -5.895848
v -6.491137 0.375000 -5.733767
v -6.544486 0.375000 -5.557899
v -6.562500 0.375000 -5.375001
v -5.534992 -0.375000 -3.883865
v -5.625000 -0.375000 -3.875000
v -5.917636 -0.375000 -3.903822
v -6.199025 -0.375000 -3.989181
v -6.458355 -0.375000 -4.127796
v -6.685661 -0.375000 -4.314341
v -6.872205 -0.375000 -4.541646
v -7.010820 -0.375000 -4.800976
v -7.096178 -0.375000 -5.082366
v -6.544487 -0.375000 -5.192104
v -6.491137 -0.375000 -5.016235
v -6.404502 -0.375000 -4.854154
v -6.287913 -0.375000 -4.712088
v -6.145847 -0.375000 -4.595498
v -5.983766 -0.375000 -4.508863
v -5.807898 -0.375000 -4.455514
v -5.625000 -0.375000 -4.437500
v -5.534992 -0.375000 -4.446365
v -7.125000 0.375000 -5.375002
v -7.096178 0.375000 -5.667637
v -7.010818 0.375000 -5.949027
v -6.872203 0.375000 -6.208357
v -6.685659 0.375000 -6.435662
v -6.458354 0.375000 -6.622206
v -6.199023 0.375000 -6.760820
v -7.096178 0.375000 -5.082366
v -7.010820 0.375000 -4.800976
v -6.872205 0.375000 -4.541646
v -6.685661 0.375000 -4.314341
v -6.458355 0.375000 -4.127796
v -6.199025 0.375000 -3.989181
v -5.917636 0.375000 -3.903822
v -5.625000 0.375000 -3.875000
v -5.625000 0.375000 -4.437500
v -5.807898 0.375000 -4.455514
v -5.983766 0.375000 -4.508863
v -6.145847 0.375000 -4.595498
v -6.287913 0.375000 -4.712088
v -6.404502 0.375000 -4.854154
v -6.491137 0.375000 -5.016235
v -6.544487 0.375000 -5.192104
v -5.534992 0.375000 -3.883865
v -5.534992 0.375000 -4.446365
vn 0.098000 0.000000 -0.995200
vn 0.000000 -1.000000 0.000000
vn -0.098000 0.000000 -0.995200
vn 0.000000 1.000000 0.000000
vn -0.098000 0.000000 0.995200
vn 0.098000 0.000000 0.995200
vn 0.290300 0.000000 0.956900
vn 0.471400 0.000000 0.881900
vn 0.634400 0.000000 0.773000
vn 0.773000 0.000000 0.634400
vn 0.881900 0.000000 0.471400
vn 0.956900 0.000000 0.290300
vn 0.995200 0.000000 0.098000
vn -0.995200 0.000000 -0.098000
vn -0.956900 0.000000 -0.290300
vn -0.881900 0.000000 -0.471400
vn -0.773000 0.000000 -0.634400
vn -0.634400 0.000000 -0.773000
vn -0.471400 0.000000 -0.881900
vn -0.290300 0.000000 -0.956900
vn 0.995200 0.000000 -0.098000
vn -0.290300 0.000000 0.956900
vn -0.471400 0.000000 0.881900
vn -0.634400 0.000000 0.773000
vn -0.773000 0.000000 0.634400
vn -0.881900 0.000000 0.471400
vn -0.956900 0.000000 0.290300
vn -0.995200 0.000000 0.098000
vn 0.956900 0.000000 -0.290300
vn 0.881900 0.000000 -0.471400
vn 0.773000 0.000000 -0.634400
vn 0.634400 0.000000 -0.773000
vn 0.471400 0.000000 -0.881900
vn 0.290300 0.000000 -0.956900
vn 1.000000 0.000000 0.000000
s off
f 175//95 176//95 177//95
f 181//96 192//96 193//96
f 196//97 176//97 175//97
f 176//98 196//98 197//98
f 199//99 178//99 195//99
f 178//100 199//100 200//100
f 179//101 200//101 201//101
f 180//102 201//102 202//102
f 181//103 202//103 203//103
f 182//104 203//104 204//104
f 183//105 204//105 205//105
f 184//106 205//106 206//106
f 185//107 206//107 207//107
f 221//96 212//96 220//96
f 226//108 227//108 188//108
f 227//109 228//109 189//109
f 228//110 229//110 190//110
f 229//111 230//111 191//111
f 230//112 231//112 192//112
f 231//113 232//113 193//113
f 232//114 196//114 194//114
f 206//98 226//98 207//98
f 186//115 207//115 248//115
f 240//100 209//100 208//100
f 240//99 239//99 210//99
f 239//116 238//116 211//116
f 238//117 237//117 212//117
f 237//118 236//118 213//118
f 236//119 235//119 214//119
f 235//120 234//120 215//120
f 234//121 233//121 216//121
f 233//122 226//122 187//122
f 217//123 248//123 247//123
f 218//124 247//124 246//124
f 219//125 246//125 245//125
f 220//126 245//126 244//126
f 221//127 244//127 243//127
f 222//128 243//128 242//128
f 223//95 242//95 241//95
f 224//97 241//97 250//97
f 241//98 240//98 249//98
f 208//129 225//129 250//129
f 197//129 195//129 174//129
f 174//95 175//95 177//95
f 174//96 195//96 178//96
f 178//96 175//96 174//96
f 180//96 193//96 194//96
f 182//96 191//96 192//96
f 183//96 189//96 190//96
f 185//96 187//96 188//96
f 175//96 178//96 179//96
f 185//96 186//96 187//96
f 194//96 179//96 180//96
f 184//96 185//96 188//96
f 193//96 180//96 181//96
f 189//96 184//96 188//96
f 192//96 181//96 182//96
f 189//96 183//96 184//96
f 182//96 190//96 191//96
f 179//96 194//96 175//96
f 190//96 182//96 183//96
f 194//97 196//97 175//97
f 177//98 176//98 197//98
f 198//99 199//99 195//99
f 179//100 178//100 200//100
f 180//101 179//101 201//101
f 181//102 180//102 202//102
f 182//103 181//103 203//103
f 183//104 182//104 204//104
f 184//105 183//105 205//105
f 185//106 184//106 206//106
f 186//107 185//107 207//107
f 224//96 225//96 208//96
f 187//96 186//96 217//96
f 209//96 224//96 208//96
f 216//96 217//96 218//96
f 209//96 223//96 224//96
f 215//96 218//96 219//96
f 210//96 222//96 223//96
f 214//96 219//96 220//96
f 210//96 211//96 222//96
f 223//96 209//96 210//96
f 221//96 211//96 212//96
f 220//96 213//96 214//96
f 218//96 215//96 216//96
f 216//96 187//96 217//96
f 211//96 221//96 222//96
f 220//96 212//96 213//96
f 214//96 215//96 219//96
f 187//108 226//108 188//108
f 188//109 227//109 189//109
f 189//110 228//110 190//110
f 190//111 229//111 191//111
f 191//112 230//112 192//112
f 192//113 231//113 193//113
f 193//114 232//114 194//114
f 199//98 198//98 197//98
f 240//98 241//98 242//98
f 200//98 199//98 197//98
f 239//98 242//98 243//98
f 196//98 200//98 197//98
f 238//98 243//98 244//98
f 201//98 200//98 196//98
f 237//98 244//98 245//98
f 232//98 201//98 196//98
f 236//98 245//98 246//98
f 232//98 202//98 201//98
f 239//98 240//98 242//98
f 232//98 231//98 202//98
f 235//98 246//98 247//98
f 202//98 231//98 203//98
f 238//98 239//98 243//98
f 231//98 230//98 203//98
f 234//98 247//98 248//98
f 203//98 230//98 204//98
f 237//98 238//98 244//98
f 230//98 229//98 204//98
f 233//98 248//98 207//98
f 204//98 229//98 205//98
f 228//98 205//98 229//98
f 206//98 228//98 227//98
f 207//98 226//98 233//98
f 247//98 234//98 235//98
f 245//98 236//98 237//98
f 228//98 206//98 205//98
f 235//98 236//98 246//98
f 248//98 233//98 234//98
f 226//98 206//98 227//98
f 217//115 186//115 248//115
f 249//100 240//100 208//100
f 209//99 240//99 210//99
f 210//116 239//116 211//116
f 211//117 238//117 212//117
f 212//118 237//118 213//118
f 213//119 236//119 214//119
f 214//120 235//120 215//120
f 215//121 234//121 216//121
f 216//122 233//122 187//122
f 218//123 217//123 247//123
f 219//124 218//124 246//124
f 220//125 219//125 245//125
f 221//126 220//126 244//126
f 222//127 221//127 243//127
f 223//128 222//128 242//128
f 224//95 223//95 241//95
f 225//97 224//97 250//97
f 250//98 241//98 249//98
f 249//129 208//129 250//129
f 195//129 197//129 198//129
f 197//129 174//129 177//129
