# Blender v2.75 (sub 0) OBJ File: 'head_asc_f2.blend'
# www.blender.org
v 5.534992 -1.133865 -0.375000
v 5.625000 -1.125000 -0.375000
v 5.625000 -1.125000 0.375000
v 5.534992 -1.133865 0.375000
v 5.625000 -1.687500 -0.375000
v 5.807896 -1.705513 -0.375000
v 5.983765 -1.758862 -0.375000
v 6.145846 -1.845496 -0.375000
v 6.287911 -1.962086 -0.375000
v 6.404502 -2.104152 -0.375000
v 6.491137 -2.266233 -0.375000
v 6.544486 -2.442101 -0.375000
v 6.562500 -2.624999 -0.375000
v 7.125000 -2.624998 -0.375000
v 7.096178 -2.332363 -0.375000
v 7.010818 -2.050973 -0.375000
v 6.872203 -1.791643 -0.375000
v 6.685659 -1.564338 -0.375000
v 6.458354 -1.377794 -0.375000
v 6.199023 -1.239179 -0.375000
v 5.917633 -1.153822 -0.375000
v 5.534992 -1.696365 -0.375000
v 5.917633 -1.153822 0.375000
v 5.534992 -1.597747 0.375000
v 5.534992 -1.696365 0.375000
v 5.625000 -1.687500 0.375000
v 5.807896 -1.705513 0.375000
v 5.983765 -1.758862 0.375000
v 6.145846 -1.845496 0.375000
v 6.287911 -1.962086 0.375000
v 6.404502 -2.104152 0.375000
v 6.491137 -2.266233 0.375000
v 6.544486 -2.442101 0.375000
v 6.562500 -2.624999 0.375000
v 5.534992 -4.116135 -0.375000
v 5.625000 -4.125000 -0.375000
v 5.917636 -4.096178 -0.375000
v 6.199025 -4.010819 -0.375000
v 6.458355 -3.872204 -0.375000
v 6.685661 -3.685659 -0.375000
v 6.872205 -3.458354 -0.375000
v 7.010820 -3.199024 -0.375000
v 7.096178 -2.917634 -0.375000
v 6.544487 -2.807896 -0.375000
v 6.491137 -2.983765 -0.375000
v 6.404502 -3.145846 -0.375000
v 6.287913 -3.287912 -0.375000
v 6.145847 -3.404502 -0.375000
v 5.983766 -3.491137 -0.375000
v 5.807898 -3.544486 -0.375000
v 5.625000 -3.562500 -0.375000
v 5.534992 -3.553635 -0.375000
v 7.125000 -2.624998 0.375000
v 7.096178 -2.332363 0.375000
v 7.010818 -2.050973 0.375000
v 6.872203 -1.791643 0.375000
v 6.685659 -1.564338 0.375000
v 6.458354 -1.377794 0.375000
v 6.199023 -1.239179 0.375000
v 7.096178 -2.917634 0.375000
v 7.010820 -3.199024 0.375000
v 6.872205 -3.458354 0.375000
v 6.685661 -3.685659 0.375000
v 6.458355 -3.872204 0.375000
v 6.199025 -4.010819 0.375000
v 5.917636 -4.096178 0.375000
v 5.625000 -4.125000 0.375000
v 5.625000 -3.562500 0.375000
v 5.807898 -3.544486 0.375000
v 5.983766 -3.491137 0.375000
v 6.145847 -3.404502 0.375000
v 6.287913 -3.287912 0.375000
v 6.404502 -3.145846 0.375000
v 6.491137 -2.983765 0.375000
v 6.544487 -2.807896 0.375000
v 5.534992 -4.116135 0.375000
v 5.534992 -3.553635 0.375000
v 3.660550 -7.657122 -0.375000
v 3.660550 -7.657122 0.375000
v 5.029090 -4.851200 -0.375000
v 5.029090 -4.851200 0.375000
v 4.220910 -7.648801 -0.375000
v 4.220910 -7.648801 0.375000
v 5.589450 -4.842878 -0.375000
v 5.589450 -4.842878 0.375000
v -2.000000 6.875000 -0.375000
v -2.000000 6.875000 0.375000
v -2.000000 7.375000 -0.375000
v -2.000000 7.375000 0.375000
v 2.000000 6.875000 -0.375000
v 2.000000 6.875000 0.375000
v 2.000000 7.375000 -0.375000
v 2.000000 7.375000 0.375000
v 3.714669 3.217428 -0.375000
v 3.714669 3.217428 0.375000
v 2.345724 6.024182 -0.375000
v 2.345724 6.024182 0.375000
v 3.154276 3.225818 -0.375000
v 3.154276 3.225818 0.375000
v 1.785331 6.032572 -0.375000
v 1.785331 6.032572 0.375000
v 5.589450 -0.407122 -0.375000
v 5.589450 -0.407122 0.375000
v 4.220910 2.398800 -0.375000
v 4.220910 2.398800 0.375000
v 5.029090 -0.398800 -0.375000
v 5.029090 -0.398800 0.375000
v 3.660550 2.407122 -0.375000
v 3.660550 2.407122 0.375000
v 1.876828 -2.993678 0.375000
v 1.876828 -2.993678 -0.375000
v 2.671392 -2.812500 0.375000
v 3.761962 -2.303958 0.375000
v 3.761962 -2.303958 -0.375000
v 2.671392 -2.812500 -0.375000
v 3.768167 -1.749376 0.375000
v 3.768167 -1.749376 -0.375000
v 1.876828 -2.631322 0.375000
v 1.876828 -2.631322 -0.375000
v 3.761963 -3.321041 0.375000
v 3.761963 -3.321041 -0.375000
v 3.768167 -3.875624 0.375000
v 3.768167 -3.875624 -0.375000
v -3.714450 3.217878 -0.375000
v -3.714450 3.217878 0.375000
v -2.345910 6.023801 -0.375000
v -2.345910 6.023801 0.375000
v -3.154090 3.226199 -0.375000
v -3.154090 3.226199 0.375000
v -1.785550 6.032122 -0.375000
v -1.785550 6.032122 0.375000
v -5.589450 -0.407122 -0.375000
v -5.589450 -0.407122 0.375000
v -4.220910 2.398801 -0.375000
v -4.220910 2.398801 0.375000
v -5.029090 -0.398800 -0.375000
v -5.029090 -0.398801 0.375000
v -3.660550 2.407122 -0.375000
v -3.660550 2.407122 0.375000
v -1.876828 -2.993678 0.375000
v -1.876828 -2.993678 -0.375000
v -2.671392 -2.812500 0.375000
v -3.761963 -2.303958 0.375000
v -3.761963 -2.303958 -0.375000
v -2.671392 -2.812500 -0.375000
v -3.768167 -1.749376 0.375000
v -3.768167 -1.749376 -0.375000
v -1.876828 -2.631322 0.375000
v -1.876828 -2.631322 -0.375000
v -3.761963 -3.321041 0.375000
v -3.761963 -3.321041 -0.375000
v -3.768167 -3.875624 0.375000
v -3.768167 -3.875624 -0.375000
v -5.534992 -1.133865 -0.375000
v -5.625000 -1.125000 -0.375000
v -5.625000 -1.125000 0.375000
v -5.534992 -1.133865 0.375000
v -5.625000 -1.687500 -0.375000
v -5.807896 -1.705513 -0.375000
v -5.983765 -1.758862 -0.375000
v -6.145846 -1.845496 -0.375000
v -6.287911 -1.962086 -0.375000
v -6.404502 -2.104152 -0.375000
v -6.491137 -2.266233 -0.375000
v -6.544486 -2.442101 -0.375000
v -6.562500 -2.624999 -0.375000
v -7.125000 -2.624998 -0.375000
v -7.096178 -2.332363 -0.375000
v -7.010818 -2.050973 -0.375000
v -6.872203 -1.791643 -0.375000
v -6.685658 -1.564338 -0.375000
v -6.458353 -1.377794 -0.375000
v -6.199023 -1.239179 -0.375000
v -5.917633 -1.153822 -0.375000
v -5.534992 -1.696365 -0.375000
v -5.917633 -1.153822 0.375000
v -5.534992 -1.597747 0.375000
v -5.534992 -1.696365 0.375000
v -5.625000 -1.687500 0.375000
v -5.807896 -1.705513 0.375000
v -5.983765 -1.758862 0.375000
v -6.145846 -1.845496 0.375000
v -6.287911 -1.962086 0.375000
v -6.404502 -2.104152 0.375000
v -6.491137 -2.266233 0.375000
v -6.544486 -2.442101 0.375000
v -6.562500 -2.624999 0.375000
v -5.534992 -4.116135 -0.375000
v -5.625000 -4.125000 -0.375000
v -5.917636 -4.096178 -0.375000
v -6.199025 -4.010819 -0.375000
v -6.458356 -3.872204 -0.375000
v -6.685661 -3.685659 -0.375000
v -6.872205 -3.458354 -0.375000
v -7.010819 -3.199024 -0.375000
v -7.096178 -2.917634 -0.375000
v -6.544487 -2.807896 -0.375000
v -6.491138 -2.983765 -0.375000
v -6.404503 -3.145846 -0.375000
v -6.287913 -3.287912 -0.375000
v -6.145847 -3.404502 -0.375000
v -5.983767 -3.491137 -0.375000
v -5.807898 -3.544486 -0.375000
v -5.625000 -3.562500 -0.375000
v -5.534992 -3.553635 -0.375000
v -7.125000 -2.624998 0.375000
v -7.096178 -2.332363 0.375000
v -7.010818 -2.050973 0.375000
v -6.872203 -1.791643 0.375000
v -6.685658 -1.564338 0.375000
v -6.458353 -1.377794 0.375000
v -6.199023 -1.239179 0.375000
v -7.096178 -2.917634 0.375000
v -7.010819 -3.199024 0.375000
v -6.872205 -3.458354 0.375000
v -6.685661 -3.685659 0.375000
v -6.458356 -3.872204 0.375000
v -6.199025 -4.010819 0.375000
v -5.917636 -4.096178 0.375000
v -5.625000 -4.125000 0.375000
v -5.625000 -3.562500 0.375000
v -5.807898 -3.544486 0.375000
v -5.983767 -3.491137 0.375000
v -6.145847 -3.404502 0.375000
v -6.287913 -3.287912 0.375000
v -6.404503 -3.145846 0.375000
v -6.491138 -2.983765 0.375000
v -6.544487 -2.807896 0.375000
v -5.534992 -4.116135 0.375000
v -5.534992 -3.553635 0.375000
v -3.660550 -7.657122 -0.375000
v -3.660550 -7.657122 0.375000
v -5.029090 -4.851200 -0.375000
v -5.029090 -4.851200 0.375000
v -4.220910 -7.648801 -0.375000
v -4.220910 -7.648801 0.375000
v -5.589450 -4.842878 -0.375000
v -5.589450 -4.842878 0.375000
vn -0.098000 0.995200 0.000000
vn 0.000000 0.000000 -1.000000
vn 0.098000 0.995200 0.000000
vn 0.000000 0.000000 1.000000
vn 0.098000 -0.995200 0.000000
vn -0.098000 -0.995200 0.000000
vn -0.290300 -0.956900 0.000000
vn -0.471400 -0.881900 0.000000
vn -0.634400 -0.773000 0.000000
vn -0.773000 -0.634400 0.000000
vn -0.881900 -0.471400 0.000000
vn -0.956900 -0.290300 0.000000
vn -0.995200 -0.098000 0.000000
vn 0.995200 0.098000 0.000000
vn 0.956900 0.290300 0.000000
vn 0.881900 0.471400 0.000000
vn 0.773000 0.634400 0.000000
vn 0.634400 0.773000 0.000000
vn 0.471400 0.881900 0.000000
vn 0.290300 0.956900 0.000000
vn -0.995200 0.098000 0.000000
vn 0.290300 -0.956900 0.000000
vn 0.471400 -0.881900 0.000000
vn 0.634400 -0.773000 0.000000
vn 0.773000 -0.634400 0.000000
vn 0.881900 -0.471400 0.000000
vn 0.956900 -0.290300 0.000000
vn 0.995200 -0.098000 0.000000
vn -0.956900 0.290300 0.000000
vn -0.881900 0.471400 0.000000
vn -0.773000 0.634400 0.000000
vn -0.634400 0.773000 0.000000
vn -0.471400 0.881900 0.000000
vn -0.290300 0.956900 0.000000
vn -1.000000 0.000000 0.000000
vn -0.898800 0.438400 0.000000
vn -0.014800 0.999900 0.000000
vn 0.898800 -0.438400 0.000000
vn 0.014800 -0.999900 0.000000
vn 0.000000 1.000000 0.000000
vn 1.000000 -0.000000 0.000000
vn 0.000000 -1.000000 0.000000
vn 0.898800 0.438400 0.000000
vn 0.015000 0.999900 0.000000
vn -0.898800 -0.438400 0.000000
vn -0.015000 -0.999900 0.000000
vn 0.014800 0.999900 0.000000
vn -0.014800 -0.999900 -0.000000
vn 0.422600 -0.906300 0.000000
vn -0.422600 0.906300 0.000000
vn 0.999900 -0.011200 0.000000
vn 0.422600 0.906300 0.000000
vn 0.999900 0.011200 0.000000
vn -0.422600 -0.906300 0.000000
vn -0.999900 -0.011200 0.000000
vn -0.999900 0.011200 0.000000
s off
f 4//1 3//1 2//1
f 20//2 19//2 8//2
f 2//3 3//3 23//3
f 24//4 23//4 3//4
f 22//5 5//5 26//5
f 27//6 26//6 5//6
f 28//7 27//7 6//7
f 29//8 28//8 7//8
f 30//9 29//9 8//9
f 31//10 30//10 9//10
f 32//11 31//11 10//11
f 33//12 32//12 11//12
f 34//13 33//13 12//13
f 38//2 48//2 39//2
f 15//14 54//14 53//14
f 16//15 55//15 54//15
f 17//16 56//16 55//16
f 18//17 57//17 56//17
f 19//18 58//18 57//18
f 20//19 59//19 58//19
f 21//20 23//20 59//20
f 33//4 53//4 54//4
f 75//21 34//21 13//21
f 35//6 36//6 67//6
f 37//5 66//5 67//5
f 38//22 65//22 66//22
f 39//23 64//23 65//23
f 40//24 63//24 64//24
f 41//25 62//25 63//25
f 42//26 61//26 62//26
f 43//27 60//27 61//27
f 14//28 53//28 60//28
f 74//29 75//29 44//29
f 73//30 74//30 45//30
f 72//31 73//31 46//31
f 71//32 72//32 47//32
f 70//33 71//33 48//33
f 69//34 70//34 49//34
f 68//1 69//1 50//1
f 77//3 68//3 51//3
f 76//4 67//4 68//4
f 76//35 77//35 52//35
f 22//35 24//35 1//35
f 79//36 81//36 80//36
f 85//37 84//37 80//37
f 83//38 82//38 84//38
f 79//39 78//39 82//39
f 80//2 84//2 82//2
f 83//4 85//4 81//4
f 89//35 88//35 86//35
f 93//40 92//40 88//40
f 91//41 90//41 92//41
f 87//42 86//42 90//42
f 88//2 92//2 90//2
f 93//4 89//4 87//4
f 95//43 94//43 96//43
f 96//44 100//44 101//44
f 100//45 98//45 99//45
f 98//46 94//46 95//46
f 98//2 100//2 96//2
f 99//4 95//4 97//4
f 102//43 104//43 105//43
f 104//47 108//47 109//47
f 108//45 106//45 107//45
f 106//48 102//48 103//48
f 106//2 108//2 104//2
f 107//4 103//4 105//4
f 112//49 115//49 114//49
f 119//50 118//50 116//50
f 114//51 117//51 116//51
f 116//4 118//4 112//4
f 118//4 110//4 112//4
f 121//52 115//52 112//52
f 122//53 123//53 121//53
f 123//54 122//54 110//54
f 112//4 110//4 122//4
f 115//2 121//2 123//2
f 110//35 118//35 119//35
f 115//2 119//2 117//2
f 115//2 111//2 119//2
f 127//36 126//36 124//36
f 131//37 130//37 126//37
f 129//38 128//38 130//38
f 125//39 124//39 128//39
f 126//2 130//2 128//2
f 129//4 131//4 127//4
f 135//36 134//36 132//36
f 139//37 138//37 134//37
f 137//38 136//38 138//38
f 133//39 132//39 136//39
f 134//2 138//2 136//2
f 137//4 139//4 135//4
f 143//54 144//54 145//54
f 147//52 146//52 148//52
f 146//55 147//55 144//55
f 142//4 148//4 146//4
f 148//4 142//4 140//4
f 142//50 145//50 151//50
f 150//56 151//56 153//56
f 140//49 152//49 153//49
f 152//4 140//4 142//4
f 153//2 151//2 145//2
f 149//41 148//41 140//41
f 145//2 144//2 147//2
f 145//2 149//2 141//2
f 155//3 156//3 157//3
f 161//2 172//2 173//2
f 176//1 156//1 155//1
f 156//4 176//4 177//4
f 179//6 158//6 175//6
f 158//5 179//5 180//5
f 159//22 180//22 181//22
f 160//23 181//23 182//23
f 161//24 182//24 183//24
f 162//25 183//25 184//25
f 163//26 184//26 185//26
f 164//27 185//27 186//27
f 165//28 186//28 187//28
f 201//2 192//2 200//2
f 206//21 207//21 168//21
f 207//29 208//29 169//29
f 208//30 209//30 170//30
f 209//31 210//31 171//31
f 210//32 211//32 172//32
f 211//33 212//33 173//33
f 212//34 176//34 174//34
f 207//4 206//4 187//4
f 166//14 187//14 228//14
f 220//5 189//5 188//5
f 220//6 219//6 190//6
f 219//7 218//7 191//7
f 218//8 217//8 192//8
f 217//9 216//9 193//9
f 216//10 215//10 194//10
f 215//11 214//11 195//11
f 214//12 213//12 196//12
f 213//13 206//13 167//13
f 197//15 228//15 227//15
f 198//16 227//16 226//16
f 199//17 226//17 225//17
f 200//18 225//18 224//18
f 201//19 224//19 223//19
f 202//20 223//20 222//20
f 203//3 222//3 221//3
f 204//1 221//1 230//1
f 221//4 220//4 229//4
f 229//41 188//41 205//41
f 177//41 175//41 154//41
f 231//43 233//43 234//43
f 233//47 237//47 238//47
f 237//45 235//45 236//45
f 235//48 231//48 232//48
f 235//2 237//2 233//2
f 236//4 232//4 234//4
f 1//1 4//1 2//1
f 14//2 13//2 12//2
f 5//2 22//2 1//2
f 15//2 12//2 11//2
f 2//2 5//2 1//2
f 16//2 11//2 10//2
f 2//2 6//2 5//2
f 17//2 10//2 9//2
f 2//2 21//2 6//2
f 18//2 9//2 8//2
f 12//2 15//2 14//2
f 10//2 17//2 16//2
f 8//2 19//2 18//2
f 8//2 7//2 20//2
f 21//2 7//2 6//2
f 16//2 15//2 11//2
f 9//2 18//2 17//2
f 20//2 7//2 21//2
f 21//3 2//3 23//3
f 4//4 24//4 3//4
f 25//5 22//5 26//5
f 6//6 27//6 5//6
f 7//7 28//7 6//7
f 8//8 29//8 7//8
f 9//9 30//9 8//9
f 10//10 31//10 9//10
f 11//11 32//11 10//11
f 12//12 33//12 11//12
f 13//13 34//13 12//13
f 51//2 36//2 35//2
f 49//2 38//2 37//2
f 47//2 40//2 39//2
f 46//2 42//2 41//2
f 44//2 14//2 43//2
f 35//2 52//2 51//2
f 44//2 13//2 14//2
f 36//2 51//2 50//2
f 45//2 44//2 43//2
f 37//2 50//2 49//2
f 42//2 45//2 43//2
f 38//2 49//2 48//2
f 42//2 46//2 45//2
f 39//2 48//2 47//2
f 50//2 37//2 36//2
f 47//2 41//2 40//2
f 41//2 47//2 46//2
f 14//14 15//14 53//14
f 15//15 16//15 54//15
f 16//16 17//16 55//16
f 17//17 18//17 56//17
f 18//18 19//18 57//18
f 19//19 20//19 58//19
f 20//20 21//20 59//20
f 27//4 23//4 24//4
f 29//4 58//4 59//4
f 31//4 56//4 57//4
f 33//4 54//4 55//4
f 34//4 60//4 53//4
f 74//4 62//4 61//4
f 72//4 64//4 63//4
f 70//4 66//4 65//4
f 69//4 68//4 67//4
f 24//4 25//4 26//4
f 66//4 69//4 67//4
f 24//4 26//4 27//4
f 66//4 70//4 69//4
f 59//4 27//4 28//4
f 65//4 71//4 70//4
f 59//4 23//4 27//4
f 65//4 64//4 71//4
f 59//4 28//4 29//4
f 64//4 72//4 71//4
f 58//4 29//4 30//4
f 63//4 73//4 72//4
f 57//4 30//4 31//4
f 63//4 62//4 73//4
f 56//4 31//4 32//4
f 62//4 74//4 73//4
f 55//4 32//4 33//4
f 61//4 75//4 74//4
f 57//4 58//4 30//4
f 61//4 60//4 75//4
f 34//4 75//4 60//4
f 32//4 55//4 56//4
f 53//4 33//4 34//4
f 44//21 75//21 13//21
f 76//6 35//6 67//6
f 36//5 37//5 67//5
f 37//22 38//22 66//22
f 38//23 39//23 65//23
f 39//24 40//24 64//24
f 40//25 41//25 63//25
f 41//26 42//26 62//26
f 42//27 43//27 61//27
f 43//28 14//28 60//28
f 45//29 74//29 44//29
f 46//30 73//30 45//30
f 47//31 72//31 46//31
f 48//32 71//32 47//32
f 49//33 70//33 48//33
f 50//34 69//34 49//34
f 51//1 68//1 50//1
f 52//3 77//3 51//3
f 77//4 76//4 68//4
f 35//35 76//35 52//35
f 24//35 22//35 25//35
f 24//35 4//35 1//35
f 78//36 79//36 80//36
f 81//37 85//37 80//37
f 85//38 83//38 84//38
f 83//39 79//39 82//39
f 78//2 80//2 82//2
f 79//4 83//4 81//4
f 87//35 89//35 86//35
f 89//40 93//40 88//40
f 93//41 91//41 92//41
f 91//42 87//42 90//42
f 86//2 88//2 90//2
f 91//4 93//4 87//4
f 97//43 95//43 96//43
f 97//44 96//44 101//44
f 101//45 100//45 99//45
f 99//46 98//46 95//46
f 94//2 98//2 96//2
f 101//4 99//4 97//4
f 103//43 102//43 105//43
f 105//47 104//47 109//47
f 109//45 108//45 107//45
f 107//48 106//48 103//48
f 102//2 106//2 104//2
f 109//4 107//4 105//4
f 113//49 112//49 114//49
f 117//50 119//50 116//50
f 113//51 114//51 116//51
f 113//4 116//4 112//4
f 120//52 121//52 112//52
f 120//53 122//53 121//53
f 111//54 123//54 110//54
f 120//4 112//4 122//4
f 111//2 115//2 123//2
f 111//35 110//35 119//35
f 114//2 115//2 117//2
f 125//36 127//36 124//36
f 127//37 131//37 126//37
f 131//38 129//38 130//38
f 129//39 125//39 128//39
f 124//2 126//2 128//2
f 125//4 129//4 127//4
f 133//36 135//36 132//36
f 135//37 139//37 134//37
f 139//38 137//38 138//38
f 137//39 133//39 136//39
f 132//2 134//2 136//2
f 133//4 137//4 135//4
f 142//54 143//54 145//54
f 149//52 147//52 148//52
f 143//55 146//55 144//55
f 143//4 142//4 146//4
f 150//50 142//50 151//50
f 152//56 150//56 153//56
f 141//49 140//49 153//49
f 150//4 152//4 142//4
f 141//2 153//2 145//2
f 141//41 149//41 140//41
f 149//2 145//2 147//2
f 154//3 155//3 157//3
f 154//2 175//2 158//2
f 158//2 155//2 154//2
f 160//2 173//2 174//2
f 162//2 171//2 172//2
f 163//2 169//2 170//2
f 165//2 167//2 168//2
f 155//2 158//2 159//2
f 165//2 166//2 167//2
f 174//2 159//2 160//2
f 164//2 165//2 168//2
f 173//2 160//2 161//2
f 169//2 164//2 168//2
f 172//2 161//2 162//2
f 169//2 163//2 164//2
f 162//2 170//2 171//2
f 159//2 174//2 155//2
f 170//2 162//2 163//2
f 174//1 176//1 155//1
f 157//4 156//4 177//4
f 178//6 179//6 175//6
f 159//5 158//5 180//5
f 160//22 159//22 181//22
f 161//23 160//23 182//23
f 162//24 161//24 183//24
f 163//25 162//25 184//25
f 164//26 163//26 185//26
f 165//27 164//27 186//27
f 166//28 165//28 187//28
f 204//2 205//2 188//2
f 167//2 166//2 197//2
f 189//2 204//2 188//2
f 196//2 197//2 198//2
f 189//2 203//2 204//2
f 195//2 198//2 199//2
f 190//2 202//2 203//2
f 194//2 199//2 200//2
f 190//2 191//2 202//2
f 203//2 189//2 190//2
f 201//2 191//2 192//2
f 200//2 193//2 194//2
f 198//2 195//2 196//2
f 196//2 167//2 197//2
f 191//2 201//2 202//2
f 200//2 192//2 193//2
f 194//2 195//2 199//2
f 167//21 206//21 168//21
f 168//29 207//29 169//29
f 169//30 208//30 170//30
f 170//31 209//31 171//31
f 171//32 210//32 172//32
f 172//33 211//33 173//33
f 173//34 212//34 174//34
f 179//4 178//4 177//4
f 220//4 221//4 222//4
f 180//4 179//4 177//4
f 219//4 222//4 223//4
f 176//4 180//4 177//4
f 218//4 223//4 224//4
f 181//4 180//4 176//4
f 217//4 224//4 225//4
f 212//4 181//4 176//4
f 216//4 225//4 226//4
f 212//4 182//4 181//4
f 219//4 220//4 222//4
f 212//4 211//4 182//4
f 215//4 226//4 227//4
f 182//4 211//4 183//4
f 218//4 219//4 223//4
f 211//4 210//4 183//4
f 214//4 227//4 228//4
f 183//4 210//4 184//4
f 217//4 218//4 224//4
f 210//4 209//4 184//4
f 213//4 228//4 187//4
f 184//4 209//4 185//4
f 208//4 185//4 209//4
f 186//4 208//4 207//4
f 187//4 206//4 213//4
f 227//4 214//4 215//4
f 225//4 216//4 217//4
f 208//4 186//4 185//4
f 215//4 216//4 226//4
f 228//4 213//4 214//4
f 187//4 186//4 207//4
f 197//14 166//14 228//14
f 229//5 220//5 188//5
f 189//6 220//6 190//6
f 190//7 219//7 191//7
f 191//8 218//8 192//8
f 192//9 217//9 193//9
f 193//10 216//10 194//10
f 194//11 215//11 195//11
f 195//12 214//12 196//12
f 196//13 213//13 167//13
f 198//15 197//15 227//15
f 199//16 198//16 226//16
f 200//17 199//17 225//17
f 201//18 200//18 224//18
f 202//19 201//19 223//19
f 203//20 202//20 222//20
f 204//3 203//3 221//3
f 205//1 204//1 230//1
f 230//4 221//4 229//4
f 230//41 229//41 205//41
f 175//41 177//41 178//41
f 177//41 154//41 157//41
f 232//43 231//43 234//43
f 234//47 233//47 238//47
f 238//45 237//45 236//45
f 236//48 235//48 232//48
f 231//2 235//2 233//2
f 238//4 236//4 234//4
