# Blender v2.75 (sub 0) OBJ File: 'head_asc_f2.blend'
# www.blender.org
v -3.875000 -2.525000 0.375000
v -3.875000 -2.525000 -0.375000
v -3.875000 -2.925000 -0.375000
v -3.375000 -2.925000 0.375000
v -3.875000 -2.925000 0.375000
v -3.375000 -2.525000 0.375000
v -3.375000 -2.525000 -0.375000
v -3.375000 -2.925000 -0.375000
v -3.875000 -2.025000 0.375000
v -3.875000 -0.875000 0.375000
v -3.875000 -0.875000 -0.375000
v -3.375000 -0.875000 0.375000
v -3.375000 -0.875000 -0.375000
v -3.375000 -2.025000 -0.375000
v -3.375000 -2.025000 0.375000
v 3.375000 -2.525000 0.375000
v 3.375000 -2.525000 -0.375000
v 3.375000 -2.925000 -0.375000
v 3.875000 -2.925000 -0.375000
v 3.875000 -2.925000 0.375000
v 3.875000 -2.525000 0.375000
v 3.375000 -2.925000 0.375000
v 3.875000 -2.525000 -0.375000
v 3.875000 -2.025000 0.375000
v 3.875000 -2.025000 -0.375000
v 3.875000 -0.875000 -0.375000
v 3.875000 -0.875000 0.375000
v 3.375000 -0.875000 -0.375000
v 3.375000 -0.875000 0.375000
v 3.375000 -2.025000 0.375000
v 3.375000 -2.025000 -0.375000
v -3.875000 -3.425000 0.374999
v -3.875000 -3.425000 -0.375001
v -3.875000 -3.625000 -0.375001
v -3.875000 -3.625000 0.374999
v -3.375000 -3.625000 -0.375001
v -3.375000 -3.425000 0.374999
v -3.375000 -3.425000 -0.375001
v -3.375000 -3.625000 0.374999
v 3.375000 -3.425000 0.374999
v 3.375000 -3.425000 -0.375001
v 3.375000 -3.625000 -0.375001
v 3.375000 -3.625000 0.374999
v 3.875000 -3.625000 -0.375001
v 3.875000 -3.425000 0.374999
v 3.875000 -3.425000 -0.375001
v 3.875000 -3.625000 0.374999
v -3.875000 -2.025000 -0.375000
vn -1.000000 0.000000 0.000000
vn 0.000000 -1.000000 0.000000
vn 0.000000 -0.000000 1.000000
vn 0.000000 0.000000 -1.000000
vn 1.000000 -0.000000 0.000000
vn 0.000000 1.000000 0.000000
s 1
f 1//1 2//1 3//1
f 4//2 5//2 3//2
f 6//3 1//3 5//3
f 2//4 7//4 8//4
f 4//5 8//5 7//5
f 1//6 6//6 7//6
f 9//1 10//1 11//1
f 12//3 10//3 9//3
f 12//6 13//6 11//6
f 11//4 13//4 14//4
f 15//5 14//5 13//5
f 14//2 15//2 9//2
f 16//1 17//1 18//1
f 18//2 19//2 20//2
f 21//3 16//3 22//3
f 17//4 23//4 19//4
f 20//5 19//5 23//5
f 17//6 16//6 21//6
f 24//5 25//5 26//5
f 27//6 26//6 28//6
f 27//3 29//3 30//3
f 28//4 26//4 25//4
f 30//1 29//1 28//1
f 30//2 31//2 25//2
f 32//1 33//1 34//1
f 35//2 34//2 36//2
f 37//3 32//3 35//3
f 38//6 33//6 32//6
f 33//4 38//4 36//4
f 39//5 36//5 38//5
f 40//1 41//1 42//1
f 43//2 42//2 44//2
f 45//3 40//3 43//3
f 46//6 41//6 40//6
f 41//4 46//4 44//4
f 47//5 44//5 46//5
f 5//1 1//1 3//1
f 8//2 4//2 3//2
f 4//3 6//3 5//3
f 3//4 2//4 8//4
f 6//5 4//5 7//5
f 2//6 1//6 7//6
f 48//1 9//1 11//1
f 15//3 12//3 9//3
f 10//6 12//6 11//6
f 48//4 11//4 14//4
f 12//5 15//5 13//5
f 48//2 14//2 9//2
f 22//1 16//1 18//1
f 22//2 18//2 20//2
f 20//3 21//3 22//3
f 18//4 17//4 19//4
f 21//5 20//5 23//5
f 23//6 17//6 21//6
f 27//5 24//5 26//5
f 29//6 27//6 28//6
f 24//3 27//3 30//3
f 31//4 28//4 25//4
f 31//1 30//1 28//1
f 24//2 30//2 25//2
f 35//1 32//1 34//1
f 39//2 35//2 36//2
f 39//3 37//3 35//3
f 37//6 38//6 32//6
f 34//4 33//4 36//4
f 37//5 39//5 38//5
f 43//1 40//1 42//1
f 47//2 43//2 44//2
f 47//3 45//3 43//3
f 45//6 46//6 40//6
f 42//4 41//4 44//4
f 45//5 47//5 46//5
v -5.589450 6.621331 -0.523339
v -5.589450 7.151662 -1.053669
v -4.220910 4.637244 -2.507426
v -4.220910 5.167574 -3.037756
v -5.029090 6.615447 -0.529223
v -5.029090 7.145778 -1.059553
v -3.660550 4.631360 -2.513310
v -3.660550 5.161690 -3.043641
v -3.714450 4.058070 -3.086601
v -3.714450 4.588400 -3.616931
v -2.345910 2.073982 -5.070688
v -2.345910 2.604312 -5.601018
v -3.154090 4.052186 -3.092485
v -3.154090 4.582516 -3.622815
v -1.785550 2.068098 -5.076572
v -1.785550 2.598428 -5.606903
v 5.589450 6.621331 -0.523339
v 5.589450 7.151662 -1.053669
v 4.220910 4.637244 -2.507426
v 4.220910 5.167574 -3.037756
v 5.029090 6.615447 -0.529223
v 5.029090 7.145778 -1.059553
v 3.660550 4.631361 -2.513310
v 3.660550 5.161691 -3.043640
v -2.000000 1.472094 -5.672577
v -2.000000 2.002424 -6.202907
v -2.000000 1.118540 -6.026130
v -2.000000 1.648870 -6.556460
v 2.000000 1.472094 -5.672577
v 2.000000 2.002424 -6.202907
v 2.000000 1.118540 -6.026130
v 2.000000 1.648870 -6.556460
v 3.714669 4.058387 -3.086283
v 3.714669 4.588717 -3.616613
v 2.345724 2.073713 -5.070958
v 2.345724 2.604043 -5.601288
v 3.154276 4.052455 -3.092215
v 3.154276 4.582785 -3.622545
v 1.785331 2.067780 -5.076890
v 1.785331 2.598110 -5.607220
vn -0.898800 -0.310000 -0.310000
vn -0.014800 -0.707000 -0.707000
vn 0.898800 0.310000 0.310000
vn 0.014800 0.707000 0.707000
vn 0.000000 -0.707100 0.707100
vn 0.000000 0.707100 -0.707100
vn 0.898800 -0.310000 -0.310000
vn 0.014800 -0.707000 -0.707000
vn -0.898800 0.310000 0.310000
vn -0.014800 0.707000 0.707000
vn -1.000000 0.000000 0.000000
vn 0.000000 -0.707100 -0.707100
vn 1.000000 0.000000 0.000000
vn 0.000000 0.707100 0.707100
vn 0.015000 -0.707000 -0.707000
vn -0.015000 0.707000 0.707000
s off
f 50//7 52//7 51//7 49//7
f 52//8 56//8 55//8 51//8
f 56//9 54//9 53//9 55//9
f 54//10 50//10 49//10 53//10
f 49//11 51//11 55//11 53//11
f 54//12 56//12 52//12 50//12
f 58//7 60//7 59//7 57//7
f 60//8 64//8 63//8 59//8
f 64//9 62//9 61//9 63//9
f 62//10 58//10 57//10 61//10
f 57//11 59//11 63//11 61//11
f 62//12 64//12 60//12 58//12
f 66//13 65//13 67//13 68//13
f 68//14 67//14 71//14 72//14
f 72//15 71//15 69//15 70//15
f 70//16 69//16 65//16 66//16
f 65//11 69//11 71//11 67//11
f 70//12 66//12 68//12 72//12
f 74//17 76//17 75//17 73//17
f 76//18 80//18 79//18 75//18
f 80//19 78//19 77//19 79//19
f 78//20 74//20 73//20 77//20
f 73//11 75//11 79//11 77//11
f 78//12 80//12 76//12 74//12
f 82//13 81//13 83//13 84//13
f 84//21 83//21 87//21 88//21
f 88//15 87//15 85//15 86//15
f 86//22 85//22 81//22 82//22
f 81//11 85//11 87//11 83//11
f 86//12 82//12 84//12 88//12
v -5.534992 6.866135 -0.375000
v -5.625000 6.875000 -0.375000
v -5.625000 6.875000 0.375000
v -5.534992 6.866135 0.375000
v -5.625000 6.312500 -0.375000
v -5.807896 6.294487 -0.375000
v -5.983765 6.241138 -0.375000
v -6.145846 6.154504 -0.375000
v -6.287911 6.037914 -0.375000
v -6.404502 5.895848 -0.375000
v -6.491137 5.733767 -0.375000
v -6.544486 5.557899 -0.375000
v -6.562500 5.375001 -0.375000
v -7.125000 5.375002 -0.375000
v -7.096178 5.667637 -0.375000
v -7.010818 5.949027 -0.375000
v -6.872203 6.208357 -0.375000
v -6.685658 6.435662 -0.375000
v -6.458353 6.622206 -0.375000
v -6.199023 6.760820 -0.375000
v -5.917633 6.846178 -0.375000
v -5.534992 6.303635 -0.375000
v -5.917633 6.846178 0.375000
v -5.534992 6.402253 0.375000
v -5.534992 6.303635 0.375000
v -5.625000 6.312500 0.375000
v -5.807896 6.294487 0.375000
v -5.983765 6.241138 0.375000
v -6.145846 6.154504 0.375000
v -6.287911 6.037914 0.375000
v -6.404502 5.895848 0.375000
v -6.491137 5.733767 0.375000
v -6.544486 5.557899 0.375000
v -6.562500 5.375001 0.375000
v -5.534992 3.883865 -0.375000
v -5.625000 3.875000 -0.375000
v -5.917636 3.903822 -0.375000
v -6.199025 3.989181 -0.375000
v -6.458356 4.127796 -0.375000
v -6.685661 4.314341 -0.375000
v -6.872205 4.541646 -0.375000
v -7.010819 4.800976 -0.375000
v -7.096178 5.082366 -0.375000
v -6.544487 5.192104 -0.375000
v -6.491138 5.016235 -0.375000
v -6.404503 4.854154 -0.375000
v -6.287913 4.712088 -0.375000
v -6.145847 4.595498 -0.375000
v -5.983767 4.508863 -0.375000
v -5.807898 4.455514 -0.375000
v -5.625000 4.437500 -0.375000
v -5.534992 4.446365 -0.375000
v -7.125000 5.375002 0.375000
v -7.096178 5.667637 0.375000
v -7.010818 5.949027 0.375000
v -6.872203 6.208357 0.375000
v -6.685658 6.435662 0.375000
v -6.458353 6.622206 0.375000
v -6.199023 6.760820 0.375000
v -7.096178 5.082366 0.375000
v -7.010819 4.800976 0.375000
v -6.872205 4.541646 0.375000
v -6.685661 4.314341 0.375000
v -6.458356 4.127796 0.375000
v -6.199025 3.989181 0.375000
v -5.917636 3.903822 0.375000
v -5.625000 3.875000 0.375000
v -5.625000 4.437500 0.375000
v -5.807898 4.455514 0.375000
v -5.983767 4.508863 0.375000
v -6.145847 4.595498 0.375000
v -6.287913 4.712088 0.375000
v -6.404503 4.854154 0.375000
v -6.491138 5.016235 0.375000
v -6.544487 5.192104 0.375000
v -5.534992 3.883865 0.375000
v -5.534992 4.446365 0.375000
v -1.876828 5.006322 0.375000
v -1.876828 5.006322 -0.375000
v -2.671392 5.187500 0.375000
v -3.761963 5.696041 0.375000
v -3.761963 5.696041 -0.375000
v -2.671392 5.187500 -0.375000
v -3.768167 6.250624 0.375000
v -3.768167 6.250624 -0.375000
v -1.876828 5.368678 0.375000
v -1.876828 5.368678 -0.375000
v -3.761963 4.678959 0.375000
v -3.761963 4.678959 -0.375000
v -3.768167 4.124376 0.375000
v -3.768167 4.124376 -0.375000
v 1.876828 5.006322 0.375000
v 1.876828 5.006322 -0.375000
v 2.671392 5.187500 0.375000
v 3.761962 5.696041 0.375000
v 3.761962 5.696041 -0.375000
v 2.671392 5.187500 -0.375000
v 3.768167 6.250624 0.375000
v 3.768167 6.250624 -0.375000
v 1.876828 5.368678 0.375000
v 1.876828 5.368678 -0.375000
v 3.761963 4.678959 0.375000
v 3.761963 4.678959 -0.375000
v 3.768167 4.124376 0.375000
v 3.768167 4.124376 -0.375000
v 3.660550 0.342878 -0.375000
v 3.660550 0.342878 0.375000
v 5.029090 3.148800 -0.375000
v 5.029090 3.148800 0.375000
v 4.220910 0.351200 -0.375000
v 4.220910 0.351200 0.375000
v 5.589450 3.157122 -0.375000
v 5.589450 3.157122 0.375000
v 5.534992 6.866135 -0.375000
v 5.625000 6.875000 -0.375000
v 5.625000 6.875000 0.375000
v 5.534992 6.866135 0.375000
v 5.625000 6.312500 -0.375000
v 5.807896 6.294487 -0.375000
v 5.983765 6.241138 -0.375000
v 6.145846 6.154504 -0.375000
v 6.287911 6.037914 -0.375000
v 6.404502 5.895848 -0.375000
v 6.491137 5.733767 -0.375000
v 6.544486 5.557899 -0.375000
v 6.562500 5.375001 -0.375000
v 7.125000 5.375002 -0.375000
v 7.096178 5.667637 -0.375000
v 7.010818 5.949027 -0.375000
v 6.872203 6.208357 -0.375000
v 6.685659 6.435662 -0.375000
v 6.458354 6.622206 -0.375000
v 6.199023 6.760820 -0.375000
v 5.917633 6.846178 -0.375000
v 5.534992 6.303635 -0.375000
v 5.917633 6.846178 0.375000
v 5.534992 6.402253 0.375000
v 5.534992 6.303635 0.375000
v 5.625000 6.312500 0.375000
v 5.807896 6.294487 0.375000
v 5.983765 6.241138 0.375000
v 6.145846 6.154504 0.375000
v 6.287911 6.037914 0.375000
v 6.404502 5.895848 0.375000
v 6.491137 5.733767 0.375000
v 6.544486 5.557899 0.375000
v 6.562500 5.375001 0.375000
v 5.534992 3.883865 -0.375000
v 5.625000 3.875000 -0.375000
v 5.917636 3.903822 -0.375000
v 6.199025 3.989181 -0.375000
v 6.458355 4.127796 -0.375000
v 6.685661 4.314341 -0.375000
v 6.872205 4.541646 -0.375000
v 7.010820 4.800976 -0.375000
v 7.096178 5.082366 -0.375000
v 6.544487 5.192104 -0.375000
v 6.491137 5.016235 -0.375000
v 6.404502 4.854154 -0.375000
v 6.287913 4.712088 -0.375000
v 6.145847 4.595498 -0.375000
v 5.983766 4.508863 -0.375000
v 5.807898 4.455514 -0.375000
v 5.625000 4.437500 -0.375000
v 5.534992 4.446365 -0.375000
v 7.125000 5.375002 0.375000
v 7.096178 5.667637 0.375000
v 7.010818 5.949027 0.375000
v 6.872203 6.208357 0.375000
v 6.685659 6.435662 0.375000
v 6.458354 6.622206 0.375000
v 6.199023 6.760820 0.375000
v 7.096178 5.082366 0.375000
v 7.010820 4.800976 0.375000
v 6.872205 4.541646 0.375000
v 6.685661 4.314341 0.375000
v 6.458355 4.127796 0.375000
v 6.199025 3.989181 0.375000
v 5.917636 3.903822 0.375000
v 5.625000 3.875000 0.375000
v 5.625000 4.437500 0.375000
v 5.807898 4.455514 0.375000
v 5.983766 4.508863 0.375000
v 6.145847 4.595498 0.375000
v 6.287913 4.712088 0.375000
v 6.404502 4.854154 0.375000
v 6.491137 5.016235 0.375000
v 6.544487 5.192104 0.375000
v 5.534992 3.883865 0.375000
v 5.534992 4.446365 0.375000
v -3.660550 0.342878 -0.375000
v -3.660550 0.342878 0.375000
v -5.029090 3.148800 -0.375000
v -5.029090 3.148800 0.375000
v -4.220910 0.351200 -0.375000
v -4.220910 0.351200 0.375000
v -5.589450 3.157122 -0.375000
v -5.589450 3.157122 0.375000
vn 0.098000 0.995200 0.000000
vn -0.000000 0.000000 -1.000000
vn -0.098000 0.995200 0.000000
vn 0.000000 0.000000 1.000000
vn -0.098000 -0.995200 0.000000
vn 0.098000 -0.995200 0.000000
vn 0.290300 -0.956900 0.000000
vn 0.471400 -0.881900 0.000000
vn 0.634400 -0.773000 0.000000
vn 0.773000 -0.634400 0.000000
vn 0.881900 -0.471400 0.000000
vn 0.956900 -0.290300 0.000000
vn 0.995200 -0.098000 0.000000
vn -0.995200 0.098000 0.000000
vn -0.956900 0.290300 0.000000
vn -0.881900 0.471400 0.000000
vn -0.773000 0.634400 0.000000
vn -0.634400 0.773000 0.000000
vn -0.471400 0.881900 0.000000
vn -0.290300 0.956900 0.000000
vn 0.995200 0.098000 0.000000
vn -0.290300 -0.956900 0.000000
vn -0.471400 -0.881900 0.000000
vn -0.634400 -0.773000 0.000000
vn -0.773000 -0.634400 0.000000
vn -0.881900 -0.471400 0.000000
vn -0.956900 -0.290300 0.000000
vn -0.995200 -0.098000 0.000000
vn 0.956900 0.290300 0.000000
vn 0.881900 0.471400 0.000000
vn 0.773000 0.634400 0.000000
vn 0.634400 0.773000 0.000000
vn 0.471400 0.881900 0.000000
vn 0.290300 0.956900 0.000000
vn 1.000000 0.000000 0.000000
vn -0.422600 -0.906300 0.000000
vn 0.422600 0.906300 0.000000
vn -0.999900 -0.011200 0.000000
vn -0.422600 0.906300 0.000000
vn -0.999900 0.011200 0.000000
vn 0.422600 -0.906300 0.000000
vn 0.999900 -0.011200 0.000000
vn 0.999900 0.011200 0.000000
vn -1.000000 -0.000000 0.000000
vn -0.898800 0.438400 0.000000
vn -0.014800 0.999900 0.000000
vn 0.898800 -0.438400 0.000000
vn 0.014800 -0.999900 0.000000
vn 0.898800 0.438400 0.000000
vn 0.014800 0.999900 0.000000
vn -0.898800 -0.438400 0.000000
vn -0.014800 -0.999900 0.000000
s off
f 89//23 90//23 91//23 92//23
f 93//24 94//24 95//24 96//24 97//24 98//24 99//24 100//24 101//24 102//24 103//24 104//24 105//24 106//24 107//24 108//24 109//24 90//24 89//24 110//24
f 109//25 111//25 91//25 90//25
f 92//26 91//26 111//26 112//26
f 113//27 114//27 93//27 110//27
f 94//28 93//28 114//28 115//28
f 95//29 94//29 115//29 116//29
f 96//30 95//30 116//30 117//30
f 97//31 96//31 117//31 118//31
f 98//32 97//32 118//32 119//32
f 99//33 98//33 119//33 120//33
f 100//34 99//34 120//34 121//34
f 101//35 100//35 121//35 122//35
f 123//24 124//24 125//24 126//24 127//24 128//24 129//24 130//24 131//24 102//24 101//24 132//24 133//24 134//24 135//24 136//24 137//24 138//24 139//24 140//24
f 102//36 141//36 142//36 103//36
f 103//37 142//37 143//37 104//37
f 104//38 143//38 144//38 105//38
f 105//39 144//39 145//39 106//39
f 106//40 145//40 146//40 107//40
f 107//41 146//41 147//41 108//41
f 108//42 147//42 111//42 109//42
f 112//26 111//26 147//26 146//26 145//26 144//26 143//26 142//26 141//26 148//26 149//26 150//26 151//26 152//26 153//26 154//26 155//26 156//26 157//26 158//26 159//26 160//26 161//26 162//26 163//26 122//26 121//26 120//26 119//26 118//26 117//26 116//26 115//26 114//26 113//26
f 132//43 101//43 122//43 163//43
f 164//28 155//28 124//28 123//28
f 124//27 155//27 154//27 125//27
f 125//44 154//44 153//44 126//44
f 126//45 153//45 152//45 127//45
f 127//46 152//46 151//46 128//46
f 128//47 151//47 150//47 129//47
f 129//48 150//48 149//48 130//48
f 130//49 149//49 148//49 131//49
f 131//50 148//50 141//50 102//50
f 133//51 132//51 163//51 162//51
f 134//52 133//52 162//52 161//52
f 135//53 134//53 161//53 160//53
f 136//54 135//54 160//54 159//54
f 137//55 136//55 159//55 158//55
f 138//56 137//56 158//56 157//56
f 139//23 138//23 157//23 156//23
f 140//25 139//25 156//25 165//25
f 165//26 156//26 155//26 164//26
f 164//57 123//57 140//57 165//57
f 113//57 110//57 89//57 92//57 112//57
f 168//58 169//58 170//58 171//58
f 173//59 172//59 174//59 175//59
f 169//60 172//60 173//60 170//60
f 169//26 168//26 174//26 172//26
f 174//26 168//26 166//26
f 176//61 168//61 171//61 177//61
f 178//62 176//62 177//62 179//62
f 167//63 166//63 178//63 179//63
f 176//26 178//26 166//26 168//26
f 167//24 179//24 177//24 171//24
f 167//57 175//57 174//57 166//57
f 171//24 170//24 173//24 175//24
f 171//24 175//24 167//24
f 182//63 185//63 184//63 183//63
f 187//61 189//61 188//61 186//61
f 183//64 184//64 187//64 186//64
f 183//26 186//26 188//26 182//26
f 188//26 180//26 182//26
f 190//59 191//59 185//59 182//59
f 192//65 193//65 191//65 190//65
f 181//58 193//58 192//58 180//58
f 190//26 182//26 180//26 192//26
f 181//24 185//24 191//24 193//24
f 181//66 180//66 188//66 189//66
f 185//24 189//24 187//24 184//24
f 185//24 181//24 189//24
f 195//67 197//67 196//67 194//67
f 197//68 201//68 200//68 196//68
f 201//69 199//69 198//69 200//69
f 199//70 195//70 194//70 198//70
f 194//24 196//24 200//24 198//24
f 199//26 201//26 197//26 195//26
f 202//25 205//25 204//25 203//25
f 206//24 223//24 202//24 203//24 222//24 221//24 220//24 219//24 218//24 217//24 216//24 215//24 214//24 213//24 212//24 211//24 210//24 209//24 208//24 207//24
f 222//23 203//23 204//23 224//23
f 205//26 225//26 224//26 204//26
f 226//28 223//28 206//28 227//28
f 207//27 228//27 227//27 206//27
f 208//44 229//44 228//44 207//44
f 209//45 230//45 229//45 208//45
f 210//46 231//46 230//46 209//46
f 211//47 232//47 231//47 210//47
f 212//48 233//48 232//48 211//48
f 213//49 234//49 233//49 212//49
f 214//50 235//50 234//50 213//50
f 236//24 253//24 252//24 251//24 250//24 249//24 248//24 247//24 246//24 245//24 214//24 215//24 244//24 243//24 242//24 241//24 240//24 239//24 238//24 237//24
f 215//43 216//43 255//43 254//43
f 216//51 217//51 256//51 255//51
f 217//52 218//52 257//52 256//52
f 218//53 219//53 258//53 257//53
f 219//54 220//54 259//54 258//54
f 220//55 221//55 260//55 259//55
f 221//56 222//56 224//56 260//56
f 225//26 226//26 227//26 228//26 229//26 230//26 231//26 232//26 233//26 234//26 235//26 276//26 275//26 274//26 273//26 272//26 271//26 270//26 269//26 268//26 267//26 266//26 265//26 264//26 263//26 262//26 261//26 254//26 255//26 256//26 257//26 258//26 259//26 260//26 224//26
f 245//36 276//36 235//36 214//36
f 277//27 236//27 237//27 268//27
f 237//28 238//28 267//28 268//28
f 238//29 239//29 266//29 267//29
f 239//30 240//30 265//30 266//30
f 240//31 241//31 264//31 265//31
f 241//32 242//32 263//32 264//32
f 242//33 243//33 262//33 263//33
f 243//34 244//34 261//34 262//34
f 244//35 215//35 254//35 261//35
f 246//37 275//37 276//37 245//37
f 247//38 274//38 275//38 246//38
f 248//39 273//39 274//39 247//39
f 249//40 272//40 273//40 248//40
f 250//41 271//41 272//41 249//41
f 251//42 270//42 271//42 250//42
f 252//25 269//25 270//25 251//25
f 253//23 278//23 269//23 252//23
f 278//26 277//26 268//26 269//26
f 277//66 278//66 253//66 236//66
f 226//66 225//66 205//66 202//66 223//66
f 280//71 279//71 281//71 282//71
f 282//72 281//72 285//72 286//72
f 286//73 285//73 283//73 284//73
f 284//74 283//74 279//74 280//74
f 279//24 283//24 285//24 281//24
f 284//26 280//26 282//26 286//26
