# Blender v2.75 (sub 0) OBJ File: 'head_d2u_f2_projection.blend'
# www.blender.org
v 5.534992 0.010000 1.133865
v 5.625000 0.010000 1.125000
v 5.625000 -0.010000 1.125000
v 5.534992 -0.010000 1.133865
v 6.458355 0.010000 3.872204
v 6.685661 0.010000 3.685659
v 6.872205 0.010000 3.458354
v 7.010820 0.010000 3.199024
v 7.096178 0.010000 2.917634
v 7.125000 0.010000 2.624998
v 7.096178 0.010000 2.332363
v 7.010818 0.010000 2.050973
v 6.872203 0.010000 1.791643
v 6.685659 0.010000 1.564338
v 6.458354 0.010000 1.377795
v 6.199023 0.010000 1.239180
v 5.917633 0.010000 1.153822
v 5.589450 0.010000 0.407122
v 4.220910 0.010000 -2.398800
v 3.714669 0.010000 -3.217428
v 2.345724 0.010000 -6.024182
v 2.000000 0.010000 -6.875000
v -2.000000 0.010000 -6.875000
v -2.345910 0.010000 -6.023801
v -3.714450 0.010000 -3.217878
v -4.220910 0.010000 -2.398801
v -5.589450 0.010000 0.407122
v -5.534992 0.010000 1.133865
v -5.625000 0.010000 1.125000
v -5.917633 0.010000 1.153822
v -6.199023 0.010000 1.239180
v -6.458354 0.010000 1.377795
v -6.685659 0.010000 1.564338
v -6.872203 0.010000 1.791643
v -7.010818 0.010000 2.050973
v -7.096178 0.010000 2.332363
v -7.125000 0.010000 2.624998
v -7.096178 0.010000 2.917634
v -7.010820 0.010000 3.199024
v -6.872205 0.010000 3.458354
v -6.685661 0.010000 3.685659
v -6.458355 0.010000 3.872204
v -6.199025 0.010000 4.010819
v -5.917636 0.010000 4.096178
v -5.625000 0.010000 4.125000
v -5.534992 0.010000 4.116135
v -5.589450 0.010000 4.842878
v -4.220910 0.010000 7.648800
v 4.220910 0.010000 7.648800
v 5.589450 0.010000 4.842878
v 5.534992 0.010000 4.116135
v 5.625000 0.010000 4.125000
v 5.917636 0.010000 4.096178
v 6.199025 0.010000 4.010819
v 7.010818 -0.010000 2.050973
v 7.096178 -0.010000 2.332363
v 7.125000 -0.010000 2.624998
v 7.096178 -0.010000 2.917634
v 7.010820 -0.010000 3.199024
v 6.872205 -0.010000 3.458354
v 6.685661 -0.010000 3.685659
v 6.458355 -0.010000 3.872204
v 6.199025 -0.010000 4.010819
v 5.917636 -0.010000 4.096178
v 5.625000 -0.010000 4.125000
v 5.534992 -0.010000 4.116135
v 5.589450 -0.010000 4.842878
v 4.220910 -0.010000 7.648800
v -4.220910 -0.010000 7.648800
v -5.589450 -0.010000 4.842878
v -5.534992 -0.010000 4.116135
v -5.625000 -0.010000 4.125000
v -5.917636 -0.010000 4.096178
v -6.199025 -0.010000 4.010819
v -6.458355 -0.010000 3.872204
v -6.685661 -0.010000 3.685659
v -6.872205 -0.010000 3.458354
v -7.010820 -0.010000 3.199024
v -7.096178 -0.010000 2.917634
v -7.125000 -0.010000 2.624998
v -7.096178 -0.010000 2.332363
v -7.010818 -0.010000 2.050973
v -6.872203 -0.010000 1.791643
v -6.685659 -0.010000 1.564338
v -6.458354 -0.010000 1.377795
v -6.199023 -0.010000 1.239180
v -5.917633 -0.010000 1.153822
v -5.625000 -0.010000 1.125000
v -5.534992 -0.010000 1.133865
v -5.589450 -0.010000 0.407122
v -4.220910 -0.010000 -2.398801
v -3.714450 -0.010000 -3.217878
v -2.345910 -0.010000 -6.023801
v -2.000000 -0.010000 -6.875000
v 2.000000 -0.010000 -6.875000
v 2.345724 -0.010000 -6.024182
v 3.714669 -0.010000 -3.217428
v 4.220910 -0.010000 -2.398800
v 5.589450 -0.010000 0.407122
v 5.917633 -0.010000 1.153822
v 6.199023 -0.010000 1.239180
v 6.458354 -0.010000 1.377795
v 6.685659 -0.010000 1.564338
v 6.872203 -0.010000 1.791643
v 3.714669 -0.009998 -3.217428
v 3.714669 0.009999 -3.217428
v 2.345748 0.010000 -6.024133
v 2.000000 0.010000 -6.875000
v 2.345724 0.010000 -6.024182
v 2.000000 0.010000 -7.375000
v -2.000000 0.010000 -6.875000
v -2.345910 0.010000 -6.023801
v -2.345934 0.010000 -6.023752
v -2.632832 0.010000 -5.435524
v -3.714450 0.009999 -3.217878
v -3.714450 -0.009998 -3.217878
v -2.345910 -0.009998 -6.023801
v -3.714326 -0.009998 -3.218132
v -2.632832 -0.009998 -5.435524
v -2.000000 -0.009998 -6.875000
v -2.000000 -0.010000 -7.375000
v 2.000000 -0.009998 -6.875000
v 2.345724 -0.009998 -6.024182
v 3.714545 -0.009998 -3.217682
v 2.000000 0.010000 -6.875005
v 2.000000 0.010000 -7.375000
v -2.000000 0.010000 -7.375000
v -2.000000 0.010000 -7.374997
v -2.000000 -0.009998 -6.875060
v -2.000000 -0.009997 -7.375000
v 2.000000 -0.010000 -7.375000
v 2.000000 -0.009997 -7.374938
v 1.999973 0.010000 -7.375000
v -2.000000 0.010000 -7.375000
v -1.999506 -0.009997 -7.375000
v 2.000000 -0.009997 -7.375000
v -3.875000 -0.010000 8.000000
v -3.875000 0.009997 8.000000
v 3.875000 -0.010000 8.000000
v 3.875000 0.009997 8.000000
vn -0.098000 0.000000 -0.995200
vn -0.000000 1.000000 0.000000
vn 0.098000 0.000000 -0.995200
vn -0.000000 -1.000000 -0.000000
vn 0.997200 -0.000000 0.074700
vn 0.471400 0.000000 0.881900
vn 0.634400 0.000000 0.773000
vn 0.773000 0.000000 0.634400
vn 0.881900 0.000000 0.471400
vn 0.956900 0.000000 0.290300
vn 0.995200 0.000000 0.098000
vn 0.995200 0.000000 -0.098000
vn 0.956900 0.000000 -0.290300
vn 0.881900 0.000000 -0.471400
vn 0.773000 0.000000 -0.634400
vn 0.634400 0.000000 -0.773000
vn 0.471400 0.000000 -0.881900
vn 0.290300 0.000000 -0.956900
vn 0.898800 0.000000 -0.438400
vn 0.850500 0.001400 -0.525900
vn 0.898900 0.000000 -0.438100
vn 0.926500 0.000000 -0.376200
vn -0.925900 0.000000 -0.377600
vn -0.679500 -0.654700 -0.331200
vn -0.850500 0.000000 -0.525900
vn -0.898800 0.000000 -0.438400
vn -0.997200 0.000000 0.074700
vn -0.290300 0.000000 -0.956900
vn -0.471400 0.000000 -0.881900
vn -0.634400 0.000000 -0.773000
vn -0.773000 0.000000 -0.634400
vn -0.881900 0.000000 -0.471400
vn -0.956900 0.000000 -0.290300
vn -0.995200 0.000000 -0.098000
vn -0.995200 0.000000 0.098000
vn -0.956900 0.000000 0.290300
vn -0.881900 0.000000 0.471400
vn -0.773000 0.000000 0.634400
vn -0.634400 0.000000 0.773000
vn -0.471400 0.000000 0.881900
vn -0.290300 0.000000 0.956900
vn -0.098000 0.000000 0.995200
vn 0.098000 0.000000 0.995200
vn -0.997200 0.000000 -0.074700
vn -0.898800 0.000000 0.438400
vn 0.898800 0.000000 0.438400
vn 0.997200 0.000000 -0.074700
vn 0.290300 0.000000 0.956900
vn -0.890000 0.139800 -0.434000
vn -0.926500 0.000000 -0.376200
vn 0.926500 0.000000 -0.376300
vn 0.899000 0.000000 -0.438000
vn 0.897400 0.000000 -0.441100
vn 1.000000 0.000000 0.000000
vn -0.897400 0.000000 -0.441100
vn -1.000000 0.000000 0.000000
vn -0.899000 0.000000 -0.438000
vn 0.000000 0.000000 -1.000000
vn 0.000000 0.000000 1.000000
vn 0.712500 0.000000 0.701700
vn -0.712500 0.000000 0.701700
vn 0.926400 -0.000100 -0.376400
vn -0.926400 0.001100 -0.376500
vn 0.850300 0.000000 -0.526300
vn 0.851000 0.000000 -0.525200
vn -0.851100 0.000000 -0.525000
vn -0.850400 0.000000 -0.526100
vn -0.000100 -1.000000 0.000500
vn -0.898700 0.000000 -0.438500
vn 0.850500 0.000000 -0.526000
vn 0.898500 0.000000 -0.438900
vn 0.925900 0.000000 -0.377800
vn -0.926100 0.000000 -0.377300
vn -0.898900 0.000000 -0.438200
vn -0.899200 0.000000 -0.437600
vn -0.878900 -0.208600 -0.429000
vn -0.898800 0.000000 -0.438300
vn -0.926400 0.000000 -0.376600
vn 0.926500 0.000000 -0.376400
vn 0.926400 0.000000 -0.376500
vn -0.926400 0.000000 -0.376500
vn 0.002300 1.000000 0.001600
s off
f 1//1 2//1 3//1
f 4//1 1//1 3//1
f 20//2 26//2 19//2
f 3//3 2//3 17//3
f 71//4 77//4 78//4
f 18//5 1//5 4//5
f 62//6 5//6 54//6
f 61//7 6//7 5//7
f 60//8 7//8 6//8
f 59//9 8//9 7//9
f 58//10 9//10 8//10
f 57//11 10//11 9//11
f 56//12 11//12 10//12
f 55//13 12//13 11//13
f 104//14 13//14 12//14
f 103//15 14//15 13//15
f 14//16 103//16 15//16
f 101//17 16//17 15//17
f 100//18 17//18 16//18
f 99//19 98//19 18//19
f 98//20 124//20 106//20
f 20//21 106//21 107//21
f 22//22 21//22 109//22
f 22//2 110//2 23//2
f 23//23 111//23 112//23
f 25//24 24//24 114//24
f 26//25 115//25 116//25
f 27//26 26//26 90//26
f 89//27 28//27 27//27
f 88//3 29//3 28//3
f 30//1 29//1 88//1
f 31//28 30//28 87//28
f 32//29 31//29 86//29
f 85//30 84//30 32//30
f 34//31 33//31 84//31
f 35//32 34//32 83//32
f 36//33 35//33 82//33
f 37//34 36//34 81//34
f 38//35 37//35 80//35
f 39//36 38//36 79//36
f 40//37 39//37 78//37
f 41//38 40//38 77//38
f 42//39 41//39 76//39
f 43//40 42//40 75//40
f 44//41 43//41 74//41
f 45//42 44//42 73//42
f 46//43 45//43 71//43
f 71//44 70//44 47//44
f 47//45 70//45 48//45
f 50//46 49//46 67//46
f 66//47 51//47 50//47
f 51//42 66//42 52//42
f 64//43 53//43 52//43
f 63//48 54//48 53//48
f 100//3 3//3 17//3
f 55//14 104//14 12//14
f 56//13 55//13 11//13
f 57//12 56//12 10//12
f 58//11 57//11 9//11
f 59//10 58//10 8//10
f 60//9 59//9 7//9
f 61//8 60//8 6//8
f 62//7 61//7 5//7
f 63//6 62//6 54//6
f 64//48 63//48 53//48
f 65//43 64//43 52//43
f 66//42 65//42 52//42
f 49//46 68//46 67//46
f 70//45 69//45 48//45
f 45//43 72//43 71//43
f 72//42 45//42 73//42
f 73//41 44//41 74//41
f 74//40 43//40 75//40
f 75//39 42//39 76//39
f 76//38 41//38 77//38
f 77//37 40//37 78//37
f 78//36 39//36 79//36
f 79//35 38//35 80//35
f 80//34 37//34 81//34
f 81//33 36//33 82//33
f 82//32 35//32 83//32
f 83//31 34//31 84//31
f 51//2 54//2 5//2
f 85//29 32//29 86//29
f 86//28 31//28 87//28
f 87//1 30//1 88//1
f 89//3 88//3 28//3
f 26//26 91//26 90//26
f 93//49 92//49 119//49
f 94//50 93//50 117//50
f 94//4 121//4 95//4
f 95//51 122//51 123//51
f 96//21 123//21 124//21
f 103//16 102//16 15//16
f 101//18 100//18 16//18
f 102//17 101//17 15//17
f 84//30 33//30 32//30
f 104//15 103//15 13//15
f 105//52 97//52 124//52
f 109//53 21//53 107//53
f 22//54 108//54 125//54
f 110//54 22//54 125//54
f 110//2 127//2 23//2
f 24//55 112//55 113//55
f 23//56 127//56 128//56
f 118//57 92//57 116//57
f 129//56 94//56 120//56
f 121//56 94//56 129//56
f 121//4 131//4 95//4
f 95//54 131//54 132//54
f 110//58 126//58 133//58
f 127//58 110//58 133//58
f 127//56 134//56 128//56
f 135//58 121//58 130//58
f 131//58 121//58 135//58
f 132//54 131//54 136//54
f 137//59 139//59 138//59
f 139//59 140//59 138//59
f 68//60 49//60 140//60
f 69//61 137//61 138//61
f 133//58 136//58 135//58
f 136//54 110//54 125//54
f 122//62 125//62 109//62
f 109//19 106//19 124//19
f 134//56 130//56 129//56
f 111//63 129//63 117//63
f 112//26 117//26 118//26
f 98//64 97//64 105//64
f 19//65 106//65 20//65
f 26//66 25//66 115//66
f 116//67 92//67 91//67
f 69//4 68//4 139//4
f 138//2 140//2 49//2
f 128//56 134//56 111//56
f 135//58 130//58 134//58
f 132//56 136//56 122//56
f 114//68 113//68 112//68
f 125//2 108//2 109//2
f 109//54 107//54 106//54
f 119//56 118//56 117//56
f 116//69 115//69 118//69
f 129//4 120//4 117//4
f 98//19 19//19 18//19
f 51//2 52//2 53//2
f 49//2 50//2 51//2
f 46//2 48//2 49//2
f 44//2 45//2 46//2
f 46//2 47//2 48//2
f 51//2 53//2 54//2
f 46//2 49//2 51//2
f 43//2 44//2 46//2
f 46//2 42//2 43//2
f 46//2 40//2 41//2
f 46//2 38//2 39//2
f 28//2 36//2 37//2
f 28//2 34//2 35//2
f 28//2 32//2 33//2
f 28//2 30//2 31//2
f 26//2 27//2 28//2
f 28//2 29//2 30//2
f 28//2 33//2 34//2
f 46//2 37//2 38//2
f 46//2 41//2 42//2
f 28//2 46//2 51//2
f 51//2 5//2 6//2
f 51//2 7//2 8//2
f 51//2 9//2 10//2
f 1//2 11//2 12//2
f 1//2 13//2 14//2
f 1//2 15//2 16//2
f 1//2 17//2 2//2
f 1//2 18//2 19//2
f 16//2 17//2 1//2
f 1//2 14//2 15//2
f 1//2 10//2 11//2
f 51//2 6//2 7//2
f 28//2 37//2 46//2
f 28//2 35//2 36//2
f 1//2 26//2 28//2
f 28//2 31//2 32//2
f 9//2 51//2 8//2
f 1//2 12//2 13//2
f 25//2 26//2 20//2
f 51//2 10//2 1//2
f 46//2 39//2 40//2
f 1//2 19//2 26//2
f 21//2 23//2 24//2
f 24//2 20//2 21//2
f 21//2 22//2 23//2
f 1//2 28//2 51//2
f 25//2 20//2 24//2
f 4//4 104//4 55//4
f 4//4 102//4 103//4
f 4//4 100//4 101//4
f 98//4 99//4 4//4
f 4//4 3//4 100//4
f 4//4 103//4 104//4
f 4//4 56//4 57//4
f 66//4 58//4 59//4
f 66//4 60//4 61//4
f 66//4 62//4 63//4
f 66//4 64//4 65//4
f 66//4 67//4 68//4
f 63//4 64//4 66//4
f 66//4 61//4 62//4
f 66//4 57//4 58//4
f 4//4 101//4 102//4
f 91//4 98//4 4//4
f 94//4 95//4 96//4
f 91//4 97//4 98//4
f 4//4 55//4 56//4
f 59//4 60//4 66//4
f 66//4 68//4 69//4
f 69//4 70//4 71//4
f 71//4 72//4 73//4
f 71//4 74//4 75//4
f 71//4 76//4 77//4
f 71//4 78//4 79//4
f 89//4 80//4 81//4
f 89//4 82//4 83//4
f 89//4 84//4 85//4
f 89//4 86//4 87//4
f 87//4 88//4 89//4
f 89//4 90//4 91//4
f 93//4 94//4 96//4
f 97//4 91//4 92//4
f 97//4 93//4 96//4
f 4//4 57//4 66//4
f 92//4 93//4 97//4
f 85//4 86//4 89//4
f 89//4 91//4 4//4
f 71//4 66//4 69//4
f 71//4 73//4 74//4
f 4//4 66//4 71//4
f 71//4 89//4 4//4
f 89//4 83//4 84//4
f 71//4 79//4 80//4
f 71//4 75//4 76//4
f 80//4 89//4 71//4
f 89//4 81//4 82//4
f 99//5 18//5 4//5
f 19//70 98//70 106//70
f 21//71 20//71 107//71
f 108//72 22//72 109//72
f 24//73 23//73 112//73
f 114//74 115//74 25//74
f 24//75 113//75 114//75
f 91//25 26//25 116//25
f 90//27 89//27 27//27
f 46//44 71//44 47//44
f 67//47 66//47 50//47
f 92//76 118//76 119//76
f 119//77 117//77 93//77
f 120//78 94//78 117//78
f 96//79 95//79 123//79
f 97//71 96//71 124//71
f 126//54 110//54 125//54
f 111//56 23//56 128//56
f 130//56 121//56 129//56
f 122//54 95//54 132//54
f 134//58 127//58 133//58
f 136//58 131//58 135//58
f 139//60 68//60 140//60
f 48//61 69//61 138//61
f 134//58 133//58 135//58
f 122//54 136//54 125//54
f 123//80 122//80 109//80
f 123//19 109//19 124//19
f 111//56 134//56 129//56
f 112//81 111//81 117//81
f 115//26 112//26 118//26
f 124//4 98//4 105//4
f 137//4 69//4 139//4
f 48//2 138//2 49//2
f 115//82 114//82 112//82
