# Blender v2.75 (sub 0) OBJ File: 'head_d2u_f2.blend'
# www.blender.org
v 5.534992 -0.375000 1.133865
v 5.625000 -0.375000 1.125000
v 5.625000 0.375000 1.125000
v 5.534992 0.375000 1.133865
v 5.625000 -0.375000 1.687500
v 5.807896 -0.375000 1.705513
v 5.983765 -0.375000 1.758862
v 6.145846 -0.375000 1.845496
v 6.287911 -0.375000 1.962086
v 6.404502 -0.375000 2.104152
v 6.491137 -0.375000 2.266233
v 6.544486 -0.375000 2.442101
v 6.562500 -0.375000 2.624999
v 7.125000 -0.375000 2.624998
v 7.096178 -0.375000 2.332363
v 7.010818 -0.375000 2.050973
v 6.872203 -0.375000 1.791643
v 6.685659 -0.375000 1.564338
v 6.458354 -0.375000 1.377795
v 6.199023 -0.375000 1.239180
v 5.917633 -0.375000 1.153822
v 5.534992 -0.375000 1.696365
v 5.917633 0.375000 1.153822
v 5.534992 0.375000 1.597747
v 5.534992 0.375000 1.696365
v 5.625000 0.375000 1.687500
v 5.807896 0.375000 1.705513
v 5.983765 0.375000 1.758862
v 6.145846 0.375000 1.845496
v 6.287911 0.375000 1.962086
v 6.404502 0.375000 2.104152
v 6.491137 0.375000 2.266233
v 6.544486 0.375000 2.442101
v 6.562500 0.375000 2.624999
v 5.534992 -0.375000 4.116135
v 5.625000 -0.375000 4.125000
v 5.917636 -0.375000 4.096178
v 6.199025 -0.375000 4.010819
v 6.458355 -0.375000 3.872204
v 6.685661 -0.375000 3.685659
v 6.872205 -0.375000 3.458354
v 7.010820 -0.375000 3.199024
v 7.096178 -0.375000 2.917634
v 6.544487 -0.375000 2.807896
v 6.491137 -0.375000 2.983765
v 6.404502 -0.375000 3.145847
v 6.287913 -0.375000 3.287912
v 6.145847 -0.375000 3.404502
v 5.983766 -0.375000 3.491137
v 5.807898 -0.375000 3.544486
v 5.625000 -0.375000 3.562500
v 5.534992 -0.375000 3.553635
v 7.125000 0.375000 2.624998
v 7.096178 0.375000 2.332363
v 7.010818 0.375000 2.050973
v 6.872203 0.375000 1.791643
v 6.685659 0.375000 1.564338
v 6.458354 0.375000 1.377795
v 6.199023 0.375000 1.239180
v 7.096178 0.375000 2.917634
v 7.010820 0.375000 3.199024
v 6.872205 0.375000 3.458354
v 6.685661 0.375000 3.685659
v 6.458355 0.375000 3.872204
v 6.199025 0.375000 4.010819
v 5.917636 0.375000 4.096178
v 5.625000 0.375000 4.125000
v 5.625000 0.375000 3.562500
v 5.807898 0.375000 3.544486
v 5.983766 0.375000 3.491137
v 6.145847 0.375000 3.404502
v 6.287913 0.375000 3.287912
v 6.404502 0.375000 3.145847
v 6.491137 0.375000 2.983765
v 6.544487 0.375000 2.807896
v 5.534992 0.375000 4.116135
v 5.534992 0.375000 3.553635
vn -0.098000 0.000000 -0.995200
vn 0.000000 -1.000000 0.000000
vn 0.098000 0.000000 -0.995200
vn 0.000000 1.000000 0.000000
vn 0.098000 0.000000 0.995200
vn -0.098000 0.000000 0.995200
vn -0.290300 0.000000 0.956900
vn -0.471400 0.000000 0.881900
vn -0.634400 0.000000 0.773000
vn -0.773000 0.000000 0.634400
vn -0.881900 0.000000 0.471400
vn -0.956900 0.000000 0.290300
vn -0.995200 0.000000 0.098000
vn 0.995200 0.000000 -0.098000
vn 0.956900 0.000000 -0.290300
vn 0.881900 0.000000 -0.471400
vn 0.773000 0.000000 -0.634400
vn 0.634400 0.000000 -0.773000
vn 0.471400 0.000000 -0.881900
vn 0.290300 0.000000 -0.956900
vn -0.995200 0.000000 -0.098000
vn 0.290300 0.000000 0.956900
vn 0.471400 0.000000 0.881900
vn 0.634400 0.000000 0.773000
vn 0.773000 0.000000 0.634400
vn 0.881900 0.000000 0.471400
vn 0.956900 0.000000 0.290300
vn 0.995200 0.000000 0.098000
vn -0.956900 0.000000 -0.290300
vn -0.881900 0.000000 -0.471400
vn -0.773000 0.000000 -0.634400
vn -0.634400 0.000000 -0.773000
vn -0.471400 0.000000 -0.881900
vn -0.290300 0.000000 -0.956900
vn -1.000000 0.000000 0.000000
s off
f 4//1 3//1 2//1
f 20//2 19//2 8//2
f 2//3 3//3 23//3
f 24//4 23//4 3//4
f 22//5 5//5 26//5
f 27//6 26//6 5//6
f 28//7 27//7 6//7
f 29//8 28//8 7//8
f 30//9 29//9 8//9
f 31//10 30//10 9//10
f 32//11 31//11 10//11
f 33//12 32//12 11//12
f 34//13 33//13 12//13
f 38//2 48//2 39//2
f 15//14 54//14 53//14
f 16//15 55//15 54//15
f 17//16 56//16 55//16
f 18//17 57//17 56//17
f 19//18 58//18 57//18
f 20//19 59//19 58//19
f 21//20 23//20 59//20
f 33//4 53//4 54//4
f 75//21 34//21 13//21
f 35//6 36//6 67//6
f 37//5 66//5 67//5
f 38//22 65//22 66//22
f 39//23 64//23 65//23
f 40//24 63//24 64//24
f 41//25 62//25 63//25
f 42//26 61//26 62//26
f 43//27 60//27 61//27
f 14//28 53//28 60//28
f 74//29 75//29 44//29
f 73//30 74//30 45//30
f 72//31 73//31 46//31
f 71//32 72//32 47//32
f 70//33 71//33 48//33
f 69//34 70//34 49//34
f 68//1 69//1 50//1
f 77//3 68//3 51//3
f 76//4 67//4 68//4
f 77//35 52//35 35//35
f 22//35 24//35 1//35
f 1//1 4//1 2//1
f 14//2 13//2 12//2
f 5//2 22//2 1//2
f 15//2 12//2 11//2
f 2//2 5//2 1//2
f 16//2 11//2 10//2
f 2//2 6//2 5//2
f 17//2 10//2 9//2
f 2//2 21//2 6//2
f 18//2 9//2 8//2
f 12//2 15//2 14//2
f 10//2 17//2 16//2
f 8//2 19//2 18//2
f 8//2 7//2 20//2
f 21//2 7//2 6//2
f 16//2 15//2 11//2
f 9//2 18//2 17//2
f 20//2 7//2 21//2
f 21//3 2//3 23//3
f 4//4 24//4 3//4
f 25//5 22//5 26//5
f 6//6 27//6 5//6
f 7//7 28//7 6//7
f 8//8 29//8 7//8
f 9//9 30//9 8//9
f 10//10 31//10 9//10
f 11//11 32//11 10//11
f 12//12 33//12 11//12
f 13//13 34//13 12//13
f 51//2 36//2 35//2
f 49//2 38//2 37//2
f 47//2 40//2 39//2
f 46//2 42//2 41//2
f 44//2 14//2 43//2
f 35//2 52//2 51//2
f 44//2 13//2 14//2
f 36//2 51//2 50//2
f 45//2 44//2 43//2
f 37//2 50//2 49//2
f 42//2 45//2 43//2
f 38//2 49//2 48//2
f 42//2 46//2 45//2
f 39//2 48//2 47//2
f 50//2 37//2 36//2
f 47//2 41//2 40//2
f 41//2 47//2 46//2
f 14//14 15//14 53//14
f 15//15 16//15 54//15
f 16//16 17//16 55//16
f 17//17 18//17 56//17
f 18//18 19//18 57//18
f 19//19 20//19 58//19
f 20//20 21//20 59//20
f 27//4 23//4 24//4
f 29//4 58//4 59//4
f 31//4 56//4 57//4
f 33//4 54//4 55//4
f 34//4 60//4 53//4
f 74//4 62//4 61//4
f 72//4 64//4 63//4
f 70//4 66//4 65//4
f 69//4 68//4 67//4
f 24//4 25//4 26//4
f 66//4 69//4 67//4
f 24//4 26//4 27//4
f 66//4 70//4 69//4
f 59//4 27//4 28//4
f 65//4 71//4 70//4
f 59//4 23//4 27//4
f 65//4 64//4 71//4
f 59//4 28//4 29//4
f 64//4 72//4 71//4
f 58//4 29//4 30//4
f 63//4 73//4 72//4
f 57//4 30//4 31//4
f 63//4 62//4 73//4
f 56//4 31//4 32//4
f 62//4 74//4 73//4
f 55//4 32//4 33//4
f 61//4 75//4 74//4
f 57//4 58//4 30//4
f 61//4 60//4 75//4
f 34//4 75//4 60//4
f 32//4 55//4 56//4
f 53//4 33//4 34//4
f 44//21 75//21 13//21
f 76//6 35//6 67//6
f 36//5 37//5 67//5
f 37//22 38//22 66//22
f 38//23 39//23 65//23
f 39//24 40//24 64//24
f 40//25 41//25 63//25
f 41//26 42//26 62//26
f 42//27 43//27 61//27
f 43//28 14//28 60//28
f 45//29 74//29 44//29
f 46//30 73//30 45//30
f 47//31 72//31 46//31
f 48//32 71//32 47//32
f 49//33 70//33 48//33
f 50//34 69//34 49//34
f 51//1 68//1 50//1
f 52//3 77//3 51//3
f 77//4 76//4 68//4
f 76//35 77//35 35//35
f 24//35 22//35 25//35
f 24//35 4//35 1//35
v 3.660550 -0.375000 7.657122
v 3.660550 0.375000 7.657122
v 5.029090 -0.375000 4.851200
v 5.029090 0.375000 4.851200
v 4.220910 -0.375000 7.648800
v 4.220910 0.375000 7.648800
v 5.589450 -0.375000 4.842878
v 5.589450 0.375000 4.842878
vn -0.898800 0.000000 -0.438400
vn -0.014900 0.000000 -0.999900
vn 0.898800 0.000000 0.438400
vn 0.014900 0.000000 0.999900
vn 0.000000 -1.000000 0.000000
vn 0.000000 1.000000 0.000000
vn -0.014800 0.000000 -0.999900
vn 0.014800 0.000000 0.999900
s off
f 81//36 80//36 78//36
f 85//37 84//37 80//37
f 83//38 82//38 84//38
f 79//39 78//39 82//39
f 80//40 84//40 82//40
f 83//41 85//41 81//41
f 79//36 81//36 78//36
f 81//42 85//42 80//42
f 85//38 83//38 84//38
f 83//43 79//43 82//43
f 78//40 80//40 82//40
f 79//41 83//41 81//41
v -2.000000 -0.375000 -6.875000
v -2.000000 0.375000 -6.875000
v -2.000000 -0.375000 -7.375000
v -2.000000 0.375000 -7.375000
v 2.000000 -0.375000 -6.875000
v 2.000000 0.375000 -6.875000
v 2.000000 -0.375000 -7.375000
v 2.000000 0.375000 -7.375000
vn -1.000000 0.000000 0.000000
vn 0.000000 0.000000 -1.000000
vn 1.000000 0.000000 0.000000
vn 0.000000 0.000000 1.000000
vn 0.000000 -1.000000 0.000000
vn 0.000000 1.000000 0.000000
s off
f 89//44 88//44 86//44
f 93//45 92//45 88//45
f 91//46 90//46 92//46
f 87//47 86//47 90//47
f 88//48 92//48 90//48
f 93//49 89//49 87//49
f 87//44 89//44 86//44
f 89//45 93//45 88//45
f 93//46 91//46 92//46
f 91//47 87//47 90//47
f 86//48 88//48 90//48
f 91//49 93//49 87//49
v 3.714669 -0.375000 -3.217428
v 3.714669 0.375000 -3.217428
v 2.345724 -0.375000 -6.024182
v 2.345724 0.375000 -6.024182
v 3.154276 -0.375000 -3.225817
v 3.154276 0.375000 -3.225817
v 1.785331 -0.375000 -6.032572
v 1.785331 0.375000 -6.032572
vn 0.898800 0.000000 -0.438400
vn 0.015000 0.000000 -0.999900
vn -0.898800 0.000000 0.438400
vn -0.015000 0.000000 0.999900
vn 0.000000 -1.000000 -0.000000
vn 0.000000 1.000000 0.000000
s off
f 94//50 96//50 97//50
f 96//51 100//51 101//51
f 100//52 98//52 99//52
f 98//53 94//53 95//53
f 98//54 100//54 96//54
f 99//55 95//55 97//55
f 95//50 94//50 97//50
f 97//51 96//51 101//51
f 101//52 100//52 99//52
f 99//53 98//53 95//53
f 94//54 98//54 96//54
f 101//55 99//55 97//55
v 5.589450 -0.375000 0.407122
v 5.589450 0.375000 0.407122
v 4.220910 -0.375000 -2.398800
v 4.220910 0.375000 -2.398800
v 5.029090 -0.375000 0.398800
v 5.029090 0.375000 0.398800
v 3.660550 -0.375000 -2.407122
v 3.660550 0.375000 -2.407122
vn 0.898800 0.000000 -0.438400
vn 0.014800 0.000000 -0.999900
vn -0.898800 0.000000 0.438400
vn -0.014800 0.000000 0.999900
vn 0.000000 -1.000000 0.000000
vn 0.000000 1.000000 0.000000
s off
f 102//56 104//56 105//56
f 104//57 108//57 109//57
f 108//58 106//58 107//58
f 106//59 102//59 103//59
f 106//60 108//60 104//60
f 107//61 103//61 105//61
f 103//56 102//56 105//56
f 105//57 104//57 109//57
f 109//58 108//58 107//58
f 107//59 106//59 103//59
f 102//60 106//60 104//60
f 109//61 107//61 105//61
v 1.876828 0.375000 2.993678
v 1.876828 -0.375000 2.993678
v 2.671392 0.375000 2.812500
v 3.761962 0.375000 2.303959
v 3.761962 -0.375000 2.303959
v 2.671392 -0.375000 2.812500
v 3.768167 0.375000 1.749376
v 3.768167 -0.375000 1.749376
v 1.876828 0.375000 2.631322
v 1.876828 -0.375000 2.631322
v 3.761963 0.375000 3.321041
v 3.761963 -0.375000 3.321041
v 3.768167 0.375000 3.875624
v 3.768167 -0.375000 3.875624
vn 0.422600 0.000000 0.906300
vn -0.422600 0.000000 -0.906300
vn 0.999900 0.000000 0.011200
vn 0.000000 1.000000 0.000000
vn 0.422600 0.000000 -0.906300
vn 0.999900 0.000000 -0.011200
vn -0.422600 0.000000 0.906300
vn 0.000000 -1.000000 0.000000
vn -1.000000 0.000000 0.000000
s off
f 115//62 114//62 113//62
f 119//63 118//63 116//63
f 114//64 117//64 116//64
f 116//65 118//65 112//65
f 118//65 110//65 112//65
f 121//66 115//66 112//66
f 123//67 121//67 120//67
f 123//68 122//68 110//68
f 112//65 110//65 122//65
f 115//69 121//69 123//69
f 110//70 118//70 119//70
f 115//69 119//69 117//69
f 115//69 111//69 119//69
f 112//62 115//62 113//62
f 117//63 119//63 116//63
f 113//64 114//64 116//64
f 113//65 116//65 112//65
f 120//66 121//66 112//66
f 122//67 123//67 120//67
f 111//68 123//68 110//68
f 120//65 112//65 122//65
f 111//69 115//69 123//69
f 111//70 110//70 119//70
f 114//69 115//69 117//69
v -3.714450 -0.375000 -3.217878
v -3.714450 0.375000 -3.217878
v -2.345910 -0.375000 -6.023801
v -2.345910 0.375000 -6.023801
v -3.154090 -0.375000 -3.226199
v -3.154090 0.375000 -3.226199
v -1.785550 -0.375000 -6.032122
v -1.785550 0.375000 -6.032122
vn -0.898800 0.000000 -0.438400
vn -0.014800 0.000000 -0.999900
vn 0.898800 0.000000 0.438400
vn 0.014900 0.000000 0.999900
vn 0.000000 -1.000000 0.000000
vn 0.000000 1.000000 0.000000
vn 0.014800 0.000000 0.999900
s off
f 127//71 126//71 124//71
f 131//72 130//72 126//72
f 129//73 128//73 130//73
f 125//74 124//74 128//74
f 126//75 130//75 128//75
f 129//76 131//76 127//76
f 125//71 127//71 124//71
f 127//72 131//72 126//72
f 131//73 129//73 130//73
f 129//77 125//77 128//77
f 124//75 126//75 128//75
f 125//76 129//76 127//76
v -5.589450 -0.375000 0.407122
v -5.589450 0.375000 0.407122
v -4.220910 -0.375000 -2.398801
v -4.220910 0.375000 -2.398801
v -5.029090 -0.375000 0.398801
v -5.029090 0.375000 0.398801
v -3.660550 -0.375000 -2.407122
v -3.660550 0.375000 -2.407122
vn -0.898800 0.000000 -0.438400
vn -0.014800 0.000000 -0.999900
vn 0.898800 0.000000 0.438400
vn 0.014800 0.000000 0.999900
vn 0.000000 -1.000000 0.000000
vn 0.000000 1.000000 0.000000
s off
f 135//78 134//78 132//78
f 139//79 138//79 134//79
f 137//80 136//80 138//80
f 133//81 132//81 136//81
f 134//82 138//82 136//82
f 137//83 139//83 135//83
f 133//78 135//78 132//78
f 135//79 139//79 134//79
f 139//80 137//80 138//80
f 137//81 133//81 136//81
f 132//82 134//82 136//82
f 133//83 137//83 135//83
v -1.876828 0.375000 2.993678
v -1.876828 -0.375000 2.993678
v -2.671392 0.375000 2.812500
v -3.761962 0.375000 2.303959
v -3.761962 -0.375000 2.303959
v -2.671392 -0.375000 2.812500
v -3.768167 0.375000 1.749376
v -3.768167 -0.375000 1.749376
v -1.876828 0.375000 2.631322
v -1.876828 -0.375000 2.631322
v -3.761962 0.375000 3.321041
v -3.761962 -0.375000 3.321041
v -3.768167 0.375000 3.875624
v -3.768167 -0.375000 3.875624
vn -0.422600 0.000000 0.906300
vn 0.422600 0.000000 -0.906300
vn -0.999900 0.000000 0.011200
vn 0.000000 1.000000 0.000000
vn -0.422600 0.000000 -0.906300
vn -0.999900 0.000000 -0.011200
vn 0.422600 0.000000 0.906300
vn 0.000000 -1.000000 0.000000
vn 1.000000 0.000000 0.000000
s off
f 143//84 144//84 145//84
f 146//85 148//85 149//85
f 146//86 147//86 144//86
f 142//87 148//87 146//87
f 148//87 142//87 140//87
f 142//88 145//88 151//88
f 150//89 151//89 153//89
f 140//90 152//90 153//90
f 152//87 140//87 142//87
f 153//91 151//91 145//91
f 149//92 148//92 140//92
f 145//91 144//91 147//91
f 145//91 149//91 141//91
f 142//84 143//84 145//84
f 147//85 146//85 149//85
f 143//86 146//86 144//86
f 143//87 142//87 146//87
f 150//88 142//88 151//88
f 152//89 150//89 153//89
f 141//90 140//90 153//90
f 150//87 152//87 142//87
f 141//91 153//91 145//91
f 141//92 149//92 140//92
f 149//91 145//91 147//91
v -5.534992 -0.375000 1.133865
v -5.625000 -0.375000 1.125000
v -5.625000 0.375000 1.125000
v -5.534992 0.375000 1.133865
v -5.625000 -0.375000 1.687500
v -5.807896 -0.375000 1.705513
v -5.983765 -0.375000 1.758862
v -6.145846 -0.375000 1.845496
v -6.287911 -0.375000 1.962086
v -6.404502 -0.375000 2.104152
v -6.491137 -0.375000 2.266233
v -6.544486 -0.375000 2.442101
v -6.562500 -0.375000 2.624999
v -7.125000 -0.375000 2.624998
v -7.096178 -0.375000 2.332363
v -7.010818 -0.375000 2.050973
v -6.872203 -0.375000 1.791643
v -6.685659 -0.375000 1.564338
v -6.458354 -0.375000 1.377795
v -6.199023 -0.375000 1.239180
v -5.917633 -0.375000 1.153822
v -5.534992 -0.375000 1.696365
v -5.917633 0.375000 1.153822
v -5.534992 0.375000 1.597747
v -5.534992 0.375000 1.696365
v -5.625000 0.375000 1.687500
v -5.807896 0.375000 1.705513
v -5.983765 0.375000 1.758862
v -6.145846 0.375000 1.845496
v -6.287911 0.375000 1.962086
v -6.404502 0.375000 2.104152
v -6.491137 0.375000 2.266233
v -6.544486 0.375000 2.442101
v -6.562500 0.375000 2.624999
v -5.534992 -0.375000 4.116135
v -5.625000 -0.375000 4.125000
v -5.917636 -0.375000 4.096178
v -6.199025 -0.375000 4.010819
v -6.458355 -0.375000 3.872204
v -6.685661 -0.375000 3.685659
v -6.872205 -0.375000 3.458354
v -7.010820 -0.375000 3.199024
v -7.096178 -0.375000 2.917634
v -6.544487 -0.375000 2.807896
v -6.491137 -0.375000 2.983765
v -6.404502 -0.375000 3.145847
v -6.287913 -0.375000 3.287912
v -6.145847 -0.375000 3.404502
v -5.983766 -0.375000 3.491137
v -5.807898 -0.375000 3.544486
v -5.625000 -0.375000 3.562500
v -5.534992 -0.375000 3.553635
v -7.125000 0.375000 2.624998
v -7.096178 0.375000 2.332363
v -7.010818 0.375000 2.050973
v -6.872203 0.375000 1.791643
v -6.685659 0.375000 1.564338
v -6.458354 0.375000 1.377795
v -6.199023 0.375000 1.239180
v -7.096178 0.375000 2.917634
v -7.010820 0.375000 3.199024
v -6.872205 0.375000 3.458354
v -6.685661 0.375000 3.685659
v -6.458355 0.375000 3.872204
v -6.199025 0.375000 4.010819
v -5.917636 0.375000 4.096178
v -5.625000 0.375000 4.125000
v -5.625000 0.375000 3.562500
v -5.807898 0.375000 3.544486
v -5.983766 0.375000 3.491137
v -6.145847 0.375000 3.404502
v -6.287913 0.375000 3.287912
v -6.404502 0.375000 3.145847
v -6.491137 0.375000 2.983765
v -6.544487 0.375000 2.807896
v -5.534992 0.375000 4.116135
v -5.534992 0.375000 3.553635
vn 0.098000 0.000000 -0.995200
vn 0.000000 -1.000000 0.000000
vn -0.098000 0.000000 -0.995200
vn 0.000000 1.000000 0.000000
vn -0.098000 0.000000 0.995200
vn 0.098000 0.000000 0.995200
vn 0.290300 0.000000 0.956900
vn 0.471400 0.000000 0.881900
vn 0.634400 0.000000 0.773000
vn 0.773000 0.000000 0.634400
vn 0.881900 0.000000 0.471400
vn 0.956900 0.000000 0.290300
vn 0.995200 0.000000 0.098000
vn -0.995200 0.000000 -0.098000
vn -0.956900 0.000000 -0.290300
vn -0.881900 0.000000 -0.471400
vn -0.773000 0.000000 -0.634400
vn -0.634400 0.000000 -0.773000
vn -0.471400 0.000000 -0.881900
vn -0.290300 0.000000 -0.956900
vn 0.995200 0.000000 -0.098000
vn -0.290300 0.000000 0.956900
vn -0.471400 0.000000 0.881900
vn -0.634400 0.000000 0.773000
vn -0.773000 0.000000 0.634400
vn -0.881900 0.000000 0.471400
vn -0.956900 0.000000 0.290300
vn -0.995200 0.000000 0.098000
vn 0.956900 0.000000 -0.290300
vn 0.881900 0.000000 -0.471400
vn 0.773000 0.000000 -0.634400
vn 0.634400 0.000000 -0.773000
vn 0.471400 0.000000 -0.881900
vn 0.290300 0.000000 -0.956900
vn 1.000000 0.000000 0.000000
s off
f 155//93 156//93 157//93
f 161//94 172//94 173//94
f 176//95 156//95 155//95
f 156//96 176//96 177//96
f 179//97 158//97 175//97
f 158//98 179//98 180//98
f 159//99 180//99 181//99
f 160//100 181//100 182//100
f 161//101 182//101 183//101
f 162//102 183//102 184//102
f 163//103 184//103 185//103
f 164//104 185//104 186//104
f 165//105 186//105 187//105
f 201//94 192//94 200//94
f 206//106 207//106 168//106
f 207//107 208//107 169//107
f 208//108 209//108 170//108
f 209//109 210//109 171//109
f 210//110 211//110 172//110
f 211//111 212//111 173//111
f 212//112 176//112 174//112
f 186//96 206//96 187//96
f 166//113 187//113 228//113
f 220//98 189//98 188//98
f 220//97 219//97 190//97
f 219//114 218//114 191//114
f 218//115 217//115 192//115
f 217//116 216//116 193//116
f 216//117 215//117 194//117
f 215//118 214//118 195//118
f 214//119 213//119 196//119
f 213//120 206//120 167//120
f 197//121 228//121 227//121
f 198//122 227//122 226//122
f 199//123 226//123 225//123
f 200//124 225//124 224//124
f 201//125 224//125 223//125
f 202//126 223//126 222//126
f 203//93 222//93 221//93
f 204//95 221//95 230//95
f 221//96 220//96 229//96
f 188//127 205//127 230//127
f 177//127 175//127 154//127
f 154//93 155//93 157//93
f 154//94 175//94 158//94
f 158//94 155//94 154//94
f 160//94 173//94 174//94
f 162//94 171//94 172//94
f 163//94 169//94 170//94
f 165//94 167//94 168//94
f 155//94 158//94 159//94
f 165//94 166//94 167//94
f 174//94 159//94 160//94
f 164//94 165//94 168//94
f 173//94 160//94 161//94
f 169//94 164//94 168//94
f 172//94 161//94 162//94
f 169//94 163//94 164//94
f 162//94 170//94 171//94
f 159//94 174//94 155//94
f 170//94 162//94 163//94
f 174//95 176//95 155//95
f 157//96 156//96 177//96
f 178//97 179//97 175//97
f 159//98 158//98 180//98
f 160//99 159//99 181//99
f 161//100 160//100 182//100
f 162//101 161//101 183//101
f 163//102 162//102 184//102
f 164//103 163//103 185//103
f 165//104 164//104 186//104
f 166//105 165//105 187//105
f 204//94 205//94 188//94
f 167//94 166//94 197//94
f 189//94 204//94 188//94
f 196//94 197//94 198//94
f 189//94 203//94 204//94
f 195//94 198//94 199//94
f 190//94 202//94 203//94
f 194//94 199//94 200//94
f 190//94 191//94 202//94
f 203//94 189//94 190//94
f 201//94 191//94 192//94
f 200//94 193//94 194//94
f 198//94 195//94 196//94
f 196//94 167//94 197//94
f 191//94 201//94 202//94
f 200//94 192//94 193//94
f 194//94 195//94 199//94
f 167//106 206//106 168//106
f 168//107 207//107 169//107
f 169//108 208//108 170//108
f 170//109 209//109 171//109
f 171//110 210//110 172//110
f 172//111 211//111 173//111
f 173//112 212//112 174//112
f 179//96 178//96 177//96
f 220//96 221//96 222//96
f 180//96 179//96 177//96
f 218//96 222//96 223//96
f 176//96 180//96 177//96
f 218//96 223//96 224//96
f 181//96 180//96 176//96
f 217//96 224//96 225//96
f 212//96 181//96 176//96
f 216//96 225//96 226//96
f 212//96 182//96 181//96
f 219//96 220//96 222//96
f 212//96 211//96 182//96
f 215//96 226//96 227//96
f 182//96 211//96 183//96
f 218//96 219//96 222//96
f 211//96 210//96 183//96
f 214//96 227//96 228//96
f 183//96 210//96 184//96
f 217//96 218//96 224//96
f 210//96 209//96 184//96
f 213//96 228//96 187//96
f 184//96 209//96 185//96
f 208//96 185//96 209//96
f 186//96 208//96 207//96
f 187//96 206//96 213//96
f 227//96 214//96 215//96
f 225//96 216//96 217//96
f 208//96 186//96 185//96
f 215//96 216//96 226//96
f 228//96 213//96 214//96
f 206//96 186//96 207//96
f 197//113 166//113 228//113
f 229//98 220//98 188//98
f 189//97 220//97 190//97
f 190//114 219//114 191//114
f 191//115 218//115 192//115
f 192//116 217//116 193//116
f 193//117 216//117 194//117
f 194//118 215//118 195//118
f 195//119 214//119 196//119
f 196//120 213//120 167//120
f 198//121 197//121 227//121
f 199//122 198//122 226//122
f 200//123 199//123 225//123
f 201//124 200//124 224//124
f 202//125 201//125 223//125
f 203//126 202//126 222//126
f 204//93 203//93 221//93
f 205//95 204//95 230//95
f 230//96 221//96 229//96
f 229//127 188//127 230//127
f 175//127 177//127 178//127
f 177//127 154//127 157//127
v -3.660550 -0.375000 7.657122
v -3.660550 0.375000 7.657122
v -5.029090 -0.375000 4.851200
v -5.029090 0.375000 4.851200
v -4.220910 -0.375000 7.648800
v -4.220910 0.375000 7.648800
v -5.589450 -0.375000 4.842878
v -5.589450 0.375000 4.842878
vn 0.898800 0.000000 -0.438400
vn 0.014900 0.000000 -0.999900
vn -0.898800 0.000000 0.438400
vn -0.014900 0.000000 0.999900
vn 0.000000 -1.000000 0.000000
vn 0.000000 1.000000 0.000000
vn 0.014800 0.000000 -0.999900
vn -0.014800 0.000000 0.999900
s off
f 231//128 233//128 234//128
f 233//129 237//129 238//129
f 237//130 235//130 236//130
f 235//131 231//131 232//131
f 235//132 237//132 233//132
f 236//133 232//133 234//133
f 232//128 231//128 234//128
f 234//134 233//134 238//134
f 238//130 237//130 236//130
f 236//135 235//135 232//135
f 231//132 235//132 233//132
f 238//133 236//133 234//133
