# Blender v2.75 (sub 0) OBJ File: 'head_d2u_f1_projection.blend'
# www.blender.org
v 5.390883 0.010000 8.000000
v 4.220910 0.010000 5.601200
v 3.714669 0.010000 4.782572
v 2.345724 0.010000 1.975818
v 2.000000 0.010000 1.125000
v -2.000000 0.010000 1.125000
v -2.345910 0.010000 1.976199
v -3.714450 0.010000 4.782122
v -4.220910 0.010000 5.601199
v -5.390883 0.010000 8.000000
v 5.390883 -0.007098 8.000000
v 3.714669 0.009999 4.782572
v 2.345748 0.010000 1.975867
v 2.000000 0.010000 1.125000
v 2.345724 0.010000 1.975818
v 2.000000 0.010000 0.625000
v -2.000000 0.010000 1.125000
v -2.345910 0.010000 1.976199
v -2.632832 0.010000 2.564476
v -3.714450 0.009999 4.782122
v -5.390883 -0.007098 8.000000
v 5.390883 -0.010000 8.000000
v 4.220910 -0.010000 5.601200
v 3.714545 -0.009998 4.782318
v 2.000000 0.010000 1.124995
v 2.000000 0.010000 0.625000
v -2.000000 0.010000 0.625000
v -2.345934 0.010000 1.976248
v -2.000000 0.010000 0.625003
v -2.000000 -0.009998 1.124940
v -2.345910 -0.009998 1.976199
v -3.714450 -0.009998 4.782122
v -4.220910 -0.010000 5.601199
v -5.390883 -0.010000 8.000000
v -3.714450 -0.010000 4.782122
v -2.345910 -0.010000 1.976199
v -2.000000 -0.010000 1.125000
v 2.000000 -0.010000 1.125000
v 2.345724 -0.010000 1.975818
v 3.714669 -0.010000 4.782572
v 3.714669 -0.009998 4.782572
v 2.345724 -0.009998 1.975818
v 2.000000 -0.009998 1.125000
v 1.999973 0.010000 0.625000
v -2.000000 0.010000 0.625000
v -2.000000 -0.009997 0.625000
v -2.000000 -0.009998 1.125000
v -3.714326 -0.009998 4.781868
v -2.632832 -0.009998 2.564476
v -2.000000 -0.010000 0.625000
v 2.000000 -0.009997 0.625000
v -1.999506 -0.009997 0.625000
v 2.000000 -0.010000 0.625000
v 2.000000 -0.009997 0.625062
vn 0.850500 0.001400 -0.525900
vn 0.898800 -0.000000 -0.438400
vn 0.926400 -0.000100 -0.376400
vn 1.000000 0.000000 0.000000
vn 0.000000 0.000000 1.000000
vn 0.850500 0.000000 -0.526000
vn 0.926400 0.000000 -0.376500
vn 0.370800 0.899900 -0.229400
vn 0.407200 0.898200 -0.165500
vn -0.407100 0.898200 -0.166000
vn -0.000000 1.000000 0.000000
vn 0.850400 0.000000 -0.526100
vn 0.898900 0.000000 -0.438100
vn 0.868000 -0.257600 -0.424500
vn 0.580000 0.779800 -0.235600
vn 0.926400 0.000000 -0.376600
vn -0.580000 0.779800 -0.235500
vn -0.981400 0.000300 -0.191900
vn -0.913000 -0.000300 -0.408000
vn -0.390300 0.888500 -0.241300
vn -0.370900 0.899900 -0.229300
vn -0.875900 -0.000000 -0.482500
vn -0.898800 0.000000 -0.438400
vn 0.898600 -0.001200 -0.438800
vn 0.898600 0.003700 -0.438700
vn 0.992500 0.121900 0.000000
vn 0.731800 0.666400 -0.143000
vn -0.898600 0.000600 -0.438700
vn -0.679100 -0.655100 -0.331200
vn -1.000000 0.000000 0.000000
vn -0.993500 -0.061900 -0.095100
vn -0.913100 0.000000 -0.407700
vn -0.634900 0.707100 -0.311400
vn -0.899300 0.000000 -0.437400
vn -0.875600 0.000000 -0.483000
vn -0.390300 -0.888500 -0.241300
vn -0.371000 -0.899900 -0.229200
vn -0.407300 -0.898200 -0.165500
vn 0.026400 -0.999500 -0.016300
vn 0.054500 -0.997900 -0.033700
vn 0.000000 -1.000000 -0.000000
vn 0.000000 0.000000 -1.000000
vn -0.707100 0.000000 -0.707100
vn -0.731800 -0.666400 -0.143000
vn -0.894100 0.099100 -0.436800
vn -0.898600 0.000800 -0.438700
vn -0.647200 -0.693800 -0.315800
vn -0.579900 -0.779800 -0.235700
vn 0.407300 -0.898200 -0.165500
vn 0.579900 -0.779800 -0.235700
vn 0.898700 0.000000 -0.438600
vn 0.613400 -0.001600 0.789800
vn 0.898600 0.000000 -0.438700
vn 0.887400 -0.015600 -0.460600
vn -0.898600 0.000000 0.438700
vn 0.926400 0.000000 -0.376400
s off
f 23//1 24//1 12//1
f 15//2 12//2 24//2
f 43//3 25//3 15//3
f 51//4 16//4 25//4
f 21//5 34//5 11//5
f 2//6 23//6 12//6
f 42//2 15//2 24//2
f 42//7 43//7 15//7
f 43//4 51//4 25//4
f 1//5 10//5 21//5
f 34//5 22//5 11//5
f 11//5 1//5 21//5
s 1
f 3//8 4//9 7//10
f 11//2 2//2 1//2
f 2//11 12//12 3//8
f 3//13 12//13 13//14
f 5//15 4//9 15//16
f 5//11 16//11 6//11
f 6//17 17//18 18//19
f 9//20 8//21 20//22
f 10//23 9//23 21//23
f 23//2 2//2 11//2
f 15//24 13//14 12//13
f 15//24 4//25 13//14
f 25//26 14//27 15//16
f 5//4 14//27 25//26
f 16//4 5//4 25//26
f 16//11 27//11 6//11
f 7//28 18//19 28//29
f 6//30 27//30 29//30
f 17//18 30//31 31//32
f 7//28 19//33 8//34
f 20//22 32//35 33//36
f 21//23 9//23 33//23
f 35//37 36//38 40//39
f 24//40 23//41 40//39
f 16//42 26//42 44//42
f 27//42 16//42 44//42
f 28//29 18//19 20//22
f 27//30 45//43 29//30
f 29//30 45//43 17//18
f 45//43 46//43 30//31
f 30//31 47//44 31//32
f 18//19 31//32 48//45
f 32//35 20//22 48//45
f 32//35 35//37 33//36
f 35//46 49//47 36//23
f 47//44 37//48 36//38
f 37//41 50//41 38//41
f 39//49 38//50 43//7
f 39//2 42//2 24//51
f 41//52 40//53 24//54
f 44//42 51//42 52//42
f 52//42 46//43 45//43
f 50//30 37//30 30//31
f 30//31 37//30 47//44
f 49//47 48//45 31//32
f 48//45 35//46 32//35
f 50//41 53//41 38//41
f 38//4 53//4 54//30
f 54//30 51//4 43//4
f 53//42 50//42 52//42
f 52//42 50//42 46//43
f 54//30 53//4 51//4
f 2//11 10//11 1//11
f 4//9 6//17 7//10
f 2//11 9//20 10//11
f 3//8 7//10 8//21
f 8//21 9//20 3//8
f 4//9 5//15 6//17
f 3//8 9//20 2//11
f 4//25 3//13 13//14
f 14//27 5//15 15//16
f 7//10 6//17 18//19
f 22//2 23//2 11//2
f 26//4 16//4 25//4
f 17//18 6//30 29//30
f 18//19 17//18 31//32
f 19//33 7//28 28//29
f 19//33 20//22 8//34
f 9//20 20//22 33//36
f 34//23 21//23 33//23
f 23//41 22//41 34//41
f 37//48 38//50 39//49
f 33//36 23//41 34//41
f 36//38 39//49 40//39
f 40//39 33//36 35//37
f 36//38 37//48 39//49
f 40//39 23//41 33//36
f 41//52 24//54 40//55
f 45//43 27//42 44//42
f 19//33 28//29 20//22
f 17//18 45//43 30//31
f 20//22 18//19 48//45
f 49//47 35//46 48//45
f 49//47 31//32 36//23
f 31//32 47//44 36//38
f 42//56 39//49 43//7
f 40//51 39//2 24//51
f 45//43 44//42 52//42
f 46//43 50//30 30//31
f 43//4 38//4 54//30
f 51//42 53//42 52//42
