# Blender v2.75 (sub 0) OBJ File: 'head_asc_f1.blend'
# www.blender.org
v -2.000000 -1.125000 -0.375000
v -2.000000 -1.125000 0.375000
v -2.000000 -0.625000 -0.375000
v -2.000000 -0.625000 0.375000
v 2.000000 -1.125000 -0.375000
v 2.000000 -1.125000 0.375000
v 2.000000 -0.625000 -0.375000
v 2.000000 -0.625000 0.375000
v 3.714669 -4.782572 -0.375000
v 3.714669 -4.782572 0.375000
v 2.345724 -1.975818 -0.375000
v 2.345724 -1.975818 0.375000
v 3.154276 -4.774183 -0.375000
v 3.154276 -4.774183 0.375000
v 1.785331 -1.967428 -0.375000
v 1.785331 -1.967428 0.375000
v 5.589450 -8.407123 -0.375000
v 5.589450 -8.407123 0.375000
v 4.220910 -5.601200 -0.375000
v 4.220910 -5.601200 0.375000
v 5.029090 -8.398801 -0.375000
v 5.029090 -8.398801 0.375000
v 3.660550 -5.592878 -0.375000
v 3.660550 -5.592878 0.375000
v -3.714450 -4.782123 -0.375000
v -3.714450 -4.782123 0.375000
v -2.345910 -1.976199 -0.375000
v -2.345910 -1.976199 0.375000
v -3.154090 -4.773801 -0.375000
v -3.154090 -4.773801 0.375000
v -1.785550 -1.967878 -0.375000
v -1.785550 -1.967878 0.375000
v -5.589450 -8.407123 -0.375000
v -5.589450 -8.407123 0.375000
v -4.220910 -5.601200 -0.375000
v -4.220910 -5.601200 0.375000
v -5.029090 -8.398801 -0.375000
v -5.029090 -8.398801 0.375000
v -3.660550 -5.592878 -0.375000
v -3.660550 -5.592878 0.375000
vn -1.000000 -0.000000 0.000000
vn 0.000000 1.000000 0.000000
vn 1.000000 -0.000000 0.000000
vn 0.000000 -1.000000 0.000000
vn 0.000000 0.000000 -1.000000
vn 0.000000 -0.000000 1.000000
vn 0.898800 0.438400 0.000000
vn 0.015000 0.999900 0.000000
vn -0.898800 -0.438400 0.000000
vn -0.015000 -0.999900 0.000000
vn 0.014800 0.999900 0.000000
vn -0.014800 -0.999900 0.000000
vn -0.898800 0.438400 0.000000
vn -0.014800 0.999900 0.000000
vn 0.898800 -0.438400 0.000000
vn 0.014800 -0.999900 0.000000
s off
f 4//1 3//1 1//1
f 8//2 7//2 3//2
f 6//3 5//3 7//3
f 2//4 1//4 5//4
f 3//5 7//5 5//5
f 8//6 4//6 2//6
f 9//7 11//7 12//7
f 11//8 15//8 16//8
f 15//9 13//9 14//9
f 13//10 9//10 10//10
f 13//5 15//5 11//5
f 14//6 10//6 12//6
f 17//7 19//7 20//7
f 19//11 23//11 24//11
f 23//9 21//9 22//9
f 21//12 17//12 18//12
f 21//5 23//5 19//5
f 22//6 18//6 20//6
f 28//13 27//13 25//13
f 32//14 31//14 27//14
f 30//15 29//15 31//15
f 26//16 25//16 29//16
f 27//5 31//5 29//5
f 30//6 32//6 28//6
f 36//13 35//13 33//13
f 40//14 39//14 35//14
f 38//15 37//15 39//15
f 34//16 33//16 37//16
f 35//5 39//5 37//5
f 38//6 40//6 36//6
f 2//1 4//1 1//1
f 4//2 8//2 3//2
f 8//3 6//3 7//3
f 6//4 2//4 5//4
f 1//5 3//5 5//5
f 6//6 8//6 2//6
f 10//7 9//7 12//7
f 12//8 11//8 16//8
f 16//9 15//9 14//9
f 14//10 13//10 10//10
f 9//5 13//5 11//5
f 16//6 14//6 12//6
f 18//7 17//7 20//7
f 20//11 19//11 24//11
f 24//9 23//9 22//9
f 22//12 21//12 18//12
f 17//5 21//5 19//5
f 24//6 22//6 20//6
f 26//13 28//13 25//13
f 28//14 32//14 27//14
f 32//15 30//15 31//15
f 30//16 26//16 29//16
f 25//5 27//5 29//5
f 26//6 30//6 28//6
f 34//13 36//13 33//13
f 36//14 40//14 35//14
f 40//15 38//15 39//15
f 38//16 34//16 37//16
f 33//5 35//5 37//5
f 34//6 38//6 36//6
