# Blender v2.75 (sub 0) OBJ File: 'head_d2u_f2_projection.blend'
# www.blender.org
v 5.534992 0.010000 1.133865
v 5.625000 0.010000 1.125000
v 5.625000 -0.010000 1.125000
v 5.534992 -0.010000 1.133865
v 6.458355 0.010000 3.872204
v 6.685661 0.010000 3.685659
v 6.872205 0.010000 3.458354
v 7.010820 0.010000 3.199024
v 7.096178 0.010000 2.917634
v 7.125000 0.010000 2.624998
v 7.096178 0.010000 2.332363
v 7.010818 0.010000 2.050973
v 6.872203 0.010000 1.791643
v 6.685659 0.010000 1.564338
v 6.458354 0.010000 1.377795
v 6.199023 0.010000 1.239180
v 5.917633 0.010000 1.153822
v 5.589450 0.010000 0.407122
v 4.220910 0.010000 -2.398800
v 3.714669 0.010000 -3.217428
v 2.345724 0.010000 -6.024182
v 2.000000 0.010000 -6.875000
v -2.000000 0.010000 -6.875000
v -2.345910 0.010000 -6.023801
v -3.714450 0.010000 -3.217878
v -4.220910 0.010000 -2.398801
v -5.589450 0.010000 0.407122
v -5.534992 0.010000 1.133865
v -5.625000 0.010000 1.125000
v -5.917633 0.010000 1.153822
v -6.199023 0.010000 1.239180
v -6.458354 0.010000 1.377795
v -6.685659 0.010000 1.564338
v -6.872203 0.010000 1.791643
v -7.010818 0.010000 2.050973
v -7.096178 0.010000 2.332363
v -7.125000 0.010000 2.624998
v -7.096178 0.010000 2.917634
v -7.010820 0.010000 3.199024
v -6.872205 0.010000 3.458354
v -6.685661 0.010000 3.685659
v -6.458355 0.010000 3.872204
v -6.199025 0.010000 4.010819
v -5.917636 0.010000 4.096178
v -5.625000 0.010000 4.125000
v -5.534992 0.010000 4.116135
v -5.589450 0.010000 4.842878
v -4.220910 0.010000 7.648800
v 4.220910 0.010000 7.648800
v 5.589450 0.010000 4.842878
v 5.534992 0.010000 4.116135
v 5.625000 0.010000 4.125000
v 5.917636 0.010000 4.096178
v 6.199025 0.010000 4.010819
v 7.010818 -0.010000 2.050973
v 7.096178 -0.010000 2.332363
v 7.125000 -0.010000 2.624998
v 7.096178 -0.010000 2.917634
v 7.010820 -0.010000 3.199024
v 6.872205 -0.010000 3.458354
v 6.685661 -0.010000 3.685659
v 6.458355 -0.010000 3.872204
v 6.199025 -0.010000 4.010819
v 5.917636 -0.010000 4.096178
v 5.625000 -0.010000 4.125000
v 5.534992 -0.010000 4.116135
v 5.589450 -0.010000 4.842878
v 4.220910 -0.010000 7.648800
v -4.220910 -0.010000 7.648800
v -5.589450 -0.010000 4.842878
v -5.534992 -0.010000 4.116135
v -5.625000 -0.010000 4.125000
v -5.917636 -0.010000 4.096178
v -6.199025 -0.010000 4.010819
v -6.458355 -0.010000 3.872204
v -6.685661 -0.010000 3.685659
v -6.872205 -0.010000 3.458354
v -7.010820 -0.010000 3.199024
v -7.096178 -0.010000 2.917634
v -7.125000 -0.010000 2.624998
v -7.096178 -0.010000 2.332363
v -7.010818 -0.010000 2.050973
v -6.872203 -0.010000 1.791643
v -6.685659 -0.010000 1.564338
v -6.458354 -0.010000 1.377795
v -6.199023 -0.010000 1.239180
v -5.917633 -0.010000 1.153822
v -5.625000 -0.010000 1.125000
v -5.534992 -0.010000 1.133865
v -5.589450 -0.010000 0.407122
v -4.220910 -0.010000 -2.398801
v -3.714450 -0.010000 -3.217878
v -2.345910 -0.010000 -6.023801
v -2.000000 -0.010000 -6.875000
v 2.000000 -0.010000 -6.875000
v 2.345724 -0.010000 -6.024182
v 3.714669 -0.010000 -3.217428
v 4.220910 -0.010000 -2.398800
v 5.589450 -0.010000 0.407122
v 5.917633 -0.010000 1.153822
v 6.199023 -0.010000 1.239180
v 6.458354 -0.010000 1.377795
v 6.685659 -0.010000 1.564338
v 6.872203 -0.010000 1.791643
v 3.714669 -0.009998 -3.217428
v 3.714669 0.009999 -3.217428
v 2.345748 0.010000 -6.024133
v 2.000000 0.010000 -6.875000
v 2.345724 0.010000 -6.024182
v 2.000000 0.010000 -7.375000
v -2.000000 0.010000 -6.875000
v -2.345910 0.010000 -6.023801
v -2.345934 0.010000 -6.023752
v -2.632832 0.010000 -5.435524
v -3.714450 0.009999 -3.217878
v -3.714450 -0.009998 -3.217878
v -2.345910 -0.009998 -6.023801
v -3.714326 -0.009998 -3.218132
v -2.632832 -0.009998 -5.435524
v -2.000000 -0.009998 -6.875000
v -2.000000 -0.010000 -7.375000
v 2.000000 -0.009998 -6.875000
v 2.345724 -0.009998 -6.024182
v 3.714545 -0.009998 -3.217682
v 2.000000 0.010000 -6.875005
v 2.000000 0.010000 -7.375000
v -2.000000 0.010000 -7.375000
v -2.000000 0.010000 -7.374997
v -2.000000 -0.009998 -6.875060
v -2.000000 -0.009997 -7.375000
v 2.000000 -0.010000 -7.375000
v 2.000000 -0.009997 -7.374938
v 1.999973 0.010000 -7.375000
v -2.000000 0.010000 -7.375000
v -1.999506 -0.009997 -7.375000
v 2.000000 -0.009997 -7.375000
v -3.875000 -0.010000 8.000000
v -3.875000 0.009997 8.000000
v 3.875000 -0.010000 8.000000
v 3.875000 0.009997 8.000000
vn 0.850500 0.001400 -0.525900
vn 1.000000 0.000000 0.000000
vn 0.926400 -0.000100 -0.376400
vn 0.898800 -0.000000 -0.438400
vn 0.850500 0.000000 -0.526000
vn 0.926400 0.000000 -0.376500
vn -0.098000 0.000000 -0.995200
vn 0.371100 0.899900 -0.229000
vn -0.390400 0.888500 -0.241400
vn -0.000000 1.000000 0.000000
vn 0.098000 0.000000 -0.995200
vn -0.305200 -0.952000 -0.022900
vn -0.000000 -1.000000 -0.000000
vn 0.513800 0.857100 0.038500
vn 0.305200 0.952000 0.022900
vn 0.305200 -0.952000 0.022900
vn 0.471400 0.000000 0.881900
vn 0.634400 0.000000 0.773000
vn 0.773000 0.000000 0.634400
vn 0.881900 0.000000 0.471400
vn 0.956900 0.000000 0.290300
vn 0.995200 0.000000 0.098000
vn 0.995200 0.000000 -0.098000
vn 0.956900 0.000000 -0.290300
vn 0.881900 0.000000 -0.471400
vn 0.773000 0.000000 -0.634400
vn 0.634400 0.000000 -0.773000
vn 0.471400 0.000000 -0.881900
vn 0.290300 0.000000 -0.956900
vn 0.898900 0.000000 -0.438100
vn 0.899000 0.000000 -0.438000
vn 0.974300 0.000000 -0.225300
vn 0.579600 0.779800 -0.236500
vn 0.407300 0.898200 -0.165400
vn 0.926500 0.000000 -0.376200
vn -0.579600 0.779800 -0.236400
vn -0.981300 0.000300 -0.192300
vn -0.912700 -0.000300 -0.408600
vn -0.898900 -0.000200 -0.438200
vn -0.897400 -0.000100 -0.441100
vn -0.817400 0.416700 -0.397800
vn -0.875900 0.000100 -0.482500
vn -0.875800 0.000000 -0.482700
vn -0.898800 0.000000 -0.438400
vn -0.305200 -0.952000 0.022900
vn -0.305200 0.952000 0.022900
vn -0.513800 0.857100 0.038500
vn -0.290300 0.000000 -0.956900
vn -0.471400 0.000000 -0.881900
vn -0.634400 0.000000 -0.773000
vn -0.773000 0.000000 -0.634400
vn -0.881900 0.000000 -0.471400
vn -0.956900 0.000000 -0.290300
vn -0.995200 0.000000 -0.098000
vn -0.995200 0.000000 0.098000
vn -0.956900 0.000000 0.290300
vn -0.881900 0.000000 0.471400
vn -0.773000 0.000000 0.634400
vn -0.634400 0.000000 0.773000
vn -0.471400 0.000000 0.881900
vn -0.290300 0.000000 0.956900
vn -0.098000 0.000000 0.995200
vn 0.098000 0.000000 0.995200
vn -0.513800 -0.857100 -0.038500
vn -0.513800 0.857100 -0.038500
vn -0.898800 0.000000 0.438400
vn 0.898800 0.000000 0.438400
vn 0.305200 0.952000 -0.022900
vn 0.513800 0.857100 -0.038500
vn 0.513800 -0.857100 -0.038500
vn 0.290300 0.000000 0.956900
vn -0.898800 0.000000 -0.438300
vn -0.899000 -0.000800 -0.438000
vn -0.972100 0.071900 -0.223200
vn -0.579900 -0.779800 -0.235700
vn -0.407300 -0.898200 -0.165400
vn -0.913200 0.000000 -0.407600
vn 0.580000 -0.779800 -0.235600
vn 0.926500 0.000000 -0.376300
vn 0.926500 0.000000 -0.376400
vn 0.898700 0.000000 -0.438500
vn 0.628800 -0.696000 -0.346600
vn 0.898300 -0.031900 -0.438200
vn 0.897700 0.000000 -0.440600
vn 0.897400 0.000000 -0.441100
vn 0.731600 0.666400 -0.143500
vn 0.992500 0.121900 0.000000
vn -0.636100 -0.707000 -0.309200
vn -1.000000 0.000000 0.000000
vn -0.893800 -0.104700 -0.436100
vn -0.993500 -0.061900 -0.095100
vn -0.731800 -0.666400 -0.143000
vn 0.000000 0.000000 -1.000000
vn -0.707100 0.000000 -0.707100
vn 0.000000 0.000000 1.000000
vn 0.346900 -0.873400 0.341700
vn 0.346900 0.873400 0.341700
vn 0.396100 0.831200 0.390100
vn -0.346900 -0.873400 0.341700
vn -0.396100 -0.831200 0.390100
vn -0.396100 0.831200 0.390100
vn 0.370800 -0.899900 -0.229500
vn 0.851000 0.000000 -0.525200
vn -0.371100 0.899900 -0.229000
vn -0.370900 -0.899900 -0.229400
vn -0.390400 -0.888500 -0.241400
vn 0.396100 -0.831200 0.390100
vn -0.305200 0.952000 -0.022900
vn -0.346900 0.873400 0.341700
vn -0.407100 0.898200 -0.165900
vn 0.513800 -0.857100 0.038500
vn 0.305200 -0.952000 -0.022900
vn 0.407300 -0.898200 -0.165500
vn -0.513800 -0.857100 0.038500
s off
f 98//1 124//1 106//1
f 136//2 110//2 125//2
f 122//3 125//3 109//3
f 109//4 106//4 124//4
f 19//5 98//5 106//5
f 122//2 136//2 125//2
f 123//6 122//6 109//6
f 123//4 109//4 124//4
s 1
f 1//7 2//7 3//7
f 4//7 1//7 3//7
f 20//8 26//9 19//10
f 3//11 2//11 17//11
f 71//12 77//13 78//13
f 18//14 1//15 4//16
f 62//17 5//17 54//17
f 61//18 6//18 5//18
f 60//19 7//19 6//19
f 59//20 8//20 7//20
f 58//21 9//21 8//21
f 57//22 10//22 9//22
f 56//23 11//23 10//23
f 55//24 12//24 11//24
f 104//25 13//25 12//25
f 103//26 14//26 13//26
f 102//27 15//27 14//27
f 101//28 16//28 15//28
f 100//29 17//29 16//29
f 18//4 99//4 19//4
f 20//30 106//31 107//32
f 22//33 21//34 109//35
f 22//10 110//10 23//10
f 23//36 111//37 112//38
f 25//39 24//40 114//41
f 26//9 115//42 116//43
f 27//44 26//44 90//44
f 89//45 28//46 27//47
f 88//11 29//11 28//11
f 30//7 29//7 88//7
f 31//48 30//48 87//48
f 32//49 31//49 86//49
f 33//50 32//50 85//50
f 34//51 33//51 84//51
f 35//52 34//52 83//52
f 36//53 35//53 82//53
f 37//54 36//54 81//54
f 38//55 37//55 80//55
f 39//56 38//56 79//56
f 40//57 39//57 78//57
f 41//58 40//58 77//58
f 42//59 41//59 76//59
f 43//60 42//60 75//60
f 44//61 43//61 74//61
f 45//62 44//62 73//62
f 46//63 45//63 71//63
f 71//12 70//64 47//65
f 47//66 70//66 48//66
f 50//67 49//67 67//67
f 51//68 50//69 67//70
f 51//62 66//62 52//62
f 64//63 53//63 52//63
f 63//71 54//71 53//71
f 100//11 3//11 17//11
f 55//25 104//25 12//25
f 56//24 55//24 11//24
f 57//23 56//23 10//23
f 58//22 57//22 9//22
f 59//21 58//21 8//21
f 60//20 59//20 7//20
f 61//19 60//19 6//19
f 62//18 61//18 5//18
f 63//17 62//17 54//17
f 64//71 63//71 53//71
f 65//63 64//63 52//63
f 66//62 65//62 52//62
f 49//67 68//67 67//67
f 70//66 69//66 48//66
f 45//63 72//63 71//63
f 72//62 45//62 73//62
f 73//61 44//61 74//61
f 74//60 43//60 75//60
f 75//59 42//59 76//59
f 76//58 41//58 77//58
f 77//57 40//57 78//57
f 78//56 39//56 79//56
f 79//55 38//55 80//55
f 80//54 37//54 81//54
f 81//53 36//53 82//53
f 82//52 35//52 83//52
f 83//51 34//51 84//51
f 84//50 33//50 85//50
f 85//49 32//49 86//49
f 86//48 31//48 87//48
f 87//7 30//7 88//7
f 89//11 88//11 28//11
f 26//44 91//44 90//44
f 93//72 92//73 119//74
f 94//75 93//76 117//77
f 94//13 121//13 95//13
f 95//78 122//79 123//80
f 97//31 96//81 123//81
f 99//4 98//4 19//4
f 101//29 100//29 16//29
f 102//28 101//28 15//28
f 103//27 102//27 14//27
f 104//26 103//26 13//26
f 105//82 97//31 124//83
f 109//84 21//85 107//32
f 22//2 108//86 125//87
f 110//2 22//2 125//87
f 110//10 127//10 23//10
f 24//40 112//38 113//88
f 23//89 127//89 128//89
f 118//90 92//73 116//43
f 129//91 94//89 120//92
f 121//89 94//89 129//91
f 121//13 131//13 95//13
f 95//2 131//2 132//89
f 110//93 126//93 133//93
f 127//93 110//93 133//93
f 127//89 134//94 128//89
f 135//93 121//93 130//94
f 131//93 121//93 135//93
f 132//89 131//2 136//2
f 137//95 139//95 138//95
f 139//95 140//95 138//95
f 68//96 49//97 140//98
f 69//99 137//100 138//101
f 133//93 136//93 135//93
f 134//94 130//94 129//91
f 111//37 129//91 117//77
f 112//38 117//77 118//90
f 98//13 97//102 105//82
f 19//10 106//103 20//8
f 26//9 25//104 115//42
f 116//43 92//105 91//106
f 69//99 68//96 139//107
f 138//101 140//98 49//97
f 128//89 134//94 111//37
f 135//93 130//94 134//94
f 132//89 136//2 122//2
f 114//41 113//88 112//38
f 125//87 108//86 109//35
f 109//84 107//32 106//31
f 119//74 118//90 117//77
f 116//43 115//42 118//90
f 129//91 120//92 117//77
f 51//68 54//10 5//10
f 51//68 52//10 53//10
f 49//97 50//69 51//68
f 46//108 48//109 49//97
f 44//10 45//10 46//108
f 46//108 47//65 48//109
f 51//68 53//10 54//10
f 46//108 49//97 51//68
f 43//10 44//10 46//108
f 46//108 42//10 43//10
f 46//108 40//10 41//10
f 46//108 38//10 39//10
f 28//46 36//10 37//10
f 28//46 34//10 35//10
f 28//46 32//10 33//10
f 28//46 30//10 31//10
f 26//9 27//47 28//46
f 28//46 29//10 30//10
f 28//46 33//10 34//10
f 46//108 37//10 38//10
f 46//108 41//10 42//10
f 28//46 46//108 51//68
f 51//68 5//10 6//10
f 51//68 7//10 8//10
f 51//68 9//10 10//10
f 1//15 11//10 12//10
f 1//15 13//10 14//10
f 1//15 15//10 16//10
f 1//15 17//10 2//10
f 1//15 18//14 19//10
f 16//10 17//10 1//15
f 1//15 14//10 15//10
f 1//15 10//10 11//10
f 51//68 6//10 7//10
f 28//46 37//10 46//108
f 28//46 35//10 36//10
f 1//15 26//9 28//46
f 28//46 31//10 32//10
f 9//10 51//68 8//10
f 1//15 12//10 13//10
f 25//104 26//9 20//8
f 51//68 10//10 1//15
f 46//108 39//10 40//10
f 1//15 19//10 26//9
f 21//34 23//36 24//110
f 24//110 20//8 21//34
f 21//34 22//33 23//36
f 1//15 28//46 51//68
f 25//104 20//8 24//110
f 4//16 104//13 55//13
f 4//16 102//13 103//13
f 4//16 100//13 101//13
f 98//13 99//111 4//16
f 4//16 3//13 100//13
f 4//16 103//13 104//13
f 4//16 56//13 57//13
f 66//112 58//13 59//13
f 66//112 60//13 61//13
f 66//112 62//13 63//13
f 66//112 64//13 65//13
f 66//112 67//70 68//96
f 63//13 64//13 66//112
f 66//112 61//13 62//13
f 66//112 57//13 58//13
f 4//16 101//13 102//13
f 91//106 98//13 4//16
f 94//75 95//78 96//113
f 91//106 97//102 98//13
f 4//16 55//13 56//13
f 59//13 60//13 66//112
f 66//112 68//96 69//99
f 69//99 70//64 71//12
f 71//12 72//13 73//13
f 71//12 74//13 75//13
f 71//12 76//13 77//13
f 71//12 78//13 79//13
f 89//45 80//13 81//13
f 89//45 82//13 83//13
f 89//45 84//13 85//13
f 89//45 86//13 87//13
f 87//13 88//13 89//45
f 89//45 90//114 91//106
f 93//76 94//75 96//113
f 97//102 91//106 92//105
f 97//102 93//76 96//113
f 4//16 57//13 66//112
f 92//105 93//76 97//102
f 85//13 86//13 89//45
f 89//45 91//106 4//16
f 71//12 66//112 69//99
f 71//12 73//13 74//13
f 4//16 66//112 71//12
f 71//12 89//45 4//16
f 89//45 83//13 84//13
f 71//12 79//13 80//13
f 71//12 75//13 76//13
f 80//13 89//45 71//12
f 89//45 81//13 82//13
f 99//111 18//14 4//16
f 21//85 20//30 107//32
f 108//86 22//33 109//35
f 24//110 23//36 112//38
f 114//41 115//42 25//39
f 24//40 113//88 114//41
f 91//106 26//9 116//43
f 90//114 89//45 27//47
f 46//108 71//12 47//65
f 66//112 51//68 67//70
f 92//73 118//90 119//74
f 119//74 117//77 93//72
f 120//92 94//75 117//77
f 96//113 95//78 123//80
f 124//83 97//31 123//81
f 126//2 110//2 125//2
f 111//37 23//89 128//89
f 130//94 121//89 129//91
f 122//2 95//2 132//89
f 134//94 127//93 133//93
f 136//93 131//93 135//93
f 139//107 68//96 140//98
f 48//109 69//99 138//101
f 134//94 133//93 135//93
f 111//37 134//94 129//91
f 112//38 111//37 117//77
f 115//42 112//38 118//90
f 124//83 98//13 105//82
f 137//100 69//99 139//107
f 48//109 138//101 49//97
f 115//42 114//41 112//38
