# Blender v2.75 (sub 0) OBJ File: 'head_asc_f1_projection.blend'
# www.blender.org
v 5.390883 -8.000000 0.020000
v 4.220910 -5.601200 0.020000
v 3.714669 -4.782572 0.020000
v 2.345724 -1.975818 0.020000
v 2.000000 -1.125000 0.020000
v -2.000000 -1.125000 0.020000
v -2.345910 -1.976199 0.020000
v -3.714450 -4.782122 0.020000
v -4.220910 -5.601199 0.020000
v -5.390883 -8.000000 0.020000
v 5.390883 -8.000000 -0.014196
v 3.714669 -4.782572 0.019999
v 2.345748 -1.975867 0.020000
v 2.000000 -1.125000 0.020000
v 2.345724 -1.975818 0.020000
v 2.000000 -0.625000 0.020000
v -2.000000 -1.125000 0.020000
v -2.345910 -1.976199 0.020000
v -2.632832 -2.564476 0.019999
v -3.714450 -4.782122 0.019999
v -5.390883 -8.000000 -0.014196
v 5.390883 -8.000000 -0.020000
v 4.220910 -5.601200 -0.020000
v 3.714545 -4.782318 -0.019996
v 2.000000 -1.124995 0.020000
v 2.000000 -0.625000 0.020000
v -2.000000 -0.625000 0.020000
v -2.345934 -1.976248 0.020000
v -2.000000 -0.625003 0.020000
v -2.000000 -1.124940 -0.019995
v -2.345910 -1.976199 -0.019995
v -3.714450 -4.782122 -0.019996
v -4.220910 -5.601199 -0.020000
v -5.390883 -8.000000 -0.020000
v -3.714450 -4.782122 -0.020000
v -2.345910 -1.976199 -0.020000
v -2.000000 -1.125000 -0.020000
v 2.000000 -1.125000 -0.020000
v 2.345724 -1.975818 -0.020000
v 3.714669 -4.782572 -0.020000
v 3.714669 -4.782572 -0.019996
v 2.345724 -1.975818 -0.019995
v 2.000000 -1.125000 -0.019995
v 1.999973 -0.625000 0.020000
v -2.000000 -0.625000 0.020000
v -2.000000 -0.625000 -0.019995
v -2.000000 -1.125000 -0.019995
v -3.714326 -4.781868 -0.019996
v -2.632832 -2.564476 -0.019995
v -2.000000 -0.625000 -0.020000
v 2.000000 -0.625000 -0.019995
v -1.999506 -0.625000 -0.019995
v 2.000000 -0.625000 -0.020000
v 2.000000 -0.625062 -0.019995
vn 0.000000 -0.000000 1.000000
vn 0.898800 0.438400 0.000000
vn 0.851000 0.525200 0.000000
vn 0.898500 0.439000 0.000000
vn 0.925300 0.379300 0.000000
vn -0.926600 0.376100 0.000000
vn -0.850900 0.525400 0.000000
vn -0.898800 0.438400 0.000000
vn 0.850500 0.525900 0.000700
vn 0.000000 1.000000 0.000000
vn 0.898000 0.440000 0.000000
vn 1.000000 0.000000 0.000000
vn -0.898000 0.440000 0.000000
vn -1.000000 0.000000 0.000000
vn -0.926400 0.376500 0.000600
vn -0.899000 0.438100 0.000000
vn -0.850500 0.525900 0.000000
vn 0.000000 0.000000 -1.000000
vn 0.108300 0.067000 -0.991900
vn 0.926400 0.376400 -0.000000
vn 0.000000 0.990200 0.139500
vn -0.898800 0.438300 0.000000
vn -0.898600 0.438600 0.008800
vn -0.926500 0.376400 0.000000
vn 0.926500 0.376300 0.000000
vn 0.898700 0.438500 0.000000
vn 0.898100 0.439800 0.000000
vn 0.000000 0.001100 -1.000000
vn -0.898500 0.439000 0.000000
vn 0.000000 1.000000 -0.001500
vn 0.000000 -1.000000 0.000000
vn 0.899000 0.438000 0.000000
vn 0.926700 0.375800 0.000000
vn -0.926600 0.376000 0.000000
vn 0.850500 0.526000 0.000000
vn -0.926400 0.376500 0.000000
vn -0.891800 0.432700 0.132200
vn -0.898100 -0.439800 0.000000
vn 0.926400 0.376500 0.000000
vn 0.015600 0.000000 -0.999900
vn -0.895600 0.436200 0.086900
vn 0.895700 0.436700 -0.083900
s off
f 3//1 4//1 7//1
f 11//2 2//2 1//2
f 2//3 12//3 3//3
f 3//4 12//4 13//4
f 14//5 5//5 4//5
f 5//1 16//1 6//1
f 6//6 17//6 18//6
f 9//7 8//7 20//7
f 10//8 9//8 21//8
f 23//2 2//2 11//2
f 23//9 24//9 12//9
f 15//10 13//10 12//10
f 15//11 4//11 13//11
f 25//1 14//1 15//1
f 5//12 14//12 25//12
f 16//12 5//12 25//12
f 16//1 27//1 6//1
f 7//13 18//13 28//13
f 6//14 27//14 29//14
f 17//15 30//15 31//15
f 7//16 19//16 8//16
f 9//17 20//17 32//17
f 21//8 9//8 33//8
f 35//18 36//18 40//18
f 24//19 23//19 40//19
f 15//2 12//2 24//2
f 43//20 25//20 15//20
f 16//10 26//10 44//10
f 27//21 16//21 44//21
f 18//10 20//10 19//10
f 27//14 45//14 29//14
f 29//1 45//1 17//1
f 45//14 46//14 30//14
f 30//18 47//18 31//18
f 18//8 31//8 48//8
f 32//22 20//22 48//22
f 32//17 35//17 33//17
f 35//23 49//23 36//23
f 37//24 36//24 31//24
f 37//18 50//18 38//18
f 38//25 43//25 42//25
f 39//26 42//26 24//26
f 41//27 40//27 24//27
f 51//12 16//12 25//12
f 44//10 51//10 52//10
f 52//10 46//10 45//10
f 50//14 37//14 30//14
f 30//14 37//14 47//14
f 49//28 48//28 31//28
f 48//29 35//29 32//29
f 50//18 53//18 38//18
f 38//12 53//12 54//12
f 54//1 51//1 43//1
f 53//30 50//30 52//30
f 52//10 50//10 46//10
f 54//12 53//12 51//12
f 21//31 34//31 11//31
f 2//1 10//1 1//1
f 4//1 6//1 7//1
f 2//1 9//1 10//1
f 3//1 7//1 8//1
f 8//1 9//1 3//1
f 4//1 5//1 6//1
f 3//1 9//1 2//1
f 4//32 3//32 13//32
f 15//33 14//33 4//33
f 7//34 6//34 18//34
f 22//2 23//2 11//2
f 2//35 23//35 12//35
f 26//12 16//12 25//12
f 17//14 6//14 29//14
f 18//36 17//36 31//36
f 19//37 7//37 28//37
f 19//29 20//29 8//29
f 33//17 9//17 32//17
f 34//8 21//8 33//8
f 23//18 22//18 34//18
f 37//18 38//18 39//18
f 33//18 23//18 34//18
f 36//18 39//18 40//18
f 40//18 33//18 35//18
f 36//18 37//18 39//18
f 40//18 23//18 33//18
f 41//38 24//38 40//38
f 42//2 15//2 24//2
f 42//39 43//39 15//39
f 45//10 27//10 44//10
f 28//40 18//40 19//40
f 17//14 45//14 30//14
f 20//8 18//8 48//8
f 49//41 35//41 48//41
f 49//8 31//8 36//8
f 47//36 37//36 31//36
f 39//39 38//39 42//39
f 40//42 39//42 24//42
f 43//12 51//12 25//12
f 45//10 44//10 52//10
f 46//14 50//14 30//14
f 43//12 38//12 54//12
f 51//10 53//10 52//10
f 1//31 10//31 21//31
f 34//31 22//31 11//31
f 11//31 1//31 21//31
