# Blender v2.75 (sub 0) OBJ File: 'object.blend'
# www.blender.org
v 2.005196 2.500000 -0.532058
v 2.043302 2.500000 -0.406439
v 2.083333 2.500000 -0.000001
v 2.043303 2.500000 0.406438
v 1.924749 2.500000 0.797257
v 1.732228 2.500000 1.157437
v 1.473139 2.500000 1.473139
v 1.157438 2.500000 1.732228
v 0.797257 2.500000 1.924748
v 0.406438 2.500000 2.043302
v -0.000000 2.500000 2.083333
v -0.406439 2.500000 2.043302
v -0.532058 2.500000 2.005196
v -0.864524 2.500000 2.337662
v -0.487726 2.500000 2.451963
v -0.000000 2.500000 2.499999
v 0.487726 2.500000 2.451963
v 0.956709 2.500000 2.309698
v 1.388925 2.500000 2.078673
v 1.767767 2.500000 1.767766
v 2.078674 2.500000 1.388925
v 2.309699 2.500000 0.956708
v 2.451963 2.500000 0.487725
v 2.500000 2.500000 -0.000000
v 2.451963 2.500000 -0.487726
v 2.337662 2.500000 -0.864524
v 2.005196 0.750000 -0.532058
v 2.043302 0.750000 -0.406439
v 2.083333 0.750000 -0.000001
v 2.043303 0.750000 0.406438
v 1.924749 0.750000 0.797257
v 1.732228 0.750000 1.157437
v 1.473139 0.750000 1.473139
v 1.157438 0.750000 1.732228
v 0.797257 0.750000 1.924748
v 0.406438 0.750000 2.043302
v -0.000000 0.750000 2.083333
v -0.406439 0.750000 2.043302
v -0.532058 0.750000 2.005196
v -0.864524 0.750000 2.337662
v -0.487726 0.750000 2.451963
v -0.000000 0.750000 2.499999
v 0.487726 0.750000 2.451963
v 0.956709 0.750000 2.309698
v 1.388925 0.750000 2.078673
v 1.767767 0.750000 1.767766
v 2.078674 0.750000 1.388925
v 2.309699 0.750000 0.956708
v 2.451963 0.750000 0.487725
v 2.500000 0.750000 -0.000000
v 2.451963 0.750000 -0.487726
v 2.337662 0.750000 -0.864524
v 0.864523 2.500000 -2.337663
v 0.487729 2.500000 -2.451963
v 0.000003 2.500000 -2.500000
v -0.487723 2.500000 -2.451964
v -0.956706 2.500000 -2.309700
v -1.388924 2.500000 -2.078676
v -1.767766 2.500000 -1.767769
v -2.078673 2.500000 -1.388928
v -2.309698 2.500000 -0.956711
v -2.451963 2.500000 -0.487728
v -2.500000 2.500000 -0.000002
v -2.451964 2.500000 0.487724
v -2.337663 2.500000 0.864523
v -2.005197 2.500000 0.532057
v -2.043303 2.500000 0.406436
v -2.083333 2.500000 -0.000002
v -2.043303 2.500000 -0.406440
v -1.924748 2.500000 -0.797259
v -1.732228 2.500000 -1.157440
v -1.473138 2.500000 -1.473141
v -1.157437 2.500000 -1.732230
v -0.797255 2.500000 -1.924750
v -0.406436 2.500000 -2.043304
v 0.000002 2.500000 -2.083334
v 0.406441 2.500000 -2.043303
v 0.532057 2.500000 -2.005197
v 0.864523 0.750000 -2.337663
v 0.487729 0.750000 -2.451963
v 0.000003 0.750000 -2.500000
v -0.487723 0.750000 -2.451964
v -0.956706 0.750000 -2.309700
v -1.388924 0.750000 -2.078676
v -1.767766 0.750000 -1.767769
v -2.078673 0.750000 -1.388928
v -2.309698 0.750000 -0.956711
v -2.451963 0.750000 -0.487728
v -2.500000 0.750000 -0.000002
v -2.451964 0.750000 0.487724
v -2.337663 0.750000 0.864523
v -2.005197 0.750000 0.532057
v -2.043303 0.750000 0.406436
v -2.083333 0.750000 -0.000002
v -2.043303 0.750000 -0.406440
v -1.924748 0.750000 -0.797259
v -1.732228 0.750000 -1.157440
v -1.473138 0.750000 -1.473141
v -1.157437 0.750000 -1.732230
v -0.797255 0.750000 -1.924750
v -0.406436 0.750000 -2.043304
v 0.000002 0.750000 -2.083334
v 0.406441 0.750000 -2.043303
v 0.532057 0.750000 -2.005197
vn 0.000000 1.000000 0.000000
vn -0.956900 0.000000 0.290300
vn -0.995200 0.000000 0.098000
vn -0.995200 0.000000 -0.098000
vn -0.956900 0.000000 -0.290300
vn -0.881900 0.000000 -0.471400
vn -0.773000 0.000000 -0.634400
vn -0.634400 0.000000 -0.773000
vn -0.471400 0.000000 -0.881900
vn -0.290300 0.000000 -0.956900
vn -0.098000 0.000000 -0.995200
vn 0.098000 0.000000 -0.995200
vn 0.290300 0.000000 -0.956900
vn -0.290300 0.000000 0.956900
vn -0.098000 0.000000 0.995200
vn 0.098000 0.000000 0.995200
vn 0.290300 0.000000 0.956900
vn 0.471400 0.000000 0.881900
vn 0.634400 0.000000 0.773000
vn 0.773000 0.000000 0.634400
vn 0.881900 0.000000 0.471400
vn 0.956900 0.000000 0.290300
vn 0.995200 0.000000 0.098000
vn 0.995200 0.000000 -0.098000
vn 0.956900 0.000000 -0.290300
vn 0.000000 -1.000000 0.000000
vn -0.707100 0.000000 -0.707100
vn 0.707100 0.000000 0.707100
s off
f 7//1 8//1 19//1
f 28//2 2//2 1//2
f 3//3 2//3 28//3
f 4//4 3//4 29//4
f 5//5 4//5 30//5
f 6//6 5//6 31//6
f 7//7 6//7 32//7
f 8//8 7//8 33//8
f 9//9 8//9 34//9
f 10//10 9//10 35//10
f 11//11 10//11 36//11
f 12//12 11//12 37//12
f 12//13 38//13 39//13
f 41//14 15//14 14//14
f 16//15 15//15 41//15
f 17//16 16//16 42//16
f 18//17 17//17 43//17
f 19//18 18//18 44//18
f 20//19 19//19 45//19
f 21//20 20//20 46//20
f 22//21 21//21 47//21
f 23//22 22//22 48//22
f 24//23 23//23 49//23
f 25//24 24//24 50//24
f 25//25 51//25 52//25
f 33//26 32//26 47//26
f 40//27 14//27 13//27
f 52//27 27//27 1//27
f 58//1 59//1 72//1
f 80//13 54//13 53//13
f 55//12 54//12 80//12
f 56//11 55//11 81//11
f 57//10 56//10 82//10
f 58//9 57//9 83//9
f 59//8 58//8 84//8
f 60//7 59//7 85//7
f 61//6 60//6 86//6
f 62//5 61//5 87//5
f 63//4 62//4 88//4
f 64//3 63//3 89//3
f 64//2 90//2 91//2
f 93//25 67//25 66//25
f 68//24 67//24 93//24
f 69//23 68//23 94//23
f 70//22 69//22 95//22
f 71//21 70//21 96//21
f 72//20 71//20 97//20
f 73//19 72//19 98//19
f 74//18 73//18 99//18
f 75//17 74//17 100//17
f 76//16 75//16 101//16
f 77//15 76//15 102//15
f 77//14 103//14 104//14
f 86//26 85//26 98//26
f 65//28 91//28 92//28
f 104//28 79//28 53//28
f 25//1 26//1 1//1
f 3//1 24//1 25//1
f 5//1 22//1 23//1
f 7//1 20//1 21//1
f 8//1 18//1 19//1
f 10//1 16//1 17//1
f 13//1 14//1 15//1
f 25//1 1//1 2//1
f 12//1 13//1 15//1
f 25//1 2//1 3//1
f 11//1 12//1 15//1
f 24//1 3//1 4//1
f 16//1 11//1 15//1
f 23//1 4//1 5//1
f 16//1 10//1 11//1
f 23//1 24//1 4//1
f 9//1 10//1 17//1
f 22//1 5//1 6//1
f 18//1 9//1 17//1
f 21//1 6//1 7//1
f 18//1 8//1 9//1
f 7//1 19//1 20//1
f 21//1 22//1 6//1
f 27//2 28//2 1//2
f 29//3 3//3 28//3
f 30//4 4//4 29//4
f 31//5 5//5 30//5
f 32//6 6//6 31//6
f 33//7 7//7 32//7
f 34//8 8//8 33//8
f 35//9 9//9 34//9
f 36//10 10//10 35//10
f 37//11 11//11 36//11
f 38//12 12//12 37//12
f 13//13 12//13 39//13
f 40//14 41//14 14//14
f 42//15 16//15 41//15
f 43//16 17//16 42//16
f 44//17 18//17 43//17
f 45//18 19//18 44//18
f 46//19 20//19 45//19
f 47//20 21//20 46//20
f 48//21 22//21 47//21
f 49//22 23//22 48//22
f 50//23 24//23 49//23
f 51//24 25//24 50//24
f 26//25 25//25 52//25
f 41//26 40//26 39//26
f 37//26 42//26 41//26
f 35//26 44//26 43//26
f 33//26 46//26 45//26
f 32//26 48//26 47//26
f 30//26 50//26 49//26
f 27//26 52//26 51//26
f 41//26 39//26 38//26
f 28//26 27//26 51//26
f 41//26 38//26 37//26
f 29//26 28//26 51//26
f 42//26 37//26 36//26
f 50//26 29//26 51//26
f 43//26 36//26 35//26
f 50//26 30//26 29//26
f 43//26 42//26 36//26
f 31//26 30//26 49//26
f 44//26 35//26 34//26
f 48//26 31//26 49//26
f 45//26 34//26 33//26
f 48//26 32//26 31//26
f 33//26 47//26 46//26
f 45//26 44//26 34//26
f 39//27 40//27 13//27
f 26//27 52//27 1//27
f 54//1 78//1 53//1
f 64//1 66//1 67//1
f 54//1 77//1 78//1
f 64//1 67//1 68//1
f 54//1 76//1 77//1
f 63//1 68//1 69//1
f 55//1 76//1 54//1
f 64//1 65//1 66//1
f 55//1 75//1 76//1
f 62//1 69//1 70//1
f 56//1 75//1 55//1
f 63//1 64//1 68//1
f 56//1 74//1 75//1
f 61//1 70//1 71//1
f 57//1 74//1 56//1
f 62//1 63//1 69//1
f 57//1 73//1 74//1
f 60//1 71//1 72//1
f 70//1 61//1 62//1
f 72//1 59//1 60//1
f 73//1 57//1 58//1
f 60//1 61//1 71//1
f 72//1 73//1 58//1
f 79//13 80//13 53//13
f 81//12 55//12 80//12
f 82//11 56//11 81//11
f 83//10 57//10 82//10
f 84//9 58//9 83//9
f 85//8 59//8 84//8
f 86//7 60//7 85//7
f 87//6 61//6 86//6
f 88//5 62//5 87//5
f 89//4 63//4 88//4
f 90//3 64//3 89//3
f 65//2 64//2 91//2
f 92//25 93//25 66//25
f 94//24 68//24 93//24
f 95//23 69//23 94//23
f 96//22 70//22 95//22
f 97//21 71//21 96//21
f 98//20 72//20 97//20
f 99//19 73//19 98//19
f 100//18 74//18 99//18
f 101//17 75//17 100//17
f 102//16 76//16 101//16
f 103//15 77//15 102//15
f 78//14 77//14 104//14
f 90//26 92//26 91//26
f 80//26 104//26 103//26
f 90//26 93//26 92//26
f 80//26 103//26 102//26
f 90//26 94//26 93//26
f 81//26 102//26 101//26
f 89//26 94//26 90//26
f 80//26 79//26 104//26
f 89//26 95//26 94//26
f 82//26 101//26 100//26
f 88//26 95//26 89//26
f 81//26 80//26 102//26
f 88//26 96//26 95//26
f 83//26 100//26 99//26
f 87//26 96//26 88//26
f 82//26 81//26 101//26
f 87//26 97//26 96//26
f 84//26 99//26 98//26
f 100//26 83//26 82//26
f 98//26 85//26 84//26
f 97//26 87//26 86//26
f 84//26 83//26 99//26
f 98//26 97//26 86//26
f 66//28 65//28 92//28
f 78//28 104//28 53//28
