# Blender v2.75 (sub 0) OBJ File: 'object.blend'
# www.blender.org
v -2.005196 -2.500000 -0.532058
v -2.043301 -2.500000 -0.406441
v -2.083333 -2.500000 -0.000003
v -2.043303 -2.500000 0.406436
v -1.924749 -2.500000 0.797255
v -1.732229 -2.500000 1.157436
v -1.473140 -2.500000 1.473137
v -1.767768 -2.500000 1.767765
v -2.078675 -2.500000 1.388923
v -2.309699 -2.500000 0.956706
v -2.451963 -2.500000 0.487723
v -2.499999 -2.500000 -0.000004
v -2.451962 -2.500000 -0.487729
v -2.337662 -2.500000 -0.864524
v -2.005196 -0.750000 -0.532058
v -2.043301 -0.750000 -0.406441
v -2.083333 -0.750000 -0.000003
v -2.043303 -0.750000 0.406436
v -1.924749 -0.750000 0.797255
v -1.732229 -0.750000 1.157436
v -1.473140 -0.750000 1.473137
v 0.864525 -2.500000 2.337663
v 0.487725 -2.500000 2.451964
v -0.000001 -2.500000 2.500000
v -0.487727 -2.500000 2.451963
v -0.956710 -2.500000 2.309698
v -1.388927 -2.500000 2.078673
v -1.157439 -2.500000 1.732227
v -0.797258 -2.500000 1.924748
v -0.406439 -2.500000 2.043303
v -0.000001 -2.500000 2.083333
v 0.406438 -2.500000 2.043303
v 0.532058 -2.500000 2.005196
v -1.767768 -0.750000 1.767765
v -2.078675 -0.750000 1.388923
v -2.309699 -0.750000 0.956706
v -2.451963 -0.750000 0.487723
v -2.499999 -0.750000 -0.000004
v -2.451962 -0.750000 -0.487729
v -2.337662 -0.750000 -0.864524
v -1.157439 -0.750000 1.732227
v 0.864525 -0.750000 2.337663
v 0.487725 -0.750000 2.451964
v -0.000001 -0.750000 2.500000
v -0.487727 -0.750000 2.451963
v -0.956710 -0.750000 2.309698
v -1.388927 -0.750000 2.078673
v -0.797258 -0.750000 1.924748
v -0.406439 -0.750000 2.043303
v -0.000001 -0.750000 2.083333
v 0.406438 -0.750000 2.043303
v 0.532058 -0.750000 2.005196
v -0.864523 -2.500000 -2.337663
v -0.487725 -2.500000 -2.451963
v 0.000001 -2.500000 -2.500000
v 0.487727 -2.500000 -2.451963
v 0.956709 -2.500000 -2.309699
v 1.473140 -2.500000 -1.473140
v 1.157439 -2.500000 -1.732228
v 0.797258 -2.500000 -1.924749
v 0.406439 -2.500000 -2.043303
v 0.000001 -2.500000 -2.083333
v -0.406437 -2.500000 -2.043303
v -0.532056 -2.500000 -2.005197
v -0.864523 -0.750000 -2.337663
v -0.487725 -0.750000 -2.451963
v 0.000001 -0.750000 -2.500000
v 0.487727 -0.750000 -2.451963
v 0.956709 -0.750000 -2.309699
v 1.388926 -2.500000 -2.078674
v 1.767767 -2.500000 -1.767767
v 2.078674 -2.500000 -1.388926
v 2.309699 -2.500000 -0.956709
v 2.451964 -2.500000 -0.487726
v 2.500000 -2.500000 -0.000000
v 2.451964 -2.500000 0.487726
v 2.337664 -2.500000 0.864523
v 2.005197 -2.500000 0.532057
v 2.043303 -2.500000 0.406438
v 2.083334 -2.500000 -0.000000
v 2.043303 -2.500000 -0.406438
v 1.924749 -2.500000 -0.797258
v 1.732229 -2.500000 -1.157438
v 1.473140 -0.750000 -1.473140
v 1.157439 -0.750000 -1.732228
v 0.797258 -0.750000 -1.924749
v 0.406439 -0.750000 -2.043303
v 0.000001 -0.750000 -2.083333
v -0.406437 -0.750000 -2.043303
v -0.532056 -0.750000 -2.005197
v 2.309699 -0.750000 -0.956709
v 2.078674 -0.750000 -1.388926
v 1.767767 -0.750000 -1.767767
v 1.388926 -0.750000 -2.078674
v 1.732229 -0.750000 -1.157438
v 2.451964 -0.750000 -0.487726
v 2.500000 -0.750000 -0.000000
v 2.451964 -0.750000 0.487726
v 2.337664 -0.750000 0.864523
v 2.005197 -0.750000 0.532057
v 2.043303 -0.750000 0.406438
v 2.083334 -0.750000 -0.000000
v 2.043303 -0.750000 -0.406438
v 1.924749 -0.750000 -0.797258
vn 0.000000 -1.000000 0.000000
vn 0.956900 0.000000 0.290300
vn 0.995200 0.000000 0.098000
vn 0.995200 0.000000 -0.098000
vn 0.956900 0.000000 -0.290300
vn 0.881900 0.000000 -0.471400
vn 0.773000 0.000000 -0.634400
vn -0.773000 0.000000 0.634400
vn -0.881900 0.000000 0.471400
vn -0.956900 0.000000 0.290300
vn -0.995200 0.000000 0.098000
vn -0.995200 0.000000 -0.098000
vn -0.956900 0.000000 -0.290300
vn 0.000000 1.000000 0.000000
vn 0.634400 0.000000 -0.773000
vn 0.290300 0.000000 0.956900
vn 0.098000 0.000000 0.995200
vn -0.098000 0.000000 0.995200
vn -0.290300 0.000000 0.956900
vn -0.471400 0.000000 0.881900
vn -0.634400 0.000000 0.773000
vn 0.471400 0.000000 -0.881900
vn 0.290300 0.000000 -0.956900
vn 0.098000 0.000000 -0.995200
vn -0.098000 0.000000 -0.995200
vn -0.290300 0.000000 -0.956900
vn 0.707100 0.000000 -0.707100
vn -0.707100 0.000000 0.707100
s off
f 4//1 5//1 10//1
f 16//2 2//2 1//2
f 2//3 16//3 17//3
f 3//4 17//4 18//4
f 4//5 18//5 19//5
f 5//6 19//6 20//6
f 6//7 20//7 21//7
f 30//1 24//1 25//1
f 34//8 35//8 9//8
f 35//9 36//9 10//9
f 36//10 37//10 11//10
f 37//11 38//11 12//11
f 38//12 39//12 13//12
f 13//13 39//13 40//13
f 37//14 18//14 38//14
f 7//15 21//15 41//15
f 43//16 23//16 22//16
f 43//17 44//17 24//17
f 44//18 45//18 25//18
f 45//19 46//19 26//19
f 46//20 47//20 27//20
f 47//21 34//21 8//21
f 28//22 41//22 48//22
f 29//23 48//23 49//23
f 30//24 49//24 50//24
f 31//25 50//25 51//25
f 32//26 51//26 52//26
f 49//14 48//14 46//14
f 42//27 22//27 33//27
f 1//27 14//27 40//27
f 61//1 55//1 56//1
f 66//26 54//26 53//26
f 66//25 67//25 55//25
f 67//24 68//24 56//24
f 68//23 69//23 57//23
f 72//1 73//1 82//1
f 58//21 84//21 85//21
f 59//20 85//20 86//20
f 60//19 86//19 87//19
f 61//18 87//18 88//18
f 62//17 88//17 89//17
f 63//16 89//16 90//16
f 87//14 86//14 69//14
f 69//22 94//22 70//22
f 83//8 95//8 84//8
f 94//15 93//15 71//15
f 93//7 92//7 72//7
f 92//6 91//6 73//6
f 91//5 96//5 74//5
f 96//4 97//4 75//4
f 97//3 98//3 76//3
f 76//2 98//2 99//2
f 101//13 79//13 78//13
f 79//12 101//12 102//12
f 80//11 102//11 103//11
f 81//10 103//10 104//10
f 82//9 104//9 95//9
f 97//14 96//14 103//14
f 99//28 100//28 78//28
f 90//28 65//28 53//28
f 13//1 14//1 1//1
f 3//1 12//1 13//1
f 4//1 10//1 11//1
f 6//1 8//1 9//1
f 13//1 1//1 2//1
f 6//1 7//1 8//1
f 13//1 2//1 3//1
f 5//1 6//1 9//1
f 12//1 3//1 4//1
f 10//1 5//1 9//1
f 4//1 11//1 12//1
f 15//2 16//2 1//2
f 3//3 2//3 17//3
f 4//4 3//4 18//4
f 5//5 4//5 19//5
f 6//6 5//6 20//6
f 7//7 6//7 21//7
f 23//1 33//1 22//1
f 8//1 7//1 28//1
f 23//1 32//1 33//1
f 27//1 28//1 29//1
f 23//1 31//1 32//1
f 26//1 29//1 30//1
f 28//1 27//1 8//1
f 30//1 25//1 26//1
f 31//1 23//1 24//1
f 24//1 30//1 31//1
f 29//1 26//1 27//1
f 8//8 34//8 9//8
f 9//9 35//9 10//9
f 10//10 36//10 11//10
f 11//11 37//11 12//11
f 12//12 38//12 13//12
f 14//13 13//13 40//13
f 20//14 35//14 34//14
f 18//14 37//14 36//14
f 17//14 39//14 38//14
f 39//14 15//14 40//14
f 34//14 21//14 20//14
f 39//14 16//14 15//14
f 35//14 20//14 19//14
f 39//14 17//14 16//14
f 36//14 19//14 18//14
f 19//14 36//14 35//14
f 18//14 17//14 38//14
f 28//15 7//15 41//15
f 42//16 43//16 22//16
f 23//17 43//17 24//17
f 24//18 44//18 25//18
f 25//19 45//19 26//19
f 26//20 46//20 27//20
f 27//21 47//21 8//21
f 29//22 28//22 48//22
f 30//23 29//23 49//23
f 31//24 30//24 50//24
f 32//25 31//25 51//25
f 33//26 32//26 52//26
f 43//14 42//14 52//14
f 50//14 44//14 43//14
f 49//14 46//14 45//14
f 41//14 34//14 47//14
f 43//14 52//14 51//14
f 41//14 21//14 34//14
f 43//14 51//14 50//14
f 48//14 41//14 47//14
f 44//14 50//14 49//14
f 46//14 48//14 47//14
f 49//14 45//14 44//14
f 52//27 42//27 33//27
f 15//27 1//27 40//27
f 54//1 64//1 53//1
f 57//1 58//1 59//1
f 54//1 63//1 64//1
f 57//1 59//1 60//1
f 54//1 62//1 63//1
f 57//1 60//1 61//1
f 61//1 56//1 57//1
f 62//1 54//1 55//1
f 55//1 61//1 62//1
f 65//26 66//26 53//26
f 54//25 66//25 55//25
f 55//24 67//24 56//24
f 56//23 68//23 57//23
f 76//1 78//1 79//1
f 70//1 58//1 57//1
f 76//1 79//1 80//1
f 71//1 58//1 70//1
f 75//1 80//1 81//1
f 71//1 83//1 58//1
f 76//1 77//1 78//1
f 72//1 83//1 71//1
f 74//1 81//1 82//1
f 80//1 75//1 76//1
f 82//1 73//1 74//1
f 82//1 83//1 72//1
f 74//1 75//1 81//1
f 59//21 58//21 85//21
f 60//20 59//20 86//20
f 61//19 60//19 87//19
f 62//18 61//18 88//18
f 63//17 62//17 89//17
f 64//16 63//16 90//16
f 66//14 65//14 90//14
f 88//14 67//14 66//14
f 87//14 69//14 68//14
f 85//14 93//14 94//14
f 85//14 91//14 92//14
f 66//14 90//14 89//14
f 93//14 85//14 92//14
f 66//14 89//14 88//14
f 86//14 85//14 94//14
f 67//14 88//14 87//14
f 69//14 86//14 94//14
f 87//14 68//14 67//14
f 57//22 69//22 70//22
f 58//8 83//8 84//8
f 70//15 94//15 71//15
f 71//7 93//7 72//7
f 72//6 92//6 73//6
f 73//5 91//5 74//5
f 74//4 96//4 75//4
f 75//3 97//3 76//3
f 77//2 76//2 99//2
f 100//13 101//13 78//13
f 80//12 79//12 102//12
f 81//11 80//11 103//11
f 82//10 81//10 104//10
f 83//9 82//9 95//9
f 98//14 100//14 99//14
f 91//14 85//14 84//14
f 98//14 101//14 100//14
f 91//14 84//14 95//14
f 98//14 102//14 101//14
f 91//14 95//14 104//14
f 97//14 102//14 98//14
f 91//14 104//14 103//14
f 103//14 96//14 91//14
f 103//14 102//14 97//14
f 77//28 99//28 78//28
f 64//28 90//28 53//28
