# Blender v2.75 (sub 0) OBJ File: 'object.blend'
# www.blender.org
v -0.500000 -2.250000 1.408275
v -0.574025 -2.250000 1.385819
v -0.833355 -2.250000 1.247205
v -1.060660 -2.250000 1.060660
v -1.247205 -2.250000 0.833355
v -1.385819 -2.250000 0.574025
v -1.471178 -2.250000 0.292635
v -1.500000 -2.250000 -0.000001
v -1.471178 -2.250000 -0.292636
v -1.385819 -2.250000 -0.574026
v -1.247204 -2.250000 -0.833356
v -1.060660 -2.250000 -1.060661
v -0.833354 -2.250000 -1.247205
v -0.574024 -2.250000 -1.385820
v -0.292634 -2.250000 -1.471178
v 0.000002 -2.250000 -1.500000
v 0.000001 -2.250000 -1.250000
v -0.243862 -2.250000 -1.225982
v -0.478353 -2.250000 -1.154850
v -0.694462 -2.250000 -1.039338
v -0.883883 -2.250000 -0.883884
v -1.039337 -2.250000 -0.694463
v -1.154849 -2.250000 -0.478355
v -1.225981 -2.250000 -0.243863
v -1.250000 -2.250000 -0.000000
v -1.225982 -2.250000 0.243863
v -1.154850 -2.250000 0.478354
v -1.039337 -2.250000 0.694463
v -0.883884 -2.250000 0.883884
v -0.694463 -2.250000 1.039337
v -0.500000 -2.250000 1.143280
v -0.500000 2.250000 1.408275
v -0.574025 2.250000 1.385819
v -0.833355 2.250000 1.247205
v -1.060660 2.250000 1.060660
v -1.247205 2.250000 0.833355
v -1.385819 2.250000 0.574025
v -1.471178 2.250000 0.292635
v -1.500000 2.250000 -0.000001
v -1.471178 2.250000 -0.292636
v -1.385819 2.250000 -0.574026
v -1.247204 2.250000 -0.833356
v -1.060660 2.250000 -1.060661
v -0.833354 2.250000 -1.247205
v -0.574024 2.250000 -1.385820
v -0.292634 2.250000 -1.471178
v 0.000002 2.250000 -1.500000
v 1.143279 -2.250000 -0.500000
v 1.039338 -2.250000 -0.694461
v 0.883885 -2.250000 -0.883882
v 0.694464 -2.250000 -1.039336
v 0.478356 -2.250000 -1.154849
v 0.243864 -2.250000 -1.225982
v 0.292637 -2.250000 -1.471178
v 0.574027 -2.250000 -1.385819
v 0.833357 -2.250000 -1.247203
v 1.060662 -2.250000 -1.060659
v 1.247205 -2.250000 -0.833354
v 1.385820 -2.250000 -0.574023
v 1.408275 -2.250000 -0.500000
v 0.000001 2.250000 -1.250000
v -0.243862 2.250000 -1.225982
v -0.478353 2.250000 -1.154850
v -0.694462 2.250000 -1.039338
v -0.883883 2.250000 -0.883884
v -1.039337 2.250000 -0.694463
v -1.154849 2.250000 -0.478355
v -1.225981 2.250000 -0.243863
v -1.250000 2.250000 -0.000000
v -1.225982 2.250000 0.243863
v -1.154850 2.250000 0.478354
v -1.039337 2.250000 0.694463
v -0.883884 2.250000 0.883884
v -0.694463 2.250000 1.039337
v -0.500000 2.250000 1.143280
v 1.408275 2.250000 -0.500000
v 1.385820 2.250000 -0.574023
v 1.247205 2.250000 -0.833354
v 1.060662 2.250000 -1.060659
v 0.833357 2.250000 -1.247203
v 0.574027 2.250000 -1.385819
v 0.292637 2.250000 -1.471178
v 0.243864 2.250000 -1.225982
v 0.478356 2.250000 -1.154849
v 0.694464 2.250000 -1.039336
v 0.883885 2.250000 -0.883882
v 1.039338 2.250000 -0.694461
v 1.143279 2.250000 -0.500000
vn 0.000000 -1.000000 0.000000
vn -0.290300 0.000000 0.956900
vn -0.471400 0.000000 0.881900
vn -0.634400 0.000000 0.773000
vn -0.773000 0.000000 0.634400
vn -0.881900 0.000000 0.471400
vn -0.956900 0.000000 0.290300
vn -0.995200 0.000000 0.098000
vn -0.995200 0.000000 -0.098000
vn -0.956900 0.000000 -0.290300
vn -0.881900 0.000000 -0.471400
vn -0.773000 0.000000 -0.634400
vn -0.634400 0.000000 -0.773000
vn -0.471400 0.000000 -0.881900
vn -0.290300 0.000000 -0.956900
vn -0.098000 0.000000 -0.995200
vn 0.098000 0.000000 0.995200
vn 0.290300 0.000000 0.956900
vn 0.471400 0.000000 0.881900
vn 0.634400 0.000000 0.773000
vn 0.773000 0.000000 0.634400
vn 0.881900 0.000000 0.471400
vn 0.956900 0.000000 0.290300
vn 0.995200 0.000000 0.098000
vn 0.995200 0.000000 -0.098000
vn 0.956900 0.000000 -0.290300
vn 0.881900 0.000000 -0.471400
vn 0.773000 0.000000 -0.634400
vn 0.634400 0.000000 -0.773000
vn 0.471400 0.000000 -0.881900
vn 0.000000 1.000000 -0.000000
vn 0.098000 0.000000 -0.995200
vn -0.098000 0.000000 0.995200
vn 0.290300 0.000000 -0.956900
vn 0.000000 0.000000 1.000000
vn 1.000000 0.000000 0.000000
s off
f 8//1 9//1 24//1
f 33//2 2//2 1//2
f 33//3 34//3 3//3
f 34//4 35//4 4//4
f 35//5 36//5 5//5
f 36//6 37//6 6//6
f 37//7 38//7 7//7
f 38//8 39//8 8//8
f 39//9 40//9 9//9
f 40//10 41//10 10//10
f 41//11 42//11 11//11
f 42//12 43//12 12//12
f 43//13 44//13 13//13
f 44//14 45//14 14//14
f 45//15 46//15 15//15
f 46//16 47//16 16//16
f 51//1 55//1 56//1
f 17//17 61//17 62//17
f 18//18 62//18 63//18
f 19//19 63//19 64//19
f 20//20 64//20 65//20
f 21//21 65//21 66//21
f 22//22 66//22 67//22
f 23//23 67//23 68//23
f 24//24 68//24 69//24
f 25//25 69//25 70//25
f 26//26 70//26 71//26
f 27//27 71//27 72//27
f 28//28 72//28 73//28
f 29//29 73//29 74//29
f 30//30 74//30 75//30
f 72//31 37//31 36//31
f 47//31 46//31 62//31
f 47//32 82//32 54//32
f 87//6 49//6 48//6
f 49//5 87//5 86//5
f 50//4 86//4 85//4
f 51//3 85//3 84//3
f 52//2 84//2 83//2
f 53//33 83//33 61//33
f 82//34 81//34 55//34
f 81//30 80//30 56//30
f 80//29 79//29 57//29
f 79//28 78//28 58//28
f 78//27 77//27 59//27
f 59//26 77//26 76//26
f 60//35 76//35 88//35
f 1//36 31//36 75//36
f 2//1 31//1 1//1
f 16//1 17//1 18//1
f 2//1 3//1 31//1
f 15//1 18//1 19//1
f 31//1 3//1 30//1
f 14//1 19//1 20//1
f 3//1 29//1 30//1
f 15//1 16//1 18//1
f 4//1 29//1 3//1
f 13//1 20//1 21//1
f 4//1 28//1 29//1
f 14//1 15//1 19//1
f 5//1 28//1 4//1
f 12//1 21//1 22//1
f 5//1 27//1 28//1
f 13//1 14//1 20//1
f 6//1 27//1 5//1
f 11//1 22//1 23//1
f 6//1 26//1 27//1
f 12//1 13//1 21//1
f 7//1 26//1 6//1
f 10//1 23//1 24//1
f 7//1 25//1 26//1
f 25//1 7//1 8//1
f 24//1 9//1 10//1
f 22//1 11//1 12//1
f 24//1 25//1 8//1
f 10//1 11//1 23//1
f 32//2 33//2 1//2
f 2//3 33//3 3//3
f 3//4 34//4 4//4
f 4//5 35//5 5//5
f 5//6 36//6 6//6
f 6//7 37//7 7//7
f 7//8 38//8 8//8
f 8//9 39//9 9//9
f 9//10 40//10 10//10
f 10//11 41//11 11//11
f 11//12 42//12 12//12
f 12//13 43//13 13//13
f 13//14 44//14 14//14
f 14//15 45//15 15//15
f 15//16 46//16 16//16
f 59//1 60//1 48//1
f 48//1 58//1 59//1
f 51//1 56//1 57//1
f 52//1 54//1 55//1
f 53//1 17//1 16//1
f 58//1 48//1 49//1
f 54//1 53//1 16//1
f 58//1 49//1 50//1
f 54//1 52//1 53//1
f 57//1 50//1 51//1
f 50//1 57//1 58//1
f 51//1 52//1 55//1
f 18//17 17//17 62//17
f 19//18 18//18 63//18
f 20//19 19//19 64//19
f 21//20 20//20 65//20
f 22//21 21//21 66//21
f 23//22 22//22 67//22
f 24//23 23//23 68//23
f 25//24 24//24 69//24
f 26//25 25//25 70//25
f 27//26 26//26 71//26
f 28//27 27//27 72//27
f 29//28 28//28 73//28
f 30//29 29//29 74//29
f 31//30 30//30 75//30
f 33//31 32//31 75//31
f 75//31 34//31 33//31
f 72//31 36//31 35//31
f 71//31 38//31 37//31
f 70//31 69//31 39//31
f 34//31 75//31 74//31
f 38//31 70//31 39//31
f 34//31 74//31 73//31
f 38//31 71//31 70//31
f 35//31 73//31 72//31
f 73//31 35//31 34//31
f 72//31 71//31 37//31
f 77//31 88//31 76//31
f 39//31 69//31 68//31
f 77//31 78//31 88//31
f 40//31 68//31 67//31
f 88//31 78//31 87//31
f 41//31 67//31 66//31
f 78//31 86//31 87//31
f 40//31 39//31 68//31
f 79//31 86//31 78//31
f 42//31 66//31 65//31
f 79//31 85//31 86//31
f 41//31 40//31 67//31
f 80//31 85//31 79//31
f 43//31 65//31 64//31
f 80//31 84//31 85//31
f 42//31 41//31 66//31
f 81//31 84//31 80//31
f 44//31 64//31 63//31
f 81//31 83//31 84//31
f 43//31 42//31 65//31
f 82//31 83//31 81//31
f 45//31 63//31 62//31
f 82//31 61//31 83//31
f 61//31 82//31 47//31
f 62//31 46//31 45//31
f 64//31 44//31 43//31
f 62//31 61//31 47//31
f 45//31 44//31 63//31
f 16//32 47//32 54//32
f 88//6 87//6 48//6
f 50//5 49//5 86//5
f 51//4 50//4 85//4
f 52//3 51//3 84//3
f 53//2 52//2 83//2
f 17//33 53//33 61//33
f 54//34 82//34 55//34
f 55//30 81//30 56//30
f 56//29 80//29 57//29
f 57//28 79//28 58//28
f 58//27 78//27 59//27
f 60//26 59//26 76//26
f 48//35 60//35 88//35
f 32//36 1//36 75//36
