# Blender v2.75 (sub 0) OBJ File: 'pre_head_dive_f1.blend'
# www.blender.org
v -3.875000 -2.525000 0.375000
v -3.875000 -2.525000 -0.375000
v -3.875000 -2.925000 -0.375000
v -3.375000 -2.925000 0.375000
v -3.875000 -2.925000 0.375000
v -3.375000 -2.525000 0.375000
v -3.375000 -2.525000 -0.375000
v -3.375000 -2.925000 -0.375000
v -3.875000 -2.025000 0.375000
v -3.875000 -0.875000 0.375000
v -3.875000 -0.875000 -0.375000
v -3.375000 -0.875000 0.375000
v -3.375000 -0.875000 -0.375000
v -3.375000 -2.025000 -0.375000
v -3.375000 -2.025000 0.375000
v 3.375000 -2.525000 0.375000
v 3.375000 -2.525000 -0.375000
v 3.375000 -2.925000 -0.375000
v 3.875000 -2.925000 -0.375000
v 3.875000 -2.925000 0.375000
v 3.875000 -2.525000 0.375000
v 3.375000 -2.925000 0.375000
v 3.875000 -2.525000 -0.375000
v 3.875000 -2.025000 0.375000
v 3.875000 -2.025000 -0.375000
v 3.875000 -0.875000 -0.375000
v 3.875000 -0.875000 0.375000
v 3.375000 -0.875000 -0.375000
v 3.375000 -0.875000 0.375000
v 3.375000 -2.025000 0.375000
v 3.375000 -2.025000 -0.375000
v -3.875000 -3.425000 0.374999
v -3.875000 -3.425000 -0.375001
v -3.875000 -3.625000 -0.375001
v -3.875000 -3.625000 0.374999
v -3.375000 -3.625000 -0.375001
v -3.375000 -3.425000 0.374999
v -3.375000 -3.425000 -0.375001
v -3.375000 -3.625000 0.374999
v 3.375000 -3.425000 0.374999
v 3.375000 -3.425000 -0.375001
v 3.375000 -3.625000 -0.375001
v 3.375000 -3.625000 0.374999
v 3.875000 -3.625000 -0.375001
v 3.875000 -3.425000 0.374999
v 3.875000 -3.425000 -0.375001
v 3.875000 -3.625000 0.374999
v -3.875000 -2.025000 -0.375000
vn -1.000000 0.000000 0.000000
vn 0.000000 -1.000000 0.000000
vn 0.000000 -0.000000 1.000000
vn 0.000000 0.000000 -1.000000
vn 1.000000 -0.000000 0.000000
vn 0.000000 1.000000 0.000000
s 1
f 1//1 2//1 3//1
f 4//2 5//2 3//2
f 6//3 1//3 5//3
f 2//4 7//4 8//4
f 4//5 8//5 7//5
f 1//6 6//6 7//6
f 9//1 10//1 11//1
f 12//3 10//3 9//3
f 12//6 13//6 11//6
f 11//4 13//4 14//4
f 15//5 14//5 13//5
f 14//2 15//2 9//2
f 16//1 17//1 18//1
f 18//2 19//2 20//2
f 21//3 16//3 22//3
f 17//4 23//4 19//4
f 20//5 19//5 23//5
f 17//6 16//6 21//6
f 24//5 25//5 26//5
f 27//6 26//6 28//6
f 27//3 29//3 30//3
f 28//4 26//4 25//4
f 30//1 29//1 28//1
f 30//2 31//2 25//2
f 32//1 33//1 34//1
f 35//2 34//2 36//2
f 37//3 32//3 35//3
f 38//6 33//6 32//6
f 33//4 38//4 36//4
f 39//5 36//5 38//5
f 40//1 41//1 42//1
f 43//2 42//2 44//2
f 45//3 40//3 43//3
f 46//6 41//6 40//6
f 41//4 46//4 44//4
f 47//5 44//5 46//5
f 5//1 1//1 3//1
f 8//2 4//2 3//2
f 4//3 6//3 5//3
f 3//4 2//4 8//4
f 6//5 4//5 7//5
f 2//6 1//6 7//6
f 48//1 9//1 11//1
f 15//3 12//3 9//3
f 10//6 12//6 11//6
f 48//4 11//4 14//4
f 12//5 15//5 13//5
f 48//2 14//2 9//2
f 22//1 16//1 18//1
f 22//2 18//2 20//2
f 20//3 21//3 22//3
f 18//4 17//4 19//4
f 21//5 20//5 23//5
f 23//6 17//6 21//6
f 27//5 24//5 26//5
f 29//6 27//6 28//6
f 24//3 27//3 30//3
f 31//4 28//4 25//4
f 31//1 30//1 28//1
f 24//2 30//2 25//2
f 35//1 32//1 34//1
f 39//2 35//2 36//2
f 39//3 37//3 35//3
f 37//6 38//6 32//6
f 34//4 33//4 36//4
f 37//5 39//5 38//5
f 43//1 40//1 42//1
f 47//2 43//2 44//2
f 47//3 45//3 43//3
f 45//6 46//6 40//6
f 42//4 41//4 44//4
f 45//5 47//5 46//5
v 5.534992 -0.375000 1.133865
v 5.625000 -0.375000 1.125000
v 5.625000 0.375000 1.125000
v 5.534992 0.375000 1.133865
v 5.625000 -0.375000 1.687500
v 5.807896 -0.375000 1.705513
v 5.983765 -0.375000 1.758862
v 6.145846 -0.375000 1.845496
v 6.287911 -0.375000 1.962086
v 6.404502 -0.375000 2.104152
v 6.491137 -0.375000 2.266233
v 6.544486 -0.375000 2.442101
v 6.562500 -0.375000 2.624999
v 7.125000 -0.375000 2.624998
v 7.096178 -0.375000 2.332363
v 7.010818 -0.375000 2.050973
v 6.872203 -0.375000 1.791643
v 6.685659 -0.375000 1.564338
v 6.458354 -0.375000 1.377795
v 6.199023 -0.375000 1.239180
v 5.917633 -0.375000 1.153822
v 5.534992 -0.375000 1.696365
v 5.917633 0.375000 1.153822
v 5.534992 0.375000 1.597747
v 5.534992 0.375000 1.696365
v 5.625000 0.375000 1.687500
v 5.807896 0.375000 1.705513
v 5.983765 0.375000 1.758862
v 6.145846 0.375000 1.845496
v 6.287911 0.375000 1.962086
v 6.404502 0.375000 2.104152
v 6.491137 0.375000 2.266233
v 6.544486 0.375000 2.442101
v 6.562500 0.375000 2.624999
v 5.534992 -0.375000 4.116135
v 5.625000 -0.375000 4.125000
v 5.917636 -0.375000 4.096178
v 6.199025 -0.375000 4.010819
v 6.458355 -0.375000 3.872204
v 6.685661 -0.375000 3.685659
v 6.872205 -0.375000 3.458354
v 7.010820 -0.375000 3.199024
v 7.096178 -0.375000 2.917634
v 6.544487 -0.375000 2.807896
v 6.491137 -0.375000 2.983765
v 6.404502 -0.375000 3.145847
v 6.287913 -0.375000 3.287912
v 6.145847 -0.375000 3.404502
v 5.983766 -0.375000 3.491137
v 5.807898 -0.375000 3.544486
v 5.625000 -0.375000 3.562500
v 5.534992 -0.375000 3.553635
v 7.125000 0.375000 2.624998
v 7.096178 0.375000 2.332363
v 7.010818 0.375000 2.050973
v 6.872203 0.375000 1.791643
v 6.685659 0.375000 1.564338
v 6.458354 0.375000 1.377795
v 6.199023 0.375000 1.239180
v 7.096178 0.375000 2.917634
v 7.010820 0.375000 3.199024
v 6.872205 0.375000 3.458354
v 6.685661 0.375000 3.685659
v 6.458355 0.375000 3.872204
v 6.199025 0.375000 4.010819
v 5.917636 0.375000 4.096178
v 5.625000 0.375000 4.125000
v 5.625000 0.375000 3.562500
v 5.807898 0.375000 3.544486
v 5.983766 0.375000 3.491137
v 6.145847 0.375000 3.404502
v 6.287913 0.375000 3.287912
v 6.404502 0.375000 3.145847
v 6.491137 0.375000 2.983765
v 6.544487 0.375000 2.807896
v 5.534992 0.375000 4.116135
v 5.534992 0.375000 3.553635
vn -0.098000 0.000000 -0.995200
vn 0.000000 -1.000000 0.000000
vn 0.098000 0.000000 -0.995200
vn 0.000000 1.000000 0.000000
vn 0.098000 0.000000 0.995200
vn -0.098000 0.000000 0.995200
vn -0.290300 0.000000 0.956900
vn -0.471400 0.000000 0.881900
vn -0.634400 0.000000 0.773000
vn -0.773000 0.000000 0.634400
vn -0.881900 0.000000 0.471400
vn -0.956900 0.000000 0.290300
vn -0.995200 0.000000 0.098000
vn 0.995200 0.000000 -0.098000
vn 0.956900 0.000000 -0.290300
vn 0.881900 0.000000 -0.471400
vn 0.773000 0.000000 -0.634400
vn 0.634400 0.000000 -0.773000
vn 0.471400 0.000000 -0.881900
vn 0.290300 0.000000 -0.956900
vn -0.995200 0.000000 -0.098000
vn 0.290300 0.000000 0.956900
vn 0.471400 0.000000 0.881900
vn 0.634400 0.000000 0.773000
vn 0.773000 0.000000 0.634400
vn 0.881900 0.000000 0.471400
vn 0.956900 0.000000 0.290300
vn 0.995200 0.000000 0.098000
vn -0.956900 0.000000 -0.290300
vn -0.881900 0.000000 -0.471400
vn -0.773000 0.000000 -0.634400
vn -0.634400 0.000000 -0.773000
vn -0.471400 0.000000 -0.881900
vn -0.290300 0.000000 -0.956900
vn -1.000000 0.000000 0.000000
s off
f 52//7 51//7 50//7
f 68//8 67//8 56//8
f 50//9 51//9 71//9
f 72//10 71//10 51//10
f 70//11 53//11 74//11
f 75//12 74//12 53//12
f 76//13 75//13 54//13
f 77//14 76//14 55//14
f 78//15 77//15 56//15
f 79//16 78//16 57//16
f 80//17 79//17 58//17
f 81//18 80//18 59//18
f 82//19 81//19 60//19
f 86//8 96//8 87//8
f 63//20 102//20 101//20
f 64//21 103//21 102//21
f 65//22 104//22 103//22
f 66//23 105//23 104//23
f 67//24 106//24 105//24
f 68//25 107//25 106//25
f 69//26 71//26 107//26
f 81//10 101//10 102//10
f 123//27 82//27 61//27
f 83//12 84//12 115//12
f 85//11 114//11 115//11
f 86//28 113//28 114//28
f 87//29 112//29 113//29
f 88//30 111//30 112//30
f 89//31 110//31 111//31
f 90//32 109//32 110//32
f 91//33 108//33 109//33
f 62//34 101//34 108//34
f 122//35 123//35 92//35
f 121//36 122//36 93//36
f 120//37 121//37 94//37
f 119//38 120//38 95//38
f 118//39 119//39 96//39
f 117//40 118//40 97//40
f 116//7 117//7 98//7
f 125//9 116//9 99//9
f 124//10 115//10 116//10
f 125//41 100//41 83//41
f 70//41 72//41 49//41
f 49//7 52//7 50//7
f 62//8 61//8 60//8
f 53//8 70//8 49//8
f 63//8 60//8 59//8
f 50//8 53//8 49//8
f 64//8 59//8 58//8
f 50//8 54//8 53//8
f 65//8 58//8 57//8
f 50//8 69//8 54//8
f 66//8 57//8 56//8
f 60//8 63//8 62//8
f 58//8 65//8 64//8
f 56//8 67//8 66//8
f 56//8 55//8 68//8
f 69//8 55//8 54//8
f 64//8 63//8 59//8
f 57//8 66//8 65//8
f 68//8 55//8 69//8
f 69//9 50//9 71//9
f 52//10 72//10 51//10
f 73//11 70//11 74//11
f 54//12 75//12 53//12
f 55//13 76//13 54//13
f 56//14 77//14 55//14
f 57//15 78//15 56//15
f 58//16 79//16 57//16
f 59//17 80//17 58//17
f 60//18 81//18 59//18
f 61//19 82//19 60//19
f 99//8 84//8 83//8
f 97//8 86//8 85//8
f 95//8 88//8 87//8
f 94//8 90//8 89//8
f 92//8 62//8 91//8
f 83//8 100//8 99//8
f 92//8 61//8 62//8
f 84//8 99//8 98//8
f 93//8 92//8 91//8
f 85//8 98//8 97//8
f 90//8 93//8 91//8
f 86//8 97//8 96//8
f 90//8 94//8 93//8
f 87//8 96//8 95//8
f 98//8 85//8 84//8
f 95//8 89//8 88//8
f 89//8 95//8 94//8
f 62//20 63//20 101//20
f 63//21 64//21 102//21
f 64//22 65//22 103//22
f 65//23 66//23 104//23
f 66//24 67//24 105//24
f 67//25 68//25 106//25
f 68//26 69//26 107//26
f 75//10 71//10 72//10
f 77//10 106//10 107//10
f 79//10 104//10 105//10
f 81//10 102//10 103//10
f 82//10 108//10 101//10
f 122//10 110//10 109//10
f 120//10 112//10 111//10
f 118//10 114//10 113//10
f 117//10 116//10 115//10
f 72//10 73//10 74//10
f 114//10 117//10 115//10
f 72//10 74//10 75//10
f 114//10 118//10 117//10
f 107//10 75//10 76//10
f 113//10 119//10 118//10
f 107//10 71//10 75//10
f 113//10 112//10 119//10
f 107//10 76//10 77//10
f 112//10 120//10 119//10
f 106//10 77//10 78//10
f 111//10 121//10 120//10
f 105//10 78//10 79//10
f 111//10 110//10 121//10
f 104//10 79//10 80//10
f 110//10 122//10 121//10
f 103//10 80//10 81//10
f 109//10 123//10 122//10
f 105//10 106//10 78//10
f 109//10 108//10 123//10
f 82//10 123//10 108//10
f 80//10 103//10 104//10
f 101//10 81//10 82//10
f 92//27 123//27 61//27
f 124//12 83//12 115//12
f 84//11 85//11 115//11
f 85//28 86//28 114//28
f 86//29 87//29 113//29
f 87//30 88//30 112//30
f 88//31 89//31 111//31
f 89//32 90//32 110//32
f 90//33 91//33 109//33
f 91//34 62//34 108//34
f 93//35 122//35 92//35
f 94//36 121//36 93//36
f 95//37 120//37 94//37
f 96//38 119//38 95//38
f 97//39 118//39 96//39
f 98//40 117//40 97//40
f 99//7 116//7 98//7
f 100//9 125//9 99//9
f 125//10 124//10 116//10
f 124//41 125//41 83//41
f 72//41 70//41 73//41
f 72//41 52//41 49//41
v 3.660550 -0.375000 7.657122
v 3.660550 0.375000 7.657122
v 5.029090 -0.375000 4.851200
v 5.029090 0.375000 4.851200
v 4.220910 -0.375000 7.648800
v 4.220910 0.375000 7.648800
v 5.589450 -0.375000 4.842878
v 5.589450 0.375000 4.842878
vn -0.898800 0.000000 -0.438400
vn -0.014900 0.000000 -0.999900
vn 0.898800 0.000000 0.438400
vn 0.014900 0.000000 0.999900
vn 0.000000 -1.000000 0.000000
vn 0.000000 1.000000 0.000000
vn -0.014800 0.000000 -0.999900
vn 0.014800 0.000000 0.999900
s off
f 129//42 128//42 126//42
f 133//43 132//43 128//43
f 131//44 130//44 132//44
f 127//45 126//45 130//45
f 128//46 132//46 130//46
f 131//47 133//47 129//47
f 127//42 129//42 126//42
f 129//48 133//48 128//48
f 133//44 131//44 132//44
f 131//49 127//49 130//49
f 126//46 128//46 130//46
f 127//47 131//47 129//47
v 1.876828 0.375000 2.993678
v 1.876828 -0.375000 2.993678
v 2.671392 0.375000 2.812500
v 3.761962 0.375000 2.303959
v 3.761962 -0.375000 2.303959
v 2.671392 -0.375000 2.812500
v 3.768167 0.375000 1.749376
v 3.768167 -0.375000 1.749376
v 1.876828 0.375000 2.631322
v 1.876828 -0.375000 2.631322
v 3.761963 0.375000 3.321041
v 3.761963 -0.375000 3.321041
v 3.768167 0.375000 3.875624
v 3.768167 -0.375000 3.875624
vn 0.422600 0.000000 0.906300
vn -0.422600 0.000000 -0.906300
vn 0.999900 0.000000 0.011200
vn 0.000000 1.000000 0.000000
vn 0.422600 0.000000 -0.906300
vn 0.999900 0.000000 -0.011200
vn -0.422600 0.000000 0.906300
vn 0.000000 -1.000000 0.000000
vn -1.000000 0.000000 0.000000
s off
f 139//50 138//50 137//50
f 143//51 142//51 140//51
f 138//52 141//52 140//52
f 140//53 142//53 136//53
f 142//53 134//53 136//53
f 145//54 139//54 136//54
f 147//55 145//55 144//55
f 147//56 146//56 134//56
f 136//53 134//53 146//53
f 139//57 145//57 147//57
f 134//58 142//58 143//58
f 139//57 143//57 141//57
f 139//57 135//57 143//57
f 136//50 139//50 137//50
f 141//51 143//51 140//51
f 137//52 138//52 140//52
f 137//53 140//53 136//53
f 144//54 145//54 136//54
f 146//55 147//55 144//55
f 135//56 147//56 134//56
f 144//53 136//53 146//53
f 135//57 139//57 147//57
f 135//58 134//58 143//58
f 138//57 139//57 141//57
v -1.876828 0.375000 2.993678
v -1.876828 -0.375000 2.993678
v -2.671392 0.375000 2.812500
v -3.761962 0.375000 2.303959
v -3.761962 -0.375000 2.303959
v -2.671392 -0.375000 2.812500
v -3.768167 0.375000 1.749376
v -3.768167 -0.375000 1.749376
v -1.876828 0.375000 2.631322
v -1.876828 -0.375000 2.631322
v -3.761962 0.375000 3.321041
v -3.761962 -0.375000 3.321041
v -3.768167 0.375000 3.875624
v -3.768167 -0.375000 3.875624
vn -0.422600 0.000000 0.906300
vn 0.422600 0.000000 -0.906300
vn -0.999900 0.000000 0.011200
vn 0.000000 1.000000 0.000000
vn -0.422600 0.000000 -0.906300
vn -0.999900 0.000000 -0.011200
vn 0.422600 0.000000 0.906300
vn 0.000000 -1.000000 0.000000
vn 1.000000 0.000000 0.000000
s off
f 151//59 152//59 153//59
f 154//60 156//60 157//60
f 154//61 155//61 152//61
f 150//62 156//62 154//62
f 156//62 150//62 148//62
f 150//63 153//63 159//63
f 158//64 159//64 161//64
f 148//65 160//65 161//65
f 160//62 148//62 150//62
f 161//66 159//66 153//66
f 157//67 156//67 148//67
f 153//66 152//66 155//66
f 153//66 157//66 149//66
f 150//59 151//59 153//59
f 155//60 154//60 157//60
f 151//61 154//61 152//61
f 151//62 150//62 154//62
f 158//63 150//63 159//63
f 160//64 158//64 161//64
f 149//65 148//65 161//65
f 158//62 160//62 150//62
f 149//66 161//66 153//66
f 149//67 157//67 148//67
f 157//66 153//66 155//66
v -5.534992 -0.375000 1.133865
v -5.625000 -0.375000 1.125000
v -5.625000 0.375000 1.125000
v -5.534992 0.375000 1.133865
v -5.625000 -0.375000 1.687500
v -5.807896 -0.375000 1.705513
v -5.983765 -0.375000 1.758862
v -6.145846 -0.375000 1.845496
v -6.287911 -0.375000 1.962086
v -6.404502 -0.375000 2.104152
v -6.491137 -0.375000 2.266233
v -6.544486 -0.375000 2.442101
v -6.562500 -0.375000 2.624999
v -7.125000 -0.375000 2.624998
v -7.096178 -0.375000 2.332363
v -7.010818 -0.375000 2.050973
v -6.872203 -0.375000 1.791643
v -6.685659 -0.375000 1.564338
v -6.458354 -0.375000 1.377795
v -6.199023 -0.375000 1.239180
v -5.917633 -0.375000 1.153822
v -5.534992 -0.375000 1.696365
v -5.917633 0.375000 1.153822
v -5.534992 0.375000 1.597747
v -5.534992 0.375000 1.696365
v -5.625000 0.375000 1.687500
v -5.807896 0.375000 1.705513
v -5.983765 0.375000 1.758862
v -6.145846 0.375000 1.845496
v -6.287911 0.375000 1.962086
v -6.404502 0.375000 2.104152
v -6.491137 0.375000 2.266233
v -6.544486 0.375000 2.442101
v -6.562500 0.375000 2.624999
v -5.534992 -0.375000 4.116135
v -5.625000 -0.375000 4.125000
v -5.917636 -0.375000 4.096178
v -6.199025 -0.375000 4.010819
v -6.458355 -0.375000 3.872204
v -6.685661 -0.375000 3.685659
v -6.872205 -0.375000 3.458354
v -7.010820 -0.375000 3.199024
v -7.096178 -0.375000 2.917634
v -6.544487 -0.375000 2.807896
v -6.491137 -0.375000 2.983765
v -6.404502 -0.375000 3.145847
v -6.287913 -0.375000 3.287912
v -6.145847 -0.375000 3.404502
v -5.983766 -0.375000 3.491137
v -5.807898 -0.375000 3.544486
v -5.625000 -0.375000 3.562500
v -5.534992 -0.375000 3.553635
v -7.125000 0.375000 2.624998
v -7.096178 0.375000 2.332363
v -7.010818 0.375000 2.050973
v -6.872203 0.375000 1.791643
v -6.685659 0.375000 1.564338
v -6.458354 0.375000 1.377795
v -6.199023 0.375000 1.239180
v -7.096178 0.375000 2.917634
v -7.010820 0.375000 3.199024
v -6.872205 0.375000 3.458354
v -6.685661 0.375000 3.685659
v -6.458355 0.375000 3.872204
v -6.199025 0.375000 4.010819
v -5.917636 0.375000 4.096178
v -5.625000 0.375000 4.125000
v -5.625000 0.375000 3.562500
v -5.807898 0.375000 3.544486
v -5.983766 0.375000 3.491137
v -6.145847 0.375000 3.404502
v -6.287913 0.375000 3.287912
v -6.404502 0.375000 3.145847
v -6.491137 0.375000 2.983765
v -6.544487 0.375000 2.807896
v -5.534992 0.375000 4.116135
v -5.534992 0.375000 3.553635
vn 0.098000 0.000000 -0.995200
vn 0.000000 -1.000000 0.000000
vn -0.098000 0.000000 -0.995200
vn 0.000000 1.000000 0.000000
vn -0.098000 0.000000 0.995200
vn 0.098000 0.000000 0.995200
vn 0.290300 0.000000 0.956900
vn 0.471400 0.000000 0.881900
vn 0.634400 0.000000 0.773000
vn 0.773000 0.000000 0.634400
vn 0.881900 0.000000 0.471400
vn 0.956900 0.000000 0.290300
vn 0.995200 0.000000 0.098000
vn -0.995200 0.000000 -0.098000
vn -0.956900 0.000000 -0.290300
vn -0.881900 0.000000 -0.471400
vn -0.773000 0.000000 -0.634400
vn -0.634400 0.000000 -0.773000
vn -0.471400 0.000000 -0.881900
vn -0.290300 0.000000 -0.956900
vn 0.995200 0.000000 -0.098000
vn -0.290300 0.000000 0.956900
vn -0.471400 0.000000 0.881900
vn -0.634400 0.000000 0.773000
vn -0.773000 0.000000 0.634400
vn -0.881900 0.000000 0.471400
vn -0.956900 0.000000 0.290300
vn -0.995200 0.000000 0.098000
vn 0.956900 0.000000 -0.290300
vn 0.881900 0.000000 -0.471400
vn 0.773000 0.000000 -0.634400
vn 0.634400 0.000000 -0.773000
vn 0.471400 0.000000 -0.881900
vn 0.290300 0.000000 -0.956900
vn 1.000000 0.000000 0.000000
s off
f 163//68 164//68 165//68
f 169//69 180//69 181//69
f 184//70 164//70 163//70
f 164//71 184//71 185//71
f 187//72 166//72 183//72
f 166//73 187//73 188//73
f 167//74 188//74 189//74
f 168//75 189//75 190//75
f 169//76 190//76 191//76
f 170//77 191//77 192//77
f 171//78 192//78 193//78
f 172//79 193//79 194//79
f 173//80 194//80 195//80
f 209//69 200//69 208//69
f 214//81 215//81 176//81
f 215//82 216//82 177//82
f 216//83 217//83 178//83
f 217//84 218//84 179//84
f 218//85 219//85 180//85
f 219//86 220//86 181//86
f 220//87 184//87 182//87
f 194//71 214//71 195//71
f 174//88 195//88 236//88
f 228//73 197//73 196//73
f 228//72 227//72 198//72
f 227//89 226//89 199//89
f 226//90 225//90 200//90
f 225//91 224//91 201//91
f 224//92 223//92 202//92
f 223//93 222//93 203//93
f 222//94 221//94 204//94
f 221//95 214//95 175//95
f 205//96 236//96 235//96
f 206//97 235//97 234//97
f 207//98 234//98 233//98
f 208//99 233//99 232//99
f 209//100 232//100 231//100
f 210//101 231//101 230//101
f 211//68 230//68 229//68
f 212//70 229//70 238//70
f 229//71 228//71 237//71
f 196//102 213//102 238//102
f 185//102 183//102 162//102
f 162//68 163//68 165//68
f 162//69 183//69 166//69
f 166//69 163//69 162//69
f 168//69 181//69 182//69
f 170//69 179//69 180//69
f 171//69 177//69 178//69
f 173//69 175//69 176//69
f 163//69 166//69 167//69
f 173//69 174//69 175//69
f 182//69 167//69 168//69
f 172//69 173//69 176//69
f 181//69 168//69 169//69
f 177//69 172//69 176//69
f 180//69 169//69 170//69
f 177//69 171//69 172//69
f 170//69 178//69 179//69
f 167//69 182//69 163//69
f 178//69 170//69 171//69
f 182//70 184//70 163//70
f 165//71 164//71 185//71
f 186//72 187//72 183//72
f 167//73 166//73 188//73
f 168//74 167//74 189//74
f 169//75 168//75 190//75
f 170//76 169//76 191//76
f 171//77 170//77 192//77
f 172//78 171//78 193//78
f 173//79 172//79 194//79
f 174//80 173//80 195//80
f 212//69 213//69 196//69
f 175//69 174//69 205//69
f 197//69 212//69 196//69
f 204//69 205//69 206//69
f 197//69 211//69 212//69
f 203//69 206//69 207//69
f 198//69 210//69 211//69
f 202//69 207//69 208//69
f 198//69 199//69 210//69
f 211//69 197//69 198//69
f 209//69 199//69 200//69
f 208//69 201//69 202//69
f 206//69 203//69 204//69
f 204//69 175//69 205//69
f 199//69 209//69 210//69
f 208//69 200//69 201//69
f 202//69 203//69 207//69
f 175//81 214//81 176//81
f 176//82 215//82 177//82
f 177//83 216//83 178//83
f 178//84 217//84 179//84
f 179//85 218//85 180//85
f 180//86 219//86 181//86
f 181//87 220//87 182//87
f 187//71 186//71 185//71
f 228//71 229//71 230//71
f 188//71 187//71 185//71
f 226//71 230//71 231//71
f 184//71 188//71 185//71
f 226//71 231//71 232//71
f 189//71 188//71 184//71
f 225//71 232//71 233//71
f 220//71 189//71 184//71
f 224//71 233//71 234//71
f 220//71 190//71 189//71
f 227//71 228//71 230//71
f 220//71 219//71 190//71
f 223//71 234//71 235//71
f 190//71 219//71 191//71
f 226//71 227//71 230//71
f 219//71 218//71 191//71
f 222//71 235//71 236//71
f 191//71 218//71 192//71
f 225//71 226//71 232//71
f 218//71 217//71 192//71
f 221//71 236//71 195//71
f 192//71 217//71 193//71
f 216//71 193//71 217//71
f 194//71 216//71 215//71
f 195//71 214//71 221//71
f 235//71 222//71 223//71
f 233//71 224//71 225//71
f 216//71 194//71 193//71
f 223//71 224//71 234//71
f 236//71 221//71 222//71
f 214//71 194//71 215//71
f 205//88 174//88 236//88
f 237//73 228//73 196//73
f 197//72 228//72 198//72
f 198//89 227//89 199//89
f 199//90 226//90 200//90
f 200//91 225//91 201//91
f 201//92 224//92 202//92
f 202//93 223//93 203//93
f 203//94 222//94 204//94
f 204//95 221//95 175//95
f 206//96 205//96 235//96
f 207//97 206//97 234//97
f 208//98 207//98 233//98
f 209//99 208//99 232//99
f 210//100 209//100 231//100
f 211//101 210//101 230//101
f 212//68 211//68 229//68
f 213//70 212//70 238//70
f 238//71 229//71 237//71
f 237//102 196//102 238//102
f 183//102 185//102 186//102
f 185//102 162//102 165//102
v -3.660550 -0.375000 7.657122
v -3.660550 0.375000 7.657122
v -5.029090 -0.375000 4.851200
v -5.029090 0.375000 4.851200
v -4.220910 -0.375000 7.648800
v -4.220910 0.375000 7.648800
v -5.589450 -0.375000 4.842878
v -5.589450 0.375000 4.842878
vn 0.898800 0.000000 -0.438400
vn 0.014900 0.000000 -0.999900
vn -0.898800 0.000000 0.438400
vn -0.014900 0.000000 0.999900
vn 0.000000 -1.000000 0.000000
vn 0.000000 1.000000 0.000000
vn 0.014800 0.000000 -0.999900
vn -0.014800 0.000000 0.999900
s off
f 239//103 241//103 242//103
f 241//104 245//104 246//104
f 245//105 243//105 244//105
f 243//106 239//106 240//106
f 243//107 245//107 241//107
f 244//108 240//108 242//108
f 240//103 239//103 242//103
f 242//109 241//109 246//109
f 246//105 245//105 244//105
f 244//110 243//110 240//110
f 239//107 243//107 241//107
f 246//108 244//108 242//108
