# Blender v2.75 (sub 0) OBJ File: 'pre_head_d2r_dig_f1_projection.blend'
# www.blender.org
v 3.883865 -0.019996 5.534992
v 6.866135 -0.019995 5.534993
v 6.866135 0.019997 5.534993
v 6.875000 -0.019995 5.625000
v 6.846178 0.019997 5.917634
v 6.875000 0.019997 5.625000
v 6.846178 -0.019995 5.917634
v 7.592877 -0.019995 5.589450
v 6.760819 0.019997 6.199023
v 6.760819 -0.019995 6.199023
v 4.541646 0.019997 -6.872205
v 4.800976 0.019997 -7.010820
v 4.800976 -0.019993 -7.010820
v 6.622204 0.019995 6.458354
v 6.622204 -0.019995 6.458354
v 6.435661 0.019995 6.685659
v 6.435661 -0.019995 6.685659
v 6.866136 -0.019993 -5.534992
v 8.000000 -0.019992 -5.390882
v 6.208356 0.019995 6.872203
v 6.208356 -0.019995 6.872203
v 6.866136 0.019999 -5.534992
v 3.883865 -0.019994 -5.534992
v 7.592877 0.019998 5.589450
v 5.949027 0.019995 7.010818
v 5.949027 -0.019995 7.010818
v 3.883865 0.019994 5.534992
v 5.375001 0.019995 7.125000
v 6.760820 0.019999 -6.199022
v 6.622205 0.019997 -6.458354
v 5.375002 -0.019993 -7.125000
v 5.667636 0.019995 7.096179
v 5.667636 -0.019995 7.096179
v 5.082366 0.019995 7.096178
v 5.375002 0.019997 -7.125000
v 5.375001 -0.019995 7.125000
v 5.082366 -0.019993 -7.096178
v 5.667637 -0.019993 -7.096178
v 4.800975 0.019995 7.010820
v 5.667637 0.019997 -7.096178
v 5.082366 0.019997 -7.096178
v 5.082366 -0.019995 7.096178
v 5.949028 -0.019993 -7.010818
v 6.875000 0.019999 -5.625000
v 6.846179 0.019999 -5.917633
v 4.127796 0.019994 6.458355
v 3.989181 0.019994 6.199025
v 4.127796 -0.019996 6.458355
v 4.541646 0.019995 6.872205
v 5.949028 0.019997 -7.010818
v 4.800975 -0.019995 7.010820
v 4.541646 -0.019994 -6.872205
v 6.208357 -0.019993 -6.872202
v 6.435662 -0.019993 -6.685658
v 6.622205 -0.019993 -6.458354
v 4.314341 0.019994 6.685661
v 6.208357 0.019997 -6.872202
v 3.875000 0.019994 5.625000
v 4.541646 -0.019996 6.872205
v 4.314342 -0.019994 -6.685661
v 6.435662 0.019997 -6.685658
v 4.314342 0.019996 -6.685661
v 3.875000 0.019996 -5.625000
v 3.875000 -0.019994 -5.625000
v 0.000000 0.019987 -3.872848
v 3.903822 0.019994 5.917636
v 3.875000 -0.019996 5.625000
v 4.314341 -0.019996 6.685661
v 4.127797 -0.019994 -6.458355
v 3.989181 -0.019996 6.199025
v 4.127797 0.019996 -6.458355
v 3.903822 0.019996 -5.917636
v 3.903822 -0.019996 5.917636
v 3.989181 -0.019994 -6.199025
v 3.989181 0.019996 -6.199025
v 3.903822 -0.019994 -5.917636
v 8.000000 -0.019994 5.390883
v 8.000000 0.019998 5.390883
v 8.000000 0.020000 -5.390882
v 7.592878 -0.019993 -5.589449
v 7.592878 0.020000 -5.589449
v 6.846179 -0.019993 -5.917633
v 6.875000 -0.019993 -5.625000
v 6.760820 -0.019993 -6.199022
v -3.398802 0.020000 -4.220911
v -0.592877 -0.019998 -5.589450
v -3.398802 -0.019998 -4.220911
v -4.345911 -0.019998 -3.148800
v -0.592877 0.020000 -5.589450
v 0.375000 -0.019997 -5.750000
v 3.125000 -0.019998 -5.750000
v -5.750000 -0.019999 0.875000
v -4.345911 0.019999 -3.148800
v -5.714449 -0.019999 -0.342878
v 3.125000 0.020000 -5.750000
v -5.750000 0.019997 3.625000
v 0.375000 0.020000 -5.750000
v -4.220910 0.019997 7.648802
v -5.589450 -0.020000 4.842878
v -4.220910 -0.020000 7.648802
v -5.589450 0.019997 4.842878
v -5.750000 0.019999 0.875000
v -5.714449 0.019999 -0.342878
v 3.875000 0.019989 8.000000
v 3.875000 -0.020000 8.000000
v -3.875000 -0.020000 8.000000
v -3.875000 0.019989 8.000000
v -5.750000 -0.019999 3.625000
vn 0.995200 0.000000 -0.098000
vn 0.000000 1.000000 0.000000
vn 0.995200 0.000000 0.098000
vn -0.000000 -1.000000 -0.000000
vn -0.074700 0.000000 0.997200
vn -0.471400 0.000000 -0.881900
vn 0.956900 0.000000 0.290300
vn 0.881900 0.000000 0.471400
vn 0.773000 0.000000 0.634400
vn 0.634400 0.000000 0.773000
vn 0.164400 0.000000 -0.986400
vn 0.471400 0.000000 0.881900
vn 0.290300 0.000000 0.956900
vn -0.098000 0.000000 0.995200
vn 0.098000 0.000000 0.995200
vn -0.098000 0.000000 -0.995200
vn 0.098000 0.000000 -0.995200
vn -0.290300 0.000000 0.956900
vn 0.117000 -0.903300 -0.412800
vn -0.290300 0.000000 -0.956900
vn 0.290300 0.000000 -0.956900
vn -0.471400 0.000000 0.881900
vn -0.995200 0.000000 -0.098000
vn 0.773000 0.000000 -0.634400
vn 0.471400 0.000000 -0.881900
vn -0.634400 0.000000 0.773000
vn -0.634400 0.000000 -0.773000
vn 0.634400 0.000000 -0.773000
vn -0.773000 0.000000 0.634400
vn -0.995200 0.000000 0.098000
vn -0.773000 0.000000 -0.634400
vn -0.956900 0.000000 0.290300
vn -0.881900 0.000000 -0.471400
vn -0.956900 0.000000 -0.290300
vn -0.881900 0.000000 0.471400
vn 0.438400 0.000000 0.898800
vn 1.000000 0.000000 0.000000
vn 0.438400 0.000000 -0.898800
vn -0.074700 0.000000 -0.997200
vn 0.956900 0.000000 -0.290300
vn 0.881900 0.000000 -0.471400
vn -0.438400 0.000000 -0.898800
vn -0.749400 0.000000 -0.662100
vn -0.898800 0.000000 -0.438400
vn -0.163600 0.000000 -0.986500
vn -0.898800 0.000000 0.438400
vn -0.991400 0.000000 0.130700
vn -0.999600 0.000000 -0.029200
vn -0.712400 0.000000 0.701700
vn 1.000000 0.000000 0.003600
vn -0.712500 0.000000 0.701700
vn -1.000000 0.000000 0.000000
vn 0.000000 0.000000 -1.000000
vn 0.000000 0.000000 1.000000
s off
f 2//1 3//1 4//1
f 3//2 5//2 6//2
f 4//3 6//3 5//3
f 2//4 4//4 7//4
f 2//5 8//5 3//5
f 9//2 5//2 3//2
f 7//3 4//3 5//3
f 2//4 7//4 10//4
f 11//6 12//6 13//6
f 3//2 14//2 9//2
f 7//7 5//7 9//7
f 2//4 10//4 15//4
f 10//7 7//7 9//7
f 3//2 16//2 14//2
f 10//8 9//8 14//8
f 2//4 15//4 17//4
f 15//8 10//8 14//8
f 2//4 18//4 19//4
f 3//2 20//2 16//2
f 17//9 15//9 16//9
f 2//4 17//4 21//4
f 23//4 18//4 2//4
f 8//5 24//5 3//5
f 3//2 25//2 20//2
f 20//10 21//10 16//10
f 2//4 21//4 26//4
f 95//11 63//11 91//11
f 27//2 28//2 3//2
f 29//2 30//2 22//2
f 2//4 1//4 23//4
f 31//4 18//4 23//4
f 3//2 32//2 25//2
f 21//12 20//12 25//12
f 2//4 26//4 33//4
f 26//12 21//12 25//12
f 27//2 34//2 28//2
f 3//2 28//2 32//2
f 2//4 36//4 1//4
f 23//4 37//4 31//4
f 18//4 31//4 38//4
f 26//13 25//13 32//13
f 2//4 33//4 36//4
f 33//13 26//13 32//13
f 34//2 27//2 39//2
f 36//14 28//14 34//14
f 33//15 32//15 28//15
f 22//2 40//2 35//2
f 1//4 36//4 42//4
f 23//4 13//4 37//4
f 37//16 41//16 31//16
f 18//4 38//4 43//4
f 31//17 35//17 38//17
f 36//15 33//15 28//15
f 22//2 44//2 45//2
f 42//18 34//18 39//18
f 27//2 49//2 39//2
f 42//14 36//14 34//14
f 22//2 50//2 40//2
f 35//17 40//17 38//17
f 41//16 35//16 31//16
f 1//4 42//4 51//4
f 63//19 23//19 91//19
f 52//6 11//6 13//6
f 23//4 52//4 13//4
f 13//20 12//20 37//20
f 12//20 41//20 37//20
f 18//4 43//4 53//4
f 38//21 40//21 43//21
f 18//4 54//4 55//4
f 51//18 42//18 39//18
f 27//2 56//2 49//2
f 51//22 39//22 49//22
f 22//2 57//2 50//2
f 40//21 50//21 43//21
f 27//23 1//23 58//23
f 51//4 59//4 1//4
f 23//4 60//4 52//4
f 61//24 30//24 55//24
f 18//4 53//4 54//4
f 43//25 50//25 53//25
f 54//24 61//24 55//24
f 22//2 30//2 61//2
f 27//2 46//2 56//2
f 59//26 49//26 56//26
f 59//22 51//22 49//22
f 22//2 61//2 57//2
f 50//25 57//25 53//25
f 27//2 58//2 66//2
f 1//23 67//23 58//23
f 1//4 59//4 68//4
f 23//4 69//4 60//4
f 60//27 62//27 52//27
f 62//27 11//27 52//27
f 53//28 57//28 54//28
f 44//1 83//1 82//1
f 27//2 47//2 46//2
f 68//29 56//29 46//29
f 68//26 59//26 56//26
f 57//28 61//28 54//28
f 15//9 14//9 16//9
f 27//2 66//2 47//2
f 73//30 66//30 58//30
f 1//4 73//4 67//4
f 67//30 73//30 58//30
f 1//4 68//4 48//4
f 23//4 74//4 69//4
f 69//31 71//31 60//31
f 71//31 62//31 60//31
f 48//29 68//29 46//29
f 23//30 63//30 64//30
f 63//23 72//23 76//23
f 64//23 63//23 76//23
f 23//4 64//4 76//4
f 70//32 47//32 66//32
f 73//32 70//32 66//32
f 70//4 73//4 1//4
f 1//4 48//4 70//4
f 23//4 76//4 74//4
f 74//33 75//33 69//33
f 75//33 71//33 69//33
f 74//34 76//34 75//34
f 46//35 47//35 48//35
f 77//36 78//36 24//36
f 78//2 22//2 3//2
f 79//37 78//37 77//37
f 77//4 8//4 2//4
f 2//4 19//4 77//4
f 19//4 18//4 80//4
f 8//36 77//36 24//36
f 22//2 78//2 79//2
f 78//2 3//2 24//2
f 79//2 81//2 22//2
f 19//37 79//37 77//37
f 19//38 80//38 81//38
f 22//39 81//39 80//39
f 82//4 83//4 18//4
f 21//10 17//10 16//10
f 18//3 83//3 22//3
f 82//40 29//40 45//40
f 29//40 82//40 84//40
f 29//41 84//41 30//41
f 30//41 84//41 55//41
f 3//1 6//1 4//1
f 22//2 45//2 29//2
f 79//38 19//38 81//38
f 18//39 22//39 80//39
f 18//4 84//4 82//4
f 84//4 18//4 55//4
f 45//1 44//1 82//1
f 83//3 44//3 22//3
f 85//42 86//42 87//42
f 85//43 87//43 88//43
f 89//42 86//42 85//42
f 91//4 1//4 90//4
f 93//44 88//44 94//44
f 97//45 90//45 89//45
f 63//2 27//2 22//2
f 98//46 99//46 100//46
f 99//47 101//47 96//47
f 92//48 102//48 103//48
f 103//44 93//44 94//44
f 101//46 99//46 98//46
f 71//2 75//2 22//2
f 63//2 95//2 27//2
f 107//2 104//2 27//2
f 107//49 98//49 100//49
f 93//43 85//43 88//43
f 90//4 1//4 86//4
f 86//4 88//4 87//4
f 88//4 92//4 94//4
f 108//4 1//4 99//4
f 1//4 92//4 88//4
f 27//2 3//2 22//2
f 93//2 89//2 85//2
f 27//2 97//2 89//2
f 98//2 27//2 101//2
f 96//2 27//2 102//2
f 102//2 93//2 103//2
f 93//2 27//2 89//2
f 102//2 27//2 93//2
f 76//34 72//34 75//34
f 106//4 100//4 1//4
f 108//47 99//47 96//47
f 94//48 92//48 103//48
f 27//2 95//2 97//2
f 1//50 27//50 104//50
f 1//4 100//4 99//4
f 106//51 107//51 100//51
f 102//52 92//52 108//52
f 97//53 91//53 90//53
f 96//52 102//52 108//52
f 95//53 91//53 97//53
f 105//54 104//54 107//54
f 106//54 105//54 107//54
f 90//45 86//45 89//45
f 22//2 62//2 71//2
f 22//2 12//2 11//2
f 22//2 35//2 41//2
f 72//2 63//2 22//2
f 22//2 75//2 72//2
f 22//2 11//2 62//2
f 12//2 22//2 41//2
f 47//35 70//35 48//35
f 27//2 98//2 107//2
f 1//4 88//4 86//4
f 1//4 105//4 106//4
f 27//2 96//2 101//2
f 105//50 1//50 104//50
f 23//4 1//4 91//4
f 1//4 108//4 92//4
