# Blender v2.75 (sub 0) OBJ File: 'pre_head_dive_f1.blend'
# www.blender.org
v 5.534992 -0.375000 1.133865
v 5.625000 -0.375000 1.125000
v 5.625000 0.375000 1.125000
v 5.534992 0.375000 1.133865
v 5.625000 -0.375000 1.687500
v 5.807896 -0.375000 1.705513
v 5.983765 -0.375000 1.758862
v 6.145846 -0.375000 1.845496
v 6.287911 -0.375000 1.962086
v 6.404502 -0.375000 2.104152
v 6.491137 -0.375000 2.266233
v 6.544486 -0.375000 2.442101
v 6.562500 -0.375000 2.624999
v 7.125000 -0.375000 2.624998
v 7.096178 -0.375000 2.332363
v 7.010818 -0.375000 2.050973
v 6.872203 -0.375000 1.791643
v 6.685659 -0.375000 1.564338
v 6.458354 -0.375000 1.377795
v 6.199023 -0.375000 1.239180
v 5.917633 -0.375000 1.153822
v 5.534992 -0.375000 1.696365
v 5.917633 0.375000 1.153822
v 5.534992 0.375000 1.597747
v 5.534992 0.375000 1.696365
v 5.625000 0.375000 1.687500
v 5.807896 0.375000 1.705513
v 5.983765 0.375000 1.758862
v 6.145846 0.375000 1.845496
v 6.287911 0.375000 1.962086
v 6.404502 0.375000 2.104152
v 6.491137 0.375000 2.266233
v 6.544486 0.375000 2.442101
v 6.562500 0.375000 2.624999
v 5.534992 -0.375000 4.116135
v 5.625000 -0.375000 4.125000
v 5.917636 -0.375000 4.096178
v 6.199025 -0.375000 4.010819
v 6.458355 -0.375000 3.872204
v 6.685661 -0.375000 3.685659
v 6.872205 -0.375000 3.458354
v 7.010820 -0.375000 3.199024
v 7.096178 -0.375000 2.917634
v 6.544487 -0.375000 2.807896
v 6.491137 -0.375000 2.983765
v 6.404502 -0.375000 3.145847
v 6.287913 -0.375000 3.287912
v 6.145847 -0.375000 3.404502
v 5.983766 -0.375000 3.491137
v 5.807898 -0.375000 3.544486
v 5.625000 -0.375000 3.562500
v 5.534992 -0.375000 3.553635
v 7.125000 0.375000 2.624998
v 7.096178 0.375000 2.332363
v 7.010818 0.375000 2.050973
v 6.872203 0.375000 1.791643
v 6.685659 0.375000 1.564338
v 6.458354 0.375000 1.377795
v 6.199023 0.375000 1.239180
v 7.096178 0.375000 2.917634
v 7.010820 0.375000 3.199024
v 6.872205 0.375000 3.458354
v 6.685661 0.375000 3.685659
v 6.458355 0.375000 3.872204
v 6.199025 0.375000 4.010819
v 5.917636 0.375000 4.096178
v 5.625000 0.375000 4.125000
v 5.625000 0.375000 3.562500
v 5.807898 0.375000 3.544486
v 5.983766 0.375000 3.491137
v 6.145847 0.375000 3.404502
v 6.287913 0.375000 3.287912
v 6.404502 0.375000 3.145847
v 6.491137 0.375000 2.983765
v 6.544487 0.375000 2.807896
v 5.534992 0.375000 4.116135
v 5.534992 0.375000 3.553635
vn -0.098000 0.000000 -0.995200
vn 0.000000 -1.000000 0.000000
vn 0.098000 0.000000 -0.995200
vn 0.000000 1.000000 0.000000
vn 0.098000 0.000000 0.995200
vn -0.098000 0.000000 0.995200
vn -0.290300 0.000000 0.956900
vn -0.471400 0.000000 0.881900
vn -0.634400 0.000000 0.773000
vn -0.773000 0.000000 0.634400
vn -0.881900 0.000000 0.471400
vn -0.956900 0.000000 0.290300
vn -0.995200 0.000000 0.098000
vn 0.995200 0.000000 -0.098000
vn 0.956900 0.000000 -0.290300
vn 0.881900 0.000000 -0.471400
vn 0.773000 0.000000 -0.634400
vn 0.634400 0.000000 -0.773000
vn 0.471400 0.000000 -0.881900
vn 0.290300 0.000000 -0.956900
vn -0.995200 0.000000 -0.098000
vn 0.290300 0.000000 0.956900
vn 0.471400 0.000000 0.881900
vn 0.634400 0.000000 0.773000
vn 0.773000 0.000000 0.634400
vn 0.881900 0.000000 0.471400
vn 0.956900 0.000000 0.290300
vn 0.995200 0.000000 0.098000
vn -0.956900 0.000000 -0.290300
vn -0.881900 0.000000 -0.471400
vn -0.773000 0.000000 -0.634400
vn -0.634400 0.000000 -0.773000
vn -0.471400 0.000000 -0.881900
vn -0.290300 0.000000 -0.956900
vn -1.000000 0.000000 0.000000
s off
f 4//1 3//1 2//1
f 20//2 19//2 8//2
f 2//3 3//3 23//3
f 24//4 23//4 3//4
f 22//5 5//5 26//5
f 27//6 26//6 5//6
f 28//7 27//7 6//7
f 29//8 28//8 7//8
f 30//9 29//9 8//9
f 31//10 30//10 9//10
f 32//11 31//11 10//11
f 33//12 32//12 11//12
f 34//13 33//13 12//13
f 38//2 48//2 39//2
f 15//14 54//14 53//14
f 16//15 55//15 54//15
f 17//16 56//16 55//16
f 18//17 57//17 56//17
f 19//18 58//18 57//18
f 20//19 59//19 58//19
f 21//20 23//20 59//20
f 33//4 53//4 54//4
f 75//21 34//21 13//21
f 35//6 36//6 67//6
f 37//5 66//5 67//5
f 38//22 65//22 66//22
f 39//23 64//23 65//23
f 40//24 63//24 64//24
f 41//25 62//25 63//25
f 42//26 61//26 62//26
f 43//27 60//27 61//27
f 14//28 53//28 60//28
f 74//29 75//29 44//29
f 73//30 74//30 45//30
f 72//31 73//31 46//31
f 71//32 72//32 47//32
f 70//33 71//33 48//33
f 69//34 70//34 49//34
f 68//1 69//1 50//1
f 77//3 68//3 51//3
f 76//4 67//4 68//4
f 77//35 52//35 35//35
f 22//35 24//35 1//35
f 1//1 4//1 2//1
f 14//2 13//2 12//2
f 5//2 22//2 1//2
f 15//2 12//2 11//2
f 2//2 5//2 1//2
f 16//2 11//2 10//2
f 2//2 6//2 5//2
f 17//2 10//2 9//2
f 2//2 21//2 6//2
f 18//2 9//2 8//2
f 12//2 15//2 14//2
f 10//2 17//2 16//2
f 8//2 19//2 18//2
f 8//2 7//2 20//2
f 21//2 7//2 6//2
f 16//2 15//2 11//2
f 9//2 18//2 17//2
f 20//2 7//2 21//2
f 21//3 2//3 23//3
f 4//4 24//4 3//4
f 25//5 22//5 26//5
f 6//6 27//6 5//6
f 7//7 28//7 6//7
f 8//8 29//8 7//8
f 9//9 30//9 8//9
f 10//10 31//10 9//10
f 11//11 32//11 10//11
f 12//12 33//12 11//12
f 13//13 34//13 12//13
f 51//2 36//2 35//2
f 49//2 38//2 37//2
f 47//2 40//2 39//2
f 46//2 42//2 41//2
f 44//2 14//2 43//2
f 35//2 52//2 51//2
f 44//2 13//2 14//2
f 36//2 51//2 50//2
f 45//2 44//2 43//2
f 37//2 50//2 49//2
f 42//2 45//2 43//2
f 38//2 49//2 48//2
f 42//2 46//2 45//2
f 39//2 48//2 47//2
f 50//2 37//2 36//2
f 47//2 41//2 40//2
f 41//2 47//2 46//2
f 14//14 15//14 53//14
f 15//15 16//15 54//15
f 16//16 17//16 55//16
f 17//17 18//17 56//17
f 18//18 19//18 57//18
f 19//19 20//19 58//19
f 20//20 21//20 59//20
f 27//4 23//4 24//4
f 29//4 58//4 59//4
f 31//4 56//4 57//4
f 33//4 54//4 55//4
f 34//4 60//4 53//4
f 74//4 62//4 61//4
f 72//4 64//4 63//4
f 70//4 66//4 65//4
f 69//4 68//4 67//4
f 24//4 25//4 26//4
f 66//4 69//4 67//4
f 24//4 26//4 27//4
f 66//4 70//4 69//4
f 59//4 27//4 28//4
f 65//4 71//4 70//4
f 59//4 23//4 27//4
f 65//4 64//4 71//4
f 59//4 28//4 29//4
f 64//4 72//4 71//4
f 58//4 29//4 30//4
f 63//4 73//4 72//4
f 57//4 30//4 31//4
f 63//4 62//4 73//4
f 56//4 31//4 32//4
f 62//4 74//4 73//4
f 55//4 32//4 33//4
f 61//4 75//4 74//4
f 57//4 58//4 30//4
f 61//4 60//4 75//4
f 34//4 75//4 60//4
f 32//4 55//4 56//4
f 53//4 33//4 34//4
f 44//21 75//21 13//21
f 76//6 35//6 67//6
f 36//5 37//5 67//5
f 37//22 38//22 66//22
f 38//23 39//23 65//23
f 39//24 40//24 64//24
f 40//25 41//25 63//25
f 41//26 42//26 62//26
f 42//27 43//27 61//27
f 43//28 14//28 60//28
f 45//29 74//29 44//29
f 46//30 73//30 45//30
f 47//31 72//31 46//31
f 48//32 71//32 47//32
f 49//33 70//33 48//33
f 50//34 69//34 49//34
f 51//1 68//1 50//1
f 52//3 77//3 51//3
f 77//4 76//4 68//4
f 76//35 77//35 35//35
f 24//35 22//35 25//35
f 24//35 4//35 1//35
v 3.660550 -0.375000 7.657122
v 3.660550 0.375000 7.657122
v 5.029090 -0.375000 4.851200
v 5.029090 0.375000 4.851200
v 4.220910 -0.375000 7.648800
v 4.220910 0.375000 7.648800
v 5.589450 -0.375000 4.842878
v 5.589450 0.375000 4.842878
vn -0.898800 0.000000 -0.438400
vn -0.014900 0.000000 -0.999900
vn 0.898800 0.000000 0.438400
vn 0.014900 0.000000 0.999900
vn 0.000000 -1.000000 0.000000
vn 0.000000 1.000000 0.000000
vn -0.014800 0.000000 -0.999900
vn 0.014800 0.000000 0.999900
s off
f 81//36 80//36 78//36
f 85//37 84//37 80//37
f 83//38 82//38 84//38
f 79//39 78//39 82//39
f 80//40 84//40 82//40
f 83//41 85//41 81//41
f 79//36 81//36 78//36
f 81//42 85//42 80//42
f 85//38 83//38 84//38
f 83//43 79//43 82//43
f 78//40 80//40 82//40
f 79//41 83//41 81//41
v 1.876828 0.375000 2.993678
v 1.876828 -0.375000 2.993678
v 2.671392 0.375000 2.812500
v 3.761962 0.375000 2.303959
v 3.761962 -0.375000 2.303959
v 2.671392 -0.375000 2.812500
v 3.768167 0.375000 1.749376
v 3.768167 -0.375000 1.749376
v 1.876828 0.375000 2.631322
v 1.876828 -0.375000 2.631322
v 3.761963 0.375000 3.321041
v 3.761963 -0.375000 3.321041
v 3.768167 0.375000 3.875624
v 3.768167 -0.375000 3.875624
vn 0.422600 0.000000 0.906300
vn -0.422600 0.000000 -0.906300
vn 0.999900 0.000000 0.011200
vn 0.000000 1.000000 0.000000
vn 0.422600 0.000000 -0.906300
vn 0.999900 0.000000 -0.011200
vn -0.422600 0.000000 0.906300
vn 0.000000 -1.000000 0.000000
vn -1.000000 0.000000 0.000000
s off
f 91//44 90//44 89//44
f 95//45 94//45 92//45
f 90//46 93//46 92//46
f 92//47 94//47 88//47
f 94//47 86//47 88//47
f 97//48 91//48 88//48
f 99//49 97//49 96//49
f 99//50 98//50 86//50
f 88//47 86//47 98//47
f 91//51 97//51 99//51
f 86//52 94//52 95//52
f 91//51 95//51 93//51
f 91//51 87//51 95//51
f 88//44 91//44 89//44
f 93//45 95//45 92//45
f 89//46 90//46 92//46
f 89//47 92//47 88//47
f 96//48 97//48 88//48
f 98//49 99//49 96//49
f 87//50 99//50 86//50
f 96//47 88//47 98//47
f 87//51 91//51 99//51
f 87//52 86//52 95//52
f 90//51 91//51 93//51
v -1.876828 0.375000 2.993678
v -1.876828 -0.375000 2.993678
v -2.671392 0.375000 2.812500
v -3.761962 0.375000 2.303959
v -3.761962 -0.375000 2.303959
v -2.671392 -0.375000 2.812500
v -3.768167 0.375000 1.749376
v -3.768167 -0.375000 1.749376
v -1.876828 0.375000 2.631322
v -1.876828 -0.375000 2.631322
v -3.761962 0.375000 3.321041
v -3.761962 -0.375000 3.321041
v -3.768167 0.375000 3.875624
v -3.768167 -0.375000 3.875624
vn -0.422600 0.000000 0.906300
vn 0.422600 0.000000 -0.906300
vn -0.999900 0.000000 0.011200
vn 0.000000 1.000000 0.000000
vn -0.422600 0.000000 -0.906300
vn -0.999900 0.000000 -0.011200
vn 0.422600 0.000000 0.906300
vn 0.000000 -1.000000 0.000000
vn 1.000000 0.000000 0.000000
s off
f 103//53 104//53 105//53
f 106//54 108//54 109//54
f 106//55 107//55 104//55
f 102//56 108//56 106//56
f 108//56 102//56 100//56
f 102//57 105//57 111//57
f 110//58 111//58 113//58
f 100//59 112//59 113//59
f 112//56 100//56 102//56
f 113//60 111//60 105//60
f 109//61 108//61 100//61
f 105//60 104//60 107//60
f 105//60 109//60 101//60
f 102//53 103//53 105//53
f 107//54 106//54 109//54
f 103//55 106//55 104//55
f 103//56 102//56 106//56
f 110//57 102//57 111//57
f 112//58 110//58 113//58
f 101//59 100//59 113//59
f 110//56 112//56 102//56
f 101//60 113//60 105//60
f 101//61 109//61 100//61
f 109//60 105//60 107//60
v -5.534992 -0.375000 1.133865
v -5.625000 -0.375000 1.125000
v -5.625000 0.375000 1.125000
v -5.534992 0.375000 1.133865
v -5.625000 -0.375000 1.687500
v -5.807896 -0.375000 1.705513
v -5.983765 -0.375000 1.758862
v -6.145846 -0.375000 1.845496
v -6.287911 -0.375000 1.962086
v -6.404502 -0.375000 2.104152
v -6.491137 -0.375000 2.266233
v -6.544486 -0.375000 2.442101
v -6.562500 -0.375000 2.624999
v -7.125000 -0.375000 2.624998
v -7.096178 -0.375000 2.332363
v -7.010818 -0.375000 2.050973
v -6.872203 -0.375000 1.791643
v -6.685659 -0.375000 1.564338
v -6.458354 -0.375000 1.377795
v -6.199023 -0.375000 1.239180
v -5.917633 -0.375000 1.153822
v -5.534992 -0.375000 1.696365
v -5.917633 0.375000 1.153822
v -5.534992 0.375000 1.597747
v -5.534992 0.375000 1.696365
v -5.625000 0.375000 1.687500
v -5.807896 0.375000 1.705513
v -5.983765 0.375000 1.758862
v -6.145846 0.375000 1.845496
v -6.287911 0.375000 1.962086
v -6.404502 0.375000 2.104152
v -6.491137 0.375000 2.266233
v -6.544486 0.375000 2.442101
v -6.562500 0.375000 2.624999
v -5.534992 -0.375000 4.116135
v -5.625000 -0.375000 4.125000
v -5.917636 -0.375000 4.096178
v -6.199025 -0.375000 4.010819
v -6.458355 -0.375000 3.872204
v -6.685661 -0.375000 3.685659
v -6.872205 -0.375000 3.458354
v -7.010820 -0.375000 3.199024
v -7.096178 -0.375000 2.917634
v -6.544487 -0.375000 2.807896
v -6.491137 -0.375000 2.983765
v -6.404502 -0.375000 3.145847
v -6.287913 -0.375000 3.287912
v -6.145847 -0.375000 3.404502
v -5.983766 -0.375000 3.491137
v -5.807898 -0.375000 3.544486
v -5.625000 -0.375000 3.562500
v -5.534992 -0.375000 3.553635
v -7.125000 0.375000 2.624998
v -7.096178 0.375000 2.332363
v -7.010818 0.375000 2.050973
v -6.872203 0.375000 1.791643
v -6.685659 0.375000 1.564338
v -6.458354 0.375000 1.377795
v -6.199023 0.375000 1.239180
v -7.096178 0.375000 2.917634
v -7.010820 0.375000 3.199024
v -6.872205 0.375000 3.458354
v -6.685661 0.375000 3.685659
v -6.458355 0.375000 3.872204
v -6.199025 0.375000 4.010819
v -5.917636 0.375000 4.096178
v -5.625000 0.375000 4.125000
v -5.625000 0.375000 3.562500
v -5.807898 0.375000 3.544486
v -5.983766 0.375000 3.491137
v -6.145847 0.375000 3.404502
v -6.287913 0.375000 3.287912
v -6.404502 0.375000 3.145847
v -6.491137 0.375000 2.983765
v -6.544487 0.375000 2.807896
v -5.534992 0.375000 4.116135
v -5.534992 0.375000 3.553635
vn 0.098000 0.000000 -0.995200
vn 0.000000 -1.000000 0.000000
vn -0.098000 0.000000 -0.995200
vn 0.000000 1.000000 0.000000
vn -0.098000 0.000000 0.995200
vn 0.098000 0.000000 0.995200
vn 0.290300 0.000000 0.956900
vn 0.471400 0.000000 0.881900
vn 0.634400 0.000000 0.773000
vn 0.773000 0.000000 0.634400
vn 0.881900 0.000000 0.471400
vn 0.956900 0.000000 0.290300
vn 0.995200 0.000000 0.098000
vn -0.995200 0.000000 -0.098000
vn -0.956900 0.000000 -0.290300
vn -0.881900 0.000000 -0.471400
vn -0.773000 0.000000 -0.634400
vn -0.634400 0.000000 -0.773000
vn -0.471400 0.000000 -0.881900
vn -0.290300 0.000000 -0.956900
vn 0.995200 0.000000 -0.098000
vn -0.290300 0.000000 0.956900
vn -0.471400 0.000000 0.881900
vn -0.634400 0.000000 0.773000
vn -0.773000 0.000000 0.634400
vn -0.881900 0.000000 0.471400
vn -0.956900 0.000000 0.290300
vn -0.995200 0.000000 0.098000
vn 0.956900 0.000000 -0.290300
vn 0.881900 0.000000 -0.471400
vn 0.773000 0.000000 -0.634400
vn 0.634400 0.000000 -0.773000
vn 0.471400 0.000000 -0.881900
vn 0.290300 0.000000 -0.956900
vn 1.000000 0.000000 0.000000
s off
f 115//62 116//62 117//62
f 121//63 132//63 133//63
f 136//64 116//64 115//64
f 116//65 136//65 137//65
f 139//66 118//66 135//66
f 118//67 139//67 140//67
f 119//68 140//68 141//68
f 120//69 141//69 142//69
f 121//70 142//70 143//70
f 122//71 143//71 144//71
f 123//72 144//72 145//72
f 124//73 145//73 146//73
f 125//74 146//74 147//74
f 161//63 152//63 160//63
f 166//75 167//75 128//75
f 167//76 168//76 129//76
f 168//77 169//77 130//77
f 169//78 170//78 131//78
f 170//79 171//79 132//79
f 171//80 172//80 133//80
f 172//81 136//81 134//81
f 146//65 166//65 147//65
f 126//82 147//82 188//82
f 180//67 149//67 148//67
f 180//66 179//66 150//66
f 179//83 178//83 151//83
f 178//84 177//84 152//84
f 177//85 176//85 153//85
f 176//86 175//86 154//86
f 175//87 174//87 155//87
f 174//88 173//88 156//88
f 173//89 166//89 127//89
f 157//90 188//90 187//90
f 158//91 187//91 186//91
f 159//92 186//92 185//92
f 160//93 185//93 184//93
f 161//94 184//94 183//94
f 162//95 183//95 182//95
f 163//62 182//62 181//62
f 164//64 181//64 190//64
f 181//65 180//65 189//65
f 148//96 165//96 190//96
f 137//96 135//96 114//96
f 114//62 115//62 117//62
f 114//63 135//63 118//63
f 118//63 115//63 114//63
f 120//63 133//63 134//63
f 122//63 131//63 132//63
f 123//63 129//63 130//63
f 125//63 127//63 128//63
f 115//63 118//63 119//63
f 125//63 126//63 127//63
f 134//63 119//63 120//63
f 124//63 125//63 128//63
f 133//63 120//63 121//63
f 129//63 124//63 128//63
f 132//63 121//63 122//63
f 129//63 123//63 124//63
f 122//63 130//63 131//63
f 119//63 134//63 115//63
f 130//63 122//63 123//63
f 134//64 136//64 115//64
f 117//65 116//65 137//65
f 138//66 139//66 135//66
f 119//67 118//67 140//67
f 120//68 119//68 141//68
f 121//69 120//69 142//69
f 122//70 121//70 143//70
f 123//71 122//71 144//71
f 124//72 123//72 145//72
f 125//73 124//73 146//73
f 126//74 125//74 147//74
f 164//63 165//63 148//63
f 127//63 126//63 157//63
f 149//63 164//63 148//63
f 156//63 157//63 158//63
f 149//63 163//63 164//63
f 155//63 158//63 159//63
f 150//63 162//63 163//63
f 154//63 159//63 160//63
f 150//63 151//63 162//63
f 163//63 149//63 150//63
f 161//63 151//63 152//63
f 160//63 153//63 154//63
f 158//63 155//63 156//63
f 156//63 127//63 157//63
f 151//63 161//63 162//63
f 160//63 152//63 153//63
f 154//63 155//63 159//63
f 127//75 166//75 128//75
f 128//76 167//76 129//76
f 129//77 168//77 130//77
f 130//78 169//78 131//78
f 131//79 170//79 132//79
f 132//80 171//80 133//80
f 133//81 172//81 134//81
f 139//65 138//65 137//65
f 180//65 181//65 182//65
f 140//65 139//65 137//65
f 178//65 182//65 183//65
f 136//65 140//65 137//65
f 178//65 183//65 184//65
f 141//65 140//65 136//65
f 177//65 184//65 185//65
f 172//65 141//65 136//65
f 176//65 185//65 186//65
f 172//65 142//65 141//65
f 179//65 180//65 182//65
f 172//65 171//65 142//65
f 175//65 186//65 187//65
f 142//65 171//65 143//65
f 178//65 179//65 182//65
f 171//65 170//65 143//65
f 174//65 187//65 188//65
f 143//65 170//65 144//65
f 177//65 178//65 184//65
f 170//65 169//65 144//65
f 173//65 188//65 147//65
f 144//65 169//65 145//65
f 168//65 145//65 169//65
f 146//65 168//65 167//65
f 147//65 166//65 173//65
f 187//65 174//65 175//65
f 185//65 176//65 177//65
f 168//65 146//65 145//65
f 175//65 176//65 186//65
f 188//65 173//65 174//65
f 166//65 146//65 167//65
f 157//82 126//82 188//82
f 189//67 180//67 148//67
f 149//66 180//66 150//66
f 150//83 179//83 151//83
f 151//84 178//84 152//84
f 152//85 177//85 153//85
f 153//86 176//86 154//86
f 154//87 175//87 155//87
f 155//88 174//88 156//88
f 156//89 173//89 127//89
f 158//90 157//90 187//90
f 159//91 158//91 186//91
f 160//92 159//92 185//92
f 161//93 160//93 184//93
f 162//94 161//94 183//94
f 163//95 162//95 182//95
f 164//62 163//62 181//62
f 165//64 164//64 190//64
f 190//65 181//65 189//65
f 189//96 148//96 190//96
f 135//96 137//96 138//96
f 137//96 114//96 117//96
v -3.660550 -0.375000 7.657122
v -3.660550 0.375000 7.657122
v -5.029090 -0.375000 4.851200
v -5.029090 0.375000 4.851200
v -4.220910 -0.375000 7.648800
v -4.220910 0.375000 7.648800
v -5.589450 -0.375000 4.842878
v -5.589450 0.375000 4.842878
vn 0.898800 0.000000 -0.438400
vn 0.014900 0.000000 -0.999900
vn -0.898800 0.000000 0.438400
vn -0.014900 0.000000 0.999900
vn 0.000000 -1.000000 0.000000
vn 0.000000 1.000000 0.000000
vn 0.014800 0.000000 -0.999900
vn -0.014800 0.000000 0.999900
s off
f 191//97 193//97 194//97
f 193//98 197//98 198//98
f 197//99 195//99 196//99
f 195//100 191//100 192//100
f 195//101 197//101 193//101
f 196//102 192//102 194//102
f 192//97 191//97 194//97
f 194//103 193//103 198//103
f 198//99 197//99 196//99
f 196//104 195//104 192//104
f 191//101 195//101 193//101
f 198//102 196//102 194//102
