# Blender v2.75 (sub 0) OBJ File: 'pre_head_d2r_f1_projection.blend'
# www.blender.org
v -3.875000 -0.019992 -3.875000
v -3.875000 0.019999 -3.875000
v 3.875000 -0.020000 8.000000
v -3.875000 -0.020000 8.000000
v 3.875000 0.019991 8.000000
v -3.875000 0.019991 8.000000
v 6.866135 0.019999 5.534993
v 6.875000 0.019999 5.625000
v 6.875000 -0.019995 5.625000
v 6.866135 -0.019995 5.534993
v 6.846178 0.019999 5.917634
v 6.846178 -0.019995 5.917634
v 7.592877 0.020000 5.589450
v 6.760819 0.019999 6.199023
v 6.760819 -0.019995 6.199023
v 7.592877 -0.019995 5.589450
v 6.622204 0.019997 6.458354
v 6.622204 -0.019995 6.458354
v 8.000000 0.020000 5.390883
v 6.435661 0.019997 6.685659
v 6.435661 -0.019995 6.685659
v 7.592878 0.020000 -5.589449
v 6.866136 0.019999 -5.534992
v 6.866136 -0.019995 -5.534992
v 7.592878 -0.019995 -5.589449
v 8.000000 -0.019994 -5.390882
v 6.208356 0.019997 6.872203
v 6.208356 -0.019995 6.872203
v 3.883865 0.019996 5.534992
v 3.883865 -0.019996 -5.534992
v 6.846179 0.019999 -5.917633
v 6.846179 -0.019995 -5.917633
v 6.760820 -0.019995 -6.199022
v 5.949027 0.019997 7.010818
v 5.949027 -0.019995 7.010818
v 6.875000 -0.019995 -5.625000
v 5.375001 0.019997 7.125000
v 3.883865 0.019996 -5.534992
v 3.883865 -0.019996 5.534992
v 5.375002 -0.019995 -7.125000
v 5.667636 0.019997 7.096179
v 5.667636 -0.019995 7.096179
v 6.875000 0.019999 -5.625000
v 5.082366 0.019997 7.096178
v 5.375002 0.019997 -7.125000
v 0.000000 0.019987 -3.875000
v 5.375001 -0.019995 7.125000
v 0.000000 -0.019999 -3.875000
v 5.082366 -0.019995 -7.096178
v 5.667637 -0.019995 -7.096178
v 4.800975 0.019997 7.010820
v 5.667637 0.019997 -7.096178
v 5.082366 0.019997 -7.096178
v 0.351200 0.019993 -4.220910
v 5.082366 -0.019995 7.096178
v 0.351200 -0.019999 -4.220910
v 3.157122 -0.019998 -5.589450
v 4.800976 -0.019995 -7.010820
v 5.949028 -0.019995 -7.010818
v 6.622205 -0.019995 -6.458354
v 6.760820 0.019999 -6.199022
v 3.989181 -0.019996 6.199025
v 4.127796 -0.019996 6.458355
v 4.127796 0.019996 6.458355
v 4.541646 0.019997 6.872205
v 5.949028 0.019997 -7.010818
v 4.800976 0.019997 -7.010820
v 3.157122 0.019996 -5.589450
v 4.800975 -0.019995 7.010820
v 4.541646 -0.019996 -6.872205
v 6.208357 -0.019995 -6.872202
v 6.435662 -0.019995 -6.685658
v 6.622205 0.019997 -6.458354
v 4.314341 0.019996 6.685661
v 6.208357 0.019997 -6.872202
v 4.541646 0.019997 -6.872205
v 0.000000 0.019987 -3.872848
v 3.875000 0.019996 5.625000
v 4.541646 -0.019996 6.872205
v 4.314342 -0.019996 -6.685661
v 6.435662 0.019997 -6.685658
v 4.314342 0.019996 -6.685661
v 3.875000 0.019996 -5.625000
v 3.875000 -0.019996 -5.625000
v 0.000000 -0.019993 -3.875000
v 0.000000 0.019999 -3.875000
v 3.903822 0.019996 5.917636
v 3.875000 -0.019996 5.625000
v 4.314341 -0.019996 6.685661
v 4.127797 -0.019996 -6.458355
v 3.989181 0.019996 6.199025
v 4.127797 0.019996 -6.458355
v 3.903822 0.019996 -5.917636
v 3.903822 -0.019996 5.917636
v 3.989181 -0.019996 -6.199025
v 3.989181 0.019996 -6.199025
v 3.903822 -0.019996 -5.917636
v 8.000000 -0.019994 5.390883
v 8.000000 0.020000 -5.390882
vn -0.000000 0.000000 -1.000000
vn 0.000000 -1.000000 0.000000
vn -0.000000 1.000000 0.000000
vn 0.000000 0.000000 1.000000
vn 0.995200 0.000000 -0.098000
vn 0.995200 0.000000 0.098000
vn -0.074700 0.000000 0.997200
vn -0.471400 0.000000 -0.881900
vn 0.956900 0.000000 0.290300
vn 0.881900 0.000000 0.471400
vn 0.773000 0.000000 0.634400
vn 0.634400 0.000000 0.773000
vn 0.471400 0.000000 0.881900
vn 0.290300 0.000000 0.956900
vn -0.098000 0.000000 0.995200
vn 0.098000 0.000000 0.995200
vn -0.098000 0.000000 -0.995200
vn 0.098000 0.000000 -0.995200
vn -0.881900 0.000000 0.471400
vn -0.290300 0.000000 0.956900
vn -0.438400 0.000000 -0.898800
vn 0.074700 0.000000 -0.997200
vn -0.290300 0.000000 -0.956900
vn 0.290300 0.000000 -0.956900
vn -0.471400 0.000000 0.881900
vn -0.701700 0.000000 -0.712500
vn -0.995200 0.000000 -0.098000
vn 0.773000 0.000000 -0.634400
vn 0.471400 0.000000 -0.881900
vn -0.634400 0.000000 0.773000
vn -0.995200 0.000000 0.098000
vn -0.701600 0.000000 -0.712500
vn 1.000000 0.000000 0.000000
vn -0.634400 0.000000 -0.773000
vn 0.634400 0.000000 -0.773000
vn -0.773000 0.000000 0.634400
vn -0.773000 0.000000 -0.634400
vn -0.956900 0.000000 0.290300
vn -0.881900 0.000000 -0.471400
vn -0.956900 0.000000 -0.290300
vn 0.438400 0.000000 0.898800
vn -1.000000 0.000000 0.000000
vn 0.924400 0.000000 -0.381500
vn 1.000000 0.000000 0.003600
vn 0.438400 0.000000 -0.898800
vn -0.074700 0.000000 -0.997200
vn 0.569100 0.820300 0.056100
vn 0.956900 0.000000 -0.290300
vn 0.881900 0.000000 -0.471400
vn 0.910500 -0.403600 -0.089700
s off
f 1//1 2//1 46//1
f 4//2 48//2 39//2
f 86//3 2//3 6//3
f 4//4 3//4 6//4
f 3//4 5//4 6//4
f 10//5 7//5 9//5
f 85//1 48//1 1//1
f 7//3 11//3 8//3
f 9//6 8//6 11//6
f 10//2 9//2 12//2
f 10//7 16//7 7//7
f 14//3 11//3 7//3
f 12//6 9//6 11//6
f 10//2 12//2 15//2
f 76//8 67//8 58//8
f 7//3 17//3 14//3
f 12//9 11//9 14//9
f 10//2 15//2 18//2
f 15//9 12//9 14//9
f 7//3 20//3 17//3
f 15//10 14//10 17//10
f 10//2 18//2 21//2
f 18//10 15//10 17//10
f 10//2 24//2 26//2
f 7//3 27//3 20//3
f 21//11 18//11 20//11
f 10//2 21//2 28//2
f 23//3 38//3 7//3
f 30//2 24//2 10//2
f 16//7 13//7 7//7
f 7//3 34//3 27//3
f 21//12 20//12 27//12
f 10//2 28//2 35//2
f 28//12 21//12 27//12
f 29//3 37//3 7//3
f 61//3 73//3 23//3
f 10//2 39//2 30//2
f 40//2 24//2 30//2
f 7//3 41//3 34//3
f 28//13 27//13 34//13
f 10//2 35//2 42//2
f 35//13 28//13 34//13
f 29//3 44//3 37//3
f 7//3 37//3 41//3
f 23//3 45//3 38//3
f 38//3 46//3 29//3
f 10//2 47//2 39//2
f 39//2 48//2 30//2
f 30//2 49//2 40//2
f 24//2 40//2 50//2
f 35//14 34//14 41//14
f 10//2 42//2 47//2
f 42//14 35//14 41//14
f 44//3 29//3 51//3
f 47//15 37//15 44//15
f 42//16 41//16 37//16
f 23//3 52//3 45//3
f 38//3 45//3 53//3
f 54//3 46//3 38//3
f 39//2 47//2 55//2
f 56//2 57//2 30//2
f 30//2 58//2 49//2
f 49//17 53//17 40//17
f 24//2 50//2 59//2
f 40//18 45//18 50//18
f 47//16 42//16 37//16
f 23//3 43//3 31//3
f 64//19 91//19 63//19
f 55//20 44//20 51//20
f 29//3 65//3 51//3
f 55//15 47//15 44//15
f 23//3 66//3 52//3
f 45//18 52//18 50//18
f 38//3 53//3 67//3
f 53//17 45//17 40//17
f 38//3 68//3 54//3
f 39//2 55//2 69//2
f 57//21 56//21 54//21
f 30//22 57//22 68//22
f 70//8 76//8 58//8
f 30//2 70//2 58//2
f 58//23 67//23 49//23
f 67//23 53//23 49//23
f 24//2 59//2 71//2
f 50//24 52//24 59//24
f 24//2 72//2 60//2
f 69//20 55//20 51//20
f 29//3 74//3 65//3
f 69//25 51//25 65//25
f 23//3 75//3 66//3
f 52//24 66//24 59//24
f 38//3 67//3 76//3
f 38//22 30//22 68//22
f 68//21 57//21 54//21
f 54//26 56//26 46//26
f 29//27 39//27 78//27
f 69//2 79//2 39//2
f 30//2 80//2 70//2
f 81//28 73//28 60//28
f 24//2 71//2 72//2
f 59//29 66//29 71//29
f 72//28 81//28 60//28
f 23//3 73//3 81//3
f 29//3 64//3 74//3
f 79//30 65//30 74//30
f 79//25 69//25 65//25
f 23//3 81//3 75//3
f 66//29 75//29 71//29
f 38//3 76//3 82//3
f 83//31 84//31 38//31
f 56//32 48//32 85//32
f 46//33 86//33 77//33
f 29//3 78//3 87//3
f 39//27 88//27 78//27
f 39//2 79//2 89//2
f 30//2 90//2 80//2
f 80//34 82//34 70//34
f 82//34 76//34 70//34
f 71//35 75//35 72//35
f 91//19 62//19 63//19
f 29//3 91//3 64//3
f 89//36 74//36 64//36
f 89//30 79//30 74//30
f 75//35 81//35 72//35
f 38//3 82//3 92//3
f 93//3 83//3 38//3
f 18//11 17//11 20//11
f 29//3 87//3 91//3
f 94//31 87//31 78//31
f 39//2 94//2 88//2
f 88//31 94//31 78//31
f 39//2 89//2 63//2
f 30//2 95//2 90//2
f 90//37 92//37 80//37
f 92//37 82//37 80//37
f 38//3 29//3 7//3
f 63//36 89//36 64//36
f 38//3 92//3 96//3
f 96//3 93//3 38//3
f 83//27 93//27 97//27
f 84//27 83//27 97//27
f 30//2 84//2 97//2
f 62//38 91//38 87//38
f 94//38 62//38 87//38
f 62//2 94//2 39//2
f 39//2 63//2 62//2
f 30//2 97//2 95//2
f 95//39 96//39 90//39
f 96//39 92//39 90//39
f 84//31 30//31 38//31
f 93//40 96//40 95//40
f 97//40 93//40 95//40
f 48//2 56//2 30//2
f 98//41 19//41 13//41
f 19//3 23//3 7//3
f 99//33 19//33 98//33
f 46//26 56//26 85//26
f 6//42 2//42 1//42
f 86//43 29//43 46//43
f 39//44 29//44 5//44
f 86//42 46//42 77//42
f 46//1 85//1 1//1
f 46//1 2//1 86//1
f 48//2 4//2 1//2
f 4//2 39//2 3//2
f 6//3 29//3 86//3
f 29//3 6//3 5//3
f 98//2 16//2 10//2
f 10//2 26//2 98//2
f 26//2 24//2 25//2
f 16//41 98//41 13//41
f 23//3 19//3 99//3
f 19//3 7//3 13//3
f 99//3 22//3 23//3
f 26//33 99//33 98//33
f 4//42 6//42 1//42
f 3//44 39//44 5//44
f 26//45 25//45 22//45
f 23//46 22//46 25//46
f 32//2 36//2 24//2
f 31//47 24//47 36//47
f 43//6 23//6 24//6
f 32//48 61//48 31//48
f 61//48 32//48 33//48
f 61//49 33//49 73//49
f 73//49 33//49 60//49
f 7//5 8//5 9//5
f 23//3 31//3 61//3
f 99//45 26//45 22//45
f 24//46 23//46 25//46
f 24//2 33//2 32//2
f 33//2 24//2 60//2
f 32//5 31//5 36//5
f 31//50 43//50 24//50
