# Blender v2.75 (sub 0) OBJ File: 'pre_head_dive_f1_projection.blend'
# www.blender.org
o head_d2u_f2_projection
v -3.875000 -2.525000 0.020000
v -3.875000 -2.525000 -0.020000
v -3.875000 -2.925000 -0.020000
v 3.875000 -2.925000 -0.020000
v 3.875000 -2.925000 0.020000
v 3.875000 -2.525000 0.020000
v -3.875000 -2.925000 0.020000
v 3.875000 -2.525000 -0.020000
v -3.875000 -0.000000 0.020000
v -3.875000 0.000000 -0.020000
v -3.875000 -2.025000 -0.020000
v 3.875000 -0.000000 0.020000
v -3.875000 -2.025000 0.020000
v 3.875000 0.000000 -0.020000
v 3.875000 -2.025000 -0.020000
v 3.875000 -2.025000 0.020000
v -3.875000 -3.425000 0.019999
v -3.875000 -3.425000 -0.020001
v -3.875000 -3.625000 -0.020001
v -3.875000 -3.625000 0.019999
v 3.875000 -3.625000 -0.020001
v 3.875000 -3.425000 0.019999
v 3.875000 -3.425000 -0.020001
v 3.875000 -3.625000 0.019999
v 5.534992 0.019997 1.133865
v 5.625000 0.019997 1.125000
v 5.625000 -0.019998 1.125000
v 5.534992 -0.019998 1.133865
v 5.917633 0.019997 1.153822
v 5.917633 -0.019998 1.153822
v 5.589450 0.019997 0.407122
v 6.199023 0.019997 1.239180
v 6.199023 -0.019998 1.239180
v 5.589450 -0.019998 0.407122
v 5.113217 0.019997 0.000000
v 5.390883 0.019997 0.000000
v 6.458354 0.019997 1.377795
v 6.458354 -0.019998 1.377795
v 5.390883 -0.019997 0.000000
v 5.113217 -0.019997 0.000000
v 5.390883 0.014194 0.000000
v -5.113217 0.019997 0.000000
v 2.403681 0.019997 0.000000
v 2.403681 -0.019997 0.000000
v -5.113217 -0.019997 0.000000
v -5.390883 -0.019997 0.000000
v -5.390883 -0.014194 0.000000
v -5.390883 0.019997 0.000000
v 6.685659 0.019997 1.564338
v 6.685659 -0.019998 1.564338
v -5.589450 0.019997 0.407122
v -5.534992 0.019997 1.133865
v -5.534992 -0.019998 1.133865
v -5.589450 -0.019998 0.407122
v 6.872203 0.019997 1.791643
v 6.872203 -0.019998 1.791643
v 5.534992 0.019996 4.116135
v -5.534992 -0.019999 4.116135
v 7.010818 0.019997 2.050973
v 7.010818 -0.019998 2.050973
v -5.625000 -0.019998 1.125000
v 7.125000 0.019997 2.624998
v -5.534992 0.019996 4.116135
v 5.534992 -0.019999 4.116135
v -7.125000 -0.019998 2.624998
v 7.096178 0.019997 2.332363
v 7.096178 -0.019998 2.332363
v -5.917633 -0.019998 1.153822
v -5.625000 0.019997 1.125000
v 7.096178 0.019996 2.917634
v -7.125000 0.019997 2.624998
v 4.220910 0.019995 7.648800
v 7.125000 -0.019998 2.624998
v -4.220910 -0.020000 7.648800
v -7.096178 -0.019998 2.917634
v -7.096178 -0.019998 2.332363
v -6.199023 -0.019998 1.239180
v -5.917633 0.019997 1.153822
v 7.010820 0.019996 3.199024
v -7.096178 0.019997 2.332363
v -7.096178 0.019996 2.917634
v -4.220910 0.019995 7.648800
v 5.589450 0.019996 4.842878
v 7.096178 -0.019998 2.917634
v -5.589450 -0.019999 4.842878
v 4.220910 -0.020000 7.648800
v -7.010820 -0.019998 3.199024
v -7.010818 -0.019998 2.050973
v -6.458354 -0.019998 1.377795
v -6.199023 0.019997 1.239180
v 6.872205 0.019996 3.458354
v -7.010818 0.019997 2.050973
v -7.010820 0.019996 3.199024
v -5.589450 0.019996 4.842878
v -3.875000 0.019989 8.000000
v 5.589450 -0.019999 4.842878
v 7.010820 -0.019998 3.199024
v 3.875000 -0.020000 8.000000
v -6.872205 -0.019999 3.458354
v -6.872203 -0.019998 1.791643
v -6.685659 -0.019998 1.564338
v -6.458354 0.019997 1.377795
v 6.685661 0.019996 3.685659
v -6.872203 0.019997 1.791643
v -6.872205 0.019996 3.458354
v -3.872848 0.019989 8.000000
v 3.875000 0.019989 8.000000
v 5.625000 0.019996 4.125000
v 6.872205 -0.019999 3.458354
v -3.875000 -0.020000 8.000000
v 3.875000 -0.019995 8.000000
v -6.685661 -0.019999 3.685659
v -6.685659 0.019997 1.564338
v 6.458355 0.019996 3.872204
v -6.685661 0.019996 3.685659
v -5.625000 0.019996 4.125000
v -3.875000 -0.019995 8.000000
v -3.875000 0.020000 8.000000
v 3.875000 0.020000 8.000000
v 5.917636 0.019996 4.096178
v 5.625000 -0.019999 4.125000
v 6.685661 -0.019999 3.685659
v 3.873970 -0.019995 8.000000
v -6.458355 -0.019999 3.872204
v 6.199025 0.019996 4.010819
v -6.458355 0.019996 3.872204
v -5.917636 0.019996 4.096178
v -5.625000 -0.019999 4.125000
v 5.917636 -0.019999 4.096178
v 6.458355 -0.019999 3.872204
v -6.199025 -0.019999 4.010819
v -6.199025 0.019996 4.010819
v -5.917636 -0.019999 4.096178
v 6.199025 -0.019999 4.010819
vn -0.098000 0.000000 -0.995200
vn 0.000000 1.000000 0.000000
vn 0.098000 0.000000 -0.995200
vn 0.000000 -1.000000 -0.000000
vn 0.997200 0.000000 0.074700
vn 0.290300 0.000000 -0.956900
vn 0.898800 0.000000 -0.438400
vn 0.000000 0.000000 -1.000000
vn 0.471400 0.000000 -0.881900
vn -0.898800 0.000000 -0.438400
vn 0.634400 0.000000 -0.773000
vn -0.997200 0.000000 0.074700
vn -0.290300 0.000000 -0.956900
vn 0.773000 0.000000 -0.634400
vn 0.881900 0.000000 -0.471400
vn 0.000000 0.000000 1.000000
vn 0.956900 0.000000 -0.290300
vn 0.995200 0.000000 0.098000
vn 0.995200 0.000000 -0.098000
vn -0.005200 -1.000000 -0.005100
vn -0.995200 0.000000 0.098000
vn -0.995200 0.000000 -0.098000
vn 0.471400 0.000000 0.881900
vn 0.956900 0.000000 0.290300
vn 0.898800 0.000000 0.438400
vn 0.997200 0.000000 -0.074700
vn -0.898800 0.000000 0.438400
vn -0.997200 0.000000 -0.074700
vn -0.881900 0.000000 0.471400
vn -0.956900 0.000000 0.290300
vn -0.956900 0.000000 -0.290300
vn -0.471400 0.000000 -0.881900
vn 0.881900 0.000000 0.471400
vn -0.712500 0.000000 0.701700
vn -0.098000 0.000000 0.995200
vn 0.712500 0.000000 0.701700
vn -0.881900 0.000000 -0.471400
vn -0.634400 0.000000 -0.773000
vn 0.773000 0.000000 0.634400
vn 0.098000 0.000000 0.995200
vn -0.712400 0.000000 0.701800
vn -0.773000 0.000000 0.634400
vn -0.773000 0.000000 -0.634400
vn 0.634400 0.000000 0.773000
vn -0.634400 0.000000 0.773000
vn 0.290300 0.000000 0.956900
vn -0.471400 0.000000 0.881900
vn -0.290300 0.000000 0.956900
vn 0.712400 0.000000 0.701800
vn 1.000000 0.000000 0.000000
vn -1.000000 0.000000 0.000000
s off
f 25//1 26//1 27//1
f 28//1 25//1 27//1
f 25//2 29//2 26//2
f 27//3 26//3 29//3
f 28//4 27//4 30//4
f 31//5 25//5 28//5
f 32//2 29//2 25//2
f 30//3 27//3 29//3
f 28//4 30//4 33//4
f 34//5 31//5 28//5
f 35//2 25//2 31//2
f 25//2 37//2 32//2
f 30//6 29//6 32//6
f 28//4 33//4 38//4
f 33//6 30//6 32//6
f 34//4 28//4 40//4
f 41//7 31//7 34//7
f 42//8 43//8 44//8
f 43//2 25//2 35//2
f 36//7 31//7 41//7
f 25//2 49//2 37//2
f 33//9 32//9 37//9
f 28//4 38//4 50//4
f 38//9 33//9 37//9
f 40//4 28//4 44//4
f 51//2 52//2 42//2
f 44//4 110//4 74//4
f 43//2 52//2 63//2
f 45//4 53//4 54//4
f 46//10 54//10 47//10
f 47//10 54//10 51//10
f 25//2 55//2 49//2
f 50//11 38//11 49//11
f 28//4 50//4 56//4
f 36//2 35//2 31//2
f 51//12 54//12 52//12
f 58//4 53//4 44//4
f 44//4 28//4 64//4
f 78//13 68//13 77//13
f 25//2 59//2 55//2
f 50//14 49//14 55//14
f 28//4 56//4 60//4
f 56//14 50//14 55//14
f 53//3 61//3 52//3
f 57//2 62//2 25//2
f 43//2 106//2 107//2
f 43//2 63//2 82//2
f 65//4 53//4 58//4
f 25//2 66//2 59//2
f 56//15 55//15 59//15
f 28//4 60//4 67//4
f 60//15 56//15 59//15
f 68//4 61//4 53//4
f 61//3 69//3 52//3
f 57//2 70//2 62//2
f 25//2 62//2 66//2
f 52//2 71//2 63//2
f 44//4 64//4 86//4
f 28//4 73//4 64//4
f 119//16 118//16 123//16
f 58//4 75//4 65//4
f 53//4 65//4 76//4
f 60//17 59//17 66//17
f 28//4 67//4 73//4
f 67//17 60//17 66//17
f 53//4 77//4 68//4
f 68//1 78//1 61//1
f 78//1 69//1 61//1
f 52//2 69//2 78//2
f 70//2 57//2 79//2
f 73//18 62//18 70//18
f 67//19 66//19 62//19
f 52//2 80//2 71//2
f 63//2 71//2 81//2
f 95//2 106//2 82//2
f 72//2 83//2 57//2
f 64//4 73//4 84//4
f 74//4 85//4 58//4
f 98//20 123//20 86//20
f 58//4 87//4 75//4
f 75//21 81//21 65//21
f 53//4 76//4 88//4
f 65//22 71//22 76//22
f 73//19 67//19 62//19
f 89//4 77//4 53//4
f 90//13 78//13 77//13
f 134//23 130//23 114//23
f 52//2 78//2 90//2
f 84//24 70//24 79//24
f 57//2 91//2 79//2
f 84//18 73//18 70//18
f 52//2 92//2 80//2
f 71//22 80//22 76//22
f 63//2 81//2 93//2
f 81//21 71//21 65//21
f 63//2 94//2 82//2
f 123//4 44//4 86//4
f 83//25 72//25 96//25
f 64//26 57//26 83//26
f 64//4 84//4 97//4
f 85//27 74//27 82//27
f 58//28 85//28 94//28
f 64//4 96//4 86//4
f 93//29 87//29 99//29
f 58//4 99//4 87//4
f 87//30 93//30 75//30
f 93//30 81//30 75//30
f 53//4 88//4 100//4
f 76//31 80//31 88//31
f 53//4 101//4 89//4
f 89//32 102//32 77//32
f 102//32 90//32 77//32
f 52//2 90//2 102//2
f 97//24 84//24 79//24
f 57//2 103//2 91//2
f 97//33 79//33 91//33
f 52//2 104//2 92//2
f 80//31 92//31 88//31
f 63//2 93//2 105//2
f 63//28 58//28 94//28
f 94//27 85//27 82//27
f 82//34 74//34 95//34
f 72//2 43//2 107//2
f 96//26 64//26 83//26
f 72//25 86//25 96//25
f 57//35 64//35 108//35
f 97//4 109//4 64//4
f 57//2 43//2 72//2
f 86//36 107//36 111//36
f 58//4 112//4 99//4
f 105//29 93//29 99//29
f 54//12 53//12 52//12
f 53//4 100//4 101//4
f 88//37 92//37 100//37
f 89//38 101//38 102//38
f 52//2 102//2 113//2
f 57//2 114//2 103//2
f 109//39 91//39 103//39
f 109//33 97//33 91//33
f 52//2 113//2 104//2
f 92//37 104//37 100//37
f 63//2 105//2 115//2
f 116//40 128//40 63//40
f 74//41 110//41 117//41
f 95//8 118//8 106//8
f 106//8 118//8 119//8
f 86//36 72//36 107//36
f 57//2 108//2 120//2
f 64//35 121//35 108//35
f 64//4 109//4 122//4
f 110//4 44//4 123//4
f 123//16 98//16 111//16
f 118//16 117//16 123//16
f 58//4 124//4 112//4
f 112//42 115//42 99//42
f 115//42 105//42 99//42
f 100//43 104//43 101//43
f 101//38 113//38 102//38
f 57//2 125//2 114//2
f 122//44 103//44 114//44
f 122//39 109//39 103//39
f 104//43 113//43 101//43
f 63//2 115//2 126//2
f 127//2 116//2 63//2
f 38//11 37//11 49//11
f 57//2 120//2 125//2
f 129//40 120//40 108//40
f 64//4 129//4 121//4
f 121//40 129//40 108//40
f 64//4 122//4 130//4
f 58//4 131//4 124//4
f 124//45 126//45 112//45
f 126//45 115//45 112//45
f 125//23 134//23 114//23
f 130//44 122//44 114//44
f 63//2 126//2 132//2
f 132//2 127//2 63//2
f 116//35 127//35 133//35
f 128//35 116//35 133//35
f 58//4 128//4 133//4
f 134//46 125//46 120//46
f 129//46 134//46 120//46
f 134//4 129//4 64//4
f 64//4 130//4 134//4
f 58//4 133//4 131//4
f 131//47 132//47 124//47
f 132//47 126//47 124//47
f 128//40 58//40 63//40
f 127//48 132//48 131//48
f 133//48 127//48 131//48
f 58//4 44//4 74//4
f 39//4 34//4 40//4
f 39//7 41//7 34//7
f 47//8 48//8 42//8
f 45//8 46//8 47//8
f 42//8 44//8 45//8
f 41//8 39//8 40//8
f 35//8 36//8 41//8
f 44//8 43//8 35//8
f 45//8 47//8 42//8
f 35//8 40//8 44//8
f 40//8 35//8 41//8
f 48//2 51//2 42//2
f 42//2 52//2 43//2
f 45//4 44//4 53//4
f 46//4 45//4 54//4
f 48//10 47//10 51//10
f 106//2 43//2 82//2
f 98//49 86//49 111//49
f 95//34 74//34 117//34
f 107//8 106//8 119//8
f 117//16 110//16 123//16
f 57//2 25//2 43//2
f 111//50 107//50 119//50
f 95//16 117//16 118//16
f 123//16 111//16 119//16
s 1
f 1//51 2//51 3//51
f 3//4 4//4 5//4
f 6//16 1//16 7//16
f 2//8 8//8 4//8
f 8//50 6//50 5//50
f 1//2 6//2 8//2
f 9//51 10//51 11//51
f 12//16 9//16 13//16
f 14//2 10//2 9//2
f 10//8 14//8 15//8
f 14//50 12//50 16//50
f 11//4 15//4 16//4
f 17//51 18//51 19//51
f 20//4 19//4 21//4
f 22//16 17//16 20//16
f 17//2 22//2 23//2
f 18//8 23//8 21//8
f 23//50 22//50 24//50
f 7//51 1//51 3//51
f 7//4 3//4 5//4
f 5//16 6//16 7//16
f 3//8 2//8 4//8
f 4//50 8//50 5//50
f 2//2 1//2 8//2
f 13//51 9//51 11//51
f 16//16 12//16 13//16
f 12//2 14//2 9//2
f 11//8 10//8 15//8
f 15//50 14//50 16//50
f 13//4 11//4 16//4
f 20//51 17//51 19//51
f 24//4 20//4 21//4
f 24//16 22//16 20//16
f 18//2 17//2 23//2
f 19//8 18//8 21//8
f 21//50 23//50 24//50
