# Blender v2.75 (sub 0) OBJ File: 'tail_d2u_f2.blend'
# www.blender.org
v 1.785550 -0.375000 -4.342878
v 1.785550 0.375000 -4.342878
v 3.154090 -0.375000 -7.148800
v 3.154090 0.375000 -7.148800
v 2.345910 -0.375000 -4.351200
v 2.345910 0.375000 -4.351200
v 3.714450 -0.375000 -7.157122
v 3.714450 0.375000 -7.157122
vn -0.898800 0.000000 -0.438400
vn -0.014900 0.000000 -0.999900
vn 0.898800 0.000000 0.438400
vn 0.014900 0.000000 0.999900
vn 0.000000 -1.000000 0.000000
vn 0.000000 1.000000 -0.000000
vn -0.014800 0.000000 -0.999900
vn 0.014800 0.000000 0.999900
s off
f 4//1 3//1 1//1
f 8//2 7//2 3//2
f 6//3 5//3 7//3
f 2//4 1//4 5//4
f 3//5 7//5 5//5
f 6//6 8//6 4//6
f 2//1 4//1 1//1
f 4//7 8//7 3//7
f 8//3 6//3 7//3
f 6//8 2//8 5//8
f 1//5 3//5 5//5
f 2//6 6//6 4//6
v 0.035550 -0.375000 -0.342878
v 0.035550 0.375000 -0.342878
v 1.404090 -0.375000 -3.148800
v 1.404090 0.375000 -3.148800
v 0.595910 -0.375000 -0.351200
v 0.595910 0.375000 -0.351200
v 1.964450 -0.375000 -3.157122
v 1.964450 0.375000 -3.157122
vn -0.898800 0.000000 -0.438400
vn -0.014900 0.000000 -0.999900
vn 0.898800 0.000000 0.438400
vn 0.014800 0.000000 0.999900
vn 0.000000 -1.000000 0.000000
vn 0.000000 1.000000 -0.000000
vn -0.014800 0.000000 -0.999900
s off
f 12//9 11//9 9//9
f 16//10 15//10 11//10
f 14//11 13//11 15//11
f 10//12 9//12 13//12
f 11//13 15//13 13//13
f 14//14 16//14 12//14
f 10//9 12//9 9//9
f 12//15 16//15 11//15
f 16//11 14//11 15//11
f 14//12 10//12 13//12
f 9//13 11//13 13//13
f 10//14 14//14 12//14
v -1.785549 -0.375000 -4.342878
v -1.785549 0.375000 -4.342878
v -3.154089 -0.375000 -7.148800
v -3.154089 0.375000 -7.148800
v -2.345909 -0.375000 -4.351200
v -2.345909 0.375000 -4.351200
v -3.714449 -0.375000 -7.157122
v -3.714449 0.375000 -7.157122
vn 0.898800 0.000000 -0.438400
vn 0.014900 0.000000 -0.999900
vn -0.898800 0.000000 0.438400
vn -0.014900 0.000000 0.999900
vn 0.000000 -1.000000 -0.000000
vn 0.000000 1.000000 0.000000
vn 0.014800 0.000000 -0.999900
vn -0.014800 0.000000 0.999900
s off
f 17//16 19//16 20//16
f 19//17 23//17 24//17
f 23//18 21//18 22//18
f 21//19 17//19 18//19
f 21//20 23//20 19//20
f 22//21 18//21 20//21
f 18//16 17//16 20//16
f 20//22 19//22 24//22
f 24//18 23//18 22//18
f 22//23 21//23 18//23
f 17//20 21//20 19//20
f 24//21 22//21 20//21
v -0.035550 -0.375000 -0.342878
v -0.035550 0.375000 -0.342878
v -1.404090 -0.375000 -3.148800
v -1.404090 0.375000 -3.148800
v -0.595910 -0.375000 -0.351200
v -0.595910 0.375000 -0.351200
v -1.964450 -0.375000 -3.157122
v -1.964450 0.375000 -3.157122
vn 0.898800 0.000000 -0.438400
vn 0.014900 0.000000 -0.999900
vn -0.898800 0.000000 0.438400
vn -0.014800 0.000000 0.999900
vn 0.000000 -1.000000 -0.000000
vn 0.000000 1.000000 0.000000
vn 0.014800 0.000000 -0.999900
s off
f 25//24 27//24 28//24
f 27//25 31//25 32//25
f 31//26 29//26 30//26
f 29//27 25//27 26//27
f 29//28 31//28 27//28
f 30//29 26//29 28//29
f 26//24 25//24 28//24
f 28//30 27//30 32//30
f 32//26 31//26 30//26
f 30//27 29//27 26//27
f 25//28 29//28 27//28
f 32//29 30//29 28//29
