# Blender v2.75 (sub 0) OBJ File: 'tail_d2r_dig_f2_projection.blend'
# www.blender.org
v 3.875000 0.019993 3.875000
v 8.000000 0.019991 3.875000
v 8.000000 -0.020000 3.875000
v 8.000000 -0.019997 -3.875000
v 8.000000 0.019994 -3.875000
v 2.345910 -0.019999 3.875000
v -3.714449 -0.019999 0.842878
v -3.875000 -0.019998 -0.000000
v -3.875000 0.019995 0.000000
v 3.875000 -0.019998 3.875000
v 0.595910 -0.020001 7.648800
v 0.595910 0.019995 7.648800
v -0.595910 0.019995 7.648800
v 1.964450 -0.019999 4.842878
v 1.964450 0.019997 4.842878
v -2.345909 -0.019999 3.648800
v -2.345909 0.019997 3.648800
v -3.714449 0.019997 0.842878
v -1.964450 -0.019999 4.842878
v -0.595910 -0.020001 7.648800
v -1.964450 0.019997 4.842878
v 2.345910 0.019997 3.875000
v 0.375000 0.019999 -5.750000
v 3.125000 -0.019999 -5.750000
v 0.375000 -0.019999 -5.750000
v 3.125000 0.019999 -5.750000
v -3.407122 -0.019999 -3.660550
v -0.592877 0.019999 -5.589450
v -0.592877 -0.019999 -5.589450
v -3.398802 0.019999 -4.220911
v -3.398802 -0.019999 -4.220911
v -3.407122 0.019999 -3.660550
v 4.342877 0.019999 -5.589450
v 4.342877 -0.019999 -5.589450
v 7.148802 0.019999 -4.220911
v 7.148802 -0.019999 -4.220911
v -3.875000 0.019999 -3.125000
v -3.875000 -0.019999 -3.125000
v -3.875000 -0.019999 -0.375000
v -3.875000 0.019999 -0.375000
vn 0.000000 1.000000 0.000000
vn 0.000000 0.000000 1.000000
vn -0.753100 0.000000 -0.657900
vn 1.000000 0.000000 0.000000
vn -0.000000 -1.000000 0.000000
vn 0.130700 0.000000 -0.991400
vn -0.999900 0.000000 -0.014800
vn 0.898800 0.000000 0.438400
vn -0.898800 0.000000 0.438400
vn -0.952600 0.000000 0.304300
vn 0.930400 0.000000 0.366700
vn -0.982300 0.000000 0.187100
vn 0.376500 0.000000 -0.926400
vn -1.000000 0.000000 0.000000
vn -0.163600 0.000000 -0.986500
vn 0.000000 0.000000 -1.000000
vn -0.438400 0.000000 -0.898800
vn 0.438400 0.000000 -0.898800
vn -0.000100 1.000000 0.000000
s off
f 22//1 26//1 23//1
f 1//2 10//2 2//2
f 32//3 27//3 38//3
f 5//4 2//4 3//4
f 39//5 6//5 7//5
f 8//5 39//5 7//5
f 34//6 24//6 26//6
f 4//4 5//4 3//4
f 30//7 31//7 27//7
f 11//2 12//2 13//2
f 12//8 11//8 14//8
f 15//8 12//8 14//8
f 7//9 16//9 17//9
f 18//9 7//9 17//9
f 13//9 21//9 20//9
f 10//2 3//2 2//2
f 21//10 17//10 16//10
f 15//11 14//11 6//11
f 20//2 11//2 13//2
f 7//12 18//12 8//12
f 15//1 17//1 21//1
f 16//5 7//5 6//5
f 19//10 21//10 16//10
f 22//11 15//11 6//11
f 17//1 15//1 22//1
f 12//1 21//1 13//1
f 15//1 21//1 12//1
f 14//5 11//5 20//5
f 19//5 14//5 20//5
f 6//5 14//5 16//5
f 14//5 19//5 16//5
f 1//2 22//2 6//2
f 25//5 6//5 39//5
f 36//13 35//13 5//13
f 32//1 37//1 40//1
f 10//2 1//2 6//2
f 18//1 17//1 22//1
f 22//1 40//1 18//1
f 39//14 8//14 9//14
f 23//15 25//15 29//15
f 23//16 24//16 25//16
f 26//16 24//16 23//16
f 30//17 29//17 31//17
f 32//7 30//7 27//7
f 28//17 29//17 30//17
f 18//12 9//12 8//12
f 35//18 36//18 34//18
f 33//18 35//18 34//18
f 37//14 38//14 39//14
f 40//14 37//14 39//14
f 28//1 30//1 32//1
f 40//1 23//1 28//1
f 22//1 33//1 26//1
f 1//1 5//1 35//1
f 5//1 1//1 2//1
f 23//1 40//1 22//1
f 40//1 28//1 32//1
f 22//1 1//1 33//1
f 35//1 33//1 1//1
f 37//3 32//3 38//3
f 33//6 34//6 26//6
f 10//5 34//5 36//5
f 10//5 4//5 3//5
f 34//5 10//5 6//5
f 21//9 19//9 20//9
f 39//5 38//5 27//5
f 27//5 31//5 29//5
f 6//5 25//5 24//5
f 10//5 36//5 4//5
f 29//5 25//5 39//5
f 39//5 27//5 29//5
f 6//5 24//5 34//5
f 4//13 36//13 5//13
f 40//14 39//14 9//14
f 28//15 23//15 29//15
f 40//19 9//19 18//19
