# Blender v2.75 (sub 0) OBJ File: 'tail_d2r_dig_f1.blend'
# www.blender.org
v -5.154089 1.124999 -0.351200
v -5.154089 -1.125000 -0.351200
v -3.785551 -1.124999 -3.157122
v -5.714449 1.124999 -0.342878
v -5.714449 -1.125000 -0.342878
v -4.345911 1.125000 -3.148800
v -4.345911 -1.124999 -3.148800
v -3.785551 1.125000 -3.157122
vn 0.898800 0.000000 0.438400
vn 0.014800 -0.000000 0.999900
vn -0.898800 0.000000 -0.438400
vn -0.014900 0.000000 -0.999900
vn -0.000000 -1.000000 -0.000000
vn 0.000000 1.000000 0.000000
vn -0.014800 0.000000 -0.999900
s off
f 1//1 2//1 3//1
f 4//2 5//2 2//2
f 6//3 7//3 5//3
f 8//4 3//4 7//4
f 2//5 5//5 7//5
f 6//6 4//6 1//6
f 8//1 1//1 3//1
f 1//2 4//2 2//2
f 4//3 6//3 5//3
f 6//7 8//7 7//7
f 3//5 2//5 7//5
f 8//6 6//6 1//6
v 7.125000 0.750000 3.375001
v 7.125000 -0.750000 3.375001
v 4.375000 -0.750000 3.375001
v 7.125000 0.750000 3.875001
v 7.125000 -0.750000 3.875001
v 4.375000 0.750000 3.875001
v 4.375000 -0.750000 3.875001
v 4.375000 0.750000 3.375001
vn 0.000000 0.000000 -1.000000
vn 1.000000 0.000000 0.000000
vn 0.000000 0.000000 1.000000
vn -1.000000 0.000000 0.000000
vn 0.000000 -1.000000 -0.000000
vn 0.000000 1.000000 0.000000
s off
f 9//8 10//8 11//8
f 12//9 13//9 10//9
f 14//10 15//10 13//10
f 16//11 11//11 15//11
f 10//12 13//12 15//12
f 12//13 9//13 16//13
f 16//8 9//8 11//8
f 9//9 12//9 10//9
f 12//10 14//10 13//10
f 14//11 16//11 15//11
f 11//12 10//12 15//12
f 14//13 12//13 16//13
v 0.375000 1.125000 -5.750000
v 3.125000 -1.125000 -5.750000
v 0.375000 -1.124994 -5.750000
v 0.375000 1.125000 -5.250000
v 0.375000 -1.124994 -5.250000
v 3.125000 1.124994 -5.250000
v 3.125000 -1.125000 -5.250000
v 3.125000 1.124994 -5.750000
vn -0.000000 0.000000 -1.000000
vn -1.000000 0.000000 0.000000
vn -0.000000 0.000000 1.000000
vn 1.000000 0.000000 0.000000
vn -0.000000 -1.000000 -0.000000
vn 0.000000 1.000000 0.000000
s 1
f 17//14 18//14 19//14
f 20//15 19//15 21//15
f 22//16 21//16 23//16
f 24//17 23//17 18//17
f 19//18 23//18 21//18
f 20//19 24//19 17//19
f 24//14 18//14 17//14
f 17//15 19//15 20//15
f 20//16 21//16 22//16
f 22//17 23//17 24//17
f 18//18 23//18 19//18
f 22//19 24//19 20//19
v -0.601199 1.125000 -5.029090
v -3.407122 -1.125000 -3.660550
v -0.601199 -1.124999 -5.029090
v -0.592877 1.125000 -5.589450
v -0.592877 -1.124999 -5.589450
v -3.398802 1.124999 -4.220911
v -3.398802 -1.125000 -4.220911
v -3.407122 1.124999 -3.660550
vn 0.438400 0.000000 0.898800
vn 0.999900 0.000000 0.014800
vn -0.438400 0.000000 -0.898800
vn -0.999900 0.000000 -0.014800
vn 0.000000 -1.000000 -0.000000
vn -0.000000 1.000000 0.000000
s off
f 25//20 26//20 27//20
f 28//21 27//21 29//21
f 30//22 29//22 31//22
f 32//23 31//23 26//23
f 27//24 31//24 29//24
f 30//25 25//25 28//25
f 32//20 26//20 25//20
f 25//21 27//21 28//21
f 28//22 29//22 30//22
f 30//23 31//23 32//23
f 26//24 31//24 27//24
f 32//25 25//25 30//25
v 4.351199 0.750000 -5.029090
v 4.351199 -0.750000 -5.029090
v 7.157122 -0.750000 -3.660550
v 4.342877 0.750000 -5.589450
v 4.342877 -0.749999 -5.589450
v 7.148802 0.750000 -4.220911
v 7.148802 -0.750000 -4.220911
v 7.157122 0.749999 -3.660550
vn -0.438400 0.000000 0.898800
vn -0.999900 0.000000 0.014800
vn 0.438400 0.000000 -0.898800
vn 0.999900 0.000000 -0.014800
vn 0.000000 -1.000000 -0.000000
vn -0.000000 1.000000 0.000000
s off
f 33//26 34//26 35//26
f 36//27 37//27 34//27
f 38//28 39//28 37//28
f 40//29 35//29 39//29
f 34//30 37//30 39//30
f 38//31 36//31 33//31
f 40//26 33//26 35//26
f 33//27 36//27 34//27
f 36//28 38//28 37//28
f 38//29 40//29 39//29
f 35//30 34//30 39//30
f 40//31 38//31 33//31
v -1.000000 -0.750000 7.750000
v -1.000000 0.750000 7.750000
v -1.000000 -0.750000 7.250000
v -1.000000 0.750000 7.250000
v 1.000000 -0.750000 7.750000
v 1.000000 0.750000 7.750000
v 1.000000 -0.750000 7.250000
v 1.000000 0.750000 7.250000
vn -1.000000 0.000000 0.000000
vn 0.000000 0.000000 -1.000000
vn 1.000000 0.000000 0.000000
vn 0.000000 0.000000 1.000000
vn 0.000000 -1.000000 0.000000
vn 0.000000 1.000000 0.000000
s off
f 44//32 43//32 41//32
f 48//33 47//33 43//33
f 46//34 45//34 47//34
f 42//35 41//35 45//35
f 43//36 47//36 45//36
f 48//37 44//37 42//37
f 42//32 44//32 41//32
f 44//33 48//33 43//33
f 48//34 46//34 47//34
f 46//35 42//35 45//35
f 41//36 43//36 45//36
f 46//37 48//37 42//37
v -3.660550 -1.125000 3.657122
v -5.029090 -1.124999 0.851200
v -5.029090 1.125000 0.851200
v -5.589450 -1.124999 0.842878
v -5.589450 1.125000 0.842878
v -4.220910 -1.125000 3.648800
v -4.220910 1.124999 3.648800
v -3.660550 1.124999 3.657122
vn 0.898800 0.000000 -0.438400
vn 0.014800 0.000000 -0.999900
vn -0.898800 0.000000 0.438400
vn -0.014800 -0.000000 0.999900
vn 0.000000 -1.000000 -0.000000
vn -0.000000 1.000000 0.000000
s off
f 49//38 50//38 51//38
f 50//39 52//39 53//39
f 52//40 54//40 55//40
f 54//41 49//41 56//41
f 54//42 52//42 50//42
f 55//43 56//43 51//43
f 56//38 49//38 51//38
f 51//39 50//39 53//39
f 53//40 52//40 55//40
f 55//41 54//41 56//41
f 49//42 54//42 50//42
f 53//43 55//43 51//43
v 3.154090 0.750000 4.851200
v 3.154090 -0.749999 4.851200
v 1.785550 -0.750000 7.657122
v 3.714450 0.750000 4.842878
v 3.714450 -0.749999 4.842878
v 2.345910 0.749999 7.648800
v 2.345910 -0.750000 7.648800
v 1.785550 0.749999 7.657122
vn -0.898800 0.000000 -0.438400
vn -0.014900 0.000000 -0.999900
vn 0.898800 0.000000 0.438400
vn 0.014900 0.000000 0.999900
vn -0.000000 -1.000000 -0.000000
vn 0.000000 1.000000 0.000000
vn -0.014800 0.000000 -0.999900
s off
f 57//44 58//44 59//44
f 60//45 61//45 58//45
f 62//46 63//46 61//46
f 64//47 59//47 63//47
f 58//48 61//48 63//48
f 62//49 60//49 57//49
f 64//44 57//44 59//44
f 57//50 60//50 58//50
f 60//46 62//46 61//46
f 62//47 64//47 63//47
f 59//48 58//48 63//48
f 64//49 62//49 57//49
v -1.785550 -0.750000 7.657122
v -3.154090 -0.749999 4.851200
v -3.154090 0.750000 4.851200
v -3.714450 -0.749999 4.842878
v -3.714450 0.750000 4.842878
v -2.345910 -0.750000 7.648800
v -2.345910 0.749999 7.648800
v -1.785550 0.749999 7.657122
vn 0.898800 0.000000 -0.438400
vn 0.014900 0.000000 -0.999900
vn -0.898800 0.000000 0.438400
vn -0.014900 0.000000 0.999900
vn 0.000000 -1.000000 -0.000000
vn -0.000000 1.000000 0.000000
vn 0.014800 0.000000 -0.999900
s off
f 65//51 66//51 67//51
f 66//52 68//52 69//52
f 68//53 70//53 71//53
f 70//54 65//54 72//54
f 70//55 68//55 66//55
f 71//56 72//56 67//56
f 72//51 65//51 67//51
f 67//57 66//57 69//57
f 69//53 68//53 71//53
f 71//54 70//54 72//54
f 65//55 70//55 66//55
f 69//56 71//56 67//56
