# Blender v2.75 (sub 0) OBJ File: 'tail_d2u_dig_f1.blend'
# www.blender.org
v -3.660550 -1.125000 3.657122
v -5.029090 -1.124999 0.851200
v -5.029090 1.125000 0.851200
v -5.589450 -1.124999 0.842878
v -5.589450 1.125000 0.842878
v -4.220910 -1.125000 3.648800
v -4.220910 1.124999 3.648800
v -3.660550 1.124999 3.657122
vn 0.898800 0.000000 -0.438400
vn 0.014800 0.000000 -0.999900
vn -0.898800 0.000000 0.438400
vn -0.014800 -0.000000 0.999900
vn 0.000000 -1.000000 -0.000000
vn -0.000000 1.000000 0.000000
s off
f 1//1 2//1 3//1
f 2//2 4//2 5//2
f 4//3 6//3 7//3
f 6//4 1//4 8//4
f 6//5 4//5 2//5
f 7//6 8//6 3//6
f 8//1 1//1 3//1
f 3//2 2//2 5//2
f 5//3 4//3 7//3
f 7//4 6//4 8//4
f 1//5 6//5 2//5
f 5//6 7//6 3//6
v 3.154090 0.750000 4.851200
v 3.154090 -0.749999 4.851200
v 1.785550 -0.750000 7.657122
v 3.714450 0.750000 4.842878
v 3.714450 -0.749999 4.842878
v 2.345910 0.749999 7.648800
v 2.345910 -0.750000 7.648800
v 1.785550 0.749999 7.657122
vn -0.898800 0.000000 -0.438400
vn -0.014900 0.000000 -0.999900
vn 0.898800 0.000000 0.438400
vn 0.014900 0.000000 0.999900
vn -0.000000 -1.000000 -0.000000
vn 0.000000 1.000000 0.000000
vn -0.014800 0.000000 -0.999900
s off
f 9//7 10//7 11//7
f 12//8 13//8 10//8
f 14//9 15//9 13//9
f 16//10 11//10 15//10
f 10//11 13//11 15//11
f 14//12 12//12 9//12
f 16//7 9//7 11//7
f 9//13 12//13 10//13
f 12//9 14//9 13//9
f 14//10 16//10 15//10
f 11//11 10//11 15//11
f 16//12 14//12 9//12
v 5.029090 1.125000 0.851200
v 5.029090 -1.124999 0.851200
v 3.660550 -1.125000 3.657122
v 5.589450 1.125000 0.842878
v 5.589450 -1.124999 0.842878
v 4.220910 1.124999 3.648800
v 4.220910 -1.125000 3.648800
v 3.660550 1.124999 3.657122
vn -0.898800 0.000000 -0.438400
vn -0.014800 0.000000 -0.999900
vn 0.898800 0.000000 0.438400
vn 0.014800 -0.000000 0.999900
vn -0.000000 -1.000000 -0.000000
vn 0.000000 1.000000 0.000000
s off
f 17//14 18//14 19//14
f 20//15 21//15 18//15
f 22//16 23//16 21//16
f 24//17 19//17 23//17
f 18//18 21//18 23//18
f 22//19 20//19 17//19
f 24//14 17//14 19//14
f 17//15 20//15 18//15
f 20//16 22//16 21//16
f 22//17 24//17 23//17
f 19//18 18//18 23//18
f 24//19 22//19 17//19
v -1.785550 -0.750000 7.657122
v -3.154090 -0.749999 4.851200
v -3.154090 0.750000 4.851200
v -3.714450 -0.749999 4.842878
v -3.714450 0.750000 4.842878
v -2.345910 -0.750000 7.648800
v -2.345910 0.749999 7.648800
v -1.785550 0.749999 7.657122
vn 0.898800 0.000000 -0.438400
vn 0.014900 0.000000 -0.999900
vn -0.898800 0.000000 0.438400
vn -0.014900 0.000000 0.999900
vn 0.000000 -1.000000 -0.000000
vn -0.000000 1.000000 0.000000
vn 0.014800 0.000000 -0.999900
s off
f 25//20 26//20 27//20
f 26//21 28//21 29//21
f 28//22 30//22 31//22
f 30//23 25//23 32//23
f 30//24 28//24 26//24
f 31//25 32//25 27//25
f 32//20 25//20 27//20
f 27//26 26//26 29//26
f 29//22 28//22 31//22
f 31//23 30//23 32//23
f 25//24 30//24 26//24
f 29//25 31//25 27//25
v -5.750000 1.125000 -3.125000
v -5.750000 -1.124999 -3.125000
v -5.750000 -1.125000 -0.375000
v -5.250000 1.125000 -3.125000
v -5.250000 -1.124999 -3.125000
v -5.250000 1.124999 -0.375000
v -5.250000 -1.125000 -0.375000
v -5.750000 1.124999 -0.375000
vn -1.000000 0.000000 0.000000
vn 0.000000 0.000000 -1.000000
vn 1.000000 -0.000000 0.000000
vn 0.000000 -0.000000 1.000000
vn 0.000000 -1.000000 -0.000000
vn 0.000000 1.000000 0.000000
s 1
f 33//27 34//27 35//27
f 36//28 37//28 34//28
f 38//29 39//29 37//29
f 40//30 35//30 39//30
f 34//31 37//31 39//31
f 36//32 33//32 40//32
f 40//27 33//27 35//27
f 33//28 36//28 34//28
f 36//29 38//29 37//29
f 38//30 40//30 39//30
f 35//31 34//31 39//31
f 38//32 36//32 40//32
v 5.250000 1.125000 -3.125000
v 5.250000 -1.124999 -3.125000
v 5.250000 -1.125000 -0.375000
v 5.750000 1.125000 -3.125000
v 5.750000 -1.124999 -3.125000
v 5.750000 1.124999 -0.375000
v 5.750000 -1.125000 -0.375000
v 5.250000 1.124999 -0.375000
vn -1.000000 -0.000000 0.000000
vn 0.000000 0.000000 -1.000000
vn 1.000000 0.000000 0.000000
vn 0.000000 -0.000000 1.000000
vn 0.000000 -1.000000 -0.000000
vn 0.000000 1.000000 0.000000
s 1
f 41//33 42//33 43//33
f 44//34 45//34 42//34
f 46//35 47//35 45//35
f 48//36 43//36 47//36
f 42//37 45//37 47//37
f 44//38 41//38 48//38
f 48//33 41//33 43//33
f 41//34 44//34 42//34
f 44//35 46//35 45//35
f 46//36 48//36 47//36
f 43//37 42//37 47//37
f 46//38 44//38 48//38
v -3.660551 -0.750000 -7.157122
v -3.660551 0.750000 -7.157122
v -5.029090 -0.750000 -4.351200
v -5.029090 0.750000 -4.351200
v -4.220911 -0.750000 -7.148800
v -4.220911 0.750000 -7.148800
v -5.589450 -0.750000 -4.342878
v -5.589450 0.750000 -4.342878
vn 0.898800 0.000000 0.438400
vn 0.014900 0.000000 0.999900
vn -0.898800 0.000000 -0.438400
vn -0.014900 0.000000 -0.999900
vn 0.000000 -1.000000 0.000000
vn 0.000000 1.000000 0.000000
vn 0.014800 0.000000 0.999900
vn -0.014800 0.000000 -0.999900
s off
f 52//39 51//39 49//39
f 56//40 55//40 51//40
f 54//41 53//41 55//41
f 50//42 49//42 53//42
f 51//43 55//43 53//43
f 54//44 56//44 52//44
f 50//39 52//39 49//39
f 52//45 56//45 51//45
f 56//41 54//41 55//41
f 54//46 50//46 53//46
f 49//43 51//43 53//43
f 50//44 54//44 52//44
v 3.660550 -0.750000 -7.157122
v 3.660550 0.750000 -7.157122
v 5.029089 -0.750000 -4.351199
v 5.029089 0.750000 -4.351199
v 4.220910 -0.750000 -7.148802
v 4.220910 0.750000 -7.148802
v 5.589449 -0.750000 -4.342878
v 5.589449 0.750000 -4.342878
vn -0.898800 0.000000 0.438400
vn -0.014800 0.000000 0.999900
vn 0.898800 0.000000 -0.438400
vn 0.014800 0.000000 -0.999900
vn 0.000000 -1.000000 0.000000
vn 0.000000 1.000000 0.000000
s off
f 57//47 59//47 60//47
f 59//48 63//48 64//48
f 63//49 61//49 62//49
f 61//50 57//50 58//50
f 61//51 63//51 59//51
f 62//52 58//52 60//52
f 58//47 57//47 60//47
f 60//48 59//48 64//48
f 64//49 63//49 62//49
f 62//50 61//50 58//50
f 57//51 61//51 59//51
f 64//52 62//52 60//52
