# Blender v2.75 (sub 0) OBJ File: 'tail_d2u_f1_projection.blend'
# www.blender.org
v -3.875000 -0.020000 0.000000
v -3.875000 0.019997 0.000000
v -3.875000 0.020000 -8.000000
v -3.875000 -0.019997 -8.000000
v 3.875000 -0.019997 -8.000000
v 3.875000 -0.020000 0.000000
v 3.875000 0.019997 0.000000
v 3.875000 0.020000 -8.000000
v 3.714450 0.020000 0.842878
v 3.714450 -0.020000 0.842878
v 2.345910 0.020000 3.648800
v 2.345910 -0.020000 3.648800
v 1.964450 0.020000 4.842878
v 1.964450 -0.020000 4.842878
v 0.595910 0.020000 7.648800
v 0.595910 -0.020000 7.648800
v -3.714449 -0.020000 0.842878
v -3.714449 0.020000 0.842878
v -2.345909 -0.020000 3.648800
v -2.345909 0.020000 3.648800
v -1.964450 -0.020000 4.842878
v -1.964450 0.020000 4.842878
v -0.595910 -0.020000 7.648800
v -0.595910 0.020000 7.648800
vn 0.000000 -1.000000 -0.000000
vn 1.000000 0.000000 0.000000
vn 0.000000 0.000000 -1.000000
vn -1.000000 0.000000 0.000000
vn 0.000000 1.000000 0.000000
vn 0.898800 0.000000 0.438400
vn 0.000000 0.000000 1.000000
vn -0.898800 0.000000 0.438400
vn -0.952600 0.000000 0.304300
vn 0.952600 0.000000 0.304300
vn -0.982300 0.000000 0.187100
vn 0.982300 0.000000 0.187100
s off
f 4//1 5//1 6//1
f 8//2 7//2 5//2
f 3//3 8//3 5//3
f 1//4 2//4 4//4
f 8//5 3//5 7//5
f 4//3 3//3 5//3
f 11//6 12//6 10//6
f 9//6 11//6 10//6
f 16//7 15//7 24//7
f 15//6 16//6 14//6
f 13//6 15//6 14//6
f 17//8 19//8 20//8
f 18//8 17//8 20//8
f 21//8 23//8 24//8
f 22//8 21//8 24//8
f 22//9 20//9 19//9
f 13//10 14//10 12//10
f 23//7 16//7 24//7
f 7//2 6//2 5//2
f 2//11 1//11 17//11
f 10//12 6//12 7//12
f 3//5 2//5 7//5
f 4//1 6//1 1//1
f 13//5 20//5 22//5
f 19//1 17//1 12//1
f 2//4 3//4 4//4
f 21//9 22//9 19//9
f 11//10 13//10 12//10
f 18//11 2//11 17//11
f 9//12 10//12 7//12
f 20//5 13//5 11//5
f 18//5 9//5 7//5
f 7//5 2//5 18//5
f 15//5 22//5 24//5
f 9//5 18//5 20//5
f 20//5 11//5 9//5
f 13//5 22//5 15//5
f 14//1 16//1 23//1
f 17//1 10//1 12//1
f 21//1 14//1 23//1
f 12//1 14//1 19//1
f 1//1 6//1 17//1
f 6//1 10//1 17//1
f 14//1 21//1 19//1
