# Blender v2.75 (sub 0) OBJ File: 'tail_d2r_f1.blend'
# www.blender.org
v -3.154089 0.375000 0.851200
v -3.154089 -0.375000 0.851200
v -1.785549 -0.375001 3.657122
v -3.714449 0.375000 0.842878
v -3.714449 -0.375000 0.842878
v -2.345909 0.374999 3.648800
v -2.345909 -0.375001 3.648800
v -1.785549 0.374999 3.657122
vn 0.898800 0.000000 -0.438400
vn 0.014800 0.000000 -0.999900
vn -0.898800 0.000000 0.438400
vn -0.014900 0.000000 0.999900
vn 0.000000 -1.000000 -0.000000
vn -0.000000 1.000000 0.000000
vn -0.014800 0.000000 0.999900
s off
f 1//1 3//1 2//1
f 4//2 2//2 5//2
f 6//3 5//3 7//3
f 8//4 7//4 3//4
f 2//5 7//5 5//5
f 6//6 1//6 4//6
f 8//1 3//1 1//1
f 1//2 2//2 4//2
f 4//3 5//3 6//3
f 6//7 7//7 8//7
f 3//5 7//5 2//5
f 8//6 1//6 6//6
v 1.404090 0.374999 4.851200
v 1.404090 -0.375001 4.851200
v 0.035550 -0.375001 7.657122
v 1.964450 0.374999 4.842878
v 1.964450 -0.375001 4.842878
v 0.595910 0.374999 7.648800
v 0.595910 -0.375001 7.648800
v 0.035550 0.374999 7.657122
vn -0.898800 0.000000 -0.438400
vn -0.014900 0.000000 -0.999900
vn 0.898800 0.000000 0.438400
vn 0.014900 0.000000 0.999900
vn 0.000000 -1.000000 -0.000000
vn -0.000000 1.000000 0.000000
vn 0.014800 0.000000 0.999900
s off
f 9//8 10//8 11//8
f 12//9 13//9 10//9
f 14//10 15//10 13//10
f 16//11 11//11 15//11
f 10//12 13//12 15//12
f 14//13 12//13 9//13
f 16//8 9//8 11//8
f 9//9 12//9 10//9
f 12//10 14//10 13//10
f 14//14 16//14 15//14
f 11//12 10//12 15//12
f 16//13 14//13 9//13
v -1.404090 0.374999 4.851200
v -1.404090 -0.375001 4.851200
v -0.035550 -0.375001 7.657122
v -1.964450 0.374999 4.842878
v -1.964450 -0.375001 4.842878
v -0.595910 0.374999 7.648800
v -0.595910 -0.375001 7.648800
v -0.035550 0.374999 7.657122
vn 0.898800 0.000000 -0.438400
vn 0.014900 0.000000 -0.999900
vn -0.898800 0.000000 0.438400
vn -0.014900 0.000000 0.999900
vn -0.000000 -1.000000 -0.000000
vn 0.000000 1.000000 0.000000
vn -0.014800 0.000000 0.999900
s off
f 17//15 19//15 18//15
f 20//16 18//16 21//16
f 22//17 21//17 23//17
f 24//18 23//18 19//18
f 18//19 23//19 21//19
f 22//20 17//20 20//20
f 24//15 19//15 17//15
f 17//16 18//16 20//16
f 20//17 21//17 22//17
f 22//21 23//21 24//21
f 19//19 23//19 18//19
f 24//20 17//20 22//20
v 0.375000 -0.375000 -3.875000
v 0.375000 0.375000 -3.875000
v 3.125000 -0.375000 -3.875000
v 3.125000 0.375000 -3.875000
v 0.375000 -0.375000 -3.375000
v 0.375000 0.375000 -3.375000
v 3.125000 -0.375000 -3.375000
v 3.125000 0.375000 -3.375000
vn 0.000000 0.000000 -1.000000
vn 1.000000 0.000000 0.000000
vn 0.000000 0.000000 1.000000
vn -1.000000 0.000000 0.000000
vn 0.000000 -1.000000 0.000000
vn 0.000000 1.000000 0.000000
s off
f 28//22 27//22 25//22
f 32//23 31//23 27//23
f 30//24 29//24 31//24
f 26//25 25//25 29//25
f 27//26 31//26 29//26
f 32//27 28//27 26//27
f 26//22 28//22 25//22
f 28//23 32//23 27//23
f 32//24 30//24 31//24
f 30//25 26//25 29//25
f 25//26 27//26 29//26
f 30//27 32//27 26//27
v 4.375000 -0.375000 -3.874999
v 4.375000 0.375000 -3.874999
v 7.125000 -0.375000 -3.874999
v 7.125000 0.375000 -3.874999
v 4.375000 -0.375000 -3.374999
v 4.375000 0.375000 -3.374999
v 7.125000 -0.375000 -3.374999
v 7.125000 0.375000 -3.374999
vn 0.000000 0.000000 -1.000000
vn 1.000000 0.000000 0.000000
vn 0.000000 0.000000 1.000000
vn -1.000000 0.000000 0.000000
vn 0.000000 -1.000000 0.000000
vn 0.000000 1.000000 0.000000
s off
f 36//28 35//28 33//28
f 40//29 39//29 35//29
f 38//30 37//30 39//30
f 34//31 33//31 37//31
f 35//32 39//32 37//32
f 40//33 36//33 34//33
f 34//28 36//28 33//28
f 36//29 40//29 35//29
f 40//30 38//30 39//30
f 38//31 34//31 37//31
f 33//32 35//32 37//32
f 38//33 40//33 34//33
v 4.375000 -0.375000 3.375001
v 4.375000 0.375000 3.375001
v 7.125000 -0.375000 3.375001
v 7.125000 0.375000 3.375001
v 4.375000 -0.375000 3.875001
v 4.375000 0.375000 3.875001
v 7.125000 -0.375000 3.875001
v 7.125000 0.375000 3.875001
vn 0.000000 0.000000 -1.000000
vn 1.000000 0.000000 0.000000
vn 0.000000 0.000000 1.000000
vn -1.000000 0.000000 0.000000
vn 0.000000 -1.000000 0.000000
vn 0.000000 1.000000 0.000000
s off
f 44//34 43//34 41//34
f 48//35 47//35 43//35
f 46//36 45//36 47//36
f 42//37 41//37 45//37
f 43//38 47//38 45//38
f 48//39 44//39 42//39
f 42//34 44//34 41//34
f 44//35 48//35 43//35
f 48//36 46//36 47//36
f 46//37 42//37 45//37
f 41//38 43//38 45//38
f 46//39 48//39 42//39
v -3.875000 -0.375000 -0.375000
v -3.875000 0.375000 -0.375000
v -3.875000 -0.375000 -3.125000
v -3.875000 0.375000 -3.125000
v -3.375000 -0.375000 -0.375000
v -3.375000 0.375000 -0.375000
v -3.375000 -0.375000 -3.125000
v -3.375000 0.375000 -3.125000
vn -1.000000 0.000000 0.000000
vn 0.000000 0.000000 -1.000000
vn 1.000000 0.000000 0.000000
vn 0.000000 0.000000 1.000000
vn 0.000000 -1.000000 0.000000
vn 0.000000 1.000000 0.000000
s off
f 52//40 51//40 49//40
f 56//41 55//41 51//41
f 54//42 53//42 55//42
f 50//43 49//43 53//43
f 51//44 55//44 53//44
f 56//45 52//45 50//45
f 50//40 52//40 49//40
f 52//41 56//41 51//41
f 56//42 54//42 55//42
f 54//43 50//43 53//43
f 49//44 51//44 53//44
f 54//45 56//45 50//45
v -3.625000 -0.375000 -3.875000
v -3.625000 0.375000 -3.875000
v -0.875000 -0.375000 -3.875000
v -0.875000 0.375000 -3.875000
v -3.625000 -0.375000 -3.375000
v -3.625000 0.375000 -3.375000
v -0.875000 -0.375000 -3.375000
v -0.875000 0.375000 -3.375000
vn 0.000000 0.000000 -1.000000
vn 1.000000 0.000000 0.000000
vn 0.000000 0.000000 1.000000
vn -1.000000 0.000000 0.000000
vn 0.000000 -1.000000 0.000000
vn 0.000000 1.000000 0.000000
s off
f 60//46 59//46 57//46
f 64//47 63//47 59//47
f 62//48 61//48 63//48
f 58//49 57//49 61//49
f 59//50 63//50 61//50
f 64//51 60//51 58//51
f 58//46 60//46 57//46
f 60//47 64//47 59//47
f 64//48 62//48 63//48
f 62//49 58//49 61//49
f 57//50 59//50 61//50
f 62//51 64//51 58//51
