# Blender v2.75 (sub 0) OBJ File: 'tail_d2r_f2.blend'
# www.blender.org
v 4.342877 -0.375000 1.785550
v 4.342877 0.375000 1.785550
v 7.148800 -0.375000 3.154090
v 7.148800 0.375000 3.154090
v 4.351199 -0.375000 2.345910
v 4.351199 0.375000 2.345910
v 7.157122 -0.375000 3.714450
v 7.157122 0.375000 3.714450
vn 0.438400 0.000000 -0.898800
vn 0.999900 0.000000 -0.014800
vn -0.438400 0.000000 0.898800
vn -0.999900 0.000000 0.014800
vn 0.000000 -1.000000 0.000000
vn 0.000000 1.000000 0.000000
s off
f 4//1 3//1 1//1
f 8//2 7//2 3//2
f 6//3 5//3 7//3
f 2//4 1//4 5//4
f 3//5 7//5 5//5
f 6//6 8//6 4//6
f 2//1 4//1 1//1
f 4//2 8//2 3//2
f 8//3 6//3 7//3
f 6//4 2//4 5//4
f 1//5 3//5 5//5
f 2//6 6//6 4//6
v 0.342878 -0.375000 0.035550
v 0.342878 0.375000 0.035550
v 3.148800 -0.375000 1.404090
v 3.148800 0.375000 1.404090
v 0.351200 -0.375000 0.595910
v 0.351200 0.375000 0.595910
v 3.157122 -0.375000 1.964450
v 3.157122 0.375000 1.964450
vn 0.438400 0.000000 -0.898800
vn 0.999900 0.000000 -0.014800
vn -0.438400 0.000000 0.898800
vn -0.999900 0.000000 0.014800
vn 0.000000 -1.000000 0.000000
vn 0.000000 1.000000 -0.000000
s off
f 12//7 11//7 9//7
f 16//8 15//8 11//8
f 14//9 13//9 15//9
f 10//10 9//10 13//10
f 11//11 15//11 13//11
f 14//12 16//12 12//12
f 10//7 12//7 9//7
f 12//8 16//8 11//8
f 16//9 14//9 15//9
f 14//10 10//10 13//10
f 9//11 11//11 13//11
f 10//12 14//12 12//12
v 4.342878 -0.375000 -1.785549
v 4.342878 0.375000 -1.785549
v 7.148800 -0.375000 -3.154089
v 7.148800 0.375000 -3.154089
v 4.351200 -0.375000 -2.345909
v 4.351200 0.375000 -2.345909
v 7.157122 -0.375000 -3.714449
v 7.157122 0.375000 -3.714449
vn 0.438400 0.000000 0.898800
vn 0.999900 0.000000 0.014800
vn -0.438400 0.000000 -0.898800
vn -0.999900 0.000000 -0.014800
vn 0.000000 -1.000000 0.000000
vn 0.000000 1.000000 0.000000
s off
f 17//13 19//13 20//13
f 19//14 23//14 24//14
f 23//15 21//15 22//15
f 21//16 17//16 18//16
f 21//17 23//17 19//17
f 22//18 18//18 20//18
f 18//13 17//13 20//13
f 20//14 19//14 24//14
f 24//15 23//15 22//15
f 22//16 21//16 18//16
f 17//17 21//17 19//17
f 24//18 22//18 20//18
v 0.342878 -0.375000 -0.035550
v 0.342878 0.375000 -0.035550
v 3.148800 -0.375000 -1.404090
v 3.148800 0.375000 -1.404090
v 0.351200 -0.375000 -0.595910
v 0.351200 0.375000 -0.595910
v 3.157122 -0.375000 -1.964450
v 3.157122 0.375000 -1.964450
vn 0.438400 0.000000 0.898800
vn 0.999900 0.000000 0.014800
vn -0.438400 0.000000 -0.898800
vn -0.999900 0.000000 -0.014800
vn 0.000000 -1.000000 0.000000
vn 0.000000 1.000000 0.000000
s off
f 25//19 27//19 28//19
f 27//20 31//20 32//20
f 31//21 29//21 30//21
f 29//22 25//22 26//22
f 29//23 31//23 27//23
f 30//24 26//24 28//24
f 26//19 25//19 28//19
f 28//20 27//20 32//20
f 32//21 31//21 30//21
f 30//22 29//22 26//22
f 25//23 29//23 27//23
f 32//24 30//24 28//24
