# Blender v2.75 (sub 0) OBJ File: 'tail_d2l_f1.blend'
# www.blender.org
v 3.154089 0.375000 0.851200
v 1.785549 -0.375002 3.657122
v 3.154089 -0.375000 0.851200
v 3.714449 0.375000 0.842878
v 3.714449 -0.375000 0.842878
v 2.345909 0.374998 3.648800
v 2.345909 -0.375002 3.648800
v 1.785549 0.374998 3.657122
v -1.404090 0.374998 4.851200
v -1.404090 -0.375002 4.851200
v -0.035550 -0.375002 7.657122
v -1.964450 0.374998 4.842878
v -1.964450 -0.375002 4.842878
v -0.595910 0.374998 7.648800
v -0.595910 -0.375002 7.648800
v -0.035550 0.374998 7.657122
v 1.404090 0.374998 4.851200
v 0.035550 -0.375002 7.657122
v 1.404090 -0.375002 4.851200
v 1.964450 0.374998 4.842878
v 1.964450 -0.375002 4.842878
v 0.595910 0.374998 7.648800
v 0.595910 -0.375002 7.648800
v 0.035550 0.374998 7.657122
v -3.125000 0.375001 -3.875000
v -3.125000 -0.374999 -3.875000
v -0.375000 -0.374999 -3.875000
v -3.125000 0.375001 -3.375000
v -3.125000 -0.374999 -3.375000
v -0.375000 0.375001 -3.375000
v -0.375000 -0.374999 -3.375000
v -0.375000 0.375001 -3.875000
v -7.125000 0.375001 -3.874999
v -7.125000 -0.374999 -3.874999
v -4.375000 -0.374999 -3.874999
v -7.125000 0.375001 -3.374999
v -7.125000 -0.374999 -3.374999
v -4.375000 0.375001 -3.374999
v -4.375000 -0.374999 -3.374999
v -4.375000 0.375001 -3.874999
v -7.125000 0.374999 3.375001
v -7.125000 -0.375001 3.375001
v -4.375000 -0.375001 3.375001
v -7.125000 0.374999 3.875001
v -7.125000 -0.375001 3.875001
v -4.375000 0.374999 3.875001
v -4.375000 -0.375001 3.875001
v -4.375000 0.374999 3.375001
v 3.875000 0.375001 -3.125000
v 3.875000 -0.374999 -3.125000
v 3.875000 -0.375000 -0.375000
v 3.375000 0.375001 -3.125000
v 3.375000 -0.374999 -3.125000
v 3.375000 0.375000 -0.375000
v 3.375000 -0.375000 -0.375000
v 3.875000 0.375000 -0.375000
v 0.875000 0.375001 -3.875000
v 0.875000 -0.374999 -3.875000
v 3.625000 -0.374999 -3.875000
v 0.875000 0.375001 -3.375000
v 0.875000 -0.374999 -3.375000
v 3.625000 0.375001 -3.375000
v 3.625000 -0.374999 -3.375000
v 3.625000 0.375001 -3.875000
vn -0.898800 0.000000 -0.438400
vn -0.014800 0.000000 -0.999900
vn 0.898800 0.000000 0.438400
vn 0.014800 0.000000 0.999900
vn 0.014900 0.000000 0.999900
vn -0.000000 -1.000000 -0.000000
vn 0.000000 1.000000 0.000000
vn 0.898800 0.000000 -0.438400
vn 0.014900 0.000000 -0.999900
vn -0.898800 0.000000 0.438400
vn -0.014800 0.000000 0.999900
vn -0.014900 0.000000 0.999900
vn -0.014900 0.000000 -0.999900
vn 0.000000 0.000000 -1.000000
vn -1.000000 0.000000 0.000000
vn 0.000000 0.000000 1.000000
vn 1.000000 0.000000 0.000000
s 1
f 1//1 3//1 2//1
f 4//2 5//2 3//2
f 6//3 7//3 5//3
f 8//4 2//5 7//4
f 3//6 5//6 7//6
f 6//7 4//7 1//7
f 8//1 1//1 2//1
f 1//2 4//2 3//2
f 4//3 6//3 5//3
f 6//4 8//4 7//4
f 2//6 3//6 7//6
f 8//7 6//7 1//7
f 9//8 11//8 10//8
f 12//9 10//9 13//9
f 14//10 13//10 15//10
f 16//11 15//12 11//12
f 10//6 15//6 13//6
f 14//7 9//7 12//7
f 16//8 11//8 9//8
f 9//9 10//9 12//9
f 12//10 13//10 14//10
f 14//11 15//12 16//11
f 11//6 15//6 10//6
f 16//7 9//7 14//7
f 17//1 19//1 18//1
f 20//13 21//13 19//13
f 22//3 23//3 21//3
f 24//4 18//5 23//5
f 19//6 21//6 23//6
f 22//7 20//7 17//7
f 24//1 17//1 18//1
f 17//13 20//13 19//13
f 20//3 22//3 21//3
f 22//4 24//4 23//5
f 18//6 19//6 23//6
f 24//7 22//7 17//7
f 25//14 27//14 26//14
f 28//15 26//15 29//15
f 30//16 29//16 31//16
f 32//17 31//17 27//17
f 26//6 31//6 29//6
f 28//7 32//7 25//7
f 32//14 27//14 25//14
f 25//15 26//15 28//15
f 28//16 29//16 30//16
f 30//17 31//17 32//17
f 27//6 31//6 26//6
f 30//7 32//7 28//7
f 33//14 35//14 34//14
f 36//15 34//15 37//15
f 38//16 37//16 39//16
f 40//17 39//17 35//17
f 34//6 39//6 37//6
f 36//7 40//7 33//7
f 40//14 35//14 33//14
f 33//15 34//15 36//15
f 36//16 37//16 38//16
f 38//17 39//17 40//17
f 35//6 39//6 34//6
f 38//7 40//7 36//7
f 41//14 43//14 42//14
f 44//15 42//15 45//15
f 46//16 45//16 47//16
f 48//17 47//17 43//17
f 42//6 47//6 45//6
f 44//7 48//7 41//7
f 48//14 43//14 41//14
f 41//15 42//15 44//15
f 44//16 45//16 46//16
f 46//17 47//17 48//17
f 43//6 47//6 42//6
f 46//7 48//7 44//7
f 49//17 51//17 50//17
f 52//14 50//14 53//14
f 54//15 53//15 55//15
f 56//16 55//16 51//16
f 50//6 55//6 53//6
f 52//7 56//7 49//7
f 56//17 51//17 49//17
f 49//14 50//14 52//14
f 52//15 53//15 54//15
f 54//16 55//16 56//16
f 51//6 55//6 50//6
f 54//7 56//7 52//7
f 57//14 59//14 58//14
f 60//15 58//15 61//15
f 62//16 61//16 63//16
f 64//17 63//17 59//17
f 58//6 63//6 61//6
f 60//7 64//7 57//7
f 64//14 59//14 57//14
f 57//15 58//15 60//15
f 60//16 61//16 62//16
f 62//17 63//17 64//17
f 59//6 63//6 58//6
f 62//7 64//7 60//7
