# Blender v2.75 (sub 0) OBJ File: 'tail_d2l_dig_f1_projection.blend'
# www.blender.org
v -8.000000 -0.019999 -3.875000
v -3.875000 0.019995 3.875000
v -8.000000 0.019993 3.875000
v -3.875000 -0.019998 3.875000
v -8.000000 -0.020000 3.875000
v -8.000000 0.019994 -3.875000
v 5.714449 0.020000 -0.342878
v 5.714449 -0.020000 -0.342878
v 4.345911 0.020000 -3.148800
v 4.345911 -0.020000 -3.148800
v -0.375000 0.020000 -5.750000
v -3.125000 -0.020000 -5.750000
v -0.375000 -0.019999 -5.750000
v -3.125000 0.020000 -5.750000
v 0.592877 0.020000 -5.589450
v 0.592877 -0.020000 -5.589450
v 3.398802 0.020000 -4.220911
v 3.398802 -0.020000 -4.220911
v -4.342877 0.020000 -5.589450
v -4.342877 -0.020000 -5.589450
v -7.148802 0.020000 -4.220911
v -7.148802 -0.020000 -4.220911
v 1.000000 -0.020000 7.750000
v -1.000000 0.020000 7.750000
v -1.000000 -0.020000 7.750000
v 1.000000 0.020000 7.750000
v 5.589450 -0.020000 0.842878
v 5.589450 0.020000 0.842878
v 4.220910 -0.020000 3.648800
v 4.220910 0.020000 3.648800
v -3.714450 0.020000 4.842878
v -3.714450 -0.020000 4.842878
v -2.345910 0.020000 7.648800
v -2.345910 -0.020000 7.648800
v 3.714450 -0.020000 4.842878
v 3.714450 0.020000 4.842878
v 2.345910 -0.020000 7.648800
v 2.345910 0.020000 7.648800
vn 0.000000 0.000000 1.000000
vn -1.000000 0.000000 0.000000
vn -0.075000 0.000000 0.997200
vn 0.163600 0.000000 -0.986500
vn 0.898800 0.000000 -0.438400
vn -0.130700 0.000000 -0.991400
vn 0.994500 0.000000 0.104800
vn -0.000000 -1.000000 -0.000000
vn 0.920600 0.000000 0.390500
vn 0.075000 0.000000 0.997200
vn -0.986500 0.000000 0.163600
vn 0.749400 0.000000 -0.662100
vn -0.376500 0.000000 -0.926400
vn -0.000000 0.000000 -1.000000
vn 0.438400 0.000000 -0.898800
vn 0.000000 1.000000 0.000000
vn -0.438400 0.000000 -0.898800
vn 0.898800 0.000000 0.438400
vn -0.898800 0.000000 0.438400
s off
f 4//1 3//1 5//1
f 2//1 3//1 4//1
f 1//2 5//2 6//2
f 25//3 24//3 34//3
f 16//4 13//4 15//4
f 9//5 8//5 10//5
f 20//6 19//6 12//6
f 8//7 7//7 27//7
f 29//8 4//8 10//8
f 29//9 30//9 35//9
f 38//10 26//10 37//10
f 7//5 8//5 9//5
f 31//11 2//11 32//11
f 10//12 18//12 9//12
f 1//13 6//13 22//13
f 11//14 13//14 12//14
f 14//14 11//14 12//14
f 17//15 18//15 16//15
f 31//16 26//16 36//16
f 15//15 17//15 16//15
f 21//17 20//17 22//17
f 19//17 20//17 21//17
f 2//16 9//16 17//16
f 4//8 35//8 32//8
f 27//7 7//7 28//7
f 26//1 25//1 23//1
f 15//4 13//4 11//4
f 37//10 26//10 23//10
f 34//3 24//3 33//3
f 36//16 2//16 31//16
f 9//12 18//12 17//12
f 24//1 25//1 26//1
f 12//6 19//6 14//6
f 35//9 30//9 36//9
f 10//8 27//8 29//8
f 35//8 37//8 23//8
f 27//18 30//18 29//18
f 4//8 18//8 10//8
f 4//8 29//8 35//8
f 35//8 25//8 32//8
f 35//8 23//8 25//8
f 13//8 4//8 12//8
f 28//18 30//18 27//18
f 4//8 13//8 16//8
f 10//8 8//8 27//8
f 4//8 16//8 18//8
f 2//16 17//16 15//16
f 19//16 21//16 2//16
f 33//19 32//19 34//19
f 24//16 31//16 33//16
f 36//18 37//18 35//18
f 24//16 26//16 31//16
f 9//16 30//16 28//16
f 2//16 11//16 14//16
f 31//19 32//19 33//19
f 2//16 21//16 6//16
f 28//16 7//16 9//16
f 26//16 38//16 36//16
f 4//8 5//8 1//8
f 22//8 4//8 1//8
f 38//18 37//18 36//18
f 2//16 6//16 3//16
f 4//8 20//8 12//8
f 2//16 15//16 11//16
f 2//16 30//16 9//16
f 4//8 22//8 20//8
f 6//2 5//2 3//2
f 2//16 14//16 19//16
f 25//8 34//8 32//8
f 30//16 2//16 36//16
f 32//11 2//11 4//11
f 22//13 6//13 21//13
