# Blender v2.75 (sub 0) OBJ File: 'tail_d2u_dig_f2.blend'
# www.blender.org
v -5.029090 0.375000 -4.351200
v -5.029090 -0.375000 -4.351200
v -3.660551 -0.375000 -7.157122
v -5.589450 0.375000 -4.342878
v -5.589450 -0.375000 -4.342878
v -4.220911 0.375000 -7.148800
v -4.220911 -0.375000 -7.148800
v -3.660551 0.375000 -7.157122
vn 0.898800 0.000000 0.438400
vn 0.014900 0.000000 0.999900
vn -0.898800 0.000000 -0.438400
vn -0.014900 0.000000 -0.999900
vn -0.000000 -1.000000 -0.000000
vn 0.000000 1.000000 0.000000
vn 0.014800 0.000000 0.999900
vn -0.014800 0.000000 -0.999900
s off
f 1//1 2//1 3//1
f 4//2 5//2 2//2
f 6//3 7//3 5//3
f 8//4 3//4 7//4
f 2//5 5//5 7//5
f 6//6 4//6 1//6
f 8//1 1//1 3//1
f 1//7 4//7 2//7
f 4//3 6//3 5//3
f 6//8 8//8 7//8
f 3//5 2//5 7//5
f 8//6 6//6 1//6
v 5.029090 0.750000 -3.148800
v 5.029090 -0.749999 -3.148800
v 3.660550 -0.750000 -0.342878
v 5.589450 0.750000 -3.157122
v 5.589450 -0.749999 -3.157122
v 4.220910 0.749999 -0.351200
v 4.220910 -0.750000 -0.351200
v 3.660550 0.749999 -0.342878
vn -0.898800 -0.000000 -0.438400
vn -0.014900 0.000000 -0.999900
vn 0.898800 0.000000 0.438400
vn 0.014800 -0.000000 0.999900
vn -0.000000 -1.000000 -0.000000
vn 0.000000 1.000000 0.000000
vn -0.014800 0.000000 -0.999900
s off
f 9//9 10//9 11//9
f 12//10 13//10 10//10
f 14//11 15//11 13//11
f 16//12 11//12 15//12
f 10//13 13//13 15//13
f 14//14 12//14 9//14
f 16//9 9//9 11//9
f 9//15 12//15 10//15
f 12//11 14//11 13//11
f 14//12 16//12 15//12
f 11//13 10//13 15//13
f 16//14 14//14 9//14
v -3.660550 -0.750000 -0.342878
v -5.029090 -0.749999 -3.148800
v -5.029090 0.750000 -3.148800
v -5.589450 -0.749999 -3.157122
v -5.589450 0.750000 -3.157122
v -4.220910 -0.750000 -0.351200
v -4.220910 0.749999 -0.351200
v -3.660550 0.749999 -0.342878
vn 0.898800 -0.000000 -0.438400
vn 0.014900 0.000000 -0.999900
vn -0.898800 0.000000 0.438400
vn -0.014800 -0.000000 0.999900
vn 0.000000 -1.000000 -0.000000
vn -0.000000 1.000000 0.000000
vn 0.014800 0.000000 -0.999900
s off
f 17//16 18//16 19//16
f 18//17 20//17 21//17
f 20//18 22//18 23//18
f 22//19 17//19 24//19
f 22//20 20//20 18//20
f 23//21 24//21 19//21
f 24//16 17//16 19//16
f 19//22 18//22 21//22
f 21//18 20//18 23//18
f 23//19 22//19 24//19
f 17//20 22//20 18//20
f 21//21 23//21 19//21
v 3.660550 -0.375000 -7.157122
v 5.029089 -0.375000 -4.351199
v 5.029089 0.375000 -4.351199
v 5.589449 -0.375000 -4.342878
v 5.589449 0.375000 -4.342878
v 4.220910 -0.375000 -7.148802
v 4.220910 0.375000 -7.148802
v 3.660550 0.375000 -7.157122
vn -0.898800 0.000000 0.438400
vn -0.014800 0.000000 0.999900
vn 0.898800 0.000000 -0.438400
vn 0.014800 0.000000 -0.999900
vn 0.000000 -1.000000 -0.000000
vn -0.000000 1.000000 0.000000
s off
f 25//23 26//23 27//23
f 26//24 28//24 29//24
f 28//25 30//25 31//25
f 30//26 25//26 32//26
f 30//27 28//27 26//27
f 31//28 32//28 27//28
f 32//23 25//23 27//23
f 27//24 26//24 29//24
f 29//25 28//25 31//25
f 31//26 30//26 32//26
f 25//27 30//27 26//27
f 29//28 31//28 27//28
v 1.785550 -0.750000 3.657122
v 1.785550 0.750000 3.657122
v 3.154090 -0.750000 0.851200
v 3.154090 0.750000 0.851200
v 2.345910 -0.750000 3.648800
v 2.345910 0.750000 3.648800
v 3.714450 -0.750000 0.842878
v 3.714450 0.750000 0.842878
vn -0.898800 0.000000 -0.438400
vn -0.014800 0.000000 -0.999900
vn 0.898800 0.000000 0.438400
vn 0.014900 0.000000 0.999900
vn 0.000000 -1.000000 0.000000
vn 0.000000 1.000000 -0.000000
vn 0.014800 0.000000 0.999900
s off
f 36//29 35//29 33//29
f 40//30 39//30 35//30
f 38//31 37//31 39//31
f 34//32 33//32 37//32
f 35//33 39//33 37//33
f 38//34 40//34 36//34
f 34//29 36//29 33//29
f 36//30 40//30 35//30
f 40//31 38//31 39//31
f 38//35 34//35 37//35
f 33//33 35//33 37//33
f 34//34 38//34 36//34
v 0.035550 -0.375000 7.657122
v 0.035550 0.375000 7.657122
v 1.404090 -0.375000 4.851200
v 1.404090 0.375000 4.851200
v 0.595910 -0.375000 7.648800
v 0.595910 0.375000 7.648800
v 1.964450 -0.375000 4.842878
v 1.964450 0.375000 4.842878
vn -0.898800 0.000000 -0.438400
vn -0.014900 0.000000 -0.999900
vn 0.898800 0.000000 0.438400
vn 0.014900 0.000000 0.999900
vn 0.000000 -1.000000 0.000000
vn 0.000000 1.000000 -0.000000
vn -0.014800 0.000000 -0.999900
vn 0.014800 0.000000 0.999900
s off
f 44//36 43//36 41//36
f 48//37 47//37 43//37
f 46//38 45//38 47//38
f 42//39 41//39 45//39
f 43//40 47//40 45//40
f 46//41 48//41 44//41
f 42//36 44//36 41//36
f 44//42 48//42 43//42
f 48//38 46//38 47//38
f 46//43 42//43 45//43
f 41//40 43//40 45//40
f 42//41 46//41 44//41
v -1.785549 -0.750000 3.657122
v -1.785549 0.750000 3.657122
v -3.154089 -0.750000 0.851200
v -3.154089 0.750000 0.851200
v -2.345909 -0.750000 3.648800
v -2.345909 0.750000 3.648800
v -3.714449 -0.750000 0.842878
v -3.714449 0.750000 0.842878
vn 0.898800 0.000000 -0.438400
vn 0.014800 0.000000 -0.999900
vn -0.898800 0.000000 0.438400
vn -0.014900 0.000000 0.999900
vn 0.000000 -1.000000 -0.000000
vn 0.000000 1.000000 0.000000
vn -0.014800 0.000000 0.999900
s off
f 49//44 51//44 52//44
f 51//45 55//45 56//45
f 55//46 53//46 54//46
f 53//47 49//47 50//47
f 53//48 55//48 51//48
f 54//49 50//49 52//49
f 50//44 49//44 52//44
f 52//45 51//45 56//45
f 56//46 55//46 54//46
f 54//50 53//50 50//50
f 49//48 53//48 51//48
f 56//49 54//49 52//49
v -0.035550 -0.375000 7.657122
v -0.035550 0.375000 7.657122
v -1.404090 -0.375000 4.851200
v -1.404090 0.375000 4.851200
v -0.595910 -0.375000 7.648800
v -0.595910 0.375000 7.648800
v -1.964450 -0.375000 4.842878
v -1.964450 0.375000 4.842878
vn 0.898800 0.000000 -0.438400
vn 0.014900 0.000000 -0.999900
vn -0.898800 0.000000 0.438400
vn -0.014900 0.000000 0.999900
vn 0.000000 -1.000000 -0.000000
vn 0.000000 1.000000 0.000000
vn 0.014800 0.000000 -0.999900
vn -0.014800 0.000000 0.999900
s off
f 57//51 59//51 60//51
f 59//52 63//52 64//52
f 63//53 61//53 62//53
f 61//54 57//54 58//54
f 61//55 63//55 59//55
f 62//56 58//56 60//56
f 58//51 57//51 60//51
f 60//57 59//57 64//57
f 64//53 63//53 62//53
f 62//58 61//58 58//58
f 57//55 61//55 59//55
f 64//56 62//56 60//56
