# Blender v2.75 (sub 0) OBJ File: 'tail_d2l_f2.blend'
# www.blender.org
v -7.148800 0.374999 3.154090
v -7.148800 -0.375001 3.154090
v -4.342877 -0.375000 1.785550
v -7.157122 0.374999 3.714450
v -7.157122 -0.375001 3.714450
v -4.351199 0.375000 2.345910
v -4.351199 -0.375000 2.345910
v -4.342877 0.375000 1.785550
v -3.148800 0.375000 1.404090
v -3.148800 -0.375000 1.404090
v -0.342878 -0.375000 0.035550
v -3.157122 0.375000 1.964450
v -3.157122 -0.375000 1.964450
v -0.351200 0.375000 0.595910
v -0.351200 -0.375000 0.595910
v -0.342878 0.375000 0.035550
v -4.342878 -0.375000 -1.785549
v -7.148800 -0.374999 -3.154089
v -7.148800 0.375001 -3.154089
v -7.157122 -0.374999 -3.714449
v -7.157122 0.375001 -3.714449
v -4.351200 -0.375000 -2.345909
v -4.351200 0.375000 -2.345909
v -4.342878 0.375000 -1.785549
v -0.342878 -0.375000 -0.035550
v -3.148800 -0.375000 -1.404090
v -3.148800 0.375000 -1.404090
v -3.157122 -0.375000 -1.964450
v -3.157122 0.375000 -1.964450
v -0.351200 -0.375000 -0.595910
v -0.351200 0.375000 -0.595910
v -0.342878 0.375000 -0.035550
vn -0.438400 0.000000 -0.898800
vn -0.999900 0.000000 -0.014800
vn 0.438400 0.000000 0.898800
vn 0.999900 0.000000 0.014800
vn -0.000000 -1.000000 -0.000000
vn 0.000000 1.000000 0.000000
vn -0.438400 -0.000000 0.898800
vn -0.999900 0.000000 0.014800
vn 0.438400 0.000000 -0.898800
vn 0.999900 0.000000 -0.014800
s 1
f 1//1 3//1 2//1
f 4//2 2//2 5//2
f 6//3 5//3 7//3
f 8//4 7//4 3//4
f 2//5 7//5 5//5
f 6//6 1//6 4//6
f 8//1 3//1 1//1
f 1//2 2//2 4//2
f 4//3 5//3 6//3
f 6//4 7//4 8//4
f 3//5 7//5 2//5
f 8//6 1//6 6//6
f 9//1 11//1 10//1
f 12//2 10//2 13//2
f 14//3 13//3 15//3
f 16//4 15//4 11//4
f 10//5 15//5 13//5
f 14//6 9//6 12//6
f 16//1 11//1 9//1
f 9//2 10//2 12//2
f 12//3 13//3 14//3
f 14//4 15//4 16//4
f 11//5 15//5 10//5
f 16//6 9//6 14//6
f 17//7 19//7 18//7
f 18//8 21//8 20//8
f 20//9 23//9 22//9
f 22//10 24//10 17//10
f 22//5 18//5 20//5
f 23//6 19//6 24//6
f 24//7 19//7 17//7
f 19//8 21//8 18//8
f 21//9 23//9 20//9
f 23//10 24//10 22//10
f 17//5 18//5 22//5
f 21//6 19//6 23//6
f 25//7 27//7 26//7
f 26//8 29//8 28//8
f 28//9 31//9 30//9
f 30//10 32//10 25//10
f 30//5 26//5 28//5
f 31//6 27//6 32//6
f 32//7 27//7 25//7
f 27//8 29//8 26//8
f 29//9 31//9 28//9
f 31//10 32//10 30//10
f 25//5 26//5 30//5
f 29//6 27//6 31//6
