# Blender v2.75 (sub 0) OBJ File: 'tail_d2l_dig_f1.blend'
# www.blender.org
v 5.154089 0.375000 -0.351200
v 5.154089 -0.375000 -0.351200
v 3.785551 -0.374999 -3.157122
v 5.714449 0.375000 -0.342878
v 5.714449 -0.375000 -0.342878
v 4.345911 0.375001 -3.148800
v 4.345911 -0.374999 -3.148800
v 3.785551 0.375001 -3.157122
v -7.125000 0.374999 3.375001
v -7.125000 -0.375001 3.375001
v -4.375000 -0.375001 3.375001
v -7.125000 0.374999 3.875001
v -7.125000 -0.375001 3.875001
v -4.375000 0.374999 3.875001
v -4.375000 -0.375001 3.875001
v -4.375000 0.374999 3.375001
v -0.375000 0.375002 -5.750000
v -3.125000 -0.375000 -5.750000
v -0.375000 -0.374998 -5.750000
v -0.375000 0.375002 -5.250000
v -0.375000 -0.374998 -5.250000
v -3.125000 0.375000 -5.250000
v -3.125000 -0.375000 -5.250000
v -3.125000 0.375000 -5.750000
v 0.601199 0.375001 -5.029090
v 3.407122 -0.374999 -3.660550
v 0.601199 -0.374999 -5.029090
v 0.592877 0.375001 -5.589450
v 0.592877 -0.374999 -5.589450
v 3.398802 0.375001 -4.220911
v 3.398802 -0.374999 -4.220911
v 3.407122 0.375001 -3.660550
v -4.351199 0.375001 -5.029090
v -4.351199 -0.374999 -5.029090
v -7.157122 -0.374999 -3.660550
v -4.342877 0.375001 -5.589450
v -4.342877 -0.374999 -5.589450
v -7.148802 0.375001 -4.220911
v -7.148802 -0.374999 -4.220911
v -7.157122 0.375001 -3.660550
v 1.000000 0.374999 7.250000
v 1.000000 -0.375001 7.250000
v 1.000000 -0.375001 7.750000
v -1.000000 0.374999 7.250000
v -1.000000 -0.375001 7.250000
v -1.000000 0.374999 7.750000
v -1.000000 -0.375001 7.750000
v 1.000000 0.374999 7.750000
v 3.660550 -0.375001 3.657122
v 5.029090 -0.375000 0.851200
v 5.029090 0.375000 0.851200
v 5.589450 -0.375000 0.842878
v 5.589450 0.375000 0.842878
v 4.220910 -0.375001 3.648800
v 4.220910 0.374999 3.648800
v 3.660550 0.374999 3.657122
v -3.154090 0.374999 4.851200
v -3.154090 -0.375001 4.851200
v -1.785550 -0.375001 7.657122
v -3.714450 0.374999 4.842878
v -3.714450 -0.375001 4.842878
v -2.345910 0.374999 7.648800
v -2.345910 -0.375001 7.648800
v -1.785550 0.374999 7.657122
v 1.785550 -0.375001 7.657122
v 3.154090 -0.375001 4.851200
v 3.154090 0.374999 4.851200
v 3.714450 -0.375001 4.842878
v 3.714450 0.374999 4.842878
v 2.345910 -0.375001 7.648800
v 2.345910 0.374999 7.648800
v 1.785550 0.374999 7.657122
vn -0.898800 0.000000 0.438400
vn -0.014800 -0.000000 0.999900
vn 0.898800 0.000000 -0.438400
vn 0.014900 0.000000 -0.999900
vn 0.000000 -1.000000 -0.000000
vn -0.000000 1.000000 0.000000
vn 0.014800 0.000000 -0.999900
vn 0.000000 0.000000 -1.000000
vn -1.000000 0.000000 0.000000
vn 0.000000 0.000000 1.000000
vn 1.000000 0.000000 0.000000
vn -0.438400 0.000000 0.898800
vn -0.999900 0.000000 0.014800
vn 0.438400 0.000000 -0.898800
vn 0.999900 0.000000 -0.014800
vn 0.438400 0.000000 0.898800
vn 0.999900 0.000000 0.014800
vn -0.438400 0.000000 -0.898800
vn -0.999900 0.000000 -0.014800
vn -0.898800 -0.000000 -0.438400
vn -0.014800 0.000000 -0.999900
vn 0.898800 0.000000 0.438400
vn 0.014900 0.000000 0.999900
vn 0.014800 0.000000 0.999900
vn -0.014900 0.000000 0.999900
vn -0.014900 0.000000 -0.999900
s off
f 1//1 3//1 2//1
f 4//2 2//2 5//2
f 6//3 5//3 7//3
f 8//4 7//4 3//4
f 2//5 7//5 5//5
f 6//6 1//6 4//6
f 8//1 3//1 1//1
f 1//2 2//2 4//2
f 4//3 5//3 6//3
f 6//7 7//7 8//7
f 3//5 7//5 2//5
f 8//6 1//6 6//6
f 9//8 11//8 10//8
f 12//9 10//9 13//9
f 14//10 13//10 15//10
f 16//11 15//11 11//11
f 10//5 15//5 13//5
f 12//6 16//6 9//6
f 16//8 11//8 9//8
f 9//9 10//9 12//9
f 12//10 13//10 14//10
f 14//11 15//11 16//11
f 11//5 15//5 10//5
f 14//6 16//6 12//6
f 25//12 27//12 26//12
f 28//13 29//13 27//13
f 30//14 31//14 29//14
f 32//15 26//15 31//15
f 27//5 29//5 31//5
f 30//6 28//6 25//6
f 32//12 25//12 26//12
f 25//13 28//13 27//13
f 28//14 30//14 29//14
f 30//15 32//15 31//15
f 26//5 27//5 31//5
f 32//6 30//6 25//6
f 33//16 35//16 34//16
f 36//17 34//17 37//17
f 38//18 37//18 39//18
f 40//19 39//19 35//19
f 34//5 39//5 37//5
f 38//6 33//6 36//6
f 40//16 35//16 33//16
f 33//17 34//17 36//17
f 36//18 37//18 38//18
f 38//19 39//19 40//19
f 35//5 39//5 34//5
f 40//6 33//6 38//6
f 41//11 43//11 42//11
f 44//8 42//8 45//8
f 46//9 45//9 47//9
f 48//10 47//10 43//10
f 42//5 47//5 45//5
f 44//6 48//6 41//6
f 48//11 43//11 41//11
f 41//8 42//8 44//8
f 44//9 45//9 46//9
f 46//10 47//10 48//10
f 43//5 47//5 42//5
f 46//6 48//6 44//6
f 49//20 51//20 50//20
f 50//21 53//21 52//21
f 52//22 55//22 54//22
f 54//23 56//23 49//23
f 54//5 50//5 52//5
f 55//6 51//6 56//6
f 56//20 51//20 49//20
f 51//21 53//21 50//21
f 53//22 55//22 52//22
f 55//24 56//24 54//24
f 49//5 50//5 54//5
f 53//6 51//6 55//6
f 57//3 59//3 58//3
f 60//4 58//4 61//4
f 62//1 61//1 63//1
f 64//25 63//25 59//25
f 58//5 63//5 61//5
f 62//6 57//6 60//6
f 64//3 59//3 57//3
f 57//4 58//4 60//4
f 60//1 61//1 62//1
f 62//2 63//2 64//2
f 59//5 63//5 58//5
f 64//6 57//6 62//6
f 65//20 67//20 66//20
f 66//26 69//26 68//26
f 68//22 71//22 70//22
f 70//23 72//23 65//23
f 70//5 66//5 68//5
f 71//6 67//6 72//6
f 72//20 67//20 65//20
f 67//26 69//26 66//26
f 69//22 71//22 68//22
f 71//24 72//24 70//24
f 65//5 66//5 70//5
f 69//6 67//6 71//6
s 1
f 17//8 19//8 18//8
f 20//11 21//11 19//11
f 22//10 23//10 21//10
f 24//9 18//9 23//9
f 19//5 21//5 23//5
f 20//6 17//6 24//6
f 24//8 17//8 18//8
f 17//11 20//11 19//11
f 20//10 22//10 21//10
f 22//9 24//9 23//9
f 18//5 19//5 23//5
f 22//6 20//6 24//6
