# Blender v2.75 (sub 0) OBJ File: 'tail_d2l_f1_projection.blend'
# www.blender.org
v -8.000000 -0.019999 -3.875000
v 3.875000 -0.019995 -3.875000
v 3.875000 0.019999 -3.875000
v -3.875000 0.019997 -3.875000
v -3.875000 0.019995 3.875000
v -8.000000 0.019993 3.875000
v -3.875000 -0.019995 -3.875000
v -3.875000 -0.019999 3.875000
v -8.000000 -0.020001 3.875000
v -8.000000 0.019995 -3.875000
v 1.876953 -0.019995 -3.875000
v 3.875000 -0.019999 -0.000000
v 3.875000 0.019996 0.000000
v -2.345910 0.019999 3.875000
v -2.345910 -0.020000 3.875000
v -0.595910 -0.020001 7.648800
v -0.595910 0.019998 7.648800
v 0.595910 0.019998 7.648800
v -1.964450 -0.020000 4.842878
v -1.964450 0.019999 4.842878
v 3.714449 -0.020000 0.842878
v 2.345909 -0.020000 3.648800
v 2.345909 0.019999 3.648800
v 3.714449 0.019999 0.842878
v 1.964450 -0.020000 4.842878
v 0.595910 -0.020001 7.648800
v 1.964450 0.019999 4.842878
vn 0.000000 0.000000 -1.000000
vn -0.000000 1.000000 0.000000
vn -0.000000 0.000000 1.000000
vn 0.000000 -1.000000 -0.000000
vn -1.000000 0.000000 0.000000
vn 1.000000 0.000000 0.000000
vn -0.898800 0.000000 0.438400
vn 0.898800 0.000000 0.438400
vn 0.952600 0.000000 0.304300
vn -0.930400 0.000000 0.366700
vn 0.982300 0.000000 0.187100
s off
f 3//1 2//1 4//1
f 4//2 6//2 5//2
f 6//3 9//3 5//3
f 7//4 9//4 1//4
f 10//5 9//5 6//5
f 10//2 6//2 4//2
f 15//4 12//4 21//4
f 3//6 13//6 2//6
f 8//4 9//4 7//4
f 1//5 9//5 10//5
f 5//3 9//3 8//3
f 16//3 18//3 17//3
f 17//7 19//7 16//7
f 20//7 19//7 17//7
f 21//8 23//8 22//8
f 24//8 23//8 21//8
f 25//8 18//8 26//8
f 27//8 18//8 25//8
f 27//9 22//9 23//9
f 20//10 15//10 19//10
f 26//3 18//3 16//3
f 13//11 21//11 12//11
f 20//2 27//2 23//2
f 22//4 15//4 21//4
f 25//9 22//9 27//9
f 14//10 15//10 20//10
f 24//11 21//11 13//11
f 23//2 14//2 20//2
f 17//2 18//2 27//2
f 20//2 17//2 27//2
f 19//4 26//4 16//4
f 25//4 26//4 19//4
f 15//4 22//4 19//4
f 19//4 22//4 25//4
f 2//6 13//6 12//6
f 5//3 15//3 14//3
f 14//2 13//2 4//2
f 7//4 12//4 15//4
f 4//1 2//1 1//1
f 2//3 7//3 1//3
f 4//1 1//1 10//1
f 8//3 15//3 5//3
f 4//2 13//2 3//2
f 24//2 14//2 23//2
f 14//2 24//2 13//2
f 7//4 2//4 12//4
f 14//2 4//2 5//2
f 7//4 15//4 8//4
l 7 11
l 11 2
