# Blender v2.75 (sub 0) OBJ File: 'tail_d2l_dig_f2.blend'
# www.blender.org
v -7.125000 0.374999 3.375001
v -7.125000 -0.375001 3.375001
v -4.375000 -0.375001 3.375001
v -7.125000 0.374999 3.875001
v -7.125000 -0.375001 3.875001
v -4.375000 0.374999 3.875001
v -4.375000 -0.375001 3.875001
v -4.375000 0.374999 3.375001
v -0.375000 0.375002 -5.750000
v -3.125000 -0.375000 -5.750000
v -0.375000 -0.374998 -5.750000
v -0.375000 0.375002 -5.250000
v -0.375000 -0.374998 -5.250000
v -3.125000 0.375000 -5.250000
v -3.125000 -0.375000 -5.250000
v -3.125000 0.375000 -5.750000
v 0.601199 0.375001 -5.029090
v 3.407122 -0.374999 -3.660550
v 0.601199 -0.374999 -5.029090
v 0.592877 0.375001 -5.589450
v 0.592877 -0.374999 -5.589450
v 3.398802 0.375001 -4.220911
v 3.398802 -0.374999 -4.220911
v 3.407122 0.375001 -3.660550
v -4.351199 0.375001 -5.029090
v -4.351199 -0.374999 -5.029090
v -7.157122 -0.374999 -3.660550
v -4.342877 0.375001 -5.589450
v -4.342877 -0.374999 -5.589450
v -7.148802 0.375001 -4.220911
v -7.148802 -0.374999 -4.220911
v -7.157122 0.375001 -3.660550
v 3.875000 0.375001 -3.125000
v 3.875000 -0.374999 -3.125000
v 3.875000 -0.375000 -0.375000
v 3.375000 0.375001 -3.125000
v 3.375000 -0.374999 -3.125000
v 3.375000 0.375000 -0.375000
v 3.375000 -0.375000 -0.375000
v 3.875000 0.375000 -0.375000
v -1.404090 0.374999 4.851200
v -1.404090 -0.375001 4.851200
v -0.035550 -0.375001 7.657122
v -1.964450 0.374999 4.842878
v -1.964450 -0.375001 4.842878
v -0.595910 0.374999 7.648800
v -0.595910 -0.375001 7.648800
v -0.035550 0.374999 7.657122
v 1.785549 -0.375001 3.657122
v 3.154089 -0.375000 0.851200
v 3.154089 0.375000 0.851200
v 3.714449 -0.375000 0.842878
v 3.714449 0.375000 0.842878
v 2.345909 -0.375001 3.648800
v 2.345909 0.374999 3.648800
v 1.785549 0.374999 3.657122
v 0.035550 -0.375001 7.657122
v 1.404090 -0.375001 4.851200
v 1.404090 0.374999 4.851200
v 1.964450 -0.375001 4.842878
v 1.964450 0.374999 4.842878
v 0.595910 -0.375001 7.648800
v 0.595910 0.374999 7.648800
v 0.035550 0.374999 7.657122
vn 0.000000 0.000000 -1.000000
vn -1.000000 0.000000 0.000000
vn 0.000000 0.000000 1.000000
vn 1.000000 0.000000 0.000000
vn 0.000000 -1.000000 0.000000
vn 0.000000 1.000000 0.000000
vn -0.438400 0.000000 0.898800
vn -0.999900 0.000000 0.014800
vn 0.438400 0.000000 -0.898800
vn 0.999900 0.000000 -0.014800
vn 0.438400 0.000000 0.898800
vn 0.999900 0.000000 0.014800
vn -0.438400 0.000000 -0.898800
vn -0.999900 0.000000 -0.014800
vn 0.898800 0.000000 -0.438400
vn 0.014900 0.000000 -0.999900
vn -0.898800 0.000000 0.438400
vn -0.014900 0.000000 0.999900
vn -0.014800 0.000000 0.999900
vn -0.898800 -0.000000 -0.438400
vn -0.014800 0.000000 -0.999900
vn 0.898800 0.000000 0.438400
vn 0.014900 0.000000 0.999900
vn 0.014800 0.000000 0.999900
vn -0.014900 0.000000 -0.999900
s off
f 1//1 3//1 2//1
f 4//2 2//2 5//2
f 6//3 5//3 7//3
f 8//4 7//4 3//4
f 2//5 7//5 5//5
f 4//6 8//6 1//6
f 8//1 3//1 1//1
f 1//2 2//2 4//2
f 4//3 5//3 6//3
f 6//4 7//4 8//4
f 3//5 7//5 2//5
f 6//6 8//6 4//6
f 17//7 19//7 18//7
f 20//8 21//8 19//8
f 22//9 23//9 21//9
f 24//10 18//10 23//10
f 19//5 21//5 23//5
f 22//6 20//6 17//6
f 24//7 17//7 18//7
f 17//8 20//8 19//8
f 20//9 22//9 21//9
f 22//10 24//10 23//10
f 18//5 19//5 23//5
f 24//6 22//6 17//6
f 25//11 27//11 26//11
f 28//12 26//12 29//12
f 30//13 29//13 31//13
f 32//14 31//14 27//14
f 26//5 31//5 29//5
f 30//6 25//6 28//6
f 32//11 27//11 25//11
f 25//12 26//12 28//12
f 28//13 29//13 30//13
f 30//14 31//14 32//14
f 27//5 31//5 26//5
f 32//6 25//6 30//6
f 41//15 43//15 42//15
f 44//16 42//16 45//16
f 46//17 45//17 47//17
f 48//18 47//18 43//18
f 42//5 47//5 45//5
f 46//6 41//6 44//6
f 48//15 43//15 41//15
f 41//16 42//16 44//16
f 44//17 45//17 46//17
f 46//19 47//19 48//19
f 43//5 47//5 42//5
f 48//6 41//6 46//6
f 49//20 51//20 50//20
f 50//21 53//21 52//21
f 52//22 55//22 54//22
f 54//23 56//23 49//23
f 54//5 50//5 52//5
f 55//6 51//6 56//6
f 56//20 51//20 49//20
f 51//21 53//21 50//21
f 53//22 55//22 52//22
f 55//24 56//24 54//24
f 49//5 50//5 54//5
f 53//6 51//6 55//6
f 57//20 59//20 58//20
f 58//25 61//25 60//25
f 60//22 63//22 62//22
f 62//23 64//23 57//23
f 62//5 58//5 60//5
f 63//6 59//6 64//6
f 64//20 59//20 57//20
f 59//25 61//25 58//25
f 61//22 63//22 60//22
f 63//24 64//24 62//24
f 57//5 58//5 62//5
f 61//6 59//6 63//6
s 1
f 9//1 11//1 10//1
f 12//4 13//4 11//4
f 14//3 15//3 13//3
f 16//2 10//2 15//2
f 11//5 13//5 15//5
f 12//6 9//6 16//6
f 16//1 9//1 10//1
f 9//4 12//4 11//4
f 12//3 14//3 13//3
f 14//2 16//2 15//2
f 10//5 11//5 15//5
f 14//6 12//6 16//6
f 33//4 35//4 34//4
f 36//1 34//1 37//1
f 38//2 37//2 39//2
f 40//3 39//3 35//3
f 34//5 39//5 37//5
f 36//6 40//6 33//6
f 40//4 35//4 33//4
f 33//1 34//1 36//1
f 36//2 37//2 38//2
f 38//3 39//3 40//3
f 35//5 39//5 34//5
f 38//6 40//6 36//6
