# Blender v2.75 (sub 0) OBJ File: 'tail_d2l_f2_projection.blend'
# www.blender.org
v -8.000000 -0.019999 3.875000
v -8.000000 0.019996 3.875000
v -8.000000 -0.019999 -3.875000
v -8.000000 0.019996 -3.875000
v -4.351200 0.019999 2.345910
v -4.351200 -0.020000 2.345910
v -7.157122 -0.020000 3.714450
v -7.157122 0.019999 3.714450
v -0.351200 -0.020001 0.595910
v -0.351200 0.019998 0.595910
v -0.351200 0.019998 -0.595910
v -3.157122 -0.020000 1.964450
v -3.157122 0.019999 1.964450
v -7.157122 -0.020000 -3.714449
v -4.351200 -0.020000 -2.345909
v -4.351200 0.019999 -2.345909
v -7.157122 0.019999 -3.714449
v -3.157122 -0.020000 -1.964450
v -0.351200 -0.020001 -0.595910
v -3.157122 0.019999 -1.964450
vn -1.000000 0.000000 0.000000
vn 0.438400 0.000000 0.898800
vn 1.000000 0.000000 0.000000
vn 0.438400 0.000000 -0.898800
vn 0.304300 0.000000 -0.952600
vn 0.304300 0.000000 0.952600
vn 0.187100 0.000000 -0.982300
vn 0.187100 0.000000 0.982300
vn 0.000000 1.000000 0.000000
vn -0.000000 -1.000000 0.000000
s off
f 2//1 3//1 1//1
f 7//2 6//2 8//2
f 4//1 3//1 2//1
f 9//3 11//3 10//3
f 10//2 12//2 9//2
f 13//2 12//2 10//2
f 14//4 16//4 15//4
f 17//4 16//4 14//4
f 18//4 11//4 19//4
f 20//4 11//4 18//4
f 20//5 15//5 16//5
f 13//6 6//6 12//6
f 19//3 11//3 9//3
f 4//7 14//7 3//7
f 7//8 2//8 1//8
f 13//9 20//9 16//9
f 15//10 6//10 14//10
f 18//5 15//5 20//5
f 5//6 6//6 13//6
f 17//7 14//7 4//7
f 8//8 2//8 7//8
f 16//9 5//9 13//9
f 17//9 2//9 8//9
f 2//9 17//9 4//9
f 10//9 11//9 20//9
f 8//9 16//9 17//9
f 16//9 8//9 5//9
f 13//9 10//9 20//9
f 12//10 19//10 9//10
f 14//10 6//10 7//10
f 18//10 19//10 12//10
f 6//10 15//10 12//10
f 3//10 14//10 1//10
f 1//10 14//10 7//10
f 12//10 15//10 18//10
f 8//2 6//2 5//2
