# Blender v2.75 (sub 0) OBJ File: 'tail_d2u_dig_f1.blend'
# www.blender.org
v -1.000000 -0.375000 7.750000
v -1.000000 0.375000 7.750000
v -1.000000 -0.375000 7.250000
v -1.000000 0.375000 7.250000
v 1.000000 -0.375000 7.750000
v 1.000000 0.375000 7.750000
v 1.000000 -0.375000 7.250000
v 1.000000 0.375000 7.250000
vn -1.000000 0.000000 0.000000
vn 0.000000 0.000000 -1.000000
vn 1.000000 0.000000 0.000000
vn 0.000000 0.000000 1.000000
vn 0.000000 -1.000000 0.000000
vn 0.000000 1.000000 0.000000
s off
f 4//1 3//1 1//1
f 8//2 7//2 3//2
f 6//3 5//3 7//3
f 2//4 1//4 5//4
f 3//5 7//5 5//5
f 8//6 4//6 2//6
f 2//1 4//1 1//1
f 4//2 8//2 3//2
f 8//3 6//3 7//3
f 6//4 2//4 5//4
f 1//5 3//5 5//5
f 6//6 8//6 2//6
v -3.660550 -0.375000 3.657122
v -5.029090 -0.375000 0.851200
v -5.029090 0.375000 0.851200
v -5.589450 -0.375000 0.842878
v -5.589450 0.375000 0.842878
v -4.220910 -0.375000 3.648800
v -4.220910 0.375000 3.648800
v -3.660550 0.375000 3.657122
vn 0.898800 0.000000 -0.438400
vn 0.014800 0.000000 -0.999900
vn -0.898800 0.000000 0.438400
vn -0.014800 -0.000000 0.999900
vn 0.000000 -1.000000 -0.000000
vn -0.000000 1.000000 0.000000
vn -0.014900 0.000000 0.999900
s off
f 9//7 10//7 11//7
f 10//8 12//8 13//8
f 12//9 14//9 15//9
f 14//10 9//10 16//10
f 14//11 12//11 10//11
f 15//12 16//12 11//12
f 16//7 9//7 11//7
f 11//8 10//8 13//8
f 13//9 12//9 15//9
f 15//13 14//13 16//13
f 9//11 14//11 10//11
f 13//12 15//12 11//12
v 3.154090 0.375000 4.851200
v 3.154090 -0.375000 4.851200
v 1.785550 -0.375000 7.657122
v 3.714450 0.375000 4.842878
v 3.714450 -0.375000 4.842878
v 2.345910 0.375000 7.648800
v 2.345910 -0.375000 7.648800
v 1.785550 0.375000 7.657122
vn -0.898800 0.000000 -0.438400
vn -0.014900 0.000000 -0.999900
vn 0.898800 0.000000 0.438400
vn 0.014900 0.000000 0.999900
vn -0.000000 -1.000000 -0.000000
vn 0.000000 1.000000 0.000000
vn -0.014800 0.000000 -0.999900
vn 0.014800 0.000000 0.999900
s off
f 17//14 18//14 19//14
f 20//15 21//15 18//15
f 22//16 23//16 21//16
f 24//17 19//17 23//17
f 18//18 21//18 23//18
f 22//19 20//19 17//19
f 24//14 17//14 19//14
f 17//20 20//20 18//20
f 20//16 22//16 21//16
f 22//21 24//21 23//21
f 19//18 18//18 23//18
f 24//19 22//19 17//19
v 5.029090 0.375000 0.851200
v 5.029090 -0.375000 0.851200
v 3.660550 -0.375000 3.657122
v 5.589450 0.375000 0.842878
v 5.589450 -0.375000 0.842878
v 4.220910 0.375000 3.648800
v 4.220910 -0.375000 3.648800
v 3.660550 0.375000 3.657122
vn -0.898800 0.000000 -0.438400
vn -0.014800 0.000000 -0.999900
vn 0.898800 0.000000 0.438400
vn 0.014800 -0.000000 0.999900
vn -0.000000 -1.000000 -0.000000
vn 0.000000 1.000000 0.000000
vn 0.014900 0.000000 0.999900
s off
f 25//22 26//22 27//22
f 28//23 29//23 26//23
f 30//24 31//24 29//24
f 32//25 27//25 31//25
f 26//26 29//26 31//26
f 30//27 28//27 25//27
f 32//22 25//22 27//22
f 25//23 28//23 26//23
f 28//24 30//24 29//24
f 30//28 32//28 31//28
f 27//26 26//26 31//26
f 32//27 30//27 25//27
v -1.785550 -0.375000 7.657122
v -3.154090 -0.375000 4.851200
v -3.154090 0.375000 4.851200
v -3.714450 -0.375000 4.842878
v -3.714450 0.375000 4.842878
v -2.345910 -0.375000 7.648800
v -2.345910 0.375000 7.648800
v -1.785550 0.375000 7.657122
vn 0.898800 0.000000 -0.438400
vn 0.014900 0.000000 -0.999900
vn -0.898800 0.000000 0.438400
vn -0.014900 0.000000 0.999900
vn 0.000000 -1.000000 -0.000000
vn -0.000000 1.000000 0.000000
vn 0.014800 0.000000 -0.999900
vn -0.014800 0.000000 0.999900
s off
f 33//29 34//29 35//29
f 34//30 36//30 37//30
f 36//31 38//31 39//31
f 38//32 33//32 40//32
f 38//33 36//33 34//33
f 39//34 40//34 35//34
f 40//29 33//29 35//29
f 35//35 34//35 37//35
f 37//31 36//31 39//31
f 39//36 38//36 40//36
f 33//33 38//33 34//33
f 37//34 39//34 35//34
v -5.750000 0.375000 -3.125000
v -5.750000 -0.375000 -3.125000
v -5.750000 -0.375000 -0.375000
v -5.250000 0.375000 -3.125000
v -5.250000 -0.375000 -3.125000
v -5.250000 0.375000 -0.375000
v -5.250000 -0.375000 -0.375000
v -5.750000 0.375000 -0.375000
vn -1.000000 0.000000 0.000000
vn 0.000000 0.000000 -1.000000
vn 1.000000 -0.000000 0.000000
vn 0.000000 -0.000000 1.000000
vn 0.000000 -1.000000 -0.000000
vn 0.000000 1.000000 0.000000
s 1
f 41//37 42//37 43//37
f 44//38 45//38 42//38
f 46//39 47//39 45//39
f 48//40 43//40 47//40
f 42//41 45//41 47//41
f 44//42 41//42 48//42
f 48//37 41//37 43//37
f 41//38 44//38 42//38
f 44//39 46//39 45//39
f 46//40 48//40 47//40
f 43//41 42//41 47//41
f 46//42 44//42 48//42
v 5.250000 0.375000 -3.125000
v 5.250000 -0.375000 -3.125000
v 5.250000 -0.375000 -0.375000
v 5.750000 0.375000 -3.125000
v 5.750000 -0.375000 -3.125000
v 5.750000 0.375000 -0.375000
v 5.750000 -0.375000 -0.375000
v 5.250000 0.375000 -0.375000
vn -1.000000 -0.000000 0.000000
vn 0.000000 0.000000 -1.000000
vn 1.000000 0.000000 0.000000
vn 0.000000 -0.000000 1.000000
vn 0.000000 -1.000000 -0.000000
vn 0.000000 1.000000 0.000000
s 1
f 49//43 50//43 51//43
f 52//44 53//44 50//44
f 54//45 55//45 53//45
f 56//46 51//46 55//46
f 50//47 53//47 55//47
f 52//48 49//48 56//48
f 56//43 49//43 51//43
f 49//44 52//44 50//44
f 52//45 54//45 53//45
f 54//46 56//46 55//46
f 51//47 50//47 55//47
f 54//48 52//48 56//48
v -3.660551 -0.375000 -7.157122
v -3.660551 0.375000 -7.157122
v -5.029090 -0.375000 -4.351200
v -5.029090 0.375000 -4.351200
v -4.220911 -0.375000 -7.148800
v -4.220911 0.375000 -7.148800
v -5.589450 -0.375000 -4.342878
v -5.589450 0.375000 -4.342878
vn 0.898800 0.000000 0.438400
vn 0.014900 0.000000 0.999900
vn -0.898800 0.000000 -0.438400
vn -0.014900 0.000000 -0.999900
vn 0.000000 -1.000000 0.000000
vn 0.000000 1.000000 0.000000
vn 0.014800 0.000000 0.999900
vn -0.014800 0.000000 -0.999900
s off
f 60//49 59//49 57//49
f 64//50 63//50 59//50
f 62//51 61//51 63//51
f 58//52 57//52 61//52
f 59//53 63//53 61//53
f 62//54 64//54 60//54
f 58//49 60//49 57//49
f 60//55 64//55 59//55
f 64//51 62//51 63//51
f 62//56 58//56 61//56
f 57//53 59//53 61//53
f 58//54 62//54 60//54
v 3.660550 -0.375000 -7.157122
v 3.660550 0.375000 -7.157122
v 5.029089 -0.375000 -4.351199
v 5.029089 0.375000 -4.351199
v 4.220910 -0.375000 -7.148802
v 4.220910 0.375000 -7.148802
v 5.589449 -0.375000 -4.342878
v 5.589449 0.375000 -4.342878
vn -0.898800 0.000000 0.438400
vn -0.014800 0.000000 0.999900
vn 0.898800 0.000000 -0.438400
vn 0.014800 0.000000 -0.999900
vn 0.000000 -1.000000 0.000000
vn 0.000000 1.000000 0.000000
s off
f 65//57 67//57 68//57
f 67//58 71//58 72//58
f 71//59 69//59 70//59
f 69//60 65//60 66//60
f 69//61 71//61 67//61
f 70//62 66//62 68//62
f 66//57 65//57 68//57
f 68//58 67//58 72//58
f 72//59 71//59 70//59
f 70//60 69//60 66//60
f 65//61 69//61 67//61
f 72//62 70//62 68//62
